<svg width="56" height="48" viewBox="0 0 56 48" fill="none" xmlns="http://www.w3.org/2000/svg">
<g clip-path="url(#clip0_5434_56227)">
<path d="M20.8186 0.269964C21.0217 0.242017 21.2162 0.292283 21.4009 0.377398L41.4553 11.8891C41.7059 12.0702 41.8733 12.2989 41.8797 12.6215L41.8802 35.7055C41.8338 36.1775 41.5933 36.3132 41.2333 36.5459L21.2739 47.9874L20.7071 48.0001C13.9241 44.2059 7.21011 40.2615 0.450674 36.4151C0.284469 36.2636 0.0990734 36.1161 0.0439491 35.8854C-0.0452974 28.1568 0.0341579 20.4116 0.0040011 12.6766C0.0214783 11.9767 0.728401 11.7341 1.23632 11.4301C7.569 7.63877 14.111 4.18128 20.4522 0.401968C20.5632 0.362714 20.7063 0.285382 20.8185 0.269915L20.8186 0.269964ZM20.8867 5.82126C17.5786 7.68875 14.3035 9.62793 11.0249 11.5497C9.17798 12.6323 7.09575 13.7048 5.35027 14.9096C5.32124 14.9297 5.2246 14.9273 5.16571 14.9705C4.95765 15.1228 4.93625 15.3528 4.90757 15.5962L4.91721 26.8821C4.93567 26.9536 4.98448 26.9609 5.04719 26.9725C5.31581 27.0222 5.78574 26.9934 6.09352 27.028C6.76187 27.1031 7.68738 27.2009 8.32532 27.3579C8.77738 27.4692 8.70815 27.5075 8.98417 27.7733C9.29734 28.075 9.64634 27.9122 10.0329 28.0738C9.85387 27.4849 10.7525 27.9484 10.808 27.7073C10.9081 27.2733 10.1706 27.0622 10.2258 26.6422C10.7127 27.105 11.3532 27.893 12.1031 27.6914C12.1835 27.5803 11.9453 27.2555 11.8742 27.1423C11.4734 26.5034 10.9584 26.1296 10.6539 25.388C10.5069 25.0301 10.3945 24.392 10.3087 23.998C10.1226 23.1434 9.67156 21.2377 9.76369 20.4513C9.83673 19.8277 11.0299 17.8573 11.4914 17.3865C11.6538 17.2209 12.0112 17.0144 12.1286 16.8668C12.2389 16.7282 12.3144 16.3889 12.4122 16.2139C12.9393 15.2707 13.7413 14.6187 14.7163 14.1936C15.2124 13.9773 15.8427 13.7733 16.3691 13.6428C17.8273 13.2811 19.4454 13.1559 20.9418 13.0919C22.4465 13.0276 24.0783 13.0278 25.5146 13.5877C25.8647 13.7241 26.4515 14.0092 26.7818 14.1935C27.5504 14.6226 28.4005 15.275 27.8204 16.2509C27.6762 16.4935 27.5257 16.5115 27.2776 16.562C26.9073 16.6374 26.6432 16.5612 26.2862 16.5893C26.6394 16.7779 26.9936 16.9675 27.3035 17.2246C27.5291 17.4118 27.7544 17.7416 27.9938 17.884C28.1229 17.9607 28.2175 18.0101 28.3797 17.9944L28.2145 18.4345C28.608 18.5222 28.7684 17.4621 29.1436 18.1939C29.3633 18.6221 29.0437 18.8287 28.7651 19.0958C28.7432 19.1168 28.6196 19.1063 28.5721 19.2044C28.4374 19.4833 28.6391 19.6018 28.6991 19.7952C29.0476 20.9199 29.5707 22.4126 29.4833 23.5867C29.4558 23.9555 29.3109 24.2056 29.3956 24.6071C29.5965 25.56 31.1716 26.9536 31.1911 27.7734C31.2106 28.6 30.0799 28.2976 29.9442 28.7889C29.8478 29.1382 30.2814 29.4643 30.2525 29.7488C30.216 30.108 29.6047 30.3158 29.5905 30.3597C29.5223 30.5701 29.7647 30.4634 29.8703 30.5915C29.9169 30.6478 30.0814 31.0519 30.0738 31.1234C30.0439 31.4035 29.5004 31.5577 29.4492 31.8717C29.4181 32.0624 29.6428 32.3721 29.6483 32.6206C29.6565 32.991 29.3901 33.5496 29.091 33.7701C27.9781 34.5903 25.8545 33.3189 24.4798 33.677C23.3372 33.9746 22.3464 35.9124 22.2621 37.0227C22.2388 37.3295 22.3094 38.2951 22.4994 38.5244C22.5508 38.5865 23.6024 38.9721 23.7781 39.0362C24.3412 39.2414 25.0236 39.4895 25.5964 39.642C25.7841 39.6919 25.9848 39.7909 26.1767 39.7267L36.6061 33.6823C36.8033 33.5486 36.9653 33.3346 36.9741 33.0863L36.9762 15.4307C36.9321 14.9599 36.81 14.9641 36.4783 14.7443C34.649 13.5325 32.5816 12.5351 30.6934 11.4395C27.4868 9.5787 24.3017 7.62649 21.0521 5.82122L20.9419 5.76615L20.8868 5.82122L20.8867 5.82126ZM28.4901 24.3273C28.4808 24.3127 28.4961 24.2759 28.4907 24.2473C28.7231 24.0172 29.2901 23.535 28.7651 23.3096C28.1309 23.0373 27.5961 23.1424 26.9601 23.3226C26.5788 23.4307 26.1691 23.5734 25.8454 23.8055C26.4742 23.756 27.0273 23.5497 27.6837 23.6195C28.0727 23.6609 28.2653 23.7224 27.9107 24.0527C27.6662 24.2805 27.165 24.4749 26.9161 24.6554C26.8228 24.723 26.799 24.9105 26.7736 24.926C26.7079 24.9659 26.4045 24.9115 26.2861 24.99C26.349 25.3757 26.8198 25.2592 27.0234 25.3279C27.0937 25.3516 27.0943 25.4538 27.1249 25.4728C27.2411 25.5451 27.4651 25.3659 27.2789 25.7895L26.782 25.9252C27.0904 25.9847 28.0266 26.0885 28.1025 25.6765C28.1465 25.4376 28.0394 25.0328 28.1324 24.8251C28.2165 24.6375 28.6281 24.5916 28.6546 24.4654C28.6802 24.3428 28.4996 24.3422 28.4901 24.3273L28.4901 24.3273ZM6.2869 27.3579C5.9983 27.3745 5.56553 27.4217 5.28408 27.4843C5.08204 27.5292 4.79609 27.533 4.93792 27.7994C5.38454 27.6156 5.81222 27.5345 6.2869 27.4681C6.54465 27.4321 6.8003 27.4081 7.05878 27.3855C7.05878 27.3419 6.37634 27.3528 6.2869 27.3579ZM6.3971 30.5526C6.66479 30.6618 7.15684 30.9412 7.42576 31.094C7.64199 31.2169 7.86597 31.3446 8.04882 31.5166C8.04891 31.5788 7.36632 31.8329 7.25201 31.8755C6.63507 32.1057 5.93402 32.3295 5.29525 32.4804C5.21418 32.4996 5.014 32.4506 4.97038 32.4864C4.92362 32.5248 4.90301 32.9355 4.90957 33.0312C4.91187 33.0647 4.98026 33.4505 4.98746 33.4717C5.01958 33.5665 5.13364 33.6845 5.21261 33.7472C5.38391 33.8832 7.24036 34.9485 7.36344 34.9571C8.28248 34.7361 9.49659 34.7567 10.3586 34.3754C10.9701 34.1049 12.2439 33.1701 12.3915 32.4967C12.4711 32.1336 11.9698 32.7297 11.9072 32.7841C10.4292 34.0676 8.85654 34.564 6.89321 34.5729C6.8915 34.4772 7.02897 34.5108 7.09809 34.4472C7.30156 34.2599 7.29171 34.2169 7.57027 34.0953C7.63999 34.0649 7.70275 34.074 7.77491 34.0775C7.79934 33.7834 7.23336 34.1442 7.16874 34.0774C7.13148 33.6093 7.36265 33.8166 7.49116 33.7392C7.50825 33.729 7.53204 33.568 7.6441 33.4789C8.10125 33.1153 8.98436 32.8654 9.42546 32.506C9.56709 32.3906 9.26126 32.4337 9.37341 32.2623C9.41263 32.2024 10.539 31.8402 10.694 31.7085L10.4752 31.5715C10.8065 31.4375 10.6211 31.0613 10.9695 31.0476L10.86 30.9659C11.0111 30.7734 11.2227 30.6802 11.4654 30.6621C11.4836 30.5587 11.3593 30.6361 11.3117 30.5986C11.1183 30.4458 11.4963 29.8357 11.5628 29.6305C11.5946 29.5321 11.7952 29.0109 11.5501 29.0662C11.5056 29.0763 10.9613 29.499 10.7978 29.5818C10.2413 29.8637 9.47275 30.0604 8.84915 30.0616C8.35851 30.0626 7.87723 29.5144 7.42669 29.2728C7.35482 29.2342 7.2595 29.248 7.22357 29.2306C7.2104 29.2242 7.17471 29.1423 7.09932 29.1094C6.40312 28.8056 5.64979 28.6672 4.90962 28.5145V30.0843C5.34141 30.3025 5.95116 30.3707 6.39714 30.5525L6.3971 30.5526ZM9.62006 35.7853C9.36735 35.8121 9.07865 35.7659 8.82119 35.7853L11.2609 37.23C11.593 37.3568 12.0139 36.8221 12.2384 36.5854C12.8914 35.8973 13.4859 35.1614 14.1913 34.517C14.4145 34.313 14.8348 34.1427 14.8545 33.8587C14.6274 33.9495 14.4743 34.1959 14.2203 34.1874C14.3054 33.9682 14.7413 33.9023 14.6332 33.6368C14.2791 33.5921 13.8811 33.7263 13.5762 33.902C13.4475 33.9763 13.0685 34.335 13.0251 34.3448C12.7745 34.4009 12.7729 34.2929 12.4012 34.4898C11.4433 34.9975 10.8216 35.6581 9.62001 35.7853H9.62006Z" fill="#FEFEFE"/>
<path d="M28.7651 19.0957C29.6565 20.6994 30.5797 22.2882 31.5103 23.8698C31.5918 24.0083 31.729 24.1607 31.7953 24.2733C33.1805 26.6284 34.5375 29.0021 35.9178 31.3607C36.2576 31.9414 36.5952 32.5304 36.9741 33.0863C36.9653 33.3346 36.8033 33.5485 36.6061 33.6823L26.1767 39.7266C25.9847 39.7908 25.7841 39.6919 25.5963 39.6419C25.0236 39.4895 24.3412 39.2414 23.7781 39.0361C23.6024 38.9721 22.5508 38.5865 22.4993 38.5244C22.3093 38.2951 22.2388 37.3295 22.2621 37.0227C22.3464 35.9124 23.3372 33.9745 24.4798 33.6769C25.8544 33.3189 27.9781 34.5903 29.091 33.77C29.3901 33.5496 29.6564 32.9909 29.6483 32.6206C29.6428 32.372 29.4181 32.0624 29.4492 31.8717C29.5004 31.5577 30.0439 31.4035 30.0738 31.1234C30.0814 31.0518 29.9169 30.6478 29.8703 30.5914C29.7646 30.4633 29.5223 30.5701 29.5905 30.3597C29.6047 30.3158 30.216 30.108 30.2525 29.7488C30.2814 29.4642 29.8478 29.1381 29.9442 28.7889C30.0799 28.2975 31.2106 28.5999 31.1911 27.7734C31.1717 26.9536 29.5965 25.56 29.3956 24.6071C29.3109 24.2055 29.4558 23.9555 29.4833 23.5867C29.5707 22.4125 29.0476 20.9198 28.6991 19.7952C28.6391 19.6017 28.4374 19.4833 28.5721 19.2044C28.6196 19.1062 28.7432 19.1167 28.7651 19.0958V19.0957Z" fill="#10118E"/>
<path d="M36.4782 14.7443L31.7953 24.2734C31.729 24.1608 31.5917 24.0083 31.5102 23.8698C30.5797 22.2883 29.6565 20.6994 28.7651 19.0958C29.0436 18.8287 29.3632 18.6221 29.1436 18.1939C28.7683 17.462 28.608 18.5222 28.2144 18.4345L28.3797 17.9944C28.2175 18.0101 28.1228 17.9607 27.9938 17.8839L27.2776 16.562C27.5256 16.5115 27.6762 16.4935 27.8204 16.2509C28.4005 15.2749 27.5504 14.6226 26.7817 14.1935L30.6934 11.4395C32.5815 12.5351 34.6489 13.5326 36.4782 14.7443V14.7443Z" fill="#2766C7"/>
<path d="M36.4782 14.7441C36.8099 14.9639 36.9321 14.9597 36.9761 15.4305L36.974 33.0861C36.5952 32.5302 36.2576 31.9412 35.9177 31.3606C34.5374 29.002 33.1804 26.6282 31.7952 24.2732L36.4782 14.7441Z" fill="#F5C44A"/>
<path d="M14.7163 14.1937C13.7413 14.6188 12.9393 15.2708 12.4122 16.214C12.3144 16.3891 12.239 16.7283 12.1286 16.8669C12.0112 17.0145 11.6538 17.221 11.4914 17.3866C11.0299 17.8574 9.83674 19.8278 9.7637 20.4514C9.67156 21.2379 10.1226 23.1435 10.3087 23.9981C10.2366 24.0693 10.0772 24.2535 10.0333 24.3286L5.35028 14.9098C7.0957 13.705 9.17799 12.6324 11.0249 11.5498L14.7162 14.1937H14.7163Z" fill="#F5C44A"/>
<path d="M5.35033 14.9097L10.0333 24.3285C10.0064 24.3746 9.99722 24.4747 9.95375 24.5502C9.41411 25.4877 8.83486 26.4035 8.32538 27.358C7.68743 27.2009 6.76187 27.1032 6.09358 27.0281C5.78579 26.9935 5.31587 27.0222 5.04725 26.9726C4.98453 26.961 4.93572 26.9536 4.91727 26.8822L4.90762 15.5963C4.93631 15.3529 4.9577 15.1229 5.16577 14.9706C5.22466 14.9274 5.32135 14.9297 5.35033 14.9097Z" fill="#10118E"/>
<path d="M16.3691 13.6428C15.8427 13.7734 15.2124 13.9773 14.7163 14.1936L11.025 11.5497C14.3035 9.62796 17.5787 7.68877 20.8868 5.82129L16.3691 13.6428Z" fill="#10118E"/>
<path d="M30.6934 11.4395L26.7817 14.1936C26.4514 14.0092 25.8646 13.7242 25.5145 13.5877L21.052 5.82129C24.3016 7.62656 27.4868 9.57882 30.6934 11.4395Z" fill="#F5C44A"/>
<path d="M7.22351 29.2305C7.25944 29.2478 7.35476 29.2341 7.42663 29.2726C7.87717 29.5143 8.35845 30.0624 8.84909 30.0615C9.47264 30.0603 10.2412 29.8636 10.7978 29.5817C10.9613 29.4989 11.5056 29.0761 11.5501 29.0661C11.7951 29.0108 11.5945 29.532 11.5627 29.6303C11.4963 29.8355 11.1183 30.4456 11.3116 30.5984C11.3592 30.636 11.4835 30.5586 11.4654 30.6619C11.2227 30.68 11.0111 30.7733 10.8599 30.9658L10.9695 31.0474C10.621 31.0611 10.8063 31.4374 10.4752 31.5714L10.694 31.7084C10.5389 31.8401 9.41257 32.2022 9.37336 32.2621C9.2612 32.4335 9.56703 32.3904 9.4254 32.5058C8.98431 32.8652 8.10119 33.1152 7.64404 33.4788C7.53198 33.5679 7.50819 33.7288 7.4911 33.7391C7.36264 33.8164 7.13147 33.6092 7.16868 34.0773C7.2333 34.1441 7.79933 33.7833 7.77485 34.0774C7.70269 34.0739 7.63993 34.0647 7.57022 34.0952C7.29166 34.2168 7.3015 34.2597 7.09804 34.447C7.02891 34.5107 6.89144 34.477 6.89316 34.5727C8.85653 34.5638 10.4291 34.0674 11.9072 32.7839C11.9698 32.7296 12.471 32.1334 12.3914 32.4965C12.2438 33.1699 10.9701 34.1048 10.3585 34.3753C9.49653 34.7566 8.28238 34.736 7.36338 34.9569C7.2403 34.9484 5.38385 33.8831 5.21255 33.747C5.13354 33.6843 5.01952 33.5663 4.9874 33.4716C4.98021 33.4504 4.91182 33.0646 4.90952 33.0311C5.09658 33.0064 5.20878 32.647 5.29519 32.4802C5.93397 32.3293 6.63506 32.1055 7.25195 31.8753C7.36627 31.8327 8.04886 31.5786 8.04876 31.5164C7.86596 31.3444 7.64194 31.2167 7.4257 31.0938C7.15678 30.941 6.66473 30.6616 6.39704 30.5525L7.22346 29.2305L7.22351 29.2305Z" fill="#2766C7"/>
<path d="M20.9418 13.0919C19.4454 13.1558 17.8272 13.2809 16.369 13.6427L20.8867 5.82118L20.9418 5.76611V13.0919Z" fill="#2766C7"/>
<path d="M21.052 5.82122L25.5146 13.5877C24.0783 13.0278 22.4465 13.0276 20.9418 13.0919V5.76611L21.052 5.82122Z" fill="#10118E"/>
<path d="M9.62004 35.7851C10.8217 35.6578 11.4434 34.9972 12.4012 34.4896C12.7729 34.2927 12.7745 34.4007 13.0251 34.3446C13.0685 34.3348 13.4475 33.9761 13.5763 33.9018C13.8811 33.726 14.2791 33.5918 14.6332 33.6366C14.7414 33.9021 14.3055 33.968 14.2204 34.1872C14.4744 34.1957 14.6274 33.9492 14.8545 33.8584C14.8348 34.1426 14.4146 34.3128 14.1913 34.5167C13.4859 35.1612 12.8914 35.8971 12.2384 36.5852C12.0139 36.8218 11.593 37.3566 11.2609 37.2298L8.82123 35.7851C9.07864 35.7657 9.36733 35.8119 9.62004 35.7851Z" fill="#2766C7"/>
<path d="M10.3088 23.9981C10.3946 24.3921 10.5069 25.0301 10.6539 25.3881C10.9584 26.1297 11.4735 26.5034 11.8743 27.1423C11.9454 27.2557 12.1835 27.5804 12.1032 27.6915C11.3532 27.8931 10.7128 27.1051 10.2258 26.6422C10.1707 27.0623 10.9081 27.2734 10.8081 27.7073C10.7525 27.9484 9.85388 27.485 10.033 28.0739C9.6464 27.9123 9.2974 28.075 8.98423 27.7734C8.70826 27.5076 8.77744 27.4693 8.32538 27.358C8.83486 26.4035 9.41406 25.4877 9.95375 24.5502C9.99722 24.4747 10.0064 24.3746 10.0333 24.3285C10.0772 24.2534 10.2366 24.0691 10.3088 23.998V23.9981Z" fill="#2766C7"/>
<path d="M28.4902 24.3272C28.4996 24.3421 28.6803 24.3428 28.6546 24.4653C28.6282 24.5916 28.2165 24.6374 28.1325 24.825C28.0394 25.0328 28.1466 25.4375 28.1026 25.6764C28.0266 26.0884 27.0904 25.9847 26.7821 25.9252L27.279 25.7895C27.4651 25.3658 27.2412 25.5451 27.1249 25.4728C27.0944 25.4538 27.0937 25.3515 27.0235 25.3279C26.8199 25.2591 26.349 25.3756 26.2862 24.99C26.4045 24.9115 26.708 24.9658 26.7736 24.9259C26.7991 24.9105 26.8229 24.7229 26.9162 24.6554C27.1651 24.4749 27.6663 24.2804 27.9108 24.0527C28.2653 23.7224 28.0728 23.6608 27.6838 23.6194C27.0274 23.5496 26.4743 23.7559 25.8455 23.8054C26.1692 23.5734 26.5788 23.4306 26.9602 23.3225C27.5961 23.1424 28.131 23.0372 28.7651 23.3095C29.2902 23.5349 28.7231 24.0171 28.4907 24.2473C28.4962 24.2759 28.4808 24.3126 28.4902 24.3273L28.4902 24.3272Z" fill="#10118E"/>
<path d="M7.22352 29.2307L6.3971 30.5527C5.95111 30.3708 5.34137 30.3026 4.90958 30.0844V28.5146C5.64974 28.6673 6.40312 28.8057 7.09927 29.1095C7.17467 29.1424 7.21031 29.2243 7.22352 29.2307Z" fill="#10118E"/>
<path d="M27.2776 16.562L27.9938 17.884C27.7544 17.7416 27.5292 17.4118 27.3035 17.2246C26.9936 16.9675 26.6394 16.7779 26.2862 16.5893C26.6433 16.5612 26.9073 16.6373 27.2776 16.562Z" fill="#10118E"/>
<path d="M6.28688 27.3579V27.4681C5.81221 27.5345 5.38453 27.6156 4.93791 27.7994C4.79608 27.533 5.08203 27.5292 5.28407 27.4842C5.56552 27.4216 5.99834 27.3745 6.28688 27.3579Z" fill="#10118E"/>
<path d="M5.29525 32.4806C5.20884 32.6473 5.09664 33.0067 4.90958 33.0314C4.90302 32.9357 4.92363 32.525 4.97038 32.4867C5.014 32.4508 5.21418 32.4997 5.29525 32.4806Z" fill="#10118E"/>
<path d="M6.2869 27.3581C6.37634 27.353 7.05873 27.3421 7.05878 27.3857C6.8003 27.4082 6.54465 27.4323 6.2869 27.4683V27.3581Z" fill="#2766C7"/>
<path d="M25.7008 13.0002C25.2987 12.5982 25.0811 12.0464 25.0412 11.4811L25.0413 2.11857C25.124 0.9994 25.9393 0.111838 27.064 0L53.9572 0.000293668C55.1156 0.133913 55.9401 1.11657 55.951 2.27137C55.8305 5.25489 56.1067 8.35872 55.9512 11.3283C55.8928 12.4425 55.3237 13.2962 54.2199 13.5838C45.1659 13.69 36.0941 13.5976 27.0334 13.6301C26.5825 13.5948 26.0181 13.3176 25.7008 13.0002ZM47.9689 2.26643C44.8575 2.48614 42.8941 5.44905 43.7325 8.43032C45.0012 12.9412 51.6051 13.006 52.9598 8.52312C53.9741 5.1664 51.4635 2.01965 47.9689 2.26643ZM29.7699 7.91229C30.5844 7.89771 31.3799 7.98341 32.1734 7.76585C33.6327 7.36582 34.3578 6.12214 34.0833 4.63511C33.8058 3.13182 32.4411 2.57101 31.0539 2.50318C30.023 2.45276 28.9504 2.54346 27.9154 2.50445V11.5896H29.77V7.91224L29.7699 7.91229ZM43.1534 11.5896L40.3416 7.58754C40.6471 7.39593 40.9661 7.21522 41.2053 6.93795C41.9047 6.12713 41.9767 4.77132 41.4474 3.85468C40.3789 2.00399 37.5687 2.61301 35.7972 2.50445V11.5896H37.6208V7.95859C37.6208 7.95531 37.6638 7.91224 37.6671 7.91224H38.5635L41.0052 11.5896H43.1534V11.5896Z" fill="#F5C44A"/>
<path d="M47.9689 2.26655C51.4636 2.01977 53.9741 5.16652 52.9598 8.52324C51.6051 13.0061 45.0012 12.9414 43.7325 8.43044C42.894 5.44917 44.8575 2.48626 47.9689 2.26655ZM48.0308 3.99713C44.4646 4.3162 44.6059 10.1659 48.3928 10.1395C52.3409 10.1119 52.224 3.62197 48.0308 3.99713Z" fill="#171716"/>
<path d="M43.1534 11.5894H41.0052L38.5634 7.91205H37.6671C37.6638 7.91205 37.6208 7.95512 37.6208 7.9584V11.5894H35.7971V2.50426C37.5688 2.61282 40.3789 2.0038 41.4474 3.85449C41.9767 4.77113 41.9047 6.12689 41.2053 6.93776C40.9661 7.21503 40.6471 7.39569 40.3416 7.58735L43.1534 11.5894ZM38.9034 4.04934C38.5072 4.00235 38.0264 4.08419 37.6208 4.04934V6.39785H38.8417C40.1352 6.39785 40.3409 4.21972 38.9034 4.04934Z" fill="#171716"/>
<path d="M29.7699 7.91206V11.5894H27.9154V2.50426C28.9504 2.54327 30.023 2.45258 31.0539 2.50299C32.441 2.57083 33.8057 3.13164 34.0832 4.63492C34.3577 6.12196 33.6326 7.36564 32.1734 7.76566C31.3798 7.98317 30.5843 7.89752 29.7699 7.91211L29.7699 7.91206ZM29.7699 6.39786H31.1763C31.7511 6.39786 32.2111 5.85433 32.2436 5.30209C32.2769 4.73633 31.8508 4.04935 31.2381 4.04935H29.7699V6.39786Z" fill="#171716"/>
<path d="M48.0308 3.9971C52.2239 3.62194 52.3409 10.1119 48.3928 10.1395C44.6059 10.1659 44.4646 4.31617 48.0308 3.9971Z" fill="#F5C44A"/>
<path d="M38.9035 4.04964C40.3409 4.22001 40.1352 6.39815 38.8416 6.39815H37.6207V4.04964C38.0263 4.08449 38.5073 4.00265 38.9035 4.04964Z" fill="#F5C44A"/>
<path d="M29.7699 6.39831V4.0498H31.2381C31.8509 4.0498 32.2769 4.73679 32.2436 5.30254C32.2111 5.85478 31.751 6.39831 31.1763 6.39831H29.7699Z" fill="#F5C44A"/>
</g>
<defs>
<clipPath id="clip0_5434_56227">
<rect width="56" height="48" fill="white"/>
</clipPath>
</defs>
</svg>
