<svg width="384" height="151" viewBox="0 0 384 151" fill="none" xmlns="http://www.w3.org/2000/svg">
<path fill-rule="evenodd" clip-rule="evenodd" d="M216.001 140.949C216.001 140.949 224.766 125.75 227.616 125.75C230.466 125.75 227.616 143.799 227.616 143.799L216.001 140.949Z" fill="#972C2C"/>
<path d="M226.453 130.318L220.753 140.711" stroke="#D47575"/>
<path fill-rule="evenodd" clip-rule="evenodd" d="M212.125 146.649C212.125 146.649 208.483 128.6 210.304 128.6C212.125 128.6 225.503 146.649 225.503 146.649H212.125Z" fill="#A34040"/>
<path fill-rule="evenodd" clip-rule="evenodd" d="M218.851 146.648C218.851 146.648 231.74 128.599 235 130.499C238.259 132.399 233.824 146.648 233.824 146.648H218.851Z" fill="#A34040"/>
<path d="M233.826 134.775L226.452 146.649" stroke="#D47575"/>
<path d="M212.128 134.775L218.856 146.649" stroke="#D47575"/>
<path fill-rule="evenodd" clip-rule="evenodd" d="M375.843 147.081C382.475 140.346 387.78 123.851 378.685 123.851C369.591 123.851 361.289 135.168 356.551 130.541C351.814 125.914 340.786 122.546 340.786 128.8C340.786 135.054 345.524 147.081 345.524 147.081C345.524 147.081 369.211 153.816 375.843 147.081Z" fill="#E19090"/>
<path fill-rule="evenodd" clip-rule="evenodd" d="M368.68 140.949C368.68 140.949 359.915 125.75 357.065 125.75C354.216 125.75 357.065 143.798 357.065 143.798L368.68 140.949Z" fill="#972C2C"/>
<path d="M358.228 130.318L363.928 140.71" stroke="#D47575"/>
<path fill-rule="evenodd" clip-rule="evenodd" d="M372.556 146.648C372.556 146.648 376.198 128.6 374.377 128.6C372.556 128.6 359.178 146.648 359.178 146.648H372.556Z" fill="#A34040"/>
<path fill-rule="evenodd" clip-rule="evenodd" d="M365.827 146.647C365.827 146.647 352.938 128.599 349.679 130.499C346.419 132.399 350.855 146.647 350.855 146.647H365.827Z" fill="#A34040"/>
<path d="M350.855 134.774L358.229 146.648" stroke="#D47575"/>
<path d="M372.553 134.774L365.825 146.648" stroke="#D47575"/>
<path fill-rule="evenodd" clip-rule="evenodd" d="M191.943 146C191.943 146 188.807 137.352 198.216 127.526C207.624 117.699 221.737 81.5372 206.84 69.7453C191.943 57.9534 173.518 65.4541 169.99 53.8424C166.462 42.2308 161.757 12.3578 139.412 20.6122C117.067 28.8666 106.482 34.3695 92.7612 25.722C79.0404 17.0746 66.4956 31.225 59.8312 55.595C53.1668 79.965 53.5588 98.439 35.9177 101.977C18.2766 105.514 15.1404 116.127 15.1404 125.561C15.1404 134.994 0.2435 146 0.2435 146H191.943Z" fill="#D8E5E8"/>
<path fill-rule="evenodd" clip-rule="evenodd" d="M112.165 117.156C112.165 117.156 161.594 72.9828 170.65 78.3685C179.707 83.7541 146.288 131.387 146.288 131.387L119.901 137.966L112.165 117.156Z" fill="url(#paint0_linear)"/>
<path d="M169.776 93.1551L130.175 136.151" stroke="#D47575"/>
<path fill-rule="evenodd" clip-rule="evenodd" d="M151.393 23.0524L175.174 16.1705C175.174 16.1705 175.237 13.1847 174.867 11.7911C174.497 10.3975 173.014 8.03736 173.014 8.03736L150.158 14.2936L151.393 23.0524Z" fill="#447F8D"/>
<path fill-rule="evenodd" clip-rule="evenodd" d="M154.79 29.4881L179.464 22.325C179.464 22.325 179.527 19.4425 179.154 18.097C178.782 16.7516 177.289 14.473 177.289 14.473L152.303 21.721L154.79 29.4881Z" fill="#6FA0A8"/>
<path fill-rule="evenodd" clip-rule="evenodd" d="M189.14 45.6659L188.067 38.1698C188.067 38.1698 179.479 24.9146 174.87 18.0495C170.261 11.1844 166.322 16.5055 169.202 22.0868C172.083 27.6682 171.728 27.534 171.728 27.534C171.728 27.534 165.939 24.2388 166.659 26.0223C167.38 27.8057 173.404 31.8309 173.404 31.8309L176.355 34.9041L178.641 43.6627L189.14 45.6659Z" fill="#EFF0FA"/>
<path fill-rule="evenodd" clip-rule="evenodd" d="M148.11 55.211C153.796 55.211 178.474 60.4544 179.292 60.4544C180.11 60.4544 177.016 42.1168 176.397 38.9588C175.778 35.8008 185.061 32.6428 186.917 35.8008C188.773 38.9588 195.58 65.642 194.343 69.6995C193.105 73.7571 180.729 74.6302 174.541 74.6302C168.353 74.6302 157.833 74.6302 157.214 78.3283C156.595 82.0263 147.313 115.925 147.313 127.635C147.313 139.346 108.947 131.334 105.853 129.485C102.759 127.635 110.185 65.3851 113.898 57.9891C117.61 50.593 123.798 49.9766 123.798 49.9766C123.798 49.9766 146.694 57.3727 148.11 55.211Z" fill="#191A49"/>
<path fill-rule="evenodd" clip-rule="evenodd" d="M130.771 39.3741C130.483 43.3171 126.673 49.7878 123.25 50.9571C119.827 52.1264 127.763 58.4845 133.133 59.7254C138.503 60.9663 146.863 55.1433 146.863 55.1433C146.863 55.1433 143.228 51.5988 145.456 43.9456C147.683 36.2924 148.889 41.0088 151.901 38.6601C154.913 36.3114 155.571 18.0492 153.793 12.7421C152.014 7.43499 145.252 16.2546 145.252 16.2546L139.728 30.969C139.728 30.969 131.058 35.4311 130.771 39.3741Z" fill="#EFF0FA"/>
<path fill-rule="evenodd" clip-rule="evenodd" d="M143.637 35.734L147.198 27.8572C147.198 27.8572 148.305 23.3201 149.638 24.5615C150.972 25.8029 152.576 21.458 152.576 19.5959C152.576 17.7339 154.534 18.4361 156.025 17.1947C157.516 15.9533 155.765 10.9062 154.431 10.2855C153.098 9.66482 152.305 9.04412 150.972 6.56134C149.638 4.07856 144.304 -0.936068 139.636 1.57125C134.969 4.07856 134.969 2.21648 130.968 2.21648C126.967 2.21648 120.299 7.18204 120.966 10.2855C121.633 13.389 120.299 15.4142 118.299 17.1947C116.298 18.9752 114.661 22.0787 116.965 23.9408C119.269 25.8029 120.907 29.5271 119.269 31.3891C117.632 33.2512 121.89 40.0789 127.224 39.4582C132.559 38.8375 131.046 36.9754 135.937 38.2168C140.828 39.4582 143.637 35.734 143.637 35.734Z" fill="#A34040"/>
<path fill-rule="evenodd" clip-rule="evenodd" d="M155.183 29.634L165.489 26.295C165.489 26.295 165.37 25.6725 164.997 24.327C164.625 22.9816 155.183 20.883 155.183 20.883H155.156C155.156 20.883 154.172 22.359 154.172 25.803C154.172 29.2471 155.183 29.634 155.183 29.634Z" fill="#6FA0A8"/>
<path fill-rule="evenodd" clip-rule="evenodd" d="M116.201 117.411C116.201 117.411 193.53 76.7643 203.399 86.5194C213.268 96.2746 155.318 146.431 155.318 146.431H119.461L116.201 117.411Z" fill="url(#paint1_linear)"/>
<path d="M193.449 94.8829L129.21 137.167" stroke="#D47575"/>
<path fill-rule="evenodd" clip-rule="evenodd" d="M138.159 146.505C138.159 146.505 82.6416 3.41765 73.6608 14.7996C64.6801 26.1815 82.6416 146.505 82.6416 146.505H138.159Z" fill="url(#paint2_linear)"/>
<path d="M78.7996 29.8306L112.139 146.924" stroke="#EB9B9B"/>
<path fill-rule="evenodd" clip-rule="evenodd" d="M57.6553 147.313C57.6553 147.313 60.0115 80.6341 68.5529 80.6341C77.0943 80.6341 100.752 147.313 100.752 147.313H57.6553Z" fill="url(#paint3_linear)"/>
<path d="M78.7988 146.925L70.6672 94.8829" stroke="#D64848"/>
<defs>
<linearGradient id="paint0_linear" x1="138.748" y1="84.8432" x2="150.114" y2="130.433" gradientUnits="userSpaceOnUse">
<stop stop-color="#B84949"/>
<stop offset="1" stop-color="#9771A4"/>
</linearGradient>
<linearGradient id="paint1_linear" x1="160.518" y1="84.6313" x2="160.518" y2="146.431" gradientUnits="userSpaceOnUse">
<stop stop-color="#B84949"/>
<stop offset="1" stop-color="#9771A4"/>
</linearGradient>
<linearGradient id="paint2_linear" x1="104.413" y1="13.9609" x2="104.413" y2="146.505" gradientUnits="userSpaceOnUse">
<stop stop-color="#B84949"/>
<stop offset="1" stop-color="#9771A4"/>
</linearGradient>
<linearGradient id="paint3_linear" x1="79.2038" y1="80.6341" x2="79.2038" y2="147.313" gradientUnits="userSpaceOnUse">
<stop stop-color="#886AA7"/>
<stop offset="1" stop-color="#D78C94"/>
</linearGradient>
</defs>
</svg>
