<svg width="316" height="206" fill="none" xmlns="http://www.w3.org/2000/svg"><path fill-rule="evenodd" clip-rule="evenodd" d="M109.933 204.874s-1.583-5.46 3.167-11.665c4.751-6.205 11.877-29.039 4.355-36.485-7.522-7.446-16.825-2.71-18.607-10.042-1.781-7.332-4.157-26.195-15.44-20.983s-16.627 8.687-23.555 3.227c-6.928-5.461-13.263 3.475-16.628 18.863s-3.167 27.053-12.075 29.287c-8.907 2.234-10.49 8.935-10.49 14.892 0 5.957-7.523 12.906-7.523 12.906h96.796Z" fill="#D8E5E8"/><path fill-rule="evenodd" clip-rule="evenodd" d="M0 204.874S42.71 94.795 49.62 103.552c6.908 8.756-6.91 101.322-6.91 101.322H0Z" fill="url(#a)"/><path d="m45.667 114.792-25.648 90.082" stroke="#EB9B9B"/><path fill-rule="evenodd" clip-rule="evenodd" d="M61.932 204.874s-1.813-51.296-8.384-51.296c-6.571 0-24.772 51.296-24.772 51.296h33.156Z" fill="url(#b)"/><path d="m45.667 204.874 6.255-40.036" stroke="#D64848"/><path fill-rule="evenodd" clip-rule="evenodd" d="M132.33 42.352s1.491-4.623 4.256-6.989c2.765-2.366 6.605-3.2 11.899-4.14 5.293-.939 4.586 3.297.675 4.465-3.912 1.169-3.689 1.274-3.689 1.274s4.158 1.22 2.998 1.686c-1.159.467-5.765-.534-5.765-.534s-.087-.162-1.554 0c-1.466.163-4.415 7.62-4.415 7.62l-4.405-3.383v.001Z" fill="#D8E5E8"/><path fill-rule="evenodd" clip-rule="evenodd" d="M88.6 194.735s-.855 6.203-.855 8.418c0 2.215 19.237 2.215 23.513.443 4.275-1.772-1.711-4.431-3.421-4.431-1.71 0-8.55-2.054-8.55-5.236s-5.557-4.068-5.557-4.068l-5.13 4.874Z" fill="#fff" stroke="#6FA0A8"/><path fill-rule="evenodd" clip-rule="evenodd" d="M45.962 163.191s-6.203-.855-8.418-.855c-2.216 0-2.216 19.238-.443 23.513 1.772 4.275 4.43-1.71 4.43-3.42s2.055-8.551 5.237-8.551 4.068-5.557 4.068-5.557l-4.874-5.13Z" fill="#fff"/><path fill-rule="evenodd" clip-rule="evenodd" d="M69.414 114.965c-3.063 7.324-2.566 18.429-2.566 23.144 0 4.714-1.865 13.715-3.027 18.858-3.021 3.214-12.801 5.572-17.079 6.857-4.278 1.286-1.485 11.572 2.139 10.287 3.623-1.286 25.453-8.144 26.95-12.43 1.497-4.285 6.182-19.715 7.272-23.572 1.091-3.858 2.14-16.715 2.14-16.715l-5.134-10.715s-7.632-3.039-10.695 4.286Z" fill="#6FA0A8" stroke="#447F8D"/><path fill-rule="evenodd" clip-rule="evenodd" d="m68 103.806-5.344 2.285s-8.121 9-12.295 13.781c-4.174 4.781.553 6.644 4.12 3.4 3.565-3.245 3.536-2.955 3.536-2.955s-1.293 4.947-.114 4.058c1.179-.889 2.967-6.154 2.967-6.154s.705-1.477 1.786-3.374c1.082-1.898 1.46-7.549 1.46-7.549L68 103.806Z" fill="#D8E5E8"/><path fill-rule="evenodd" clip-rule="evenodd" d="M85.079 58.491c-4.066 3.128-21.403 25.105-21.827 26.991-.425 1.887-5.092 22.778-5.517 24.523-.424 1.744 6.79 5.2 7.639 2.6.848-2.6 5.926-22.013 7.214-23.296 1.287-1.283 11.033-12.634 12.73-14.772 1.697-2.139 3.514-19.8-.24-16.046h.001Z" fill="#101136"/><path fill-rule="evenodd" clip-rule="evenodd" d="m83.528 106.66 6.797.922s11.47 4.879 11.47 7.983c0 3.105 6.372 42.202 5.947 47.457-.424 5.255-8.071 27.891-8.071 30.577 0 2.687-12.744 3.966-12.744 0s7.646-27.473 8.071-31.464c.425-3.992-11.47-29.716-11.47-31.047 0-1.33-7.221-3.548-8.92-5.322" fill="#6FA0A8"/><path d="m83.528 106.66 6.797.922s11.47 4.879 11.47 7.983c0 3.105 6.372 42.202 5.947 47.457-.424 5.255-8.071 27.891-8.071 30.577 0 2.687-12.744 3.966-12.744 0s7.646-27.473 8.071-31.464c.425-3.992-11.47-29.716-11.47-31.047 0-1.33-7.221-3.548-8.92-5.322" stroke="#447F8D"/><path fill-rule="evenodd" clip-rule="evenodd" d="M95.064 49.476c-.3 2.722-3.061 7.125-5.417 7.868-2.357.744 3.345 7.447 6.942 9.19 3.597 1.742 8.457-1.63 8.457-1.63s-1.848-6.735-.13-11.986c1.717-5.252 2.41-1.966 4.519-3.534 2.108-1.567 3.044-14.186 1.978-17.89-1.066-3.705-5.895 2.267-5.895 2.267l-4.145 10.072s-6.008 2.921-6.309 5.643Z" fill="#D8E5E8"/><path fill-rule="evenodd" clip-rule="evenodd" d="M110.428 28.599c.847 2.552-.654 12.613-1.313 11.75-.659-.862-1.977-2.586-2.258-.068-.281 2.518-.677 3.348-1.664 5.424-.987 2.075-8.235 7.827-14.28 5.461-6.309-2.47-6.124-15.99-3.865-20.33 2.26-4.34 8.7-9.421 15.709-7.945 7.01 1.477 6.823 3.155 7.671 5.708Z" fill="#A34040"/><path fill-rule="evenodd" clip-rule="evenodd" d="M106.261 63.463c3.991 1.062 4.975 16.084 3.432 21.133-1.544 5.05-5.617 13.542-6.943 18.317-1.325 4.776 1.379 14.65-3.502 17.159-4.88 2.508-14.23-3.528-19.987-6.949-5.757-3.42-10.099.809-5.457-6.125 4.642-6.935 6.72-22.86 6.767-27.92.046-5.061.506-8.344 2.16-13.63 1.654-5.285 4.63-9.004 8.394-9.236 2.85 2.534 11.431 6.203 15.136 7.251Z" fill="#191A49"/><path fill-rule="evenodd" clip-rule="evenodd" d="M94.734 77.282c-.953 5.694 4.544 9.964 10.48 5.22 1.621-1.297 3.943 4.482 5.709 1.285 4.169-7.549 14.977-15.942 17.054-18.873 2.859-4.033 10.699-20.09 12.128-23.78 1.429-3.69-5.764 1.31-6.309-1.063-.545-2.372-11.433 15.387-12.386 16.81-.952 1.423-25.723 14.708-26.676 20.401Z" fill="#191A49"/><path fill-rule="evenodd" clip-rule="evenodd" d="M77.145 200.211s8.16-14.104 10.814-14.104c2.653 0 0 16.748 0 16.748l-10.814-2.644Z" fill="#972C2C"/><path d="m86.874 190.347-5.307 9.644" stroke="#D47575"/><path fill-rule="evenodd" clip-rule="evenodd" d="M73.534 205.5s-3.39-16.748-1.695-16.748 14.15 16.748 14.15 16.748H73.534Z" fill="#A34040"/><path fill-rule="evenodd" clip-rule="evenodd" d="M79.798 205.5s12-16.748 15.035-14.985c3.035 1.763-1.095 14.985-1.095 14.985h-13.94Z" fill="#A34040"/><path d="m73.534 194.481 6.264 11.019m13.941-11.019L86.874 205.5l6.865-11.019Z" stroke="#D47575"/><path fill-rule="evenodd" clip-rule="evenodd" d="M129.229 180.42s3.98-6.824 5.274-6.824c1.295 0 0 8.104 0 8.104l-5.274-1.28Z" fill="#972C2C"/><path d="m133.975 175.648-2.589 4.666" stroke="#D47575"/><path fill-rule="evenodd" clip-rule="evenodd" d="M127.467 182.446s-1.654-7.57-.827-7.57 6.903 8.104 6.903 8.104l-6.076-.534Z" fill="#A34040"/><path fill-rule="evenodd" clip-rule="evenodd" d="M130.524 182.98s5.854-8.104 7.334-7.251c1.481.853-.858 7.251-.858 7.251h-6.476Z" fill="#A34040"/><path d="M125.739 182.979s.866-1.045 3.256-.42c2.391.626 6.067 1.046 8.63-.205 2.563-1.251 4.379 0 4.379 0m-4.681-4.706-3.349 5.332 3.349-5.332Zm-9.855 0 3.056 5.332-3.056-5.332Z" stroke="#D47575"/><path fill-rule="evenodd" clip-rule="evenodd" d="M242.036 198.278c4.72.91 7.862-15.299 1.872-15.299-5.989 0-11.456 7.454-14.576 4.406-3.12-3.047-10.382-5.265-10.382-1.146 0 4.118 3.12 12.039 3.12 12.039s15.247-.911 19.966 0Z" fill="#E19090"/><path fill-rule="evenodd" clip-rule="evenodd" d="M237.317 194.239s-5.772-10.009-7.648-10.009c-1.877 0 0 11.886 0 11.886l7.648-1.877Z" fill="#972C2C"/><path d="m230.436 187.239 3.753 6.844" stroke="#D47575"/><path fill-rule="evenodd" clip-rule="evenodd" d="M239.871 197.993s2.399-11.886 1.199-11.886c-1.199 0-9.609 11.26-9.609 11.26l8.41.626Z" fill="#A34040"/><path fill-rule="evenodd" clip-rule="evenodd" d="M235.44 197.367s-8.488-11.26-10.634-10.009c-2.147 1.251.774 10.009.774 10.009h9.86Z" fill="#A34040"/><path d="m239.871 190.173-4.031 7.194m-10.26-7.194 4.63 7.116-4.63-7.116Z" stroke="#D47575"/><path d="M222.078 198.071s6.255-.938 11.885-.625c5.631.312 11.261 1.876 14.389.625" stroke="#E19090" stroke-linecap="round"/><path d="m251.472 46.101 51.928-14.87-46.499-5.901-5.429 20.771Z" fill="#EFF0FA"/><path d="m251 14 52.164 17.23-46.027-5.9L251 14Z" fill="#EFF0FA"/><path d="m263.981 48.698-1.411-5.812 40.358-11.655-38.947 17.467Z" fill="#AAAEE1"/><path d="m257.037 25.33 45.319 5.9" stroke="#8A92D9" stroke-linecap="round"/><path d="M156 39.454c24.722 22.631 44.5 14.889 53.939 5.36 9.44-9.53-37.757-11.911-22.025 11.911s44.95 13.102 57.086 1.787" stroke="#8A92D9" stroke-linecap="round" stroke-linejoin="round" stroke-dasharray="4 4"/><defs><linearGradient id="a" x1="25.961" y1="102.906" x2="25.961" y2="204.874" gradientUnits="userSpaceOnUse"><stop stop-color="#B84949"/><stop offset="1" stop-color="#9771A4"/></linearGradient><linearGradient id="b" x1="58.178" y1="204.874" x2="45.667" y2="163.274" gradientUnits="userSpaceOnUse"><stop stop-color="#B84949"/><stop offset="1" stop-color="#9771A4"/></linearGradient></defs></svg>
