<svg width="316" height="206" fill="none" xmlns="http://www.w3.org/2000/svg"><path fill-rule="evenodd" clip-rule="evenodd" d="M88.753 204.93s-1.235-4.26 2.47-9.101c3.706-4.841 9.264-22.656 3.397-28.466-5.867-5.809-13.124-2.114-14.513-7.834-1.39-5.721-3.243-20.437-12.044-16.371-8.8 4.067-12.97 6.778-18.373 2.518-5.404-4.261-10.345 2.711-12.97 14.716-2.625 12.006-2.47 21.107-9.418 22.85-6.948 1.743-8.184 6.971-8.184 11.619 0 4.647-5.867 10.069-5.867 10.069h75.502Z" fill="#D8E5E8"/><path d="M245.984 22H112.001a4 4 0 0 0-4 4v21.659a4 4 0 0 0 4 4h133.983a4 4 0 0 0 4-4V26a4 4 0 0 0-4-4Z" fill="#ABB3E1"/><path d="M216.838 30.897H115.903a2.224 2.224 0 0 0-2.224 2.224v.001c0 1.228.996 2.224 2.224 2.224h100.935a2.224 2.224 0 0 0 2.224-2.224v-.001a2.224 2.224 0 0 0-2.224-2.224ZM182.191 38.311h-66.288a2.224 2.224 0 0 0-2.224 2.224v.001c0 1.228.996 2.224 2.224 2.224h66.288a2.224 2.224 0 0 0 2.224-2.224v-.001a2.224 2.224 0 0 0-2.224-2.224Z" fill="#EFF0FA"/><path fill-rule="evenodd" clip-rule="evenodd" d="M234.811 41.246a4.419 4.419 0 1 0 0-8.837 4.419 4.419 0 0 0 0 8.837Z" fill="#8A92D9"/><path fill-rule="evenodd" clip-rule="evenodd" d="M234.813 38.723a1.894 1.894 0 1 0 0-3.788 1.894 1.894 0 0 0 0 3.788Z" fill="#EFF0FA"/><path d="M245.984 58.6H112.001a4 4 0 0 0-4 4v21.659a4 4 0 0 0 4 4h133.983a4 4 0 0 0 4-4V62.6a4 4 0 0 0-4-4Z" fill="#D8E5E8"/><path d="M216.838 67.497H115.903a2.224 2.224 0 0 0-2.224 2.224v.001c0 1.228.996 2.224 2.224 2.224h100.935a2.224 2.224 0 0 0 2.224-2.224v-.001a2.224 2.224 0 0 0-2.224-2.224ZM182.191 74.911h-66.288a2.224 2.224 0 0 0-2.224 2.224v.001c0 1.228.996 2.224 2.224 2.224h66.288a2.224 2.224 0 0 0 2.224-2.224v-.001a2.224 2.224 0 0 0-2.224-2.224Z" fill="#fff"/><path fill-rule="evenodd" clip-rule="evenodd" d="M234.811 77.846a4.418 4.418 0 1 0 0-8.837 4.418 4.418 0 0 0 0 8.837Z" fill="#6FA0A8"/><path fill-rule="evenodd" clip-rule="evenodd" d="M234.813 75.322a1.894 1.894 0 1 0 0-3.788 1.894 1.894 0 0 0 0 3.788Z" fill="#fff"/><path d="M245.984 98.354H112.001a4 4 0 0 0-4 4v21.659a4 4 0 0 0 4 4h133.983a4 4 0 0 0 4-4v-21.659a4 4 0 0 0-4-4Z" fill="#D8E5E8"/><path d="M216.838 107.252H115.903a2.224 2.224 0 0 0-2.224 2.224v.001c0 1.228.996 2.224 2.224 2.224h100.935a2.224 2.224 0 0 0 2.224-2.224v-.001a2.224 2.224 0 0 0-2.224-2.224ZM182.191 114.667h-66.288a2.224 2.224 0 0 0-2.224 2.224v.001c0 1.228.996 2.224 2.224 2.224h66.288a2.224 2.224 0 0 0 2.224-2.224v-.001a2.224 2.224 0 0 0-2.224-2.224Z" fill="#fff"/><path fill-rule="evenodd" clip-rule="evenodd" d="M234.811 117.602a4.421 4.421 0 0 0 4.417-4.419 4.421 4.421 0 0 0-4.419-4.417 4.417 4.417 0 1 0 .002 8.836Z" fill="#6FA0A8"/><path fill-rule="evenodd" clip-rule="evenodd" d="M234.813 115.077a1.894 1.894 0 1 0 .001-3.787 1.894 1.894 0 0 0-.001 3.787Z" fill="#fff"/><path fill-rule="evenodd" clip-rule="evenodd" d="M108.154 199.664s8.231-14.227 10.908-14.227c2.676 0 0 16.895 0 16.895l-10.908-2.668Z" fill="#972C2C"/><path d="m117.966 189.713-5.353 9.729" stroke="#D47575"/><path fill-rule="evenodd" clip-rule="evenodd" d="M104.51 204.998s-3.421-16.894-1.71-16.894c1.71 0 14.274 16.894 14.274 16.894H104.51Z" fill="#A34040"/><path fill-rule="evenodd" clip-rule="evenodd" d="M110.829 204.999s12.105-16.894 15.166-15.116c3.061 1.778-1.104 15.116-1.104 15.116h-14.062Z" fill="#A34040"/><path d="m104.509 193.884 6.319 11.115m14.062-11.114-6.925 11.114 6.925-11.114Z" stroke="#D47575"/><path fill-rule="evenodd" clip-rule="evenodd" d="M75.297 194.139s-.862 6.257-.862 8.492c0 2.235 19.405 2.235 23.718.447 4.312-1.788-1.725-4.469-3.45-4.469s-8.625-2.073-8.625-5.283c0-3.209-5.606-4.103-5.606-4.103l-5.175 4.916Z" fill="#fff" stroke="#6FA0A8"/><path fill-rule="evenodd" clip-rule="evenodd" d="M49.76 190.484s-1.74 2.948-2.61 5.97c-.87 3.022-.87 6.019 2.61 6.019s11.31-1.713 14.354-5.995c3.045-4.282-4.784-4.282-4.784-4.282l-1.74 3.426s1.74-3.854 1.74-5.138" fill="#fff"/><path d="M49.76 190.484s-1.74 2.948-2.61 5.97c-.87 3.022-.87 6.019 2.61 6.019s11.31-1.713 14.354-5.995c3.045-4.282-4.784-4.282-4.784-4.282l-1.74 3.426s1.74-3.854 1.74-5.138" stroke="#6FA0A8"/><path fill-rule="evenodd" clip-rule="evenodd" d="M61.316 113.075c-3.15 7.435-2.639 18.707-2.639 23.493 0 4.786-.25 13.052-1.444 18.273-1.195 5.22-8.671 31.759-8.671 35.675 0 3.915 9.675 3.915 10.555 1.305.88-2.61 9.016-26.974 10.556-31.325 1.539-4.35 4.596-20.012 5.717-23.928 1.121-3.916 2.2-16.968 2.2-16.968l-5.279-10.876s-7.846-3.085-10.995 4.351Z" fill="#6FA0A8" stroke="#447F8D"/><path fill-rule="evenodd" clip-rule="evenodd" d="m75.97 107.82 6.942.904s11.714 4.783 11.714 7.827c0 3.044-1.302 28.834-1.736 33.986-.433 5.153-6.073 39.894-6.073 42.528 0 2.634-13.015 3.889-13.015 0s1.735-30.417 2.169-34.331c.434-3.913 0-25.657 0-26.962 0-1.305-7.375-3.479-9.11-5.218" fill="#6FA0A8"/><path d="m75.97 107.82 6.942.904s11.714 4.783 11.714 7.827c0 3.044-1.302 28.834-1.736 33.986-.433 5.153-6.073 39.894-6.073 42.528 0 2.634-13.015 3.889-13.015 0s1.735-30.417 2.169-34.331c.434-3.913 0-25.657 0-26.962 0-1.305-7.375-3.479-9.11-5.218" stroke="#447F8D"/><path fill-rule="evenodd" clip-rule="evenodd" d="M69.536 50.259c-.057 2.73-2.642 7.18-5.15 7.96-2.507.78 4.413 7.408 8.53 9.1 4.117 1.693 9.26-5.985 9.26-5.985s-2.855-2.49-1.499-7.774c1.356-5.284 2.445-2.004 4.598-3.605 2.154-1.6 1.915-14.252.376-17.947-1.54-3.694-6.233 2.357-6.233 2.357l-3.534 10.15s-6.291 3.013-6.348 5.744Z" fill="#EFF0FA"/><path fill-rule="evenodd" clip-rule="evenodd" d="M84.725 28.997c1.165 2.52.55 12.524-.244 11.678-.795-.846-2.383-2.538-2.435-.035-.053 2.502-.396 3.331-1.251 5.405-.855 2.074-7.948 7.394-14.813 5.625-2.767-.713-4.639 2.628-7.815 4.893-3.784 2.698-10.114 1.303-13.48 3.975-6.192 4.917-23.425-5.764-17.215-11.515 6.21-5.75 12.91-15.544 17.762-14.638 4.853.905 12.398-.776 14.572-2.83 2.175-2.055 8.42-9.474 16.104-8.11 7.685 1.363 7.65 3.032 8.815 5.552Z" fill="#A34040"/><path fill-rule="evenodd" clip-rule="evenodd" d="M61.334 59.623C52.09 66.285 43.69 87.324 43.557 93.694c-.133 6.37 21.703 19.433 21.703 19.433l2.743-6.757s-12.92-12.508-14.027-13.373c-1.106-.866 4.106-9.77 6.325-12.227 2.15-2.382 4.157-23.399 1.033-21.147Z" fill="#101136"/><path fill-rule="evenodd" clip-rule="evenodd" d="M81.45 61.795c4.036-2.502 13.326 18.25 11.985 21.94-1.34 3.69-1.975 12.809-1.813 17.898.161 5.089 6.292 14.175 1.922 17.952-4.37 3.778-16.31.253-23.566-1.623-7.255-1.876-10.776-.418-8.118-8.525 2.658-8.106-.081-20.575-1.7-25.61-1.617-5.034-1.27-5.035-1.242-13.21.028-8.175 1.017-11.043 4.948-12.266 3.869 1.763 13.295 3.381 17.585 3.444h-.001Z" fill="#191A49"/><path fill-rule="evenodd" clip-rule="evenodd" d="m122.941 59.61 2.272-4.839s8.532-7.175 13.061-10.859c4.528-3.683 6.089.722 2.993 3.896-3.097 3.173-2.829 3.156-2.829 3.156s4.588-1.03 3.733.025-5.752 2.53-5.752 2.53l-2.626 1.465-3.351 5.44-7.501-.814Z" fill="#EFF0FA"/><path fill-rule="evenodd" clip-rule="evenodd" d="M82.004 61.73c6.09 0 17.036 5.716 22.29 7.448 5.254 1.732 8.319-.566 13.573-6.346s6.13-7.079 7.443-8.81c1.314-1.733 9.632 1.653 7.443 4.68-2.189 3.029-16.199 20.87-21.453 21.735-5.254.867-20.14-1.299-20.14-1.299" fill="#191A49"/><path fill-rule="evenodd" clip-rule="evenodd" d="M0 204.369s43.084-111.04 50.053-102.208c6.97 8.833-6.97 102.208-6.97 102.208H0Z" fill="url(#a)"/><path d="m46.065 113.5-25.872 90.869" stroke="#EB9B9B"/><path fill-rule="evenodd" clip-rule="evenodd" d="M62.474 204.369s-1.829-51.744-8.457-51.744c-6.629 0-24.988 51.744-24.988 51.744h33.445Z" fill="url(#b)"/><path d="m46.066 204.369 6.31-40.386" stroke="#D64848"/><path fill-rule="evenodd" clip-rule="evenodd" d="M146.76 179.701s4.016-6.884 5.321-6.884c1.306 0 0 8.175 0 8.175l-5.321-1.291Z" fill="#972C2C"/><path d="m151.549 174.886-2.611 4.707" stroke="#D47575"/><path fill-rule="evenodd" clip-rule="evenodd" d="M144.984 181.743s-1.668-7.636-.834-7.636 6.963 8.175 6.963 8.175l-6.129-.539Z" fill="#A34040"/><path fill-rule="evenodd" clip-rule="evenodd" d="M148.068 182.282s5.905-8.174 7.398-7.314c1.493.861-.865 7.314-.865 7.314h-6.533Z" fill="#A34040"/><path d="M143.243 182.282s.873-1.055 3.285-.424c2.411.631 6.119 1.055 8.705-.207 2.585-1.262 4.417 0 4.417 0m-4.725-4.747-3.378 5.378 3.378-5.378Zm-9.94 0 3.082 5.378-3.082-5.378Z" stroke="#D47575"/><path fill-rule="evenodd" clip-rule="evenodd" d="M178.644 193.469s6.224-10.555 8.248-10.555c2.023 0 0 12.534 0 12.534l-8.248-1.979Z" fill="#972C2C"/><path d="m186.064 186.087-4.047 7.217" stroke="#D47575"/><path fill-rule="evenodd" clip-rule="evenodd" d="M175.89 196.602s-2.587-11.709-1.293-11.709c1.293 0 10.792 12.535 10.792 12.535l-9.499-.826Z" fill="#A34040"/><path fill-rule="evenodd" clip-rule="evenodd" d="M180.669 197.428s9.153-12.535 11.467-11.216c2.315 1.32-1.341 11.216-1.341 11.216h-10.126Z" fill="#A34040"/><path d="M172.903 197.737s1.377-1.84 5.18-.74c3.803 1.101 9.65 1.841 13.727-.361s6.966 0 6.966 0m-7.476-7.455-5.237 8.247 5.237-8.247Zm-15.41 0 4.778 8.247-4.778-8.247Z" stroke="#D47575"/><path fill-rule="evenodd" clip-rule="evenodd" d="M276.519 39.986a5.104 5.104 0 0 1-3.724 1.607c-2.824 0-5.113-2.274-5.113-5.08 0-2.805 2.289-5.08 5.113-5.08V22c-8.033 0-14.608 6.532-14.608 14.513 0 7.982 6.575 14.514 14.608 14.514 4.22 0 8.033-1.773 10.633-4.595l-6.909-6.446Z" fill="#ABB3E1"/><path fill-rule="evenodd" clip-rule="evenodd" d="M272.701 22v9.434a5.08 5.08 0 0 1 5.08 5.08h9.433c0-7.982-6.532-14.514-14.513-14.514Z" fill="#8A92D9"/><path fill-rule="evenodd" clip-rule="evenodd" d="M277.793 36.513a5.035 5.035 0 0 1-1.939 3.971l5.804 7.388c3.378-2.645 5.555-6.745 5.555-11.359h-9.42Z" fill="#CACFEC"/><path fill-rule="evenodd" clip-rule="evenodd" d="M276.519 109.394a5.097 5.097 0 0 0-3.724-1.607c-2.824 0-5.113 2.274-5.113 5.08s2.289 5.08 5.113 5.08v9.434c-8.033 0-14.608-6.533-14.608-14.514 0-7.981 6.575-14.514 14.608-14.514 4.22 0 8.033 1.774 10.633 4.595l-6.909 6.446Z" fill="#D8E5E8"/><path fill-rule="evenodd" clip-rule="evenodd" d="M272.701 127.382v-9.434a5.08 5.08 0 0 0 5.08-5.079h9.433c0 7.981-6.532 14.513-14.513 14.513Z" fill="#6FA0A8"/><path fill-rule="evenodd" clip-rule="evenodd" d="M277.793 112.868a5.036 5.036 0 0 0-1.939-3.971l5.804-7.388c3.378 2.645 5.555 6.745 5.555 11.359h-9.42Z" fill="#EFF5F6"/><path fill-rule="evenodd" clip-rule="evenodd" d="M268.882 70.27a5.108 5.108 0 0 1 3.723-1.606c2.824 0 5.113 2.275 5.113 5.08 0 2.806-2.289 5.08-5.113 5.08v9.434c8.034 0 14.609-6.533 14.609-14.514 0-7.981-6.575-14.514-14.609-14.514-4.219 0-8.033 1.774-10.633 4.595l6.91 6.446v-.001Z" fill="#D8E5E8"/><path fill-rule="evenodd" clip-rule="evenodd" d="M272.701 88.258v-9.434a5.08 5.08 0 0 1-5.08-5.08h-9.434c0 7.982 6.533 14.514 14.514 14.514Z" fill="#6FA0A8"/><path fill-rule="evenodd" clip-rule="evenodd" d="M267.605 73.745a5.04 5.04 0 0 1 1.939-3.972l-5.803-7.387c-3.378 2.645-5.555 6.745-5.555 11.359h9.419Z" fill="#EFF5F6"/><defs><linearGradient id="a" x1="26.188" y1="101.51" x2="26.188" y2="204.369" gradientUnits="userSpaceOnUse"><stop stop-color="#B84949"/><stop offset="1" stop-color="#9771A4"/></linearGradient><linearGradient id="b" x1="36.601" y1="202.476" x2="60.265" y2="166.823" gradientUnits="userSpaceOnUse"><stop stop-color="#B84949"/><stop offset="1" stop-color="#9771A4"/></linearGradient></defs></svg>
