<svg width="316" height="206" viewBox="0 0 316 206" fill="none" xmlns="http://www.w3.org/2000/svg">
<rect x="16.501" y="0.5" width="299" height="204" stroke="#191A49"/>
<path fill-rule="evenodd" clip-rule="evenodd" d="M88.753 204.93C88.753 204.93 87.5178 200.67 91.2235 195.829C94.9291 190.988 100.487 173.173 94.6203 167.363C88.753 161.554 81.4962 165.249 80.1066 159.529C78.717 153.808 76.8642 139.092 68.0633 143.158C59.2625 147.225 55.0937 149.936 49.6897 145.676C44.2856 141.415 39.3448 148.387 36.72 160.392C34.0952 172.398 34.2496 181.499 27.3016 183.242C20.3535 184.985 19.1183 190.213 19.1183 194.861C19.1183 199.508 13.2511 204.93 13.2511 204.93H88.753Z" fill="#D8E5E8"/>
<rect x="108.001" y="21.9996" width="141.983" height="29.6586" rx="4" fill="#ABB3E1"/>
<rect x="113.679" y="30.897" width="105.383" height="4.44879" rx="2.2244" fill="#EFF0FA"/>
<rect x="113.679" y="38.3112" width="70.7364" height="4.44879" rx="2.2244" fill="#EFF0FA"/>
<path fill-rule="evenodd" clip-rule="evenodd" d="M234.811 41.2462C237.25 41.2462 239.228 39.2685 239.228 36.8289C239.228 34.3893 237.25 32.4117 234.811 32.4117C232.371 32.4117 230.394 34.3893 230.394 36.8289C230.394 39.2685 232.371 41.2462 234.811 41.2462Z" fill="#8A92D9"/>
<path fill-rule="evenodd" clip-rule="evenodd" d="M234.813 38.7227C235.858 38.7227 236.706 37.8752 236.706 36.8296C236.706 35.7841 235.858 34.9365 234.813 34.9365C233.767 34.9365 232.919 35.7841 232.919 36.8296C232.919 37.8752 233.767 38.7227 234.813 38.7227Z" fill="#EFF0FA"/>
<rect x="108.001" y="58.6002" width="141.983" height="29.6586" rx="4" fill="#D8E5E8"/>
<rect x="113.679" y="67.4966" width="105.383" height="4.44879" rx="2.2244" fill="white"/>
<rect x="113.679" y="74.9113" width="70.7364" height="4.44879" rx="2.2244" fill="white"/>
<path fill-rule="evenodd" clip-rule="evenodd" d="M234.811 77.8458C237.25 77.8458 239.228 75.8681 239.228 73.4285C239.228 70.989 237.25 69.0113 234.811 69.0113C232.371 69.0113 230.394 70.989 230.394 73.4285C230.394 75.8681 232.371 77.8458 234.811 77.8458Z" fill="#6FA0A8"/>
<path fill-rule="evenodd" clip-rule="evenodd" d="M234.813 75.3223C235.858 75.3223 236.706 74.4748 236.706 73.4292C236.706 72.3837 235.858 71.5361 234.813 71.5361C233.767 71.5361 232.919 72.3837 232.919 73.4292C232.919 74.4748 233.767 75.3223 234.813 75.3223Z" fill="white"/>
<rect x="108.001" y="98.3541" width="141.983" height="29.6586" rx="4" fill="#D8E5E8"/>
<rect x="113.679" y="107.252" width="105.383" height="4.44879" rx="2.2244" fill="white"/>
<rect x="113.679" y="114.667" width="70.7364" height="4.44879" rx="2.2244" fill="white"/>
<path fill-rule="evenodd" clip-rule="evenodd" d="M234.811 117.602C237.25 117.602 239.228 115.624 239.228 113.184C239.228 110.745 237.25 108.767 234.811 108.767C232.371 108.767 230.394 110.745 230.394 113.184C230.394 115.624 232.371 117.602 234.811 117.602Z" fill="#6FA0A8"/>
<path fill-rule="evenodd" clip-rule="evenodd" d="M234.813 115.077C235.858 115.077 236.706 114.23 236.706 113.184C236.706 112.139 235.858 111.291 234.813 111.291C233.767 111.291 232.919 112.139 232.919 113.184C232.919 114.23 233.767 115.077 234.813 115.077Z" fill="white"/>
<path fill-rule="evenodd" clip-rule="evenodd" d="M108.154 199.664C108.154 199.664 116.385 185.437 119.062 185.437C121.738 185.437 119.062 202.332 119.062 202.332L108.154 199.664Z" fill="#972C2C"/>
<path d="M117.966 189.713L112.613 199.442" stroke="#D47575"/>
<path fill-rule="evenodd" clip-rule="evenodd" d="M104.51 204.998C104.51 204.998 101.089 188.104 102.8 188.104C104.51 188.104 117.074 204.998 117.074 204.998H104.51Z" fill="#A34040"/>
<path fill-rule="evenodd" clip-rule="evenodd" d="M110.829 204.999C110.829 204.999 122.934 188.105 125.995 189.883C129.056 191.661 124.891 204.999 124.891 204.999H110.829Z" fill="#A34040"/>
<path d="M124.89 193.885L117.965 204.999" stroke="#D47575"/>
<path d="M104.509 193.884L110.828 204.999" stroke="#D47575"/>
<path fill-rule="evenodd" clip-rule="evenodd" d="M75.2971 194.139C75.2971 194.139 74.4346 200.396 74.4346 202.631C74.4346 204.866 93.8404 204.866 98.1528 203.078C102.465 201.29 96.4278 198.609 94.7029 198.609C92.9779 198.609 86.0781 196.536 86.0781 193.326C86.0781 190.117 80.4719 189.223 80.4719 189.223L75.2971 194.139Z" fill="white" stroke="#6FA0A8"/>
<path fill-rule="evenodd" clip-rule="evenodd" d="M49.7602 190.484C49.7602 190.484 48.0203 193.432 47.1503 196.454C46.2803 199.476 46.2803 202.473 49.7602 202.473C53.24 202.473 61.0696 200.76 64.1144 196.478C67.1593 192.196 59.3297 192.196 59.3297 192.196L57.5898 195.622C57.5898 195.622 59.3297 191.768 59.3297 190.484" fill="white"/>
<path d="M49.7602 190.484C49.7602 190.484 48.0203 193.432 47.1503 196.454C46.2803 199.476 46.2803 202.473 49.7602 202.473C53.24 202.473 61.0696 200.76 64.1144 196.478C67.1593 192.196 59.3297 192.196 59.3297 192.196L57.5898 195.622C57.5898 195.622 59.3297 191.768 59.3297 190.484" stroke="#6FA0A8"/>
<path fill-rule="evenodd" clip-rule="evenodd" d="M61.3161 113.075C58.1669 120.51 58.6772 131.782 58.6772 136.568C58.6772 141.354 58.4276 149.62 57.233 154.841C56.0383 160.061 48.5615 186.6 48.5615 190.516C48.5615 194.431 58.2374 194.431 59.117 191.821C59.9966 189.211 68.1332 164.847 69.6725 160.496C71.2118 156.146 74.2686 140.484 75.3901 136.568C76.5115 132.652 77.5891 119.6 77.5891 119.6L72.3114 108.724C72.3114 108.724 64.4653 105.639 61.3161 113.075Z" fill="#6FA0A8" stroke="#447F8D"/>
<path fill-rule="evenodd" clip-rule="evenodd" d="M75.9709 107.82L82.9123 108.724C82.9123 108.724 94.6259 113.507 94.6259 116.551C94.6259 119.595 93.3244 145.385 92.8905 150.537C92.4567 155.69 86.8168 190.431 86.8168 193.065C86.8168 195.699 73.8017 196.954 73.8017 193.065C73.8017 189.176 75.5371 162.648 75.9709 158.734C76.4047 154.821 75.9709 133.077 75.9709 131.772C75.9709 130.467 68.5957 128.293 66.8604 126.554" fill="#6FA0A8"/>
<path d="M75.9709 107.82L82.9123 108.724C82.9123 108.724 94.6259 113.507 94.6259 116.551C94.6259 119.595 93.3244 145.385 92.8905 150.537C92.4567 155.69 86.8168 190.431 86.8168 193.065C86.8168 195.699 73.8017 196.954 73.8017 193.065C73.8017 189.176 75.5371 162.648 75.9709 158.734C76.4048 154.821 75.9709 133.077 75.9709 131.772C75.9709 130.467 68.5957 128.293 66.8604 126.554" stroke="#447F8D"/>
<path fill-rule="evenodd" clip-rule="evenodd" d="M69.5356 50.2588C69.4786 52.9891 66.8943 57.4396 64.3867 58.2191C61.8792 58.9985 68.7991 65.6275 72.9158 67.3196C77.0325 69.0116 82.1754 61.3343 82.1754 61.3343C82.1754 61.3343 79.3211 58.8447 80.6772 53.5603C82.0333 48.2759 83.1218 51.5559 85.2755 49.9552C87.4293 48.3546 87.1901 35.7028 85.6508 32.0082C84.1115 28.3137 79.4177 34.3655 79.4177 34.3655L75.8838 44.5142C75.8838 44.5142 69.5927 47.5284 69.5356 50.2588Z" fill="#EFF0FA"/>
<path fill-rule="evenodd" clip-rule="evenodd" d="M84.725 28.997C85.8901 31.5171 85.2748 41.521 84.4806 40.6751C83.6864 39.8291 82.098 38.1372 82.0456 40.6396C81.9932 43.1421 81.6503 43.9715 80.795 46.045C79.9397 48.1186 72.8467 53.4389 65.9823 51.6702C63.2148 50.957 61.3432 54.2979 58.1667 56.5628C54.3828 59.2608 48.0532 57.8659 44.6868 60.5385C38.4946 65.4548 21.2617 54.7738 27.4715 49.0234C33.6812 43.273 40.3815 33.4795 45.2341 34.3846C50.0867 35.2896 57.6321 33.6089 59.8064 31.5545C61.9807 29.5002 68.2253 22.0815 75.91 23.445C83.5947 24.8085 83.5598 26.4768 84.725 28.997Z" fill="#A34040"/>
<path fill-rule="evenodd" clip-rule="evenodd" d="M61.3339 59.623C52.0912 66.285 43.6906 87.3241 43.5575 93.6942C43.4245 100.064 65.2605 113.127 65.2605 113.127L68.0026 106.37C68.0026 106.37 55.0826 93.8623 53.9762 92.9966C52.8698 92.1309 58.0817 83.2275 60.3006 80.7697C62.451 78.3876 64.458 57.3712 61.3339 59.623Z" fill="#101136"/>
<path fill-rule="evenodd" clip-rule="evenodd" d="M81.4506 61.7946C85.4863 59.2928 94.7758 80.0451 93.4352 83.7348C92.0945 87.4245 91.4599 96.5437 91.6216 101.633C91.7832 106.722 97.9136 115.808 93.5438 119.585C89.1741 123.363 77.2336 119.838 69.9785 117.962C62.7234 116.086 59.2016 117.544 61.8598 109.437C64.518 101.331 61.7786 88.862 60.1609 83.8275C58.5431 78.793 58.8907 78.792 58.9181 70.6172C58.9455 62.4425 59.9355 59.5738 63.8664 58.3508C67.7348 60.1143 77.1611 61.7321 81.4506 61.7946Z" fill="#191A49"/>
<path fill-rule="evenodd" clip-rule="evenodd" d="M122.941 59.61L125.213 54.7712C125.213 54.7712 133.745 47.5955 138.274 43.9124C142.802 40.2293 144.363 44.6343 141.267 47.8076C138.17 50.9808 138.438 50.9635 138.438 50.9635C138.438 50.9635 143.026 49.9339 142.171 50.989C141.316 52.0442 136.419 53.5182 136.419 53.5182L133.793 54.9837L130.442 60.4245L122.941 59.61Z" fill="#EFF0FA"/>
<path fill-rule="evenodd" clip-rule="evenodd" d="M82.0044 61.7309C88.0949 61.7309 99.0405 67.4457 104.294 69.178C109.548 70.9102 112.613 68.6121 117.867 62.8323C123.121 57.0524 123.997 55.7533 125.31 54.0211C126.624 52.2888 134.942 55.6745 132.753 58.7027C130.564 61.7309 116.554 79.5713 111.3 80.4374C106.046 81.3035 91.1597 79.1382 91.1597 79.1382" fill="#191A49"/>
<path fill-rule="evenodd" clip-rule="evenodd" d="M0.000102997 204.369C0.000102997 204.369 43.0835 93.3284 50.0529 102.161C57.0222 110.994 43.0835 204.369 43.0835 204.369H0.000102997Z" fill="url(#paint0_linear)"/>
<path d="M46.0654 113.5L20.193 204.369" stroke="#EB9B9B"/>
<path fill-rule="evenodd" clip-rule="evenodd" d="M62.4736 204.369C62.4736 204.369 60.6451 152.625 54.0167 152.625C47.3882 152.625 29.0288 204.369 29.0288 204.369H62.4736Z" fill="url(#paint1_linear)"/>
<path d="M46.0656 204.369L52.376 163.983" stroke="#D64848"/>
<path fill-rule="evenodd" clip-rule="evenodd" d="M146.76 179.701C146.76 179.701 150.776 172.817 152.081 172.817C153.387 172.817 152.081 180.992 152.081 180.992L146.76 179.701Z" fill="#972C2C"/>
<path d="M151.549 174.886L148.938 179.593" stroke="#D47575"/>
<path fill-rule="evenodd" clip-rule="evenodd" d="M144.984 181.743C144.984 181.743 143.316 174.107 144.15 174.107C144.984 174.107 151.113 182.282 151.113 182.282L144.984 181.743Z" fill="#A34040"/>
<path fill-rule="evenodd" clip-rule="evenodd" d="M148.068 182.282C148.068 182.282 153.973 174.108 155.466 174.968C156.959 175.829 154.601 182.282 154.601 182.282H148.068Z" fill="#A34040"/>
<path d="M154.925 176.904L151.547 182.282" stroke="#D47575"/>
<path d="M144.985 176.904L148.067 182.282" stroke="#D47575"/>
<path d="M143.243 182.282C143.243 182.282 144.116 181.227 146.528 181.858C148.939 182.489 152.647 182.913 155.233 181.651C157.818 180.389 159.65 181.651 159.65 181.651" stroke="#D47575"/>
<path fill-rule="evenodd" clip-rule="evenodd" d="M178.644 193.469C178.644 193.469 184.868 182.914 186.892 182.914C188.915 182.914 186.892 195.448 186.892 195.448L178.644 193.469Z" fill="#972C2C"/>
<path d="M186.064 186.087L182.017 193.304" stroke="#D47575"/>
<path fill-rule="evenodd" clip-rule="evenodd" d="M175.89 196.602C175.89 196.602 173.303 184.893 174.597 184.893C175.89 184.893 185.389 197.428 185.389 197.428L175.89 196.602Z" fill="#A34040"/>
<path fill-rule="evenodd" clip-rule="evenodd" d="M180.669 197.428C180.669 197.428 189.822 184.893 192.136 186.212C194.451 187.532 190.795 197.428 190.795 197.428H180.669Z" fill="#A34040"/>
<path d="M191.3 189.181L186.063 197.428" stroke="#D47575"/>
<path d="M175.89 189.181L180.668 197.428" stroke="#D47575"/>
<path d="M172.903 197.737C172.903 197.737 174.28 195.897 178.083 196.997C181.886 198.098 187.733 198.838 191.81 196.636C195.887 194.434 198.776 196.636 198.776 196.636" stroke="#D47575"/>
<path fill-rule="evenodd" clip-rule="evenodd" d="M276.519 39.9865C275.586 40.9735 274.265 41.5932 272.795 41.5932C269.971 41.5932 267.682 39.3189 267.682 36.5134C267.682 33.7079 269.971 31.4335 272.795 31.4335V21.9996C264.762 21.9996 258.187 28.5322 258.187 36.5134C258.187 44.4945 264.762 51.0272 272.795 51.0272C277.015 51.0272 280.828 49.2536 283.428 46.4321L276.519 39.9865Z" fill="#ABB3E1"/>
<path fill-rule="evenodd" clip-rule="evenodd" d="M272.701 21.9998V31.4338C275.506 31.4338 277.781 33.7081 277.781 36.5136H287.214C287.214 28.5325 280.682 21.9998 272.701 21.9998Z" fill="#8A92D9"/>
<path fill-rule="evenodd" clip-rule="evenodd" d="M277.793 36.5132C277.793 38.1257 277.034 39.559 275.854 40.4844L281.658 47.8719C285.036 45.2271 287.213 41.1273 287.213 36.5132H277.793Z" fill="#CACFEC"/>
<path fill-rule="evenodd" clip-rule="evenodd" d="M276.519 109.394C275.586 108.407 274.265 107.787 272.795 107.787C269.971 107.787 267.682 110.061 267.682 112.867C267.682 115.673 269.971 117.947 272.795 117.947V127.381C264.762 127.381 258.187 120.848 258.187 112.867C258.187 104.886 264.762 98.3532 272.795 98.3532C277.015 98.3532 280.828 100.127 283.428 102.948L276.519 109.394Z" fill="#D8E5E8"/>
<path fill-rule="evenodd" clip-rule="evenodd" d="M272.701 127.382V117.948C275.506 117.948 277.781 115.674 277.781 112.869H287.214C287.214 120.85 280.682 127.382 272.701 127.382Z" fill="#6FA0A8"/>
<path fill-rule="evenodd" clip-rule="evenodd" d="M277.793 112.868C277.793 111.256 277.034 109.822 275.854 108.897L281.658 101.509C285.036 104.154 287.213 108.254 287.213 112.868H277.793Z" fill="#EFF5F6"/>
<path fill-rule="evenodd" clip-rule="evenodd" d="M268.882 70.2709C269.814 69.284 271.136 68.6642 272.605 68.6642C275.429 68.6642 277.718 70.9386 277.718 73.7441C277.718 76.5496 275.429 78.8239 272.605 78.8239V88.2579C280.639 88.2579 287.214 81.7252 287.214 73.7441C287.214 65.7629 280.639 59.2303 272.605 59.2303C268.386 59.2303 264.572 61.0039 261.972 63.8253L268.882 70.2709Z" fill="#D8E5E8"/>
<path fill-rule="evenodd" clip-rule="evenodd" d="M272.701 88.2584V78.8244C269.895 78.8244 267.621 76.5501 267.621 73.7446H258.187C258.187 81.7257 264.72 88.2584 272.701 88.2584Z" fill="#6FA0A8"/>
<path fill-rule="evenodd" clip-rule="evenodd" d="M267.605 73.7447C267.605 72.1322 268.365 70.699 269.544 69.7735L263.741 62.3861C260.363 65.0308 258.186 69.1306 258.186 73.7447H267.605Z" fill="#EFF5F6"/>
<defs>
<linearGradient id="paint0_linear" x1="26.188" y1="101.51" x2="26.188" y2="204.369" gradientUnits="userSpaceOnUse">
<stop stop-color="#B84949"/>
<stop offset="1" stop-color="#9771A4"/>
</linearGradient>
<linearGradient id="paint1_linear" x1="36.6012" y1="202.476" x2="60.265" y2="166.823" gradientUnits="userSpaceOnUse">
<stop stop-color="#B84949"/>
<stop offset="1" stop-color="#9771A4"/>
</linearGradient>
</defs>
</svg>
