<svg width="20" height="20" viewBox="0 0 20 20" fill="none" xmlns="http://www.w3.org/2000/svg">
<path fill-rule="evenodd" clip-rule="evenodd" d="M9.99634 1.66797C13.218 1.66797 15.8301 4.28006 15.8301 7.50172C15.8301 7.59617 15.8284 7.69034 15.824 7.78369C17.7691 8.46838 19.1639 10.3224 19.1639 12.5017C19.1636 15.2629 16.9249 17.5015 14.1639 17.5017H5.83008C3.06879 17.5017 0.830298 15.263 0.830078 12.5017C0.830078 10.3223 2.22456 8.46829 4.16993 7.78369C4.16548 7.69034 4.16383 7.59617 4.16381 7.50172C4.16381 4.28019 6.77486 1.66819 9.99634 1.66797ZM9.99634 3.33423C7.69534 3.33446 5.83008 5.20067 5.83008 7.50172C5.83014 8.10132 5.95723 8.67119 6.1853 9.18628C6.06869 9.17396 5.94998 9.16797 5.83008 9.16797C3.98913 9.16797 2.49634 10.6608 2.49634 12.5017C2.49656 14.3425 3.98926 15.8342 5.83008 15.8342H14.1639C16.0044 15.834 17.4961 14.3424 17.4964 12.5017C17.4964 11.0097 16.5165 9.74572 15.1647 9.32056L10.2356 14.251L6.69923 10.7158L7.8772 9.53784L10.2356 11.895L14.1333 7.99488C14.1524 7.83309 14.1638 7.66862 14.1639 7.50172C14.1639 5.20053 12.2975 3.33423 9.99634 3.33423Z" fill="#000091"/>
</svg>
