<svg width="720" height="500" viewBox="0 0 720 500" fill="none" xmlns="http://www.w3.org/2000/svg">
<rect width="720" height="500" fill="#F5F5FE"/>
<g clip-path="url(#clip0_5433_55985)">
<path d="M215.461 357.844C215.461 357.844 180.228 342.483 179.802 309.487C179.376 276.491 196.656 280.473 204.252 249.183C211.848 217.893 170.344 172.519 211.426 149.762C252.507 127.006 265.642 166.122 286.352 164.984C307.061 163.847 319.767 139.441 383.054 140.01C446.341 140.578 550.224 205.377 473.057 357.844L215.461 357.844Z" fill="white"/>
<path d="M416.849 235.995H347.74C345.185 235.995 342.74 234.953 340.968 233.109L334.248 226.114C332.477 224.27 330.031 223.228 327.477 223.228H272.587C267.221 223.228 263.042 227.894 263.622 233.239L276.175 348.85C276.673 353.435 280.537 356.908 285.14 356.908H427.9C433.262 356.908 437.439 352.248 436.865 346.906L425.814 244.062C425.321 239.473 421.455 235.995 416.849 235.995Z" fill="#273962"/>
<path d="M419.363 237.466H350.254C347.699 237.466 345.254 236.424 343.482 234.579L336.762 227.585C334.991 225.741 332.546 224.698 329.991 224.698H275.101C269.735 224.698 265.556 229.365 266.136 234.71L278.689 350.321C279.187 354.906 283.051 358.378 287.654 358.378H430.414C435.776 358.378 439.953 353.718 439.379 348.377L428.328 245.533C427.835 240.944 423.969 237.465 419.363 237.465V237.466Z" fill="#2F4077"/>
<path d="M336.469 192.567H290.214C287.501 192.567 285.301 194.771 285.301 197.49V265.099C285.301 267.817 287.5 270.021 290.214 270.021H341.557C344.27 270.021 346.47 267.818 346.47 265.099V202.587C346.47 202.267 346.343 201.959 346.117 201.732L337.323 192.922C337.097 192.695 336.789 192.567 336.469 192.567Z" fill="#62DBE5"/>
<path d="M290.214 269.849H341.556C344.269 269.849 346.469 267.645 346.469 264.926V235.923C344.08 235.436 342.761 233.675 341.286 232.14L335.203 225.774C333.431 223.93 330.033 223.056 327.477 223.056H285.301V264.927C285.301 267.645 287.5 269.849 290.214 269.849L290.214 269.849Z" fill="#419CA4"/>
<path d="M530.151 360H179.794C179.356 360 179 359.644 179 359.204C179 358.765 179.356 358.409 179.794 358.409H530.151C530.589 358.409 530.945 358.765 530.945 359.204C530.945 359.644 530.589 360 530.151 360Z" fill="#8BA7F8"/>
<path d="M278.892 144.746C279.635 144.758 283.306 144.632 283.479 144.784C283.534 144.832 283.701 145.803 283.885 146.189C284.998 148.533 286.326 149.546 288.819 150.241C289.052 156.993 289.078 162.565 284.506 167.906C283.093 169.557 276.656 174.822 274.593 174.379C274.016 174.256 270.889 172.298 270.202 171.815C266.705 169.356 262.935 165.18 261.882 160.96C261.007 157.45 261.535 153.829 261.368 150.241C263.433 149.622 264.928 148.825 265.98 146.863C266.275 146.312 266.303 145.14 266.652 144.89C267.15 144.534 277.308 144.72 278.892 144.745V144.746Z" fill="#667DCF"/>
<path d="M226.348 171.584C223.133 172.699 219.098 171.278 215.764 171.59C215.331 175.724 214.502 184.07 218.641 186.463C220.875 187.754 224.216 185.817 226.878 186.438C226.333 191.014 227.239 193.742 221.583 193.335C219.026 193.15 216.839 191.939 214.699 190.682C215.086 190.162 213.889 178.732 212.9 177.897C211.038 176.326 208.828 178.317 209.512 180.733C210.368 183.757 210.86 182.124 210.463 186.438C209.102 186.723 209.378 185.781 209.026 184.986C206.964 180.324 204.588 170.513 208.525 166.458C209.077 165.889 215.85 162.326 216.67 162.156C219.372 161.595 221.448 162.531 223.963 162.613C225.157 162.653 226.469 161.81 227.559 162.104C231.074 163.052 229.312 170.554 226.348 171.583V171.584Z" fill="#343434"/>
<path d="M235.789 227.332C234.289 220.496 232.234 212.799 232.234 212.799C232.295 213.494 232.522 228.222 232.686 237.063C234.38 238.48 236.097 238.463 238.485 238.2C238.506 238.198 238.523 238.19 238.538 238.178C238.995 237.795 236.925 232.695 235.789 227.333V227.332Z" fill="#929292"/>
<path d="M262.99 228.873C267.937 223.684 260.391 226.269 258.759 228.102C258.404 228.501 258.247 228.532 258.165 228.596H258.179V234.285C258.179 234.285 258.1 234.303 257.966 234.335C260.244 233.854 262.691 234.739 265.011 234.374C268.584 233.811 270.378 230.66 270.479 229.125C270.682 227.567 262.99 228.873 262.99 228.873H262.99Z" fill="#FCBFB7"/>
<path d="M204.644 212.432C204.636 212.332 202.875 216.254 202.577 216.88C201.846 218.408 200.31 221.467 198.817 224.554C199.264 230.155 201.089 245.476 202.031 251.701C202.485 234.123 204.792 214.458 204.644 212.432Z" fill="#929292"/>
<path d="M226.348 171.584C227.632 176.518 227.474 181.431 226.878 186.438C224.216 185.816 220.875 187.754 218.641 186.463C214.502 184.07 215.331 175.724 215.764 171.589C219.098 171.277 223.134 172.699 226.348 171.584Z" fill="#FCBFB7"/>
<path d="M214.765 190.776C214.743 190.745 214.72 190.712 214.698 190.682C214.687 190.697 214.715 190.73 214.765 190.776Z" fill="#AB7B6B"/>
<path d="M214.699 190.682C214.72 190.712 214.744 190.745 214.766 190.776C215.934 192.427 217.978 195.143 219.814 195.479C220.697 195.641 221.348 195.451 221.583 195.457V193.335C217.956 192.973 215.504 190.957 214.699 190.682Z" fill="#AB7B6B"/>
<path d="M224.23 198.109C224.039 197.948 223.885 197.744 223.701 197.579H224.23V198.109Z" fill="white"/>
<path d="M218.935 216.147L222.635 221.45L223.701 214.916L223.455 196.981L223.701 214.916L218.935 216.147Z" fill="#CFCFCF"/>
<path d="M258.165 228.596L239.078 227.794L231.913 203.538C231.913 203.538 230.605 200.128 227.903 198.843C225.244 197.579 223.456 196.981 223.456 196.981L223.701 214.916L222.635 221.45L218.935 216.146C218.892 215.996 209.346 197.482 208.345 197.048C208.088 196.936 205.705 196.983 205.168 197.048C195.423 198.222 193.867 205.722 190.614 213.501C189.426 216.342 187.575 220.385 186.635 223.042C185.714 225.65 183.745 231.655 184.337 234.076C184.725 235.661 187.19 239.681 188.133 241.436C191.064 246.888 194.552 251.723 198.025 256.451L201.999 253.038C200.265 248.568 195.077 234.589 195.085 233.379C195.09 232.454 196.918 228.481 198.817 224.553C200.31 221.466 201.846 218.407 202.577 216.88C202.876 216.254 204.637 212.332 204.644 212.431C204.791 214.457 202.485 234.123 202.031 251.7C202.019 252.148 202.008 252.594 201.999 253.038C202.183 253.446 206.889 256.963 207.946 259.011C208.101 259.312 207.911 259.674 207.575 259.709L205.709 259.907C206.4 261.137 207.746 263.038 207.815 264.423C207.819 264.493 207.818 264.558 207.819 264.626H220.482L221.954 259.389L223.802 264.423H232.173L232.687 237.063C232.522 228.222 232.295 213.495 232.234 212.799C232.234 212.799 234.29 220.497 235.789 227.332C236.926 232.694 238.996 237.795 238.539 238.177C243.982 237.624 256.235 234.746 257.967 234.335C258.101 234.304 258.179 234.285 258.179 234.285V228.596L258.165 228.596Z" fill="#CFCFCF"/>
<path d="M205.709 259.908L207.575 259.71C207.911 259.674 208.101 259.312 207.946 259.012C206.889 256.963 202.183 253.446 201.999 253.039L198.025 256.451C198.658 257.312 200.126 262.888 201.992 264.953C203.871 267.032 207.876 268.442 207.82 264.625C207.819 264.558 207.82 264.493 207.816 264.422C207.746 263.038 206.4 261.136 205.709 259.907L205.709 259.908Z" fill="#FCBFB7"/>
<path d="M207.819 264.625C207.319 266.946 205.035 267.718 202.482 265.406C201.728 266.989 199.913 289.835 198.741 302.772C198.654 303.739 195.265 311.42 193.372 316.949C192.018 320.905 187.799 337.287 186.665 343.283C186.651 343.36 194.118 347.798 194.118 347.798L203.917 326.652L209.737 314.59C211.9 307.748 216.324 291.92 217.045 288.188C218.982 278.577 220.064 272.37 220.481 264.626H207.819L207.819 264.625Z" fill="#2F4077"/>
<path d="M221.582 195.457C221.347 195.451 220.697 195.641 219.813 195.479C217.978 195.143 215.934 192.427 214.765 190.776C214.715 190.731 214.688 190.697 214.698 190.682C215.085 190.162 213.888 178.732 212.899 177.897C211.037 176.326 208.827 178.317 209.511 180.733C210.367 183.757 210.859 182.124 210.462 186.438C210.225 189.022 210.064 191.689 209.394 194.199L218.14 198.481L221.582 195.457Z" fill="#FCBFB7"/>
<path d="M221.583 195.457L218.141 198.482L209.394 194.199L208.345 197.048C209.346 197.482 218.891 215.994 218.935 216.146L218.664 203.893L217.132 201.32L218.664 198.832L220.549 200.778L219.701 203.758L223.701 214.916L223.456 196.981L221.583 195.457Z" fill="#EDEDED"/>
<path d="M223.701 214.916L219.701 203.758L220.549 200.778L218.664 198.832L217.132 201.32L218.664 203.893L218.935 216.146L222.635 221.45L223.701 214.916Z" fill="#343434"/>
<path d="M227.69 350.832C227.712 351.57 227.729 352.366 227.677 352.57C228.631 352.518 229.433 353.202 230.37 353.21C231.256 353.216 232.24 352.603 233.073 352.57L233.071 350.503L227.69 350.832Z" fill="#FCBFB7"/>
<path d="M234.855 350.394L232.172 264.444H223.801L221.954 259.388L220.523 264.444L217.045 288.187C217.045 288.187 222.269 318.016 222.585 320.7C223.595 329.28 225.988 350.936 225.988 350.936L227.69 350.832L233.071 350.503L234.855 350.393V350.394Z" fill="#273962"/>
<path d="M233.102 352.519C232.27 352.552 231.285 353.166 230.399 353.159C229.462 353.151 228.66 352.466 227.706 352.519C227.533 353.198 226.411 354.399 226.397 356.448C226.392 357.356 226.6 358.119 227.071 358.375L235.656 358.367C236.886 358.343 242.245 358.395 242.415 358.367C242.898 358.287 243.532 358.288 243.787 357.979C245.131 356.358 242.65 355.9 241.085 355.391C239.974 355.184 234.163 352.664 233.737 352.519C233.613 352.478 233.287 352.512 233.102 352.519L233.102 352.519Z" fill="#343434"/>
<path d="M191.703 347.992C191.857 347.748 192.18 347.317 192.557 346.821C191.231 346.065 189.635 345.097 188.363 344.349C188.004 344.954 187.709 345.436 187.581 345.617C188.135 346.112 188.489 346.827 189.135 347.214C189.868 347.652 190.966 347.643 191.703 347.992Z" fill="#FCBFB7"/>
<path d="M196.807 354.144C195.953 353.403 192.634 348.693 192.339 348.353C192.253 348.254 191.954 348.119 191.791 348.031C191.764 348.016 191.732 348.006 191.703 347.992C190.966 347.643 189.869 347.652 189.136 347.214C188.49 346.827 188.136 346.112 187.582 345.617C187.447 345.495 187.303 345.383 187.135 345.297C186.957 345.478 185.3 345.875 184.024 348.024C183.561 348.805 183.584 349.179 183.86 349.638L190.934 354.529C191.874 355.276 196.525 358.064 196.686 358.126C197.143 358.302 197.453 358.197 197.829 358.06C199.807 357.341 197.901 355.377 196.807 354.144Z" fill="#343434"/>
<path d="M470.574 227.738C470.893 228.575 470.442 231.548 470.305 232.598C469.383 232.533 467.121 232.894 465.723 232.868C465.098 232.857 463.265 233.008 462.636 232.87C462.305 232.797 460.833 231.62 460.676 231.318C460.341 230.673 459.27 229.329 460.439 228.473C461.898 227.406 465.991 227.465 465.991 227.465C465.626 226.88 464.61 226.873 464.246 226.112C463.306 224.15 466.47 225.355 467.522 225.8C467.979 225.993 470.494 227.527 470.574 227.738Z" fill="#AB7B6B"/>
<path d="M512.35 189.663C512.2 189.512 509.111 191.548 508.641 191.749C507.857 192.086 506.673 192.399 505.486 192.453L505.513 196.342L505.617 196.426C507.154 195.407 508.727 193.878 509.188 193.426C510.608 192.03 512.38 190.173 512.35 189.663Z" fill="#755348"/>
<path d="M535.459 205.686C535.459 205.686 529.478 203.492 529.331 198.846C529.184 194.2 529.772 190.715 530.043 187.526C530.314 184.337 530.03 178.433 528.542 175.05C527.841 173.457 526.424 172.237 524.667 171.301C522.909 170.365 521.201 170.9 520.151 170.404C519.1 169.907 517.209 165.638 512.252 164.69C507.295 163.742 502.563 165.697 499.995 168.121C497.426 170.545 499.621 177.597 499.621 177.597C499.621 177.597 499.622 177.59 499.622 177.587C499.633 177.495 499.847 175.61 500.187 174.361C500.424 173.492 501.172 171.886 501.397 171.841C501.623 171.795 501.552 173.521 504.704 175.086C506.033 175.746 508.939 176.006 510.473 177.125C512.008 178.243 512.086 180.471 512.32 180.515C513.454 180.728 513.688 177.912 515.1 178.239C515.209 178.259 515.304 178.291 515.393 178.33C517.96 179.16 516.631 182.155 515.698 183.79C515.698 183.79 514.03 185.946 514.842 187.605C514.839 187.62 514.838 187.636 514.837 187.651C515.375 187.576 516.278 187.402 516.961 187.026C518.031 186.436 519.468 184.978 520.901 181.498C520.552 182.349 518.584 187.513 519.316 194.205C519.708 197.787 524.363 206.423 529.241 206.654C530.997 206.737 535.279 206.905 535.756 206.654C536.233 206.403 535.459 205.686 535.459 205.686Z" fill="#343434"/>
<path d="M495.156 343.715L494.904 346.306C494.873 346.621 494.76 346.92 494.573 347.175C493.526 348.607 489.881 353.519 488.729 354.135C488.502 354.257 488.389 354.413 488.345 354.585C489.053 355.467 489.821 356.166 491.743 355.589C493.771 354.979 500.936 347.597 500.936 347.597L500.939 344.068L500.4 344.035L495.157 343.715H495.156Z" fill="#AB7B6B"/>
<path d="M491.742 355.589C489.821 356.166 489.053 355.467 488.345 354.586C488.306 354.537 488.267 354.487 488.228 354.438C488.228 354.438 485.469 356.564 485.186 356.943C483.88 358.694 484.172 358.31 488.768 358.446C493.365 358.582 498.773 353.828 498.773 353.828L499.339 358.449H500.283C500.283 358.449 501.815 353.895 501.815 351.796C501.815 349.697 500.936 347.597 500.936 347.597C500.936 347.597 493.77 354.979 491.742 355.589Z" fill="#343434"/>
<path d="M517.534 346.025C517.34 346.023 517.152 346.021 516.971 346.018L516.923 346.509C516.892 346.824 516.779 347.123 516.592 347.378C515.545 348.81 511.901 353.723 510.748 354.339C510.521 354.46 510.408 354.616 510.365 354.789C511.072 355.67 511.841 356.369 513.762 355.792C515.79 355.183 522.955 347.801 522.955 347.801L522.957 346.061C522.783 346.062 522.604 346.063 522.416 346.063C520.941 346.064 519.06 346.045 517.534 346.025Z" fill="#AB7B6B"/>
<path d="M519.914 244.21H519.898L507.606 244.21L507.182 271.783C507.182 271.783 507.156 272.124 507.11 272.743C508.139 274.649 510.45 293.39 511.083 297.871L514.793 345.984C514.793 345.984 515.701 346 516.971 346.018C517.151 346.021 517.34 346.023 517.533 346.025C519.06 346.045 520.941 346.064 522.416 346.062C522.603 346.062 522.783 346.062 522.957 346.061C524.079 346.055 524.859 346.033 524.858 345.984C524.733 342.028 524.896 315.371 524.85 312.195C524.806 309.197 524.323 292.648 524.32 288.853C524.32 288.145 524.009 271.135 524.008 270.428C524.005 263.078 524.546 258.718 523.772 253.258C522.743 248.334 520.31 245.151 519.913 244.21H519.914Z" fill="#272747"/>
<path d="M507.606 244.21H495.91H495.894C495.894 244.21 493.799 257.441 493.145 262.843C490.789 282.306 493.235 343.598 493.235 343.598L495.02 343.707L495.157 343.715L500.4 344.036L500.939 344.069L502.102 344.14C502.102 344.14 502.996 321.382 504.006 312.802C504.292 310.37 506.666 278.692 507.111 272.743C507.157 272.125 507.183 271.784 507.183 271.784L507.607 244.211L507.606 244.21Z" fill="#272747"/>
<path d="M509.931 198.867C513.048 198.853 515.699 196.426 515.699 196.426C514.996 192.03 514.636 189.303 514.836 187.651C514.837 187.637 514.838 187.62 514.84 187.605C514.029 185.946 515.697 183.79 515.697 183.79C516.63 182.155 517.959 179.16 515.392 178.33C515.296 178.299 515.206 178.264 515.099 178.239C513.687 177.912 513.453 180.728 512.319 180.515C512.084 180.471 512.007 178.243 510.472 177.125C508.938 176.007 506.032 175.746 504.703 175.086C501.551 173.521 501.621 171.796 501.396 171.841C501.171 171.886 500.422 173.492 500.186 174.361C499.846 175.61 499.632 177.495 499.621 177.588C499.429 181.385 499.891 189.118 502.19 191.471C502.979 192.279 504.234 192.511 505.486 192.454C506.673 192.399 507.857 192.086 508.64 191.75C509.111 191.547 512.2 189.512 512.35 189.663C512.38 190.173 510.608 192.03 509.187 193.426C508.727 193.878 507.154 195.407 505.617 196.426C505.521 196.49 505.429 196.551 505.336 196.613C505.337 196.614 506.815 198.882 509.931 198.867Z" fill="#AB7B6B"/>
<path d="M507.606 244.21H519.898C519.898 244.194 519.935 225.9 520.363 222.525C520.73 219.635 521.129 216.113 521.129 216.113L531.533 230.045C531.533 230.045 532.11 232.025 531.343 233.341C530.585 234.642 516.872 244.685 516.872 244.685L519.143 249.369L539.185 235.858C539.185 235.858 541.244 231.876 540.976 230C540.367 225.733 527.393 203.178 527.393 203.178C527.393 203.178 526.086 199.88 523.439 198.573C520.792 197.266 515.699 196.426 515.699 196.426C515.699 196.426 513.049 198.852 509.931 198.867C506.815 198.882 505.337 196.614 505.336 196.613L499.206 198.415C496.087 199.263 489.81 222.183 488.786 225.997C488.7 226.317 488.415 226.538 488.085 226.546L470.575 227.738L470.305 232.598C470.305 232.598 490.306 235.663 494.024 233.857C496.204 232.798 497.722 224.439 498.337 220.493L495.91 244.21H507.606Z" fill="#74A5EC"/>
<path d="M522.334 219.292C522.327 219.193 520.195 208.072 520.195 208.765C520.195 211 521.006 214.386 518.471 220.222C518.641 222.353 518.497 227.142 518.471 229.252C518.402 235.027 519.377 238.331 519.96 242.187C520.415 224.61 522.482 221.318 522.334 219.292Z" fill="#417DC4"/>
<path d="M495.838 219.669C497.338 212.833 497.839 208.734 497.839 208.734C497.796 209.222 497.497 210.857 497.583 215.267C497.62 217.146 498.354 218.348 498.305 220.989L496.885 228.597C496.427 229.981 495.623 233.766 493.339 234.094C493.319 234.096 494.302 228.661 494.305 228.642C494.619 226.994 494.702 225.031 495.839 219.668L495.838 219.669Z" fill="#417DC4"/>
<path d="M315.885 228.817C323.558 228.817 329.778 222.585 329.778 214.897C329.778 207.21 323.558 200.978 315.885 200.978C308.212 200.978 301.992 207.21 301.992 214.897C301.992 222.585 308.212 228.817 315.885 228.817Z" fill="white"/>
<path d="M344.478 203.373H336.899C336.801 203.373 336.721 203.293 336.721 203.194V195.601C336.721 195.442 336.913 195.363 337.025 195.475L344.604 203.069C344.716 203.181 344.637 203.373 344.478 203.373Z" fill="white"/>
<path d="M317.492 220.515C315.301 220.515 313.408 219.252 312.486 217.415H315.844V215.606H311.936C311.907 215.373 311.886 215.138 311.886 214.898C311.886 214.657 311.907 214.421 311.936 214.189H315.844V212.38H312.486C313.408 210.544 315.301 209.281 317.492 209.281C318.422 209.281 319.296 209.511 320.067 209.911L321.875 208.585C320.632 207.717 319.123 207.204 317.492 207.204C314.133 207.204 311.284 209.369 310.242 212.38H308.105V214.189H309.848C309.827 214.423 309.813 214.658 309.813 214.898C309.813 215.137 309.827 215.373 309.848 215.606H308.105V217.415H310.242C311.284 220.426 314.133 222.591 317.492 222.591C319.123 222.591 320.632 222.078 321.875 221.21L320.067 219.884C319.295 220.284 318.421 220.515 317.492 220.515Z" fill="#62DBE5"/>
<path d="M336.329 234.88H293.651C293.253 234.88 292.93 235.203 292.93 235.602V236.244C292.93 236.643 293.253 236.966 293.651 236.966H336.329C336.727 236.966 337.05 236.643 337.05 236.244V235.602C337.05 235.203 336.727 234.88 336.329 234.88Z" fill="white"/>
<path d="M336.329 240.145H293.651C293.253 240.145 292.93 240.469 292.93 240.868V241.509C292.93 241.908 293.253 242.232 293.651 242.232H336.329C336.727 242.232 337.05 241.908 337.05 241.509V240.868C337.05 240.469 336.727 240.145 336.329 240.145Z" fill="white"/>
<path d="M336.329 245.41H293.651C293.253 245.41 292.93 245.733 292.93 246.132V246.774C292.93 247.173 293.253 247.496 293.651 247.496H336.329C336.727 247.496 337.05 247.173 337.05 246.774V246.132C337.05 245.733 336.727 245.41 336.329 245.41Z" fill="white"/>
<path d="M336.329 250.674H293.651C293.253 250.674 292.93 250.997 292.93 251.396V252.038C292.93 252.437 293.253 252.76 293.651 252.76H336.329C336.727 252.76 337.05 252.437 337.05 252.038V251.396C337.05 250.997 336.727 250.674 336.329 250.674Z" fill="white"/>
<path d="M309.378 258.025H293.972C293.397 258.025 292.931 257.558 292.931 256.982C292.931 256.406 293.397 255.939 293.972 255.939H309.378C309.953 255.939 310.452 256.406 310.452 256.982C310.452 257.558 309.953 258.025 309.378 258.025Z" fill="white"/>
<path d="M413.392 169.538H367.137C364.424 169.538 362.224 171.741 362.224 174.46V242.069C362.224 244.787 364.423 246.992 367.137 246.992H418.48C421.193 246.992 423.393 244.788 423.393 242.069V179.557C423.393 179.237 423.266 178.929 423.04 178.703L414.246 169.892C414.02 169.665 413.712 169.538 413.393 169.538L413.392 169.538Z" fill="#62DBE5"/>
<path d="M392.808 205.787C400.481 205.787 406.701 199.555 406.701 191.867C406.701 184.18 400.481 177.948 392.808 177.948C385.135 177.948 378.915 184.18 378.915 191.867C378.915 199.555 385.135 205.787 392.808 205.787Z" fill="white"/>
<path d="M421.401 180.342H413.822C413.724 180.342 413.644 180.263 413.644 180.164V172.571C413.644 172.412 413.836 172.332 413.948 172.445L421.527 180.038C421.639 180.151 421.56 180.342 421.401 180.342Z" fill="white"/>
<path d="M413.252 211.85H370.574C370.176 211.85 369.853 212.174 369.853 212.573V213.214C369.853 213.613 370.176 213.937 370.574 213.937H413.252C413.65 213.937 413.973 213.613 413.973 213.214V212.573C413.973 212.174 413.65 211.85 413.252 211.85Z" fill="white"/>
<path d="M413.252 217.115H370.574C370.176 217.115 369.853 217.438 369.853 217.837V218.479C369.853 218.878 370.176 219.201 370.574 219.201H413.252C413.65 219.201 413.973 218.878 413.973 218.479V217.837C413.973 217.438 413.65 217.115 413.252 217.115Z" fill="white"/>
<path d="M413.252 222.379H370.574C370.176 222.379 369.853 222.703 369.853 223.102V223.743C369.853 224.142 370.176 224.466 370.574 224.466H413.252C413.65 224.466 413.973 224.142 413.973 223.743V223.102C413.973 222.703 413.65 222.379 413.252 222.379Z" fill="white"/>
<path d="M413.252 227.644H370.574C370.176 227.644 369.853 227.968 369.853 228.367V229.008C369.853 229.407 370.176 229.731 370.574 229.731H413.252C413.65 229.731 413.973 229.407 413.973 229.008V228.367C413.973 227.968 413.65 227.644 413.252 227.644Z" fill="white"/>
<path d="M386.301 234.995H370.895C370.32 234.995 369.854 234.528 369.854 233.952C369.854 233.376 370.32 232.909 370.895 232.909H386.301C386.876 232.909 387.374 233.376 387.374 233.952C387.374 234.528 386.876 234.995 386.301 234.995Z" fill="white"/>
<path d="M396.696 198.477H395.152V193.336C395.152 193.298 394.915 192.723 394.865 192.629C394.055 191.08 391.748 191.054 390.844 192.559C390.772 192.678 390.518 193.145 390.518 193.226V198.477H388.973V193.005C388.973 192.766 389.485 191.721 389.655 191.477C391.279 189.15 394.922 189.399 396.258 191.897C396.355 192.079 396.697 192.865 396.697 193.005V198.477H396.696Z" fill="#62DBE5"/>
<path d="M392.144 182.916C395.689 182.35 397.33 186.659 394.593 188.575C393.182 189.563 391.217 189.134 390.249 187.746C389.036 186.007 390.01 183.256 392.144 182.916ZM392.474 184.463C390.68 184.787 391.033 187.732 392.988 187.525C395.069 187.305 394.695 184.063 392.474 184.463Z" fill="#62DBE5"/>
<path d="M387.287 187.558C389.015 187.201 390.386 189.003 389.396 190.555C388.502 191.958 386.338 191.64 385.89 190.013C385.605 188.978 386.186 187.786 387.287 187.558H387.287ZM387.611 189.091C387.176 189.234 387.299 190.006 387.9 189.838C388.448 189.684 388.14 188.918 387.611 189.091Z" fill="#62DBE5"/>
<path d="M385.001 194.552C385.209 193.083 386.959 191.786 388.422 192.288C388.2 192.553 388.256 193.779 388.201 193.835C388.167 193.869 387.535 193.797 387.236 193.918C387.081 193.98 386.655 194.428 386.655 194.552V198.476H385C385.124 197.26 384.834 195.727 385.001 194.552Z" fill="#62DBE5"/>
<path d="M397.438 187.558C400.102 187.007 400.648 190.888 398.468 191.352C395.544 191.975 395.119 188.037 397.438 187.558ZM397.767 189.098C397.429 189.194 397.361 189.634 397.689 189.8C398.397 190.157 398.487 188.893 397.767 189.098Z" fill="#62DBE5"/>
<path d="M400.668 198.477H399.013V194.552C399.013 194.428 398.587 193.98 398.433 193.918C398.133 193.797 397.501 193.87 397.467 193.835C397.413 193.779 397.435 192.535 397.247 192.289C398.291 191.908 399.639 192.56 400.208 193.465C400.319 193.641 400.667 194.514 400.667 194.663V198.477H400.668Z" fill="#62DBE5"/>
<path d="M461.736 250.076H402.777C400.002 250.076 397.298 250.952 395.049 252.58L388.476 257.336C386.227 258.963 383.523 259.839 380.749 259.839H314.72C311.475 259.839 308.58 261.884 307.489 264.946L278.551 346.191C276.766 351.201 280.473 356.47 285.782 356.47H430.745C434.03 356.47 436.952 354.376 438.012 351.261L469.004 260.253C470.703 255.262 467 250.076 461.736 250.076Z" fill="#ADBFFC"/>
<path d="M463.188 251.986H404.228C401.454 251.986 398.75 252.862 396.501 254.489L389.928 259.245C387.679 260.873 384.975 261.749 382.201 261.749H316.172C312.926 261.749 310.032 263.793 308.941 266.856L280.003 348.101C278.218 353.11 281.925 358.379 287.234 358.379H432.197C435.482 358.379 438.404 356.286 439.464 353.17L470.455 262.163C472.155 257.172 468.452 251.986 463.188 251.986Z" fill="#465F9D"/>
<path d="M381.924 324.333C421.65 307.153 440.157 277.244 448.759 251.985H404.245C401.47 251.985 398.767 252.861 396.517 254.489L389.944 259.245C387.695 260.872 384.991 261.748 382.217 261.748H316.188C312.942 261.748 310.048 263.793 308.956 266.855L284.155 336.484C307.381 341.202 341.309 341.898 381.924 324.333Z" fill="#667DCF"/>
<path d="M379.853 279.242C371.862 279.242 365.385 285.732 365.385 293.738V304.888H370.254V294.434C370.254 289.123 374.551 284.817 379.852 284.817C385.154 284.817 389.451 289.123 389.451 294.434V304.888H394.32V293.738C394.32 285.732 387.843 279.242 379.852 279.242H379.853Z" fill="#CFCFCF"/>
<path d="M375.726 279.941C375.565 279.941 375.406 279.948 375.246 279.953C375.229 279.959 375.211 279.965 375.194 279.971C375.37 279.953 375.547 279.941 375.726 279.941Z" fill="#929292"/>
<path d="M370.783 282.403C367.492 285.06 365.385 289.13 365.385 293.694V304.189H366.127V294.306C366.127 290.26 367.994 285.31 370.783 282.404V282.403Z" fill="#929292"/>
<path d="M379.853 284.811C385.154 284.811 389.452 289.117 389.452 294.428V304.882H390.193V295.334C390.193 287.329 384.49 284.625 379.852 284.811H379.853Z" fill="#929292"/>
<path d="M394.451 304.098H363.678C361.189 304.098 359.171 306.119 359.171 308.613V337.122C359.171 339.616 361.189 341.637 363.678 341.637H394.451C396.94 341.637 398.958 339.616 398.958 337.122V308.613C398.958 306.119 396.94 304.098 394.451 304.098Z" fill="#C3992A"/>
<path d="M396.028 304.098H365.254C362.765 304.098 360.747 306.119 360.747 308.613V337.122C360.747 339.616 362.765 341.637 365.254 341.637H396.028C398.517 341.637 400.534 339.616 400.534 337.122V308.613C400.534 306.119 398.517 304.098 396.028 304.098Z" fill="#FCD17B"/>
<path d="M385.07 319.313C385.07 316.427 382.734 314.087 379.852 314.087C376.971 314.087 374.636 316.427 374.636 319.313C374.636 321.418 375.88 323.228 377.669 324.056L376.862 331.648H382.844L382.036 324.056C383.825 323.227 385.07 321.418 385.07 319.313Z" fill="#343434"/>
<path d="M367.136 246.991H418.479C421.193 246.991 423.392 244.787 423.392 242.068V238.417C422.175 237.807 420.806 237.466 419.363 237.466H362.223V242.069C362.223 244.787 364.423 246.991 367.136 246.991Z" fill="#419CA4"/>
<path d="M514.05 355.588C512.129 356.165 511.361 355.466 510.653 354.585C510.613 354.536 510.574 354.487 510.535 354.437C510.535 354.437 507.776 356.563 507.493 356.943C506.187 358.694 506.479 358.31 511.076 358.446C515.672 358.581 520.652 353.827 520.652 353.827L521.488 358.448H522.32C522.32 358.448 523.851 353.895 523.851 351.796C523.851 349.696 522.973 347.597 522.973 347.597C522.973 347.597 516.078 354.979 514.05 355.588Z" fill="#343434"/>
<path d="M468.706 160.007L465.004 155.363C464.582 154.834 463.811 154.747 463.283 155.17L448.869 166.704C448.341 167.127 447.57 167.04 447.148 166.511L443.737 162.232C443.315 161.702 442.544 161.616 442.015 162.039L437.38 165.747C436.852 166.17 436.765 166.943 437.187 167.472L445.188 177.472C445.976 178.457 447.412 178.617 448.397 177.829L468.514 161.731C469.043 161.309 469.129 160.536 468.707 160.007L468.706 160.007Z" fill="#667DCF"/>
<path d="M458.481 226.512C458.442 227.097 458.906 227.595 459.492 227.595H460.485C461.045 227.595 461.498 228.049 461.498 228.609V229.35C461.498 230.164 462.408 230.647 463.081 230.19L464.35 229.327C464.968 228.906 465.813 229.278 465.921 230.02L466.257 232.32C466.344 232.913 466.922 233.303 467.502 233.159L469.958 232.552C470.559 232.403 471.151 232.824 471.21 233.44L471.416 235.601C471.474 236.209 472.05 236.628 472.644 236.496L474.887 235.997C475.52 235.856 476.12 236.338 476.12 236.987V238.904C476.12 239.241 476.286 239.556 476.565 239.745L479.92 242.019C479.755 242.945 479.653 243.894 479.653 244.868C479.653 253.723 486.818 260.901 495.657 260.901C504.495 260.901 511.66 253.723 511.66 244.868C511.66 236.013 504.495 228.834 495.657 228.834C491.588 228.834 487.885 230.368 485.061 232.874L464.377 219.193C464.337 219.166 464.3 219.145 464.256 219.124C463.811 218.915 461.144 217.802 459.123 220.017C458.974 220.181 458.892 220.398 458.877 220.619L458.482 226.512L458.481 226.512ZM497.075 248.922C497.075 246.594 498.959 244.707 501.283 244.707C503.606 244.707 505.49 246.594 505.49 248.922C505.49 251.25 503.606 253.138 501.283 253.138C498.959 253.138 497.075 251.25 497.075 248.922Z" fill="#929292"/>
<path d="M458.481 227.675C458.442 228.261 458.906 228.758 459.492 228.758H460.485C461.045 228.758 461.498 229.213 461.498 229.773V230.514C461.498 231.328 462.408 231.811 463.081 231.353L464.35 230.49C464.968 230.07 465.813 230.442 465.921 231.183L466.257 233.484C466.344 234.077 466.922 234.466 467.502 234.323L469.958 233.715C470.559 233.567 471.151 233.987 471.21 234.604L471.416 236.765C471.474 237.372 472.05 237.792 472.644 237.66L474.887 237.16C475.52 237.02 476.12 237.502 476.12 238.151V240.068C476.12 240.405 476.286 240.72 476.565 240.908L479.92 243.183C479.755 244.108 479.653 245.057 479.653 246.031C479.653 254.887 486.818 262.065 495.657 262.065C504.495 262.065 511.66 254.887 511.66 246.031C511.66 237.176 504.495 229.997 495.657 229.997C491.588 229.997 487.885 231.531 485.061 234.037L464.377 220.356C464.337 220.33 464.3 220.308 464.256 220.288C463.811 220.079 461.144 218.966 459.123 221.181C458.974 221.344 458.892 221.562 458.877 221.782L458.482 227.676L458.481 227.675ZM497.075 250.086C497.075 247.757 498.959 245.87 501.283 245.87C503.606 245.87 505.49 247.758 505.49 250.086C505.49 252.414 503.606 254.301 501.283 254.301C498.959 254.301 497.075 252.414 497.075 250.086Z" fill="#CFCFCF"/>
<path d="M516.872 244.685C515.1 244.929 513.271 244.483 511.797 245.318C511.516 245.478 511.659 245.87 511.66 246.436L511.505 247.909C510.31 248.53 508.034 249.488 507.255 250.559C507.216 250.613 507.182 250.666 507.146 250.72C505.108 253.744 509.049 254.716 511.639 254.038C513.825 253.465 517.099 250.719 518.619 249.689C518.829 249.547 519.007 249.436 519.143 249.369L516.873 244.686L516.872 244.685Z" fill="#AB7B6B"/>
</g>
<defs>
<clipPath id="clip0_5433_55985">
<rect width="362" height="220" fill="white" transform="translate(179 140)"/>
</clipPath>
</defs>
</svg>
