<svg width="362" height="220" viewBox="0 0 362 220" fill="none" xmlns="http://www.w3.org/2000/svg">
<g clip-path="url(#clip0_5434_56262)">
<path d="M36.4615 217.844C36.4615 217.844 1.22788 202.483 0.802159 169.487C0.37644 136.491 17.6557 140.473 25.2519 109.183C32.8482 77.8929 -8.65581 32.5187 32.4256 9.76208C73.507 -12.994 86.6424 26.1224 107.352 24.9844C128.061 23.8465 140.767 -0.558918 204.054 0.00978515C267.341 0.578488 371.224 65.3767 294.057 217.844L36.4615 217.844Z" fill="white"/>
<path d="M237.849 95.9952H168.74C166.185 95.9952 163.74 94.9533 161.968 93.1088L155.248 86.114C153.477 84.27 151.031 83.2275 148.477 83.2275H93.5869C88.2209 83.2275 84.0421 87.8944 84.6224 93.2393L97.1753 208.85C97.673 213.435 101.537 216.908 106.14 216.908H248.9C254.262 216.908 258.439 212.248 257.865 206.906L246.814 104.062C246.321 99.4732 242.455 95.9952 237.849 95.9952Z" fill="#273962"/>
<path d="M240.363 97.4659H171.254C168.699 97.4659 166.254 96.424 164.482 94.5795L157.762 87.5847C155.991 85.7407 153.546 84.6982 150.991 84.6982H96.1009C90.7349 84.6982 86.5561 89.3651 87.1364 94.71L99.6893 210.321C100.187 214.906 104.051 218.378 108.654 218.378H251.414C256.776 218.378 260.953 213.718 260.379 208.377L249.328 105.533C248.835 100.944 244.969 97.4654 240.363 97.4654V97.4659Z" fill="#2F4077"/>
<path d="M157.469 52.5674H111.214C108.501 52.5674 106.301 54.7711 106.301 57.49V125.099C106.301 127.817 108.5 130.021 111.214 130.021H162.557C165.27 130.021 167.47 127.818 167.47 125.099V62.5871C167.47 62.2666 167.343 61.9589 167.117 61.7324L158.323 52.9218C158.097 52.6952 157.789 52.5674 157.469 52.5674Z" fill="#62DBE5"/>
<path d="M111.214 129.849H162.556C165.269 129.849 167.469 127.645 167.469 124.926V95.9231C165.08 95.4355 163.761 93.6748 162.286 92.14L156.203 85.7739C154.431 83.9299 151.033 83.0562 148.477 83.0562H106.301V124.927C106.301 127.645 108.5 129.849 111.214 129.849L111.214 129.849Z" fill="#419CA4"/>
<path d="M351.151 220H0.794253C0.355825 220 0 219.644 0 219.204C0 218.765 0.355825 218.409 0.794253 218.409H351.151C351.589 218.409 351.945 218.765 351.945 219.204C351.945 219.644 351.589 220 351.151 220Z" fill="#8BA7F8"/>
<path d="M99.8916 4.74589C100.635 4.75756 104.306 4.63236 104.479 4.78408C104.534 4.83236 104.701 5.80319 104.885 6.1894C105.998 8.53264 107.326 9.54644 109.819 10.2409C110.052 16.9932 110.078 22.5651 105.506 27.9062C104.093 29.5566 97.6555 34.8219 95.5926 34.3795C95.016 34.2558 91.8887 32.2983 91.202 31.815C87.7051 29.3556 83.9345 25.1799 82.8819 20.9603C82.0066 17.4499 82.5351 13.8287 82.3683 10.2409C84.4328 9.62178 85.9281 8.82495 86.9797 6.86314C87.2752 6.31194 87.3032 5.14006 87.6522 4.89019C88.1504 4.53369 98.3079 4.72042 99.8916 4.74536V4.74589Z" fill="#667DCF"/>
<path d="M47.3481 31.5837C44.1335 32.6994 40.0981 31.2776 36.7644 31.5896C36.3307 35.7238 35.5021 44.0697 39.6412 46.4629C41.8746 47.7541 45.2163 45.8167 47.8776 46.4379C47.3327 51.0141 48.2387 53.7419 42.5826 53.3345C40.0261 53.1504 37.8393 51.9393 35.699 50.682C36.0861 50.1621 34.8889 38.7318 33.8998 37.8973C32.0375 36.3265 29.8279 38.3169 30.512 40.7334C31.3677 43.7573 31.8596 42.1244 31.463 46.4379C30.1022 46.7228 30.3775 45.7812 30.026 44.9865C27.9641 40.3244 25.5882 30.5132 29.5245 26.458C30.0768 25.8893 36.8496 22.3264 37.6704 22.1561C40.3719 21.5954 42.4475 22.5306 44.9627 22.6134C46.1572 22.6527 47.4688 21.8097 48.5585 22.1036C52.0744 23.0521 50.3122 30.554 47.3481 31.5827V31.5837Z" fill="#343434"/>
<path d="M56.7886 87.332C55.289 80.4965 53.2335 72.7988 53.2335 72.7988C53.2949 73.4943 53.5216 88.2222 53.6862 97.0626C55.3801 98.4796 57.0968 98.4626 59.4854 98.2C59.506 98.1979 59.5235 98.1899 59.5383 98.1777C59.9947 97.7952 57.9254 92.6949 56.7886 87.3326V87.332Z" fill="#929292"/>
<path d="M83.9902 88.873C88.9368 83.6841 81.3909 86.2692 79.759 88.1021C79.4042 88.5006 79.2475 88.5324 79.1649 88.5955H79.1786V94.2847C79.1786 94.2847 79.1003 94.3032 78.9663 94.3351C81.2437 93.8544 83.6905 94.7393 86.0113 94.3738C89.5839 93.8109 91.3778 90.6597 91.479 89.125C91.6818 87.5674 83.9897 88.873 83.9897 88.873H83.9902Z" fill="#FCBFB7"/>
<path d="M25.6438 72.4316C25.6364 72.3318 23.8752 76.2544 23.5766 76.8799C22.8464 78.4077 21.3098 81.4666 19.8171 84.5536C20.264 90.1552 22.0892 105.476 23.0307 111.701C23.485 94.1234 25.7915 74.4576 25.6438 72.4316Z" fill="#929292"/>
<path d="M47.348 31.5835C48.6321 36.5178 48.4737 41.4313 47.8775 46.4377C45.2162 45.8165 41.8745 47.7544 39.6411 46.4626C35.502 44.0695 36.3307 35.7236 36.7643 31.5893C40.0981 31.2774 44.1339 32.6986 47.348 31.5835Z" fill="#FCBFB7"/>
<path d="M35.7652 50.776C35.7435 50.7453 35.7196 50.7124 35.6985 50.6821C35.6873 50.697 35.7154 50.7304 35.7652 50.776Z" fill="#AB7B6B"/>
<path d="M35.699 50.6821C35.7202 50.7124 35.744 50.7453 35.7657 50.776C36.9343 52.427 38.9777 55.1426 40.814 55.4795C41.6972 55.6413 42.3479 55.4509 42.583 55.4567V53.3347C38.9565 52.9734 36.5043 50.9569 35.699 50.6821Z" fill="#AB7B6B"/>
<path d="M45.2301 58.1091C45.0389 57.9484 44.8848 57.7441 44.7006 57.5786H45.2301V58.1091Z" fill="white"/>
<path d="M39.9351 76.1466L43.6347 81.45L44.7006 74.9163L44.4554 56.981L44.7006 74.9163L39.9351 76.1466Z" fill="#CFCFCF"/>
<path d="M79.1648 88.5958L60.0778 87.7942L52.9131 63.5384C52.9131 63.5384 51.6053 60.1278 48.9027 58.8429C46.244 57.5787 44.4559 56.9808 44.4559 56.9808L44.7006 74.9156L43.6352 81.4499L39.935 76.1459C39.8921 75.9963 30.3463 57.4816 29.345 57.0476C29.0882 56.9362 26.7049 56.9829 26.168 57.0476C16.423 58.2222 14.8673 65.722 11.6141 73.5008C10.4259 76.3416 8.57473 80.3852 7.6354 83.0425C6.71353 85.6504 4.74485 91.6552 5.33736 94.0765C5.72495 95.6611 8.19032 99.6813 9.13336 101.436C12.0642 106.888 15.552 111.723 19.025 116.451L22.9989 113.038C21.2653 108.568 16.0767 94.5889 16.0847 93.3794C16.0905 92.4536 17.9183 88.4807 19.8171 84.5533C21.3098 81.4658 22.8464 78.4069 23.5766 76.8796C23.8758 76.2541 25.6369 72.3321 25.6438 72.4313C25.7915 74.4573 23.485 94.1232 23.0307 111.7C23.019 112.148 23.0079 112.594 22.9989 113.038C23.1826 113.446 27.8894 116.963 28.9463 119.011C29.1014 119.312 28.9113 119.674 28.5751 119.709L26.7086 119.907C27.3996 121.137 28.7456 123.038 28.8155 124.423C28.8192 124.493 28.8181 124.558 28.8192 124.626H41.4817L42.9543 119.389L44.8017 124.423H53.1726L53.6867 97.0627C53.5215 88.2223 53.2954 73.4949 53.234 72.7989C53.234 72.7989 55.2895 80.4966 56.7891 87.3321C57.9259 92.6945 59.9958 97.7948 59.5388 98.1773C64.9815 97.624 77.2353 94.746 78.9668 94.3354C79.1007 94.3035 79.1791 94.285 79.1791 94.285V88.5963L79.1648 88.5958Z" fill="#CFCFCF"/>
<path d="M26.7086 119.908L28.5751 119.71C28.9114 119.674 29.1014 119.312 28.9463 119.012C27.8894 116.963 23.1827 113.446 22.9989 113.039L19.025 116.451C19.6578 117.312 21.1256 122.888 22.9915 124.953C24.8707 127.032 28.8759 128.442 28.8198 124.625C28.8187 124.558 28.8198 124.493 28.816 124.422C28.7462 123.038 27.4002 121.136 26.7092 119.907L26.7086 119.908Z" fill="#FCBFB7"/>
<path d="M28.8192 124.625C28.3188 126.946 26.0351 127.718 23.4823 125.406C22.7278 126.989 20.9127 149.835 19.7409 162.772C19.6535 163.739 16.2652 171.42 14.3723 176.949C13.0178 180.905 8.79872 197.287 7.66506 203.283C7.65076 203.36 15.1183 207.798 15.1183 207.798L24.9173 186.652L30.7365 174.59C32.8995 167.748 37.3241 151.92 38.0452 148.188C39.9822 138.577 41.0645 132.37 41.4812 124.626H28.8187L28.8192 124.625Z" fill="#2F4077"/>
<path d="M42.5825 55.4566C42.3474 55.4507 41.6966 55.6412 40.8134 55.4794C38.9776 55.143 36.9343 52.4274 35.7651 50.7759C35.7154 50.7308 35.6878 50.6974 35.6984 50.682C36.0855 50.1616 34.8883 38.7318 33.8992 37.8973C32.0369 36.3265 29.8273 38.3169 30.5114 40.7334C31.3671 43.7573 31.859 42.1244 31.4624 46.4379C31.2247 49.022 31.0637 51.6889 30.3939 54.1987L39.1402 58.4815L42.5825 55.4566Z" fill="#FCBFB7"/>
<path d="M42.5825 55.4566L39.1408 58.4815L30.3944 54.1987L29.345 57.0481C30.3463 57.482 39.8911 75.9941 39.935 76.1463L39.6644 63.8932L38.1321 61.3197L39.6644 58.8316L41.5489 60.7781L40.7012 63.7579L44.7005 74.9161L44.4559 56.9812L42.5825 55.4566Z" fill="#EDEDED"/>
<path d="M44.7006 74.916L40.7007 63.7578L41.549 60.778L39.6645 58.8315L38.1321 61.3196L39.6645 63.8931L39.935 76.1462L43.6347 81.4497L44.7006 74.916Z" fill="#343434"/>
<path d="M48.6899 210.832C48.7121 211.57 48.7285 212.366 48.6766 212.57C49.6308 212.518 50.433 213.202 51.3702 213.21C52.2561 213.216 53.2404 212.603 54.0733 212.57L54.0707 210.503L48.6899 210.832Z" fill="#FCBFB7"/>
<path d="M55.8551 210.394L53.1721 124.444H44.8012L42.9538 119.388L41.5231 124.444L38.0453 148.187C38.0453 148.187 43.2688 178.016 43.5849 180.7C44.5947 189.28 46.988 210.936 46.988 210.936L48.6899 210.832L54.0707 210.503L55.8551 210.393V210.394Z" fill="#273962"/>
<path d="M54.1024 212.519C53.2695 212.552 52.2852 213.166 51.3993 213.159C50.4621 213.151 49.6599 212.466 48.7057 212.519C48.5331 213.198 47.4106 214.399 47.3973 216.448C47.3915 217.356 47.6001 218.119 48.0709 218.375L56.6557 218.367C57.8862 218.343 63.2448 218.395 63.4153 218.367C63.8982 218.287 64.532 218.288 64.7872 217.979C66.1311 216.358 63.6504 215.9 62.0847 215.391C60.9738 215.184 55.163 212.664 54.7368 212.519C54.6134 212.478 54.2867 212.512 54.1019 212.519L54.1024 212.519Z" fill="#343434"/>
<path d="M12.7028 207.992C12.8574 207.748 13.1799 207.317 13.5574 206.821C12.231 206.065 10.6346 205.097 9.36272 204.349C9.00425 204.954 8.70932 205.436 8.58118 205.617C9.13451 206.112 9.48874 206.827 10.1353 207.214C10.8676 207.652 11.9658 207.643 12.7028 207.992Z" fill="#FCBFB7"/>
<path d="M17.8072 214.144C16.9531 213.403 13.6337 208.693 13.3387 208.353C13.2535 208.254 12.9543 208.119 12.7912 208.031C12.7637 208.016 12.7319 208.006 12.7033 207.992C11.9663 207.643 10.8686 207.652 10.1363 207.214C9.48977 206.827 9.13554 206.112 8.58221 205.617C8.44666 205.495 8.30263 205.383 8.13531 205.297C7.95687 205.478 6.29952 205.875 5.02395 208.024C4.56064 208.805 4.58394 209.179 4.86034 209.638L11.9345 214.529C12.8738 215.276 17.525 218.064 17.6865 218.126C18.1434 218.302 18.4532 218.197 18.8291 218.06C20.8068 217.341 18.9006 215.377 17.8072 214.144Z" fill="#343434"/>
<path d="M291.574 87.7378C291.893 88.5755 291.442 91.5485 291.305 92.5983C290.383 92.5325 288.121 92.8944 286.723 92.8684C286.098 92.8567 284.265 93.0084 283.636 92.87C283.305 92.7967 281.833 91.6195 281.676 91.3177C281.341 90.6726 280.27 89.3293 281.439 88.4731C282.898 87.4063 286.991 87.4652 286.991 87.4652C286.626 86.88 285.61 86.8726 285.246 86.1124C284.306 84.15 287.47 85.3548 288.522 85.7999C288.979 85.993 291.494 87.5272 291.574 87.7378Z" fill="#AB7B6B"/>
<path d="M333.35 49.6628C333.2 49.5116 330.111 51.5477 329.641 51.7493C328.857 52.0856 327.673 52.3992 326.486 52.4533L326.513 56.3419L326.617 56.4257C328.154 55.4071 329.727 53.8777 330.188 53.4257C331.608 52.0299 333.38 50.1726 333.35 49.6628Z" fill="#755348"/>
<path d="M356.459 65.6858C356.459 65.6858 350.478 63.4916 350.331 58.846C350.184 54.2003 350.772 50.7154 351.043 47.526C351.314 44.3366 351.03 38.4326 349.542 35.0495C348.841 33.4575 347.424 32.2373 345.667 31.301C343.909 30.3652 342.201 30.9005 341.151 30.4039C340.1 29.9073 338.209 25.6378 333.252 24.6898C328.295 23.7418 323.563 25.6972 320.995 28.1211C318.426 30.545 320.621 37.5965 320.621 37.5965C320.621 37.5965 320.622 37.5901 320.622 37.5875C320.633 37.4952 320.847 35.6103 321.187 34.3609C321.424 33.492 322.172 31.8856 322.397 31.8405C322.623 31.7954 322.552 33.5212 325.704 35.0862C327.033 35.7461 329.939 36.0061 331.473 37.1249C333.008 38.2432 333.086 40.4708 333.32 40.5148C334.454 40.7281 334.688 37.9122 336.1 38.239C336.209 38.2586 336.304 38.2909 336.393 38.3297C338.96 39.1599 337.631 42.1552 336.698 43.7896C336.698 43.7896 335.03 45.9462 335.842 47.605C335.839 47.6199 335.838 47.6363 335.837 47.6512C336.375 47.5764 337.278 47.4024 337.961 47.0257C339.031 46.4358 340.468 44.978 341.901 41.4984C341.552 42.3493 339.584 47.5133 340.316 54.2045C340.708 57.7865 345.363 66.4232 350.241 66.6539C351.997 66.7367 356.279 66.9049 356.756 66.6539C357.233 66.403 356.459 65.6858 356.459 65.6858Z" fill="#343434"/>
<path d="M316.156 203.715L315.904 206.306C315.873 206.621 315.76 206.92 315.573 207.175C314.526 208.607 310.881 213.519 309.729 214.135C309.502 214.257 309.389 214.413 309.345 214.585C310.053 215.467 310.821 216.166 312.743 215.589C314.771 214.979 321.936 207.597 321.936 207.597L321.939 204.068L321.4 204.035L316.157 203.715H316.156Z" fill="#AB7B6B"/>
<path d="M312.742 215.589C310.821 216.166 310.053 215.467 309.345 214.586C309.306 214.537 309.267 214.487 309.228 214.438C309.228 214.438 306.469 216.564 306.186 216.943C304.88 218.694 305.172 218.31 309.768 218.446C314.365 218.582 319.773 213.828 319.773 213.828L320.339 218.449H321.283C321.283 218.449 322.815 213.895 322.815 211.796C322.815 209.697 321.936 207.597 321.936 207.597C321.936 207.597 314.77 214.979 312.742 215.589Z" fill="#343434"/>
<path d="M338.534 206.025C338.34 206.023 338.152 206.021 337.971 206.018L337.923 206.509C337.892 206.824 337.779 207.123 337.592 207.378C336.545 208.81 332.901 213.723 331.748 214.339C331.521 214.46 331.408 214.616 331.365 214.789C332.072 215.67 332.841 216.369 334.762 215.792C336.79 215.183 343.955 207.801 343.955 207.801L343.957 206.061C343.783 206.062 343.604 206.063 343.416 206.063C341.941 206.064 340.06 206.045 338.534 206.025Z" fill="#AB7B6B"/>
<path d="M340.914 104.21H340.898L328.606 104.21L328.182 131.783C328.182 131.783 328.156 132.124 328.11 132.743C329.139 134.649 331.45 153.39 332.083 157.871L335.793 205.984C335.793 205.984 336.701 206 337.971 206.018C338.151 206.021 338.34 206.023 338.533 206.025C340.06 206.045 341.941 206.064 343.416 206.062C343.603 206.062 343.783 206.062 343.957 206.061C345.079 206.055 345.859 206.033 345.858 205.984C345.733 202.028 345.896 175.371 345.85 172.195C345.806 169.197 345.323 152.648 345.32 148.853C345.32 148.145 345.009 131.135 345.008 130.428C345.005 123.078 345.546 118.718 344.772 113.258C343.743 108.334 341.31 105.151 340.913 104.21H340.914Z" fill="#272747"/>
<path d="M328.606 104.21H316.91H316.894C316.894 104.21 314.799 117.441 314.145 122.843C311.789 142.306 314.235 203.598 314.235 203.598L316.02 203.707L316.157 203.715L321.4 204.036L321.939 204.069L323.102 204.14C323.102 204.14 323.996 181.382 325.006 172.802C325.292 170.37 327.666 138.692 328.111 132.743C328.157 132.125 328.183 131.784 328.183 131.784L328.607 104.211L328.606 104.21Z" fill="#272747"/>
<path d="M330.931 58.8674C334.048 58.8525 336.699 56.426 336.699 56.426C335.996 52.0297 335.636 49.3034 335.836 47.6514C335.837 47.6365 335.838 47.6201 335.84 47.6052C335.029 45.9458 336.697 43.7898 336.697 43.7898C337.63 42.1553 338.959 39.1601 336.392 38.3299C336.296 38.2991 336.206 38.2641 336.099 38.2391C334.687 37.9124 334.453 40.7283 333.319 40.515C333.084 40.471 333.007 38.2434 331.472 37.1251C329.938 36.0068 327.032 35.7463 325.703 35.0863C322.551 33.5214 322.621 31.7956 322.396 31.8407C322.171 31.8858 321.422 33.4922 321.186 34.3611C320.846 35.6105 320.632 37.4954 320.621 37.5877C320.429 41.3845 320.891 49.1177 323.19 51.471C323.979 52.279 325.234 52.5108 326.486 52.4535C327.673 52.3994 328.857 52.0859 329.64 51.7496C330.111 51.5474 333.2 49.5119 333.35 49.6631C333.38 50.1729 331.608 52.0297 330.187 53.426C329.727 53.878 328.154 55.4074 326.617 56.426C326.521 56.4896 326.429 56.5506 326.336 56.6127C326.337 56.6143 327.815 58.8822 330.931 58.8674Z" fill="#AB7B6B"/>
<path d="M328.606 104.21H340.898C340.898 104.194 340.935 85.9002 341.363 82.5246C341.73 79.6349 342.129 76.1134 342.129 76.1134L352.533 90.045C352.533 90.045 353.11 92.0254 352.343 93.3411C351.585 94.6424 337.872 104.685 337.872 104.685L340.143 109.369L360.185 95.8583C360.185 95.8583 362.244 91.8764 361.976 90C361.367 85.7331 348.393 63.1781 348.393 63.1781C348.393 63.1781 347.086 59.8799 344.439 58.5733C341.792 57.2661 336.699 56.4258 336.699 56.4258C336.699 56.4258 334.049 58.8523 330.931 58.8672C327.815 58.882 326.337 56.6141 326.336 56.6125L320.206 58.4152C317.087 59.2635 310.81 82.1835 309.786 85.9973C309.7 86.3172 309.415 86.5384 309.085 86.5458L291.575 87.7379L291.305 92.5984C291.305 92.5984 311.306 95.6631 315.024 93.8567C317.204 92.7978 318.722 84.4392 319.337 80.4927L316.91 104.21H328.606Z" fill="#74A5EC"/>
<path d="M343.334 79.2924C343.327 79.1926 341.195 68.0716 341.195 68.765C341.195 71 342.006 74.3863 339.471 80.2218C339.641 82.3529 339.497 87.1418 339.471 89.2516C339.402 95.0272 340.377 98.3307 340.96 102.187C341.415 84.6096 343.482 81.3179 343.334 79.2924Z" fill="#417DC4"/>
<path d="M316.838 79.6687C318.338 72.8331 318.839 68.7339 318.839 68.7339C318.796 69.222 318.497 70.857 318.583 75.2665C318.62 77.1456 319.354 78.3477 319.305 80.9891L317.885 88.5966C317.427 89.9807 316.623 93.7664 314.339 94.0937C314.319 94.0963 315.302 88.6608 315.305 88.6417C315.619 86.9939 315.702 85.0305 316.839 79.6682L316.838 79.6687Z" fill="#417DC4"/>
<path d="M136.885 88.8169C144.558 88.8169 150.778 82.5849 150.778 74.8975C150.778 67.21 144.558 60.978 136.885 60.978C129.212 60.978 122.992 67.21 122.992 74.8975C122.992 82.5849 129.212 88.8169 136.885 88.8169Z" fill="white"/>
<path d="M165.478 63.3727H157.899C157.801 63.3727 157.721 63.2931 157.721 63.1944V55.6008C157.721 55.4422 157.913 55.3626 158.025 55.475L165.604 63.0687C165.716 63.1812 165.637 63.3727 165.478 63.3727Z" fill="white"/>
<path d="M138.492 80.5145C136.301 80.5145 134.408 79.2519 133.486 77.4153H136.844V75.6063H132.936C132.907 75.3734 132.886 75.1378 132.886 74.8975C132.886 74.6572 132.907 74.4211 132.936 74.1888H136.844V72.3797H133.486C134.408 70.5436 136.301 69.2805 138.492 69.2805C139.422 69.2805 140.296 69.5107 141.067 69.9113L142.875 68.585C141.632 67.7166 140.123 67.2041 138.492 67.2041C135.133 67.2041 132.284 69.3691 131.242 72.3797H129.105V74.1888H130.848C130.827 74.4227 130.813 74.6582 130.813 74.8975C130.813 75.1368 130.827 75.3728 130.848 75.6063H129.105V77.4153H131.242C132.284 80.4259 135.133 82.5909 138.492 82.5909C140.123 82.5909 141.632 82.0784 142.875 81.21L141.067 79.8837C140.295 80.2843 139.421 80.5145 138.492 80.5145Z" fill="#62DBE5"/>
<path d="M157.329 94.8799H114.651C114.253 94.8799 113.93 95.2034 113.93 95.6024V96.2438C113.93 96.6429 114.253 96.9664 114.651 96.9664H157.329C157.727 96.9664 158.05 96.6429 158.05 96.2438V95.6024C158.05 95.2034 157.727 94.8799 157.329 94.8799Z" fill="white"/>
<path d="M157.329 100.145H114.651C114.253 100.145 113.93 100.469 113.93 100.868V101.509C113.93 101.908 114.253 102.232 114.651 102.232H157.329C157.727 102.232 158.05 101.908 158.05 101.509V100.868C158.05 100.469 157.727 100.145 157.329 100.145Z" fill="white"/>
<path d="M157.329 105.41H114.651C114.253 105.41 113.93 105.733 113.93 106.132V106.774C113.93 107.173 114.253 107.496 114.651 107.496H157.329C157.727 107.496 158.05 107.173 158.05 106.774V106.132C158.05 105.733 157.727 105.41 157.329 105.41Z" fill="white"/>
<path d="M157.329 110.674H114.651C114.253 110.674 113.93 110.997 113.93 111.396V112.038C113.93 112.437 114.253 112.76 114.651 112.76H157.329C157.727 112.76 158.05 112.437 158.05 112.038V111.396C158.05 110.997 157.727 110.674 157.329 110.674Z" fill="white"/>
<path d="M130.378 118.025H114.972C114.397 118.025 113.931 117.558 113.931 116.982C113.931 116.406 114.397 115.939 114.972 115.939H130.378C130.953 115.939 131.452 116.406 131.452 116.982C131.452 117.558 130.953 118.025 130.378 118.025Z" fill="white"/>
<path d="M234.392 29.5376H188.137C185.424 29.5376 183.224 31.7413 183.224 34.4602V102.069C183.224 104.787 185.423 106.992 188.137 106.992H239.48C242.193 106.992 244.393 104.788 244.393 102.069V39.5573C244.393 39.2368 244.266 38.9292 244.04 38.7026L235.246 29.892C235.02 29.6654 234.712 29.5381 234.393 29.5381L234.392 29.5376Z" fill="#62DBE5"/>
<path d="M213.808 65.7866C221.481 65.7866 227.701 59.5547 227.701 51.8672C227.701 44.1797 221.481 37.9478 213.808 37.9478C206.135 37.9478 199.915 44.1797 199.915 51.8672C199.915 59.5547 206.135 65.7866 213.808 65.7866Z" fill="white"/>
<path d="M242.401 40.3424H234.822C234.724 40.3424 234.644 40.2628 234.644 40.1642V32.5705C234.644 32.4119 234.836 32.3323 234.948 32.4448L242.527 40.0384C242.639 40.1509 242.56 40.3424 242.401 40.3424Z" fill="white"/>
<path d="M234.252 71.8501H191.574C191.176 71.8501 190.853 72.1736 190.853 72.5726V73.214C190.853 73.6131 191.176 73.9366 191.574 73.9366H234.252C234.65 73.9366 234.973 73.6131 234.973 73.214V72.5726C234.973 72.1736 234.65 71.8501 234.252 71.8501Z" fill="white"/>
<path d="M234.252 77.1147H191.574C191.176 77.1147 190.853 77.4383 190.853 77.8373V78.4787C190.853 78.8777 191.176 79.2012 191.574 79.2012H234.252C234.65 79.2012 234.973 78.8777 234.973 78.4787V77.8373C234.973 77.4383 234.65 77.1147 234.252 77.1147Z" fill="white"/>
<path d="M234.252 82.3794H191.574C191.176 82.3794 190.853 82.7029 190.853 83.1019V83.7433C190.853 84.1424 191.176 84.4659 191.574 84.4659H234.252C234.65 84.4659 234.973 84.1424 234.973 83.7433V83.1019C234.973 82.7029 234.65 82.3794 234.252 82.3794Z" fill="white"/>
<path d="M234.252 87.644H191.574C191.176 87.644 190.853 87.9675 190.853 88.3666V89.008C190.853 89.407 191.176 89.7305 191.574 89.7305H234.252C234.65 89.7305 234.973 89.407 234.973 89.008V88.3666C234.973 87.9675 234.65 87.644 234.252 87.644Z" fill="white"/>
<path d="M207.301 94.9951H191.895C191.32 94.9951 190.854 94.5283 190.854 93.9522C190.854 93.376 191.32 92.9092 191.895 92.9092H207.301C207.876 92.9092 208.374 93.376 208.374 93.9522C208.374 94.5283 207.876 94.9951 207.301 94.9951Z" fill="white"/>
<path d="M217.696 58.4769H216.152V53.3363C216.152 53.2981 215.915 52.7225 215.865 52.6286C215.055 51.0795 212.748 51.0535 211.844 52.5586C211.772 52.6785 211.518 53.1453 211.518 53.226V58.4769H209.973V53.0047C209.973 52.766 210.485 51.7209 210.655 51.4769C212.279 49.1495 215.922 49.3989 217.258 51.8965C217.355 52.079 217.697 52.8647 217.697 53.0047V58.4769H217.696Z" fill="#62DBE5"/>
<path d="M213.144 42.916C216.689 42.3504 218.33 46.6587 215.593 48.5754C214.182 49.5632 212.217 49.134 211.249 47.7462C210.036 46.0067 211.01 43.256 213.144 42.916ZM213.474 44.4635C211.68 44.7871 212.033 47.7319 213.988 47.525C216.069 47.3048 215.695 44.0629 213.474 44.4635Z" fill="#62DBE5"/>
<path d="M208.287 47.558C210.015 47.2009 211.386 49.0025 210.396 50.5548C209.502 51.958 207.338 51.6397 206.89 50.0131C206.605 48.9776 207.186 47.7855 208.287 47.558H208.287ZM208.611 49.0911C208.176 49.2344 208.299 50.0062 208.9 49.8381C209.448 49.6842 209.14 48.9176 208.611 49.0911Z" fill="#62DBE5"/>
<path d="M206.001 54.5523C206.209 53.0834 207.959 51.7863 209.422 52.2881C209.2 52.5528 209.256 53.7788 209.201 53.8345C209.167 53.869 208.535 53.7974 208.236 53.9178C208.081 53.9799 207.655 54.4277 207.655 54.5523V58.4765H206C206.124 57.26 205.834 55.7274 206.001 54.5523Z" fill="#62DBE5"/>
<path d="M218.438 47.5578C221.102 47.0071 221.648 50.8883 219.468 51.3525C216.544 51.9748 216.119 48.0373 218.438 47.5578ZM218.767 49.0978C218.429 49.1938 218.361 49.6342 218.689 49.7997C219.397 50.1567 219.487 48.8931 218.767 49.0978Z" fill="#62DBE5"/>
<path d="M221.668 58.4766H220.013V54.5525C220.013 54.4278 219.587 53.9801 219.433 53.918C219.133 53.797 218.501 53.8697 218.467 53.8347C218.413 53.779 218.435 52.5355 218.247 52.2888C219.291 51.9084 220.639 52.5604 221.208 53.4649C221.319 53.6411 221.667 54.5137 221.667 54.6628V58.4766H221.668Z" fill="#62DBE5"/>
<path d="M282.736 110.076H223.777C221.002 110.076 218.298 110.952 216.049 112.58L209.476 117.336C207.227 118.963 204.523 119.839 201.749 119.839H135.72C132.475 119.839 129.58 121.884 128.489 124.946L99.5506 206.191C97.7662 211.201 101.473 216.47 106.782 216.47H251.745C255.03 216.47 257.952 214.376 259.012 211.261L290.004 120.253C291.703 115.262 288 110.076 282.736 110.076Z" fill="#ADBFFC"/>
<path d="M284.188 111.986H225.228C222.454 111.986 219.75 112.862 217.501 114.489L210.928 119.245C208.679 120.873 205.975 121.749 203.201 121.749H137.172C133.926 121.749 131.032 123.793 129.941 126.856L101.003 208.101C99.2181 213.11 102.925 218.379 108.234 218.379H253.197C256.482 218.379 259.404 216.286 260.464 213.17L291.455 122.163C293.155 117.172 289.452 111.986 284.188 111.986Z" fill="#465F9D"/>
<path d="M202.924 184.333C242.65 167.153 261.157 137.244 269.759 111.985H225.245C222.47 111.985 219.767 112.861 217.517 114.489L210.944 119.245C208.695 120.872 205.991 121.748 203.217 121.748H137.188C133.942 121.748 131.048 123.793 129.956 126.855L105.155 196.484C128.381 201.202 162.309 201.898 202.924 184.333Z" fill="#667DCF"/>
<path d="M200.853 139.242C192.862 139.242 186.385 145.732 186.385 153.738V164.888H191.254V154.434C191.254 149.123 195.551 144.817 200.852 144.817C206.154 144.817 210.451 149.123 210.451 154.434V164.888H215.32V153.738C215.32 145.732 208.843 139.242 200.852 139.242H200.853Z" fill="#CFCFCF"/>
<path d="M196.726 139.941C196.565 139.941 196.406 139.948 196.246 139.953C196.229 139.959 196.211 139.965 196.194 139.971C196.37 139.953 196.547 139.941 196.726 139.941Z" fill="#929292"/>
<path d="M191.783 142.403C188.492 145.06 186.385 149.13 186.385 153.694V164.189H187.127V154.306C187.127 150.26 188.994 145.31 191.783 142.404V142.403Z" fill="#929292"/>
<path d="M200.853 144.811C206.154 144.811 210.452 149.117 210.452 154.428V164.882H211.193V155.334C211.193 147.329 205.49 144.625 200.852 144.811H200.853Z" fill="#929292"/>
<path d="M215.451 164.098H184.678C182.189 164.098 180.171 166.119 180.171 168.613V197.122C180.171 199.616 182.189 201.637 184.678 201.637H215.451C217.94 201.637 219.958 199.616 219.958 197.122V168.613C219.958 166.119 217.94 164.098 215.451 164.098Z" fill="#C3992A"/>
<path d="M217.028 164.098H186.254C183.765 164.098 181.747 166.119 181.747 168.613V197.122C181.747 199.616 183.765 201.637 186.254 201.637H217.028C219.517 201.637 221.534 199.616 221.534 197.122V168.613C221.534 166.119 219.517 164.098 217.028 164.098Z" fill="#FCD17B"/>
<path d="M206.07 179.313C206.07 176.427 203.734 174.087 200.852 174.087C197.971 174.087 195.636 176.427 195.636 179.313C195.636 181.418 196.88 183.228 198.669 184.056L197.862 191.648H203.844L203.036 184.056C204.825 183.227 206.07 181.418 206.07 179.313Z" fill="#343434"/>
<path d="M188.136 106.991H239.479C242.193 106.991 244.392 104.787 244.392 102.068V98.417C243.175 97.8075 241.806 97.4658 240.363 97.4658H183.223V102.069C183.223 104.787 185.423 106.991 188.136 106.991Z" fill="#419CA4"/>
<path d="M335.05 215.588C333.129 216.165 332.361 215.466 331.653 214.585C331.613 214.536 331.574 214.487 331.535 214.437C331.535 214.437 328.776 216.563 328.493 216.943C327.187 218.694 327.479 218.31 332.076 218.446C336.672 218.581 341.652 213.827 341.652 213.827L342.488 218.448H343.32C343.32 218.448 344.851 213.895 344.851 211.796C344.851 209.696 343.973 207.597 343.973 207.597C343.973 207.597 337.078 214.979 335.05 215.588Z" fill="#343434"/>
<path d="M289.706 20.0072L286.004 15.3632C285.582 14.8337 284.811 14.7473 284.283 15.1701L269.869 26.7038C269.341 27.1266 268.57 27.0402 268.148 26.5107L264.737 22.2316C264.315 21.7022 263.544 21.6157 263.015 22.0385L258.38 25.7473C257.852 26.1701 257.765 26.9425 258.187 27.472L266.188 37.4715C266.976 38.4572 268.412 38.6169 269.397 37.8285L289.514 21.7314C290.043 21.3086 290.129 20.5361 289.707 20.0067L289.706 20.0072Z" fill="#667DCF"/>
<path d="M279.481 86.5118C279.442 87.0975 279.906 87.5946 280.492 87.5946H281.485C282.045 87.5946 282.498 88.0492 282.498 88.6094V89.35C282.498 90.1643 283.408 90.6471 284.081 90.1898L285.35 89.3267C285.968 88.906 286.813 89.2784 286.921 90.0195L287.257 92.3203C287.344 92.9134 287.922 93.3028 288.502 93.159L290.958 92.5516C291.559 92.4031 292.151 92.8238 292.21 93.4402L292.416 95.6015C292.474 96.2089 293.05 96.628 293.644 96.4959L295.887 95.9967C296.52 95.8561 297.12 96.3384 297.12 96.9872V98.9044C297.12 99.2413 297.286 99.5564 297.565 99.7447L300.92 102.019C300.755 102.945 300.653 103.894 300.653 104.868C300.653 113.723 307.818 120.901 316.657 120.901C325.495 120.901 332.66 113.723 332.66 104.868C332.66 96.0126 325.495 88.8338 316.657 88.8338C312.588 88.8338 308.885 90.3675 306.061 92.8736L285.377 79.1929C285.337 79.1664 285.3 79.1446 285.256 79.124C284.811 78.9149 282.144 77.8019 280.123 80.0173C279.974 80.1807 279.892 80.3982 279.877 80.6189L279.482 86.5123L279.481 86.5118ZM318.075 108.922C318.075 106.594 319.959 104.707 322.283 104.707C324.606 104.707 326.49 106.594 326.49 108.922C326.49 111.25 324.606 113.138 322.283 113.138C319.959 113.138 318.075 111.25 318.075 108.922Z" fill="#929292"/>
<path d="M279.481 87.6754C279.442 88.261 279.906 88.7581 280.492 88.7581H281.485C282.045 88.7581 282.498 89.2128 282.498 89.773V90.5136C282.498 91.3279 283.408 91.8107 284.081 91.3534L285.35 90.4902C285.968 90.0695 286.813 90.442 286.921 91.1831L287.257 93.4839C287.344 94.077 287.922 94.4664 288.502 94.3226L290.958 93.7152C291.559 93.5666 292.151 93.9873 292.21 94.6038L292.416 96.7651C292.474 97.3725 293.05 97.7916 293.644 97.6595L295.887 97.1603C296.52 97.0197 297.12 97.5019 297.12 98.1507V100.068C297.12 100.405 297.286 100.72 297.565 100.908L300.92 103.183C300.755 104.108 300.653 105.057 300.653 106.031C300.653 114.887 307.818 122.065 316.657 122.065C325.495 122.065 332.66 114.887 332.66 106.031C332.66 97.1762 325.495 89.9974 316.657 89.9974C312.588 89.9974 308.885 91.5311 306.061 94.0372L285.377 80.3565C285.337 80.33 285.3 80.3082 285.256 80.2875C284.811 80.0785 282.144 78.9655 280.123 81.1809C279.974 81.3443 279.892 81.5618 279.877 81.7825L279.482 87.6759L279.481 87.6754ZM318.075 110.086C318.075 107.757 319.959 105.87 322.283 105.87C324.606 105.87 326.49 107.758 326.49 110.086C326.49 112.414 324.606 114.301 322.283 114.301C319.959 114.301 318.075 112.414 318.075 110.086Z" fill="#CFCFCF"/>
<path d="M337.872 104.685C336.1 104.929 334.271 104.483 332.797 105.318C332.516 105.478 332.659 105.87 332.66 106.436L332.505 107.909C331.31 108.53 329.034 109.488 328.255 110.559C328.216 110.613 328.182 110.666 328.146 110.72C326.108 113.744 330.049 114.716 332.639 114.038C334.825 113.465 338.099 110.719 339.619 109.689C339.829 109.547 340.007 109.436 340.143 109.369L337.873 104.686L337.872 104.685Z" fill="#AB7B6B"/>
</g>
<defs>
<clipPath id="clip0_5434_56262">
<rect width="362" height="220" fill="white"/>
</clipPath>
</defs>
</svg>
