<svg width="316" height="205" viewBox="0 0 316 205" fill="none" xmlns="http://www.w3.org/2000/svg">
<path d="M181.5 0.5H315.5V204.5H16.5V0.5H181.5Z" stroke="#191A49" stroke-linecap="round"/>
<mask id="mask0" mask-type="alpha" maskUnits="userSpaceOnUse" x="0" y="0" width="316" height="205">
<rect width="316" height="205" fill="#AAAEE1"/>
</mask>
<g mask="url(#mask0)">
<g opacity="0.36">
<rect x="58" y="25.9999" width="97" height="8" fill="#AAAEE1"/>
<rect x="57.6406" y="40.59" width="124" height="3.63309" fill="#AAAEE1"/>
<rect x="57.6406" y="58.0291" width="122.798" height="3.63309" fill="#AAAEE1"/>
<rect x="57.6406" y="63.8409" width="122.072" height="3.63309" fill="#AAAEE1"/>
<rect x="57.6406" y="69.6539" width="122.798" height="3.63309" fill="#AAAEE1"/>
<rect x="57.6406" y="75.467" width="122.072" height="3.63309" fill="#AAAEE1"/>
<rect x="57.6406" y="81.28" width="122.798" height="3.63309" fill="#AAAEE1"/>
<rect x="57.6406" y="87.093" width="122.072" height="3.63309" fill="#AAAEE1"/>
<rect x="57.6406" y="92.906" width="122.798" height="3.63309" fill="#AAAEE1"/>
<rect x="57.6406" y="98.7191" width="122.072" height="3.63309" fill="#AAAEE1"/>
<rect x="57.6406" y="104.532" width="122.798" height="3.63309" fill="#AAAEE1"/>
<rect x="57.6406" y="110.345" width="122.072" height="3.63309" fill="#AAAEE1"/>
<rect x="57.6406" y="46.403" width="124" height="3.63309" fill="#AAAEE1"/>
<rect x="57.6406" y="52.2161" width="122.072" height="3.63309" fill="#AAAEE1"/>
</g>
<path fill-rule="evenodd" clip-rule="evenodd" d="M96.0032 100.399C96.0032 100.399 118.16 59.5128 138.011 48.3968C157.862 37.2807 164.892 23.4081 166.342 1.00011C179.313 0.999691 221.087 1.00034 239.675 1.00034C258.262 1.00034 315.002 0.999969 315.002 0.999969V74.5553C315.002 74.5553 315 133.236 315 149C296.542 149 294.458 139.167 260.27 146.984C216.048 157.095 182.498 147.602 156.366 124.255C130.234 100.907 106.286 109.842 100.992 109.842C95.6994 109.842 96.0032 100.399 96.0032 100.399Z" fill="url(#paint0_linear)"/>
<rect x="196.425" y="24" width="77.0214" height="28.3381" rx="4" fill="#D8E5E8"/>
<path fill-rule="evenodd" clip-rule="evenodd" d="M196.903 45.0714C200.715 45.0714 203.806 41.9808 203.806 38.1685C203.806 34.3561 200.715 31.2656 196.903 31.2656C193.091 31.2656 190 34.3561 190 38.1685C190 41.9808 193.091 45.0714 196.903 45.0714Z" fill="white"/>
<rect x="196.425" y="58.8769" width="77.0214" height="28.3381" rx="4" fill="#D8E5E8"/>
<path fill-rule="evenodd" clip-rule="evenodd" d="M197 79.9999C200.866 79.9999 204 76.8659 204 72.9999C204 69.1339 200.866 65.9999 197 65.9999C193.134 65.9999 190 69.1339 190 72.9999C190 76.8659 193.134 79.9999 197 79.9999Z" fill="white"/>
<rect x="196.425" y="93.7552" width="77.0214" height="20.3453" rx="4" fill="#D8E5E8"/>
<path fill-rule="evenodd" clip-rule="evenodd" d="M196.788 111.194C200.6 111.194 203.69 108.103 203.69 104.291C203.69 100.479 200.6 97.3882 196.788 97.3882C192.975 97.3882 189.885 100.479 189.885 104.291C189.885 108.103 192.975 111.194 196.788 111.194Z" fill="white"/>
<rect x="206.596" y="29.0848" width="53.7697" height="2.17985" rx="1.08993" fill="white"/>
<rect x="213.137" y="34.8983" width="47.2301" height="2.17985" rx="1.08993" fill="white"/>
<rect x="213.137" y="39.9852" width="47.2301" height="2.17985" rx="1.08993" fill="white"/>
<rect x="213.137" y="45.0712" width="47.2301" height="2.17985" rx="1.08993" fill="white"/>
<path fill-rule="evenodd" clip-rule="evenodd" d="M210.592 37.0782C211.194 37.0782 211.682 36.5902 211.682 35.9882C211.682 35.3863 211.194 34.8983 210.592 34.8983C209.99 34.8983 209.502 35.3863 209.502 35.9882C209.502 36.5902 209.99 37.0782 210.592 37.0782Z" fill="white"/>
<path fill-rule="evenodd" clip-rule="evenodd" d="M210.592 42.1651C211.194 42.1651 211.682 41.6771 211.682 41.0752C211.682 40.4732 211.194 39.9852 210.592 39.9852C209.99 39.9852 209.502 40.4732 209.502 41.0752C209.502 41.6771 209.99 42.1651 210.592 42.1651Z" fill="white"/>
<path fill-rule="evenodd" clip-rule="evenodd" d="M210.592 47.251C211.194 47.251 211.682 46.763 211.682 46.1611C211.682 45.5591 211.194 45.0712 210.592 45.0712C209.99 45.0712 209.502 45.5591 209.502 46.1611C209.502 46.763 209.99 47.251 210.592 47.251Z" fill="white"/>
<rect x="206.596" y="63.9618" width="53.7697" height="3.63309" rx="1.81654" fill="white"/>
<rect x="213.137" y="69.7753" width="47.2301" height="2.17985" rx="1.08993" fill="white"/>
<rect x="213.137" y="73.4081" width="47.2301" height="2.17985" rx="1.08993" fill="white"/>
<rect x="213.137" y="77.0409" width="47.2301" height="2.17985" rx="1.08993" fill="white"/>
<rect x="213.137" y="80.6737" width="47.2301" height="2.17985" rx="1.08993" fill="white"/>
<path fill-rule="evenodd" clip-rule="evenodd" d="M210.592 71.9551C211.194 71.9551 211.682 71.4671 211.682 70.8652C211.682 70.2632 211.194 69.7753 210.592 69.7753C209.99 69.7753 209.502 70.2632 209.502 70.8652C209.502 71.4671 209.99 71.9551 210.592 71.9551Z" fill="white"/>
<path fill-rule="evenodd" clip-rule="evenodd" d="M210.592 75.5879C211.194 75.5879 211.682 75.1 211.682 74.498C211.682 73.8961 211.194 73.4081 210.592 73.4081C209.99 73.4081 209.502 73.8961 209.502 74.498C209.502 75.1 209.99 75.5879 210.592 75.5879Z" fill="white"/>
<path fill-rule="evenodd" clip-rule="evenodd" d="M210.592 79.2207C211.194 79.2207 211.682 78.7328 211.682 78.1308C211.682 77.5289 211.194 77.0409 210.592 77.0409C209.99 77.0409 209.502 77.5289 209.502 78.1308C209.502 78.7328 209.99 79.2207 210.592 79.2207Z" fill="white"/>
<path fill-rule="evenodd" clip-rule="evenodd" d="M210.592 82.8536C211.194 82.8536 211.682 82.3656 211.682 81.7636C211.682 81.1617 211.194 80.6737 210.592 80.6737C209.99 80.6737 209.502 81.1617 209.502 81.7636C209.502 82.3656 209.99 82.8536 210.592 82.8536Z" fill="white"/>
<rect x="206.598" y="98.8417" width="53.7697" height="3.63309" rx="1.81654" fill="white"/>
<rect x="206.598" y="104.655" width="49.41" height="2.17985" rx="1.08993" fill="white"/>
<rect x="206.598" y="108.288" width="49.41" height="2.17985" rx="1.08993" fill="white"/>
<path fill-rule="evenodd" clip-rule="evenodd" d="M130.039 201.136C130.039 201.136 136.743 189.51 138.923 189.51C141.103 189.51 138.923 203.316 138.923 203.316L130.039 201.136Z" fill="#972C2C"/>
<path d="M138.033 193.004L133.673 200.954" stroke="#D47575"/>
<path fill-rule="evenodd" clip-rule="evenodd" d="M127.074 205.496C127.074 205.496 124.288 191.69 125.681 191.69C127.074 191.69 137.306 205.496 137.306 205.496H127.074Z" fill="#A34040"/>
<path fill-rule="evenodd" clip-rule="evenodd" d="M132.219 205.495C132.219 205.495 142.079 191.69 144.572 193.143C147.065 194.596 143.672 205.495 143.672 205.495H132.219Z" fill="#A34040"/>
<path d="M143.674 196.413L138.034 205.496" stroke="#D47575"/>
<path d="M127.075 196.413L132.221 205.496" stroke="#D47575"/>
<path fill-rule="evenodd" clip-rule="evenodd" d="M252.304 205.827C257.378 200.675 261.435 188.057 254.479 188.057C247.522 188.057 241.172 196.715 237.548 193.175C233.924 189.635 225.489 187.059 225.489 191.843C225.489 196.627 229.112 205.827 229.112 205.827C229.112 205.827 247.231 210.979 252.304 205.827Z" fill="#E19090"/>
<path fill-rule="evenodd" clip-rule="evenodd" d="M246.824 201.136C246.824 201.136 240.12 189.51 237.94 189.51C235.76 189.51 237.94 203.316 237.94 203.316L246.824 201.136Z" fill="#972C2C"/>
<path d="M238.831 193.004L243.19 200.954" stroke="#D47575"/>
<path fill-rule="evenodd" clip-rule="evenodd" d="M249.79 205.496C249.79 205.496 252.576 191.69 251.183 191.69C249.79 191.69 239.557 205.496 239.557 205.496H249.79Z" fill="#A34040"/>
<path fill-rule="evenodd" clip-rule="evenodd" d="M244.645 205.495C244.645 205.495 234.785 191.689 232.292 193.143C229.799 194.596 233.191 205.495 233.191 205.495H244.645Z" fill="#A34040"/>
<path d="M233.19 196.413L238.83 205.496" stroke="#D47575"/>
<path d="M249.789 196.413L244.642 205.496" stroke="#D47575"/>
<path fill-rule="evenodd" clip-rule="evenodd" d="M111.636 205C111.636 205 109.237 198.385 116.434 190.869C123.631 183.352 134.426 155.691 123.031 146.671C111.636 137.651 97.5422 143.388 94.8434 134.506C92.1446 125.624 88.5461 102.774 71.4536 109.088C54.3611 115.402 46.2646 119.611 35.7692 112.996C25.2737 106.382 15.6779 117.206 10.5801 135.847C5.48235 154.488 5.78223 168.619 -7.7119 171.325C-21.206 174.031 -23.605 182.149 -23.605 189.365C-23.605 196.581 -35 205 -35 205H111.636Z" fill="#D8E5E8"/>
<path fill-rule="evenodd" clip-rule="evenodd" d="M50.6118 182.936C50.6118 182.936 88.4212 149.147 95.3489 153.267C102.277 157.387 76.7133 193.822 76.7133 193.822L56.5296 198.854L50.6118 182.936Z" fill="url(#paint1_linear)"/>
<path d="M94.6795 164.578L64.3878 197.467" stroke="#D47575"/>
<path fill-rule="evenodd" clip-rule="evenodd" d="M80.6198 110.954L98.8102 105.69C98.8102 105.69 98.8583 103.406 98.5752 102.34C98.292 101.274 97.1576 99.4689 97.1576 99.4689L79.6748 104.254L80.6198 110.954Z" fill="#447F8D"/>
<path fill-rule="evenodd" clip-rule="evenodd" d="M83.2172 115.877L102.091 110.398C102.091 110.398 102.139 108.193 101.855 107.164C101.57 106.135 100.428 104.392 100.428 104.392L81.3149 109.936L83.2172 115.877Z" fill="#6FA0A8"/>
<path fill-rule="evenodd" clip-rule="evenodd" d="M109.492 128.252L108.671 122.518C108.671 122.518 102.102 112.379 98.5764 107.127C95.0506 101.876 92.0374 105.946 94.2409 110.216C96.4444 114.485 96.1729 114.382 96.1729 114.382C96.1729 114.382 91.7444 111.862 92.2959 113.226C92.8474 114.59 97.4552 117.669 97.4552 117.669L99.7126 120.02L101.461 126.72L109.492 128.252Z" fill="#EFF0FA"/>
<path fill-rule="evenodd" clip-rule="evenodd" d="M78.1075 135.553C82.4566 135.553 101.333 139.564 101.959 139.564C102.585 139.564 100.218 125.537 99.745 123.121C99.2717 120.706 106.372 118.29 107.792 120.706C109.212 123.121 114.419 143.532 113.472 146.636C112.525 149.74 103.058 150.407 98.325 150.407C93.5916 150.407 85.5448 150.407 85.0714 153.236C84.5981 156.065 77.4979 181.995 77.4979 190.953C77.4979 199.91 48.1506 193.781 45.7839 192.367C43.4172 190.953 49.0973 143.336 51.9374 137.678C54.7774 132.021 59.5109 131.549 59.5109 131.549C59.5109 131.549 77.0246 137.207 78.1075 135.553Z" fill="#191A49"/>
<path fill-rule="evenodd" clip-rule="evenodd" d="M64.8437 123.439C64.6235 126.455 61.7093 131.405 59.0911 132.299C56.4729 133.194 62.543 138.057 66.6507 139.006C70.7584 139.956 77.1534 135.501 77.1534 135.501C77.1534 135.501 74.3729 132.79 76.0766 126.936C77.7803 121.082 78.7028 124.69 81.0067 122.893C83.3106 121.096 83.814 107.127 82.4537 103.068C81.0934 99.0081 75.9206 105.754 75.9206 105.754L71.6952 117.01C71.6952 117.01 65.0638 120.423 64.8437 123.439Z" fill="#EFF0FA"/>
<path fill-rule="evenodd" clip-rule="evenodd" d="M74.6863 120.655L77.4099 114.63C77.4099 114.63 78.2567 111.159 79.2768 112.109C80.2969 113.058 81.5242 109.735 81.5242 108.31C81.5242 106.886 83.0219 107.423 84.1625 106.474C85.3031 105.524 83.9632 101.663 82.9431 101.189C81.923 100.714 81.3169 100.239 80.2969 98.3398C79.2768 96.4407 75.1964 92.6049 71.626 94.5228C68.0557 96.4407 68.0557 95.0163 64.9954 95.0163C61.9351 95.0163 56.8346 98.8146 57.3447 101.189C57.8547 103.562 56.8346 105.112 55.3045 106.474C53.7743 107.836 52.5219 110.209 54.2844 111.634C56.0469 113.058 57.2993 115.907 56.0469 117.331C54.7944 118.756 58.0516 123.978 62.132 123.503C66.2124 123.029 65.0548 121.604 68.7962 122.554C72.5375 123.503 74.6863 120.655 74.6863 120.655Z" fill="#A34040"/>
<path fill-rule="evenodd" clip-rule="evenodd" d="M83.5177 115.989L91.4012 113.435C91.4012 113.435 91.3098 112.958 91.0248 111.929C90.7398 110.9 83.5177 109.295 83.5177 109.295H83.4972C83.4972 109.295 82.7441 110.424 82.7441 113.058C82.7441 115.693 83.5177 115.989 83.5177 115.989Z" fill="#6FA0A8"/>
<path fill-rule="evenodd" clip-rule="evenodd" d="M53.6992 183.131C53.6992 183.131 112.85 152.04 120.399 159.502C127.948 166.964 83.6205 205.33 83.6205 205.33H56.1927L53.6992 183.131Z" fill="url(#paint2_linear)"/>
<path d="M112.788 165.899L63.6504 198.243" stroke="#D47575"/>
<path fill-rule="evenodd" clip-rule="evenodd" d="M70.4952 205.386C70.4952 205.386 28.0286 95.9351 21.159 104.641C14.2894 113.348 28.0286 205.386 28.0286 205.386H70.4952Z" fill="url(#paint3_linear)"/>
<path d="M25.0889 116.139L50.5909 205.707" stroke="#EB9B9B"/>
<path fill-rule="evenodd" clip-rule="evenodd" d="M8.91602 206.004C8.91602 206.004 10.7184 155 17.2519 155C23.7855 155 41.882 206.004 41.882 206.004H8.91602Z" fill="url(#paint4_linear)"/>
<path d="M25.0882 205.707L18.8682 165.899" stroke="#D64848"/>
</g>
<defs>
<linearGradient id="paint0_linear" x1="178.316" y1="72.0702" x2="313.506" y2="71.0697" gradientUnits="userSpaceOnUse">
<stop stop-color="#DBDDF2"/>
<stop offset="1" stop-color="#F6F6FC" stop-opacity="0"/>
</linearGradient>
<linearGradient id="paint1_linear" x1="70.9458" y1="158.22" x2="79.6405" y2="193.092" gradientUnits="userSpaceOnUse">
<stop stop-color="#B84949"/>
<stop offset="1" stop-color="#9771A4"/>
</linearGradient>
<linearGradient id="paint2_linear" x1="87.5982" y1="158.058" x2="87.5982" y2="205.33" gradientUnits="userSpaceOnUse">
<stop stop-color="#B84949"/>
<stop offset="1" stop-color="#9771A4"/>
</linearGradient>
<linearGradient id="paint3_linear" x1="44.6822" y1="104" x2="44.6822" y2="205.386" gradientUnits="userSpaceOnUse">
<stop stop-color="#B84949"/>
<stop offset="1" stop-color="#9771A4"/>
</linearGradient>
<linearGradient id="paint4_linear" x1="25.399" y1="155" x2="25.399" y2="206.004" gradientUnits="userSpaceOnUse">
<stop stop-color="#886AA7"/>
<stop offset="1" stop-color="#D78C94"/>
</linearGradient>
</defs>
</svg>
