<svg width="476" height="380" viewBox="0 0 476 380" fill="none" xmlns="http://www.w3.org/2000/svg">
  <g clip-path="url(#a)">
    <path d="M437.9 348.49h-33.12v.25h33.12v-.25Zm-118.68 2.72h-8.69v.25h8.69v-.25Zm84.56-12h-19.19v.25h19.19v-.25Zm-320.13 1.68H40.46v.25h43.19v-.25Zm15.24 0h-6.33v.25h6.33v-.25Zm114.26 4.22h-93.68v.25h93.68v-.25Zm13.25-57.31H33.3a5.713 5.713 0 0 1-5.71-5.71V10.66A5.71 5.71 0 0 1 33.3 5h193.1a5.71 5.71 0 0 1 5.71 5.71v271.38a5.71 5.71 0 0 1-5.71 5.71ZM33.3 5.2a5.47 5.47 0 0 0-5.46 5.46v271.43a5.472 5.472 0 0 0 5.46 5.46h193.1a5.473 5.473 0 0 0 5.46-5.46V10.66a5.473 5.473 0 0 0-5.46-5.46H33.3Zm409.4 282.6H249.6a5.71 5.71 0 0 1-5.71-5.71V10.66A5.707 5.707 0 0 1 249.6 5h193.1a5.708 5.708 0 0 1 5.71 5.71v271.38a5.712 5.712 0 0 1-5.71 5.71ZM249.6 5.2a5.47 5.47 0 0 0-5.46 5.46v271.43a5.473 5.473 0 0 0 5.46 5.46h193.1a5.475 5.475 0 0 0 3.858-1.602 5.475 5.475 0 0 0 1.602-3.858V10.66a5.473 5.473 0 0 0-5.46-5.46H249.6ZM488 332.4H-12v.25h500v-.25Z" fill="#EBEBEB"/>
    <path d="M400.85 302.83s-.67-34.22 9.4-55.36 19.46-38.58 25.83-45.62c0 0-18.79 47.64-21.47 61.39-2.68 13.75-9.4 39.59-9.4 39.59h-4.36Z" fill="#F5F5F5"/>
    <path d="M402.36 301.32s.84-36.74 8.05-50.83c7.21-14.09 18.79-36.06 18.79-36.06s-13.2 32.21-16.1 45.79c-2.9 13.58-9.23 41.1-9.23 41.1h-1.51Z" fill="#E6E6E6"/>
    <path d="M395.76 304.36s.67-34.22-9.39-55.36-19.46-38.58-25.84-45.63c0 0 18.79 47.64 21.48 61.4 2.69 13.76 9.39 39.59 9.39 39.59h4.36Z" fill="#F0F0F0"/>
    <path d="M394.25 302.85s-.84-36.74-8.05-50.83c-7.21-14.09-18.79-36.02-18.79-36.02s13.25 32.2 16.11 45.79c2.86 13.59 9.22 41.1 9.22 41.1l1.51-.04Z" fill="#E0E0E0"/>
    <path d="M394.66 303.59s9.73-32.82 5.64-55.87c-4.09-23.05-8.51-42.36-12.79-50.85 0 0 5.46 50.92 4.4 64.9-1.06 13.98-1.46 40.66-1.46 40.66l4.21 1.16Z" fill="#EBEBEB"/>
    <path d="M393.6 301.73s8.95-35.64 5.74-51.14c-3.21-15.5-8.54-39.76-8.54-39.76s4.22 34.57 3.36 48.43c-.86 13.86-2 42.07-2 42.07l1.44.4Z" fill="#FAFAFA"/>
    <path d="M398 305.19s-6.88-33.52-.83-56.14c6.05-22.62 12.11-41.48 17.1-49.56 0 0-9.81 50.26-9.94 64.27-.13 14.01-2 40.64-2 40.64l-4.33.79Z" fill="#F5F5F5"/>
    <path d="M399.16 303.43s-5.86-36.27-1.33-51.44c4.53-15.17 11.92-38.88 11.92-38.88s-7.18 34.08-7.51 48c-.33 13.92-1.59 42.09-1.59 42.09l-1.49.23Z" fill="#E6E6E6"/>
    <path d="M402.52 333H392a7.85 7.85 0 0 1-7.84-7.38l-2-24.74h30.17l-2 24.74a7.863 7.863 0 0 1-7.81 7.38Z" fill="#EBEBEB"/>
    <path d="M90.75 273.32c.13.14-.56 1.1 2.23.68 6.87-1 18.83-3.82 22.16-10.89 4.76-10.09-10-6.41-9.48-11.56.52-5.15 17.29-4.26 19.07-11.83 1.78-7.57-9.6-4-9.75-7.65-.15-3.65 13-1.4 15.56-9.56 2.56-8.16-7.3-2.16-6.16-5.55 1.14-3.39 12.23-18.75 6.19-20.53-6.04-1.78-16.2 14-20.13 16.2-3.93 2.2-7.44-10.63-12.08-5.19s2.74 24.42-3.23 28.11c-4.44 2.74-3.19-4.82-9-3.41-8.01 1.92-5.33 30.04 4.62 41.18Z" fill="#E6E6E6"/>
    <path d="M112 232.11c-2.024.152-4.02.562-5.94 1.22a45.964 45.964 0 0 1 4.22-5.43.512.512 0 0 0 0-.72.52.52 0 0 0-.72 0 59.394 59.394 0 0 0-8.46 12.27c-2.16-13 3.29-24.39 3.35-24.51a.385.385 0 0 0 .017-.293.38.38 0 0 0-.197-.217.36.36 0 0 0-.143-.039.365.365 0 0 0-.276.092.36.36 0 0 0-.091.117c-.06.13-5.88 12.27-3.24 25.93-.7 1.34-1.41 2.77-2.11 4.31a96.35 96.35 0 0 0-5.8 17 34.998 34.998 0 0 1-4.06-15.54.383.383 0 0 0-.244-.345.366.366 0 0 0-.146-.025.369.369 0 0 0-.37.39 35.21 35.21 0 0 0 4.55 16.59A118.72 118.72 0 0 0 89.72 298a.511.511 0 0 0 .54.48h.06a.512.512 0 0 0 .41-.54c-1.26-18.29 1.48-33 5.26-44.13a14.047 14.047 0 0 1 8.13-4.64.41.41 0 0 0 .32-.43.382.382 0 0 0-.289-.316.384.384 0 0 0-.151-.004 14.34 14.34 0 0 0-7.41 3.68 84.792 84.792 0 0 1 8.68-17.64 20.785 20.785 0 0 1 6.75-1.59.374.374 0 0 0 .143-.041.384.384 0 0 0 .207-.369.391.391 0 0 0-.132-.26.389.389 0 0 0-.278-.09h.04Z" fill="#F5F5F5"/>
    <path d="M82 277.22c-5.71.11-15.46-5.2-19.29-10.35-3.83-5.15 7-2 5.92-6.1s-14.59-1.07-17.08-7c-2.49-5.93 7.23-4.53 6.85-7.54-.38-3.01-10.46-2.4-13.69-8.66-3.23-6.26 5.63-2.75 4.24-5.34-1.39-2.59-12.5-13.51-7.85-15.78 4.65-2.27 15 9.09 18.54 10.36 3.54 1.27 4.3-6.59 8.84-2.83s1.14 20.17 6.48 22.34c4 1.61 2.29-5.91 6.87-4 7.97 3.35 2.44 34.85.17 34.9Z" fill="#E0E0E0"/>
    <path d="M82 277.22c-5.71.11-15.46-5.2-19.29-10.35-3.83-5.15 7-2 5.92-6.1s-14.59-1.07-17.08-7c-2.49-5.93 7.23-4.53 6.85-7.54-.38-3.01-10.46-2.4-13.69-8.66-3.23-6.26 5.63-2.75 4.24-5.34-1.39-2.59-12.5-13.51-7.85-15.78 4.65-2.27 15 9.09 18.54 10.36 3.54 1.27 4.3-6.59 8.84-2.83s1.14 20.17 6.48 22.34c4 1.61 2.29-5.91 6.87-4 7.97 3.35 2.44 34.85.17 34.9Z" fill="#E0E0E0" opacity=".3"/>
    <path d="M80.06 270.37a.44.44 0 0 0 .21-.17 30.1 30.1 0 0 0 2.56-15.3.4.4 0 0 0-.41-.36.39.39 0 0 0-.264.136.375.375 0 0 0-.086.284 30.46 30.46 0 0 1-2.32 14.54 115.99 115.99 0 0 0-8.69-18.39c1-12.26-5.27-22.3-5.34-22.4a.361.361 0 0 0-.1-.109.357.357 0 0 0-.134-.062.388.388 0 0 0-.148-.004.39.39 0 0 0-.258.585 39.68 39.68 0 0 1 5.29 20.81 106.723 106.723 0 0 0-14.6-19.52.52.52 0 0 0-.72 0 .51.51 0 0 0 0 .72 99.012 99.012 0 0 1 11.15 14.1 29.727 29.727 0 0 0-10.79-1.9.375.375 0 0 0-.272.115.371.371 0 0 0-.108.275.393.393 0 0 0 .38.37 29.246 29.246 0 0 1 11.51 2.24A123.115 123.115 0 0 1 73.15 257a12.948 12.948 0 0 0-10.65-1.87.388.388 0 0 0-.138.063.392.392 0 0 0-.152.256.38.38 0 0 0 .01.151.4.4 0 0 0 .47.27A12.309 12.309 0 0 1 74 258.6a103.327 103.327 0 0 1 11 41.85.511.511 0 0 0 .51.49.518.518 0 0 0 .355-.163.518.518 0 0 0 .135-.367 100.084 100.084 0 0 0-5.94-30.04Z" fill="#F5F5F5"/>
    <path d="M98 333c5.45-10.24 9-25.05 9-31.54a18.103 18.103 0 0 0-6.65-13.85H72.47a18.106 18.106 0 0 0-6.65 13.85c0 6.49 3.58 21.3 9 31.54H98Z" fill="#E0E0E0"/>
    <path d="M126.11 8.18h-1.14v33.91h1.14V8.18Z" fill="#E6E6E6"/>
    <path d="m89.31 60.93 36.23-21.9 36.23 21.9H89.31Z" fill="#EBEBEB"/>
    <path d="m128.04 60.93-2.5-21.9 16.29 21.9h-13.79Z" fill="#F5F5F5"/>
    <path d="M351.03 8.18h-1.14v33.91h1.14V8.18Z" fill="#E6E6E6"/>
    <path d="m314.23 60.93 36.23-21.9 36.23 21.9h-72.46Z" fill="#F0F0F0"/>
    <path d="m352.96 60.93-2.5-21.9 16.29 21.9h-13.79Z" fill="#FAFAFA"/>
    <path d="M233.18 373.71c107.083 0 193.89-5.068 193.89-11.32 0-6.252-86.807-11.32-193.89-11.32-107.082 0-193.89 5.068-193.89 11.32 0 6.252 86.808 11.32 193.89 11.32Z" fill="#F5F5F5"/>
    <path d="M174.12 87.16a2.47 2.47 0 0 0-4.93 0l-.26 3.18h5.45l-.26-3.18Zm-2.47 1.66a1.207 1.207 0 0 1-1.119-.75 1.208 1.208 0 0 1 .889-1.648 1.211 1.211 0 0 1 .692 2.31c-.147.06-.304.09-.462.088Zm127.91-1.66a2.478 2.478 0 0 0-2.47-2.258 2.48 2.48 0 0 0-2.47 2.258l-.26 3.18h5.46l-.26-3.18Zm-2.47 1.66a1.212 1.212 0 0 1-1.197-1.444 1.206 1.206 0 0 1 .954-.953 1.21 1.21 0 0 1 1.443 1.197 1.2 1.2 0 0 1-1.2 1.2Z" fill="#407BFF"/>
    <path d="M320.87 89.84h-174.3v108h174.3v-108Z" fill="#263238"/>
    <path opacity=".6" d="M320.87 89.84h-174.3v108h174.3v-108Z" fill="#fff"/>
    <path opacity=".9" d="M316.41 94.3H151.03v99.08h165.38V94.3Z" fill="#fff"/>
    <path d="M322.93 194.87H144.52v5.18h178.41v-5.18Z" fill="#263238"/>
    <path opacity=".7" d="M322.93 194.87H144.52v5.18h178.41v-5.18Z" fill="#fff"/>
    <path opacity=".2" d="M180.48 112.13h-12.72v16.71h12.72v-16.71Z" fill="#263238"/>
    <path d="M185.33 128.84a29.725 29.725 0 0 1-3-16.71H168a29.725 29.725 0 0 0 3 16.71h14.33Z" fill="#407BFF"/>
    <path opacity=".5" d="M185.33 128.84a29.725 29.725 0 0 1-3-16.71H168a29.725 29.725 0 0 0 3 16.71h14.33Z" fill="#fff"/>
    <path opacity=".2" d="M302.59 112.13h-12.72v16.71h12.72v-16.71Z" fill="#263238"/>
    <path d="M307.44 128.84a29.725 29.725 0 0 1-3-16.71h-14.38a29.725 29.725 0 0 0 3 16.71h14.38Z" fill="#407BFF"/>
    <path opacity=".2" d="M307.44 128.84a29.725 29.725 0 0 1-3-16.71h-14.38a29.725 29.725 0 0 0 3 16.71h14.38Z" fill="#fff"/>
    <path opacity=".2" d="M210.29 112.42h-12.72v16.71h12.72v-16.71Z" fill="#263238"/>
    <path d="M215.14 129.13a29.62 29.62 0 0 1-3-16.71h-14.38a29.725 29.725 0 0 0 3 16.71h14.38Z" fill="#407BFF"/>
    <path opacity=".8" d="M215.14 129.13a29.62 29.62 0 0 1-3-16.71h-14.38a29.725 29.725 0 0 0 3 16.71h14.38Z" fill="#fff"/>
    <path opacity=".2" d="M276.62 112.13H263.9v16.71h12.72v-16.71Z" fill="#263238"/>
    <path d="M281.47 128.84a29.725 29.725 0 0 1-3-16.71H264.1a29.62 29.62 0 0 0 3 16.71h14.37Z" fill="#407BFF"/>
    <path opacity=".6" d="M281.47 128.84a29.725 29.725 0 0 1-3-16.71H264.1a29.62 29.62 0 0 0 3 16.71h14.37Z" fill="#fff"/>
    <path d="M257.47 126.38c-1.28-7.74 3-14.93 10.72-17 7.72-2.07 17.07 2.41 17.84 11 1.41 15.85-23 19.83-26.8 4.85a.516.516 0 0 0-1 .26c1.91 7.57 8.31 10.57 15.86 10.11a14.093 14.093 0 0 0 12.459-10.31c.51-1.852.636-3.788.371-5.69-1.24-8.63-10.42-13.14-18.44-11.35-8.61 1.93-13.42 9.83-12 18.32.11.63 1.06.37 1-.26l-.01.07ZM167 139.81a186.448 186.448 0 0 1 38.24-4.7c.67 0 .68-1.07 0-1.05a187.777 187.777 0 0 0-38.52 4.74c-.66.16-.38 1.17.28 1v.01Zm9.27 1.78a113.696 113.696 0 0 1 22.87-2.81c.67 0 .68-1.07 0-1.05a114.773 114.773 0 0 0-23.14 2.85.522.522 0 0 0-.099.927c.11.07.241.096.369.073v.01Z" fill="#407BFF"/>
    <path d="M364.73 124.71c-.1.48-.43.82-.75.75-.32-.07-.49-.5-.39-1 .1-.5.43-.82.75-.76.32.06.49.53.39 1.01Z" fill="#263238"/>
    <path d="M364.34 125.54a17.67 17.67 0 0 1-3.13 3.64 2.815 2.815 0 0 0 2.21.9l.92-4.54Z" fill="#A02724"/>
    <path d="M367 122.39a.309.309 0 0 0 .2-.07.3.3 0 0 0 0-.41 2.868 2.868 0 0 0-2.46-.95.281.281 0 0 0-.23.33.273.273 0 0 0 .217.233.269.269 0 0 0 .113-.003 2.33 2.33 0 0 1 1.93.78.293.293 0 0 0 .23.09Z" fill="#263238"/>
    <path d="M378.43 131.47c-.87 4.46-1.74 12.61 1.37 15.58 0 0-1.21 4.52-9.49 4.52-9.09 0-4.34-4.52-4.34-4.52 5-1.18 4.83-4.86 4-8.32l8.46-7.26Z" fill="#B55B52"/>
    <path d="M381 127c-1.56 5.83-2.18 9.33-5.78 11.75-5.42 3.65-12.16-.54-12.37-6.72-.19-5.57 2.4-14.17 8.66-15.35a8.245 8.245 0 0 1 7.622 2.514A8.241 8.241 0 0 1 381 127Z" fill="#B55B52"/>
    <path d="M368.55 129.37s1.3 8 9.17 7.75c0 0 9.51-5.35 8.52-15.45 0 0 3-3.95 1.2-5.59-1.17-1-2.54 1.2-2.54 1.2s.66-5.79-1.71-6.42c-2.37-.63-2.62 3.09-2.62 3.09s-.55-5.86-3-6.17c-2.82-.36-2 3.79-2 3.79s-.92-4.88-3.68-4.87c-2.3 0-1.19 4.64-1.19 4.64s-2.18-4.93-4.27-3.8c-2.09 1.13.59 4.75.59 4.75s-4-2.81-4.8-.87c-.8 1.94 3.26 4.31 3.26 4.31s-3.9.45-3.58 2.33c.32 1.88 4.88 1.59 4.88 1.59S365 123.9 369 125.9l-.45 3.47Z" fill="#263238"/>
    <path d="M371.05 127.19a6.777 6.777 0 0 1-2.45 3.63c-1.58 1.18-2.77 0-2.66-1.77.11-1.61 1.05-4.17 2.8-4.65 1.75-.48 2.77 1.04 2.31 2.79Z" fill="#B55B52"/>
    <path opacity=".2" d="M368.19 137.8c-1.41-.25-2.08.07-4.17-1.78a8.157 8.157 0 0 0 6.19 4c-.07-.23-.69-2.02-2.02-2.22Z" fill="#000"/>
    <path d="M394.18 152.65c1.57 3.1 3 6.17 4.35 9.32 1.35 3.15 2.61 6.34 3.77 9.6.6 1.62 1.12 3.28 1.64 5l.1.31v.16l.07.27a8.55 8.55 0 0 1 .22 3.35 9.323 9.323 0 0 1-1.39 3.85 14.191 14.191 0 0 1-4.67 4.43c-.816.5-1.669.938-2.55 1.31-.87.401-1.769.736-2.69 1l-1.89-4a33.245 33.245 0 0 0 3.29-3.09 9.137 9.137 0 0 0 2-3.07c.131-.291.163-.618.09-.93a.903.903 0 0 0-.12-.26s-.05-.09-.07-.14l-.07-.17-.12-.28c-.59-1.51-1.23-3-1.87-4.53-1.3-3-2.67-6-4.06-9l-4.19-9 8.16-4.13Z" fill="#B55B52"/>
    <path d="m393.27 186.62-4.35-1.13-.25 7s3.41.5 5.49-1.58l-.89-4.29Z" fill="#B55B52"/>
    <path d="m382.75 184.31.99 6.16 4.93 2.05.25-7.03-6.17-1.18Z" fill="#FFC3BD"/>
    <path d="M356.26 149.67c-1.71 0-3.67 0-5.5-.14s-3.72-.21-5.57-.38-3.67-.38-5.44-.68c-.91-.12-1.77-.32-2.65-.47-.88-.15-1.73-.38-2.55-.63l-1.23-.35-1.17-.41-.34-.11a3.801 3.801 0 0 1-.17-.69 13.963 13.963 0 0 1-.22-2.3c-.06-3.39.85-9.55 1.36-13.25l-3.83-.8a59.386 59.386 0 0 0-4.95 14.3 20.05 20.05 0 0 0-.27 3.57c.009 1.545.329 3.072.94 4.49.4.87.62 1 1.58 1.79.478.394 1.002.73 1.56 1l.78.36c.52.23 1 .48 1.56.69l1.55.59a60.13 60.13 0 0 0 12.41 2.81c2.06.23 4.11.44 6.17.53 2.06.09 4.05.15 6.26.06l-.28-9.98Z" fill="#B55B52"/>
    <path d="m332.69 130.64 3.26-6.88-6.39-1.85s-3 4.49-.39 8.1l3.52.63Z" fill="#B55B52"/>
    <path d="m335.56 120.66-4.96-2.55-1.04 3.8 6.39 1.85-.39-3.1Z" fill="#B55B52"/>
    <path d="M365.38 147.52a2.728 2.728 0 0 0 .41-3.21s21.1-1.75 15.6 3.83l-16.01-.62Z" fill="#407BFF"/>
    <path opacity=".3" d="M365.38 147.52a2.728 2.728 0 0 0 .41-3.21s21.1-1.75 15.6 3.83l-16.01-.62Z" fill="#fff"/>
    <path d="M389 173.23s7.28-3.1 12-8.93c0 0-4.54-14.49-9.71-15.44-5.17-.95-2.29 24.37-2.29 24.37Z" fill="#407BFF"/>
    <path opacity=".5" d="M389 173.23s7.28-3.1 12-8.93c0 0-4.54-14.49-9.71-15.44-5.17-.95-2.29 24.37-2.29 24.37Z" fill="#fff"/>
    <path opacity=".2" d="M388.15 159.15c.029 4.704.3 9.404.81 14.08a33.964 33.964 0 0 0 3.66-1.93 63.212 63.212 0 0 0-4.47-12.15Z" fill="#000"/>
    <path d="M392.6 149.47c-4.12 20.08-3.54 38.13-3 49a6.814 6.814 0 0 1-1.511 4.655 6.814 6.814 0 0 1-4.239 2.445 83.898 83.898 0 0 1-23-.37 6.818 6.818 0 0 1-5.69-5.72c-4.78-30.77-2.34-43.06-.77-49.05a4.718 4.718 0 0 1 4.57-3.51c8.49-.06 30.29.14 33.64 2.55Z" fill="#407BFF"/>
    <path opacity=".5" d="M392.6 149.47c-4.12 20.08-3.54 38.13-3 49a6.814 6.814 0 0 1-1.511 4.655 6.814 6.814 0 0 1-4.239 2.445 83.898 83.898 0 0 1-23-.37 6.818 6.818 0 0 1-5.69-5.72c-4.78-30.77-2.34-43.06-.77-49.05a4.718 4.718 0 0 1 4.57-3.51c8.49-.06 30.29.14 33.64 2.55Z" fill="#fff"/>
    <path opacity=".2" d="M353.72 153.66a83.318 83.318 0 0 0-1.33 17.85c6.2-2.79 7.69-12.36 7.69-12.36l-2.79-6.34-3.57.85Z" fill="#000"/>
    <path d="M358.69 146.9c-2.83-1.58-15.9 2-15.9 2v14.78s13.1 3.31 15.85-1.2 3.51-13.65.05-15.58Z" fill="#407BFF"/>
    <path opacity=".5" d="M358.69 146.9c-2.83-1.58-15.9 2-15.9 2v14.78s13.1 3.31 15.85-1.2 3.51-13.65.05-15.58Z" fill="#fff"/>
    <path d="M371.98 356.15h-6.09l-.6-14.1h6.08l.61 14.1Zm44.67-2.82-5.95 1.29-5.97-13.13 5.95-1.29 5.97 13.13Z" fill="#B55B52"/>
    <path opacity=".2" d="m365.29 342.06.31 7.26h6.09l-.31-7.26h-6.09Zm45.39-1.86-5.95 1.29 3.08 6.77 5.95-1.29-3.08-6.77Z" fill="#000"/>
    <path d="M367.62 201.34s8.81 58.49 12.6 75.91c4.16 19.08 24.52 70.23 24.52 70.23l10.89-2.35s-5.85-17-11.7-42.69c-1.95-8.57-5.58-16.79-6.45-23.46-1.46-11.17-3.29-41.65-4.75-56.18a122.74 122.74 0 0 0-4.1-21.46h-21.01Z" fill="#263238"/>
    <path d="M402.13 343.85c-.05 0 2 3.94 2 3.94l12.26-2.66-1-3.68-13.26 2.4Z" fill="#263238"/>
    <path opacity=".5" d="M372 217.92c8 1.56 9 43.32 8.08 58.63-2.3-10.82-7.58-43.63-9.88-58.42a2.717 2.717 0 0 1 1.8-.21Z" fill="#000"/>
    <path d="M356.08 201.34s1.06 57.48 1.72 76c.69 19.3 5.53 70.53 5.53 70.53h10.31a276.76 276.76 0 0 0 3.34-41.6c.12-11.24-1.74-21.49-1.6-27.46.25-10.15 1-38.11 2.69-51.75a193.843 193.843 0 0 0 1.4-25.76l-23.39.04Z" fill="#263238"/>
    <path d="M361.35 343.81c-.05 0 .58 4.28.58 4.28h12.54l.34-3.82-13.46-.46Zm4.7 9.96h7a.53.53 0 0 1 .53.52l1.22 6.71a1.318 1.318 0 0 1-1.06 1.28.885.885 0 0 1-.23 0c-2.89-.1-5.43-.31-9-.36-4.26-.07-3.28.45-8.3.44-3 0-2.91-3.46-1.6-3.61 6-.64 6.95-2.4 9.62-4.46a3.063 3.063 0 0 1 1.82-.52Zm43.52-1.96 6.84-1.48a.524.524 0 0 1 .546.203c.04.056.069.12.084.187l2.61 6.33a1.331 1.331 0 0 1-.76 1.47.94.94 0 0 1-.22.07c-2.85.51-5.38.85-8.92 1.55-4.18.83-3.11 1.14-8 2.18-3 .63-3.57-2.77-2.32-3.19 5.73-1.88 6.29-3.8 8.46-6.38a3 3 0 0 1 1.68-.94Z" fill="#263238"/>
    <path d="m276.9 177.8 4.08-4.68c.305-1.387.7-2.753 1.18-4.09.48-1 1.51-3.27 2.56-3.63a5.903 5.903 0 0 1 4.6 1.36c1 1.19 1.5 4.81.8 6.22-.7 1.41-5.79 3.31-5.79 3.31l-4 5-3.43-3.49Z" fill="#FFB573"/>
    <path d="m276.02 177.52 3.57-3.89 4.77 4.07-3.87 4.56-4.47-4.74Z" fill="#407BFF"/>
    <path opacity=".8" d="m276.02 177.52 3.57-3.89 4.77 4.07-3.87 4.56-4.47-4.74Z" fill="#fff"/>
    <path d="M250.47 154.71s3.72 4.24 9.09 18.08c5.37 13.84 11.34 9.81 17.88 2.34l5.37 4.9s-10.05 12.52-16.37 12.52c-7 0-13.88-10.92-15.25-18.54-1.37-7.62-.72-19.3-.72-19.3Z" fill="#263238"/>
    <path opacity=".4" d="m251.78 162.72-2-1.67-.93 5.33c.13 1.54.31 3.05.56 4.42.78 4.35 3.73 10 6.89 14.79a175.439 175.439 0 0 0-4.52-22.87Z" fill="#000"/>
    <path d="M223.31 122.26s-2.84 0-2.46 2.19c.47 2.82 10.09 2 10.09 2l-2.56-3.37-5.07-.82Z" fill="#263238"/>
    <path d="m262.99 341.2.97 13.11h-5.82l-2.86-12.64 7.71-.47Z" fill="#FFB573"/>
    <path d="M264.52 353.6h-7.15a.539.539 0 0 0-.384.144.523.523 0 0 0-.166.376l-1.24 6.88a1.353 1.353 0 0 0 1.08 1.3h.23c2.95-.11 5.55-.31 9.23-.37 4.35-.07 3.35.47 8.47.45 3.09 0 3-3.53 1.63-3.68-6.12-.65-7.09-2.45-9.81-4.56a2.997 2.997 0 0 0-1.89-.54Z" fill="#263238"/>
    <path d="M265.16 351.53 256 352s-9.22-32.81-10.93-52.75c-.12-1.37-.2-2.69-.25-3.94a96.772 96.772 0 0 0-2-17.31l-.43-2-5-23.49-1-4.48s-5.71-9.56-5.5-24.1a55.628 55.628 0 0 1 1.49-12c.038-.107.065-.218.08-.33l22 .64.84 10.86 9.86 128.43Z" fill="#407BFF"/>
    <path opacity=".2" d="M239.57 262.8c3-15.26 1.52-33.36 1.52-33.36l-4.5 1.8-3 8.42v1.8a36.02 36.02 0 0 0 2.81 6.55l3.17 14.79Z" fill="#000"/>
    <path d="m221.16 341.2-1.91 13.11h-5.82l.03-12.64 7.7-.47Z" fill="#FFB573"/>
    <path d="M219.74 353.6h-7.15a.529.529 0 0 0-.381.145.527.527 0 0 0-.159.375L210.8 361a1.353 1.353 0 0 0 1.08 1.3h.24c2.95-.11 5.54-.31 9.23-.37 4.34-.07 3.34.47 8.47.45 3.08 0 3-3.53 1.63-3.68-6.12-.65-7.09-2.45-9.81-4.56a3.061 3.061 0 0 0-1.9-.54Z" fill="#263238"/>
    <path d="m245.86 212.25-1.68 8-6.82 32.28-1.11 5.3-15.19 94-9.12-.4s-2-30.29.73-50.46c.21-1.59.47-3.12.75-4.56a103.104 103.104 0 0 0 2-20.42v-2l-.35-25.99a115.352 115.352 0 0 1 1-26.21 72.134 72.134 0 0 1 2.36-10.19l14 .33 13.43.32Z" fill="#407BFF"/>
    <path opacity=".2" d="m255.76 230.06-8.1.71a4.343 4.343 0 0 1-5.05-3.11l-.26-1-1.7-6.28-2 7.27a4.579 4.579 0 0 1-5.07 3.33l-4.48-.64-13.86-1.92a75.748 75.748 0 0 1 3.21-16.85l14 .33c.038-.107.065-.218.08-.33l22 .64 1.23 17.85Z" fill="#000"/>
    <path d="m217.89 195.93-3.77 28.83 19.59 3a4.32 4.32 0 0 0 4.78-3.13l1.9-6.86 1.85 6.83a4.082 4.082 0 0 0 4.75 2.93l9.52-1.64-2.5-33.4s1.43-21.39-1.91-35.08a7.347 7.347 0 0 0-5.63-5 56.061 56.061 0 0 0-33.19 2.51 3.203 3.203 0 0 0-2 3.35l6.61 37.66Z" fill="#263238"/>
    <path opacity=".5" d="M239.01 184.59a.88.88 0 1 0 0-1.76.88.88 0 0 0 0 1.76Zm.86 12.22a.88.88 0 1 0 0-1.76.88.88 0 0 0 0 1.76Zm.36 12.07a.88.88 0 1 0 0-1.76.88.88 0 0 0 0 1.76Z" fill="#000"/>
    <path d="M225.69 150.57a18.692 18.692 0 0 1 10.57-.74l2.16 1.24.77 2.41-2.75 2.16-6.48.66-5.36-2.22.29-2.38.8-1.13Z" fill="#263238"/>
    <path d="M225.16 151.81a7.157 7.157 0 0 0 1.59-6.13l9.71-7.87c-1.37 13.12-.7 10.74 1.25 14.51 0 0-1.35 4.38-8.93 3-4.91-.87-3.62-3.51-3.62-3.51Z" fill="#FFB573"/>
    <path opacity=".2" d="m226.75 145.68 9.71-7.87c-.25 1.91-.45 3.49-.58 4.87a10.34 10.34 0 0 1-9.16 6 6.526 6.526 0 0 0 .03-3Z" fill="#000"/>
    <path d="M238.09 131.61c-1.37 6.27-1.86 10-5.56 12.75-5.57 4.14-12.93 0-13.45-6.53-.47-5.93 1.86-15.16 8.44-16.71a8.762 8.762 0 0 1 10.45 6.089 8.764 8.764 0 0 1 .12 4.401Z" fill="#FFB573"/>
    <path d="M227.9 131.89c-.08.52-.42.9-.75.84-.33-.06-.55-.51-.46-1 .09-.49.41-.89.75-.83.34.06.56.48.46.99Zm-5.82-.89c-.08.51-.42.88-.75.83-.33-.05-.55-.51-.46-1 .09-.49.41-.9.75-.84.34.06.54.48.46 1.01Z" fill="#263238"/>
    <path d="M224.21 131.52a18.313 18.313 0 0 1-3.15 4 2.997 2.997 0 0 0 2.39.85l.76-4.85Z" fill="#ED893E"/>
    <path d="M230.28 129.79a.43.43 0 0 0 .16 0 .33.33 0 0 0 .12-.42 3.068 3.068 0 0 0-.94-1.087 3.062 3.062 0 0 0-1.33-.543.306.306 0 0 0-.225.07.294.294 0 0 0-.105.21.309.309 0 0 0 .163.305.318.318 0 0 0 .117.035 2.402 2.402 0 0 1 1.78 1.31.33.33 0 0 0 .26.12Zm-10.1-1.51a.26.26 0 0 0 .26-.13 2.426 2.426 0 0 1 1.9-1.1.321.321 0 0 0 .32-.3.3.3 0 0 0-.3-.31 2.997 2.997 0 0 0-2.44 1.37.273.273 0 0 0-.051.104.272.272 0 0 0 .038.225c.022.032.05.06.083.081a.271.271 0 0 0 .19.06Zm1.28 10.18a37.056 37.056 0 0 1 6.24-.17c-.6 1.23-1.67 2.22-4 2.14-2.33-.08-2.24-1.97-2.24-1.97Z" fill="#263238"/>
    <path d="M224.83 139.48a4.644 4.644 0 0 0-2.59.53c.43.274.93.416 1.44.41a4.661 4.661 0 0 0 2.59-.53 2.544 2.544 0 0 0-1.44-.41Z" fill="#FF5652"/>
    <path d="M221.68 138.43a.856.856 0 0 0 .68.64c1.36.033 2.72-.033 4.07-.2.211-.007.418-.063.603-.164.186-.1.346-.243.467-.416a41.879 41.879 0 0 0-5.82.14Z" fill="#fff"/>
    <path d="m225.14 158.74 2.58 8.41 6 8.66 4.92 5.12 1.84-7.5-.59-15.66-.1-3.37-1.37-1.94-2.19 1.92-1.86.71-2.73.03-7.17-2.18.67 5.8Z" fill="#407BFF"/>
    <path opacity=".8" d="m225.14 158.74 2.58 8.41 6 8.66 4.92 5.12 1.84-7.5-.59-15.66-.1-3.37-1.37-1.94-2.19 1.92-1.86.71-2.73.03-7.17-2.18.67 5.8Z" fill="#407BFF"/>
    <path opacity=".5" d="m225.14 158.74 2.58 8.41 6 8.66 4.92 5.12 1.84-7.5-.59-15.66-.1-3.37-1.37-1.94-2.19 1.92-1.86.71-2.73.03-7.17-2.18.67 5.8Z" fill="#fff"/>
    <path d="M230.93 157.77a11.467 11.467 0 0 0 2.79 3.57s-1.2 8.56.64 14.56l4.28 5 1.25-6.22s-1.91-10-4.48-13.72a15.675 15.675 0 0 0 1.42-4.1l-1.53-1.25s-2.13 1.52-3.41.46l-.96 1.7Z" fill="#407BFF"/>
    <path d="M225 151.34s4 3.37 7.93 3.37c3.93 0 4.41-4.14 4.41-4.14l1.68 1.81a11.882 11.882 0 0 1-1.37 6l-4.14-2.8-2.81 4a16.88 16.88 0 0 1-6.55-5.91l.85-2.33Z" fill="#407BFF"/>
    <path opacity=".8" d="M225 151.34s4 3.37 7.93 3.37c3.93 0 4.41-4.14 4.41-4.14l1.68 1.81a11.882 11.882 0 0 1-1.37 6l-4.14-2.8-2.81 4a16.88 16.88 0 0 1-6.55-5.91l.85-2.33Z" fill="#fff"/>
    <path d="M225.69 150.57s-3.24 10 12.73 29.07c0 0 2.86-23.37-2.16-29.81l3.49 1.38 3.64 5.5-2.67 1.71 3.3 1.47s-.47 7.57-5.11 22.14c0 0-10.5-8.12-17.36-19.08l3.19-2.55-4.27-.67 1.9-7.59 3.32-1.57Z" fill="#263238"/>
    <path opacity=".3" d="M225.69 150.57s-3.24 10 12.73 29.07c0 0 2.86-23.37-2.16-29.81l3.49 1.38 3.64 5.5-2.67 1.71 3.3 1.47s-.47 7.57-5.11 22.14c0 0-10.5-8.12-17.36-19.08l3.19-2.55-4.27-.67 1.9-7.59 3.32-1.57Z" fill="#000"/>
    <path d="M235 137s-2.56 1.32-.87-3.66-.57-6.59-.88-9c0 0-14.56.5-13.87-5.93.69-6.43 9.43-1.32 9.43-1.32s-.66-2.92 1.78-3.25c3.27-.43 6.25 5.88 10.3 7.75 4.05 1.87 1.8 8.16 1.8 8.16s1.24 4.19-6.17 12.2a.458.458 0 0 1-.682-.011.46.46 0 0 1-.108-.229L235 137Z" fill="#263238"/>
    <path d="M230.74 131c-.16-.11-.83-.44-1.21-.62a5.463 5.463 0 0 0-2.73-.85 2.759 2.759 0 0 0-2 .42.679.679 0 0 0-.11.17.752.752 0 0 0-.4-.17.998.998 0 0 0-.45.06.932.932 0 0 0-.09-.23 4.738 4.738 0 0 0-3-1.1 2.83 2.83 0 0 0-2 .42 1 1 0 0 0-.22.73 4.598 4.598 0 0 0 1.08 2.66 3.82 3.82 0 0 0 2.25.65c.345.016.688-.053 1-.2a3.385 3.385 0 0 0 1.07-2 2.157 2.157 0 0 0 0-.44.578.578 0 0 1 .28-.06c.138.052.26.142.35.26a4.584 4.584 0 0 0 1.09 2.64 3.79 3.79 0 0 0 2.24.65c.345.018.689-.051 1-.2a3.421 3.421 0 0 0 1.07-2 2.292 2.292 0 0 0 0-.63c.16.074.314.161.46.26a66.243 66.243 0 0 1 5 4.9l.36-.34a62.49 62.49 0 0 0-5.04-4.98Zm-7.1-.11a3.073 3.073 0 0 1-.93 1.79 3.544 3.544 0 0 1-2.88-.41 4.348 4.348 0 0 1-1-2.45.653.653 0 0 1 .13-.5 2.13 2.13 0 0 1 1.4-.35h.37a4.425 4.425 0 0 1 2.78 1c.16.275.207.601.13.91v.01Zm6 .84a3.169 3.169 0 0 1-.94 1.8 3.552 3.552 0 0 1-2.87-.41 4.382 4.382 0 0 1-1-2.45.697.697 0 0 1 .13-.51 2.231 2.231 0 0 1 1.41-.34h.37a4.357 4.357 0 0 1 2.77 1 1.187 1.187 0 0 1 .17.9l-.04.01Z" fill="#263238"/>
    <path d="M240.26 138a6.113 6.113 0 0 1-4.17 2.07c-2.13.13-2.76-1.88-1.79-3.67.87-1.59 3-3.59 5-2.89a2.732 2.732 0 0 1 .96 4.49Z" fill="#FFB573"/>
    <path opacity=".4" d="m211.72 161 4.15 23.17.49-.61a57.108 57.108 0 0 0-.9-23.25l-1.26.67-2.48.02Z" fill="#000"/>
    <path d="m185.45 178.6-4.84-3.89a34.038 34.038 0 0 0-1.88-3.83c-.65-.9-2.06-2.94-3.16-3.12a5.932 5.932 0 0 0-4.29 2.14c-.79 1.35-.63 5 .3 6.27.93 1.27 6.29 2.24 6.29 2.24l4.77 4.18 2.81-3.99Z" fill="#FFB573"/>
    <path d="m186.26 178.17-4.19-3.2-3.98 4.83 4.6 3.82 3.57-5.45Z" fill="#407BFF"/>
    <path opacity=".8" d="m186.26 178.17-4.19-3.2-3.98 4.83 4.6 3.82 3.57-5.45Z" fill="#fff"/>
    <path d="M212.43 155.86c-.38-.45-1.71.15-2.05.63-1.11 1.58-7.35 16.83-9.8 22.87a2.999 2.999 0 0 1-3.57 1.75 70.673 70.673 0 0 1-12.21-4.51l-5.37 4.9s14 11.16 21.68 11.16c7 0 13.63-14.92 15-22.54a17.005 17.005 0 0 0-3.68-14.26Z" fill="#263238"/>
    <path d="m314.93 157.68-24.17-2.27s-6.42 10.06-9.15 33l24.26 2.27c2.45-20 7.81-30.61 9.06-33Z" fill="#407BFF"/>
    <path opacity=".4" d="m314.93 157.68-24.17-2.27s-6.42 10.06-9.15 33l24.26 2.27c2.45-20 7.81-30.61 9.06-33Z" fill="#fff"/>
    <path d="m314.93 157.68-24.17-2.27s-5.54 9.18-8.27 32.07l24.25 2.28c2.45-19.95 6.94-29.69 8.19-32.08Z" fill="#407BFF"/>
    <path opacity=".7" d="m314.93 157.68-24.17-2.27s-5.54 9.18-8.27 32.07l24.25 2.28c2.45-19.95 6.94-29.69 8.19-32.08Z" fill="#fff"/>
    <path d="M293.94 155.62a1.15 1.15 0 0 0-.752-.493 1.163 1.163 0 0 0-.878.193l-2.37 1.68a1.171 1.171 0 0 0 .461 2.121 1.18 1.18 0 0 0 .879-.191.198.198 0 0 0 .083-.125.195.195 0 0 0-.033-.145.21.21 0 0 0-.13-.084.205.205 0 0 0-.15.034.784.784 0 0 1-1.09-.2.797.797 0 0 1 .2-1.09l2.37-1.64a.789.789 0 0 1 1.212.48.77.77 0 0 1-.108.591.796.796 0 0 1-.214.219l-.8.55-.45.32-.1.07a.46.46 0 0 1-.62-.11.452.452 0 0 1 .11-.62l1.09-.76a.178.178 0 0 0 .087-.124.181.181 0 0 0-.002-.077.188.188 0 0 0-.035-.069.174.174 0 0 0-.054-.054.18.18 0 0 0-.07-.029.2.2 0 0 0-.077.001.198.198 0 0 0-.069.032l-1.09.76a.834.834 0 0 0-.22 1.16.84.84 0 0 0 1.16.21l.1-.07.46-.31.8-.56a1.168 1.168 0 0 0 .5-1.242 1.167 1.167 0 0 0-.2-.428Z" fill="#407BFF"/>
    <path d="M85.18 139.37s2.83-1.88 1.47-7.48c0 0 4.43-1.18 5.16-4.45 0 0 .8 2.83 2.39 2.52 1.59-.31 0-3.05 0-3.05s2.53 2.52 3.81 2.3c1.28-.22 0-2.3 0-2.3s1.12 2.42 2.51 2c1.83-.53-1.86-4.35-1.86-4.35s2.66 4.2 3.42 3.19c.76-1.01-4.72-6.95-12-6 0 0-8.92-1.33-11.3 7.69 0 0-6.9 4.3-3.45 10.86 0 0-5.66 6.53-2.21 9.95 0 0-5.67 9.68 1.15 9.48 6.82-.2 26.58-1.37 29.34-3.28 2.76-1.91-.87-6.47-.87-6.47s1.23-1.35.92-4.54a6.529 6.529 0 0 0-2.06-4.51 3.695 3.695 0 0 0 1-4.45c-2.86-6.57-14.06-7-14.06-7s.97 10.87-3.36 9.89Z" fill="#263238"/>
    <path d="M138.14 160.47c.453-1.826.787-3.68 1-5.55l1.4-3.27s2.15-3.86 1.53-5c-.74-1.39-4.56-2.44-6-1.85-1.29.52-2.7 4.87-2.7 4.87l.86 4.43a31.937 31.937 0 0 1-1 4.78l4.91 1.59Z" fill="#CE7A63"/>
    <path d="M139 159c-1.88 7.94-5.49 19.55-19.65 15.2-7.35-2.2-18.35-8.26-15.23-15.69 3.12-7.43 4.33 3.92 16.73 7.91 9.38 3 10.33-3.69 12-9.37L139 159Zm-52.31-7.66a16.674 16.674 0 0 1 9 .54s1.73 4.19-2 4.37c-3.73.18-7-3.59-7-3.59v-1.32Z" fill="#407BFF"/>
    <path d="M85.8 153.76s2.39-.09 2.37-3a60.77 60.77 0 0 0-.51-6.53l7.07.63s-.94 8.7 2.3 9.14c-.03 0-2.83 4.29-11.23-.24Z" fill="#CE7A63"/>
    <path opacity=".1" d="m94.73 144.82-7.07-.63s.18 1.32.32 3a10.413 10.413 0 0 0 6.93 3.84 24.479 24.479 0 0 1-.18-6.21Z" fill="#000"/>
    <path d="M83.13 134.7c.94 6.34 1.2 9 4.7 12 5.26 4.51 12.84 2 13.82-4.52.87-5.85-.81-15.23-7.26-17.23a8.723 8.723 0 0 0-3.4-.383 8.723 8.723 0 0 0-5.957 3.091 8.748 8.748 0 0 0-1.643 3.002 8.64 8.64 0 0 0-.26 4.04Z" fill="#CE7A63"/>
    <path d="M97.32 136.17a13.998 13.998 0 0 0 2.13 3.15 2.204 2.204 0 0 1-1.81.51l-.32-3.66Z" fill="#BA4D3C"/>
    <path d="M90.35 133.28a.347.347 0 0 1-.12-.05.256.256 0 0 1-.077-.18.25.25 0 0 1 .077-.18 2.992 2.992 0 0 1 2.45-1.23.24.24 0 0 1 .171.087.25.25 0 0 1 .059.183.257.257 0 0 1-.087.174.258.258 0 0 1-.183.066 2.47 2.47 0 0 0-2 1 .26.26 0 0 1-.29.13Zm11.01-.86h-.13A2.486 2.486 0 0 0 99 132a.25.25 0 0 1-.277-.056.253.253 0 0 1-.053-.084.27.27 0 0 1 .15-.34 3.01 3.01 0 0 1 2.7.45.269.269 0 0 1 .08.36.278.278 0 0 1-.25.11l.01-.02Zm-7.78 3.2c0 .52.36.92.7.89.34-.03.58-.47.53-1-.05-.53-.36-.92-.69-.89-.33.03-.58.48-.54 1Zm5.87-.5c0 .52.36.91.69.88.33-.03.58-.47.54-1-.04-.53-.36-.91-.7-.88-.34.03-.58.48-.53 1Z" fill="#263238"/>
    <path d="m99.84 134.17 1.21-.46s-.56 1.02-1.21.46Zm-5.84.5 1.22-.46s-.59 1.02-1.22.46Zm2.41 8.19c.298-.001.596-.028.89-.08a.139.139 0 0 0 .059-.02.14.14 0 0 0 .046-.041.155.155 0 0 0 .025-.119.15.15 0 0 0-.18-.13 4.227 4.227 0 0 1-3.68-1 .166.166 0 0 0-.05-.036.155.155 0 0 0-.12 0 .16.16 0 0 0-.05.256 4.424 4.424 0 0 0 3.06 1.17Z" fill="#263238"/>
    <path d="M115 257c-.09 24.68-3.87 98.91-3.87 98.91h-7s-4.13-30.15-3.7-56.66c.16-9.59 1-16.92 1.09-22.61.16-10.26-7.68-45.42-7.68-45.42l21.26 2.6s-.1 17.32-.1 23.18Z" fill="#CE7A63"/>
    <path opacity=".2" d="M114.67 273.52c.14-4.66.24-8.88.3-12.47l-15.38-.7a132.785 132.785 0 0 1 1.89 14.83c4.466.468 8.979-.1 13.19-1.66Z" fill="#000"/>
    <path d="M110.7 354h-6.82a.492.492 0 0 0-.364.146.506.506 0 0 0-.146.364l-1.07 6.55a1.328 1.328 0 0 0 1 1.25h.22c2.81-.1 5.29-.3 8.8-.35 4.14-.07 3.2.44 8.08.43 3 0 2.78-3.37 1.5-3.51-5.85-.62-6.8-2.34-9.43-4.35a2.997 2.997 0 0 0-1.77-.53Z" fill="#263238"/>
    <path d="M91.32 258.78 78 356.2h-6.89s-2.32-28.38-.57-52.73c.65-9.06 2.46-17.08 3.42-22.72 2-11.79 1.64-49.91 1.64-49.91l18.37 3-2.65 24.94Z" fill="#CE7A63"/>
    <path opacity=".2" d="m89.21 274.82 2.31-20.91-15.8-.72c-.18 7-.49 13.86-1 18.6a136.286 136.286 0 0 0 14.49 3.03Z" fill="#000"/>
    <path d="M77.76 354h-6.82a.518.518 0 0 0-.52.51l-1.19 6.55a1.298 1.298 0 0 0 1 1.25h.23c2.81-.1 5.29-.3 8.8-.35 4.15-.07 3.19.44 8.08.43 2.94 0 2.83-3.37 1.55-3.51-5.83-.62-6.76-2.34-9.35-4.35a2.997 2.997 0 0 0-1.78-.53Z" fill="#263238"/>
    <path d="m84.67 153.29 1.98-.63 5.16 3.59h1.89l1.59-.7 1.85-1.85 1.84.76 1.32 5.07v1.54l.56 1.87 1.62 6.28 1.23 8.1v6.1l-.46 6.55-1.72-3.41-4.87-9.1-4.05-11.47-1.19-4-3.09-3.26-2.41-4.12-1.25-1.32Z" fill="#407BFF"/>
    <path d="m84.67 153.29 1.98-.63 5.16 3.59h1.89l1.59-.7 1.85-1.85 1.84.76 1.32 5.07v1.54l.56 1.87 1.62 6.28 1.23 8.1v6.1l-.46 6.55-1.72-3.41-4.87-9.1-4.05-11.47-1.19-4-3.09-3.26-2.41-4.12-1.25-1.32Z" fill="#407BFF"/>
    <path opacity=".5" d="m84.67 153.29 1.98-.63 5.16 3.59h1.89l1.59-.7 1.85-1.85 1.84.76 1.32 5.07v1.54l.56 1.87 1.62 6.28 1.23 8.1v6.1l-.46 6.55-1.72-3.41-4.87-9.1-4.05-11.47-1.19-4-3.09-3.26-2.41-4.12-1.25-1.32Z" fill="#fff"/>
    <path d="M78.51 206.62s-5.07 13.92-5.3 22.43c-.21 8.1.66 17.52.53 25.11a94.728 94.728 0 0 1-1.29 14.24s27.39 8.71 45.18 1.06a265.68 265.68 0 0 0-4.19-62.84l-12.58.68-22.35-.68Z" fill="#263238"/>
    <path d="m75.79 158.34 6.21 32.4a234.878 234.878 0 0 0-6.83 23.18s19 6.32 24.57 3.55c1.78-.89 3.83-7 3.83-7s3.19 6.43 5.32 7c1.75.43 6.55-3 6.55-3s-2.24-14.53-5-24.45l1.34-11s2.6-6.11-2.4-17l-1.44-4.39a2.362 2.362 0 0 0-1.14-1.36 35.853 35.853 0 0 0-9.16-3.23s7 16.58 5.32 32.83c0 0-6.82-24.09-17.73-33.28a20.389 20.389 0 0 0-7.78 2.42 3.217 3.217 0 0 0-1.66 3.33Z" fill="#407BFF"/>
    <path d="m85.18 152.66 1.51-1.32s4.1 4.48 6.83 4.33c2.73-.15 2.18-3.79 2.18-3.79l1.89 1.23.84.78-.2 4.84s-2.39-2.8-3.8-2.39c-1.41.41-2.62 3.42-2.62 3.42s-3.17-1.76-6.63-7.1Z" fill="#407BFF"/>
    <path opacity=".8" d="m85.18 152.66 1.51-1.32s4.1 4.48 6.83 4.33c2.73-.15 2.18-3.79 2.18-3.79l1.89 1.23.84.78-.2 4.84s-2.39-2.8-3.8-2.39c-1.41.41-2.62 3.42-2.62 3.42s-3.17-1.76-6.63-7.1Z" fill="#fff"/>
    <path d="M103.39 190.83s1.41-8.46 1.14-27.12l-3.67-2 2.3-.64a64.14 64.14 0 0 0-4-7.58c-.52-.13-1-.26-1.59-.38 0 0 7 19.45 5.32 35.7 0 0-6.82-27-17.73-36.15 0 0-.51 0-1.33.18A15.001 15.001 0 0 1 88 162.9h2.93l-2.39 2.18 14.85 25.75Z" fill="#407BFF"/>
    <path opacity=".2" d="M103.39 190.83s2.47-7.4 2.2-26.05l-4.73-3.07 3.37-.64-5-7.58c-.52-.13-1-.26-1.59-.38 0 0 7 19.45 5.32 35.7 0 0-6.82-27-17.73-36.15 0 0-.51 0-1.33.18 1.38 1.45 1.94 4.93 2 10.06h5.05l-3.45 4.3 15.89 23.63Z" fill="#000"/>
    <path d="m97.88 203.72 15.52-.4a1.228 1.228 0 0 0 1.16-1.1l1.88-23.87a1 1 0 0 0-1-1l-15.52.4a1.227 1.227 0 0 0-1.16 1.11l-1.89 23.86a1.002 1.002 0 0 0 1.01 1Z" fill="#263238"/>
    <path d="m105.69 179.44 3.72-.09a1.52 1.52 0 0 0 1.44-1.38l.18-2.2-6.4.17-.17 2.2a1.177 1.177 0 0 0 .313.936 1.165 1.165 0 0 0 .917.364Z" fill="#263238"/>
    <path opacity=".7" d="m105.69 179.44 3.72-.09a1.52 1.52 0 0 0 1.44-1.38l.18-2.2-6.4.17-.17 2.2a1.177 1.177 0 0 0 .313.936 1.165 1.165 0 0 0 .917.364Z" fill="#fff"/>
    <path d="M99.23 177.8h.73a1.22 1.22 0 0 0-1.16 1.1l-1.89 23.87a1.002 1.002 0 0 0 1 1.05h-.73a1.002 1.002 0 0 1-1-1l1.89-23.87a1.22 1.22 0 0 1 1.16-1.15Z" fill="#263238"/>
    <path opacity=".7" d="M99.23 177.8h.73a1.22 1.22 0 0 0-1.16 1.1l-1.89 23.87a1.002 1.002 0 0 0 1 1.05h-.73a1.002 1.002 0 0 1-1-1l1.89-23.87a1.22 1.22 0 0 1 1.16-1.15Z" fill="#fff"/>
    <path d="M89.89 197.26a41.727 41.727 0 0 0 5.58-.71l3.54.39s4.33.93 5.26 0c1.11-1.12 1-5.08 0-6.31-.88-1.08-5.45-1.16-5.45-1.16l-4 2.12a32.69 32.69 0 0 1-4.87.4l-.06 5.27Z" fill="#CE7A63"/>
    <path d="M90.46 197.71c-8.14.52-23.37-.7-23.35-15.51 0-7.63 3.81-28.22 11.83-27.4 8.02.82-3.53 9.14-3.53 26.35 0 9.85 9.2 10.2 15.12 10.14l-.07 6.42Z" fill="#407BFF"/>
    <path opacity=".1" d="M90.46 197.71c-8.14.52-23.37-.7-23.35-15.51 0-7.63 3.81-28.22 11.83-27.4 8.02.82-3.53 9.14-3.53 26.35 0 9.85 9.2 10.2 15.12 10.14l-.07 6.42Z" fill="#000"/>
    <path d="M85.18 139.37s2.83-1.88 1.47-7.48c0 0 4.43-1.18 5.16-4.45 0 0 .8 2.83 2.39 2.52 1.59-.31 0-3.05 0-3.05s2.53 2.52 3.81 2.3c1.28-.22 0-2.3 0-2.3s1.13 2.45 2.51 2c1.38-.45-.58-2.67-.58-2.67s1.79 2.54 2.19 1.33c.4-1.21-4.77-6.77-12-5.8 0 0-8.92-1.33-11.3 7.69 0 0-3.8 2.48-1.92 8.38 0 .01 9.16 1.73 8.27 1.53Z" fill="#263238"/>
    <path d="M82.05 139.87a4.679 4.679 0 0 0 2.49 2.57c1.51.64 2.48-.66 2.23-2.2-.22-1.38-1.27-3.38-2.87-3.37a2.11 2.11 0 0 0-2 2.19c0 .277.051.552.15.81Z" fill="#CE7A63"/>
    <path d="M368.27 84.46c0-8.09-8-14.66-17.81-14.66-9.81 0-17.81 6.57-17.81 14.66s8 14.66 17.81 14.66c.967 0 1.933-.067 2.89-.2l7.27 3.77-.72-5.8c5.03-2.59 8.37-7.19 8.37-12.43Z" fill="#407BFF"/>
    <path opacity=".5" d="M368.27 84.46c0-8.09-8-14.66-17.81-14.66-9.81 0-17.81 6.57-17.81 14.66s8 14.66 17.81 14.66c.967 0 1.933-.067 2.89-.2l7.27 3.77-.72-5.8c5.03-2.59 8.37-7.19 8.37-12.43Z" fill="#fff"/>
    <path d="M356.16 85.24a5.407 5.407 0 0 0-5.5-5.4 5.641 5.641 0 0 0-5.31 5.24 5.427 5.427 0 0 0 2.06 4.41 3.608 3.608 0 0 1 1.38 2.28v.13a1.31 1.31 0 0 0 1.3 1.12h1.28a1.33 1.33 0 0 0 1.31-1.12v-.13a3.52 3.52 0 0 1 1.33-2.26 5.366 5.366 0 0 0 2.15-4.27Z" fill="#fff"/>
    <path d="M351.05 95.31h-.6a1.45 1.45 0 0 1-1.44-1.45.457.457 0 0 1 .46-.46H352a.468.468 0 0 1 .46.46 1.457 1.457 0 0 1-1.41 1.45Z" fill="#407BFF"/>
    <path opacity=".2" d="M351.05 95.31h-.6a1.45 1.45 0 0 1-1.44-1.45.457.457 0 0 1 .46-.46H352a.468.468 0 0 1 .46.46 1.457 1.457 0 0 1-1.41 1.45Z" fill="#fff"/>
    <path d="m352.29 89.59-.56-.15.72-2.62-.69.4-.07-.82-.94.7-.94-.7-.07.82-.68-.4.71 2.62-.56.15-1.09-4.01 1.12.67.07-.93 1.44 1.06 1.44-1.06.07.93 1.12-.67-1.09 4.01Z" fill="#407BFF"/>
    <path d="m352.29 89.59-.56-.15.72-2.62-.69.4-.07-.82-.94.7-.94-.7-.07.82-.68-.4.71 2.62-.56.15-1.09-4.01 1.12.67.07-.93 1.44 1.06 1.44-1.06.07.93 1.12-.67-1.09 4.01Z" fill="#fff" opacity=".5"/>
    <path d="M351.08 74.12h-.66v4.54h.66v-4.54Zm11.02 11.02h-4.54v.66h4.54v-.66Zm-18.16 0h-4.54v.66h4.54v-.66Zm14.607-7.93-3.211 3.21.467.468 3.21-3.21-.466-.467Zm-12.84 12.84-3.211 3.21.467.466 3.21-3.21-.466-.467Zm10.095.02-.467.467 3.211 3.21.466-.467-3.21-3.21Zm-12.838-12.85-.467.467 3.21 3.21.467-.466-3.21-3.21Z" fill="#fff"/>
    <path d="M87.3 91.65c0-10.56 10.4-19.12 23.23-19.12s23.22 8.56 23.22 19.12-10.4 19.11-23.22 19.11a29.157 29.157 0 0 1-3.77-.25l-7.47 4.9-1.07-7.55c-6.56-3.38-10.92-9.38-10.92-16.21Z" fill="#407BFF"/>
    <path opacity=".5" d="M87.3 91.65c0-10.56 10.4-19.12 23.23-19.12s23.22 8.56 23.22 19.12-10.4 19.11-23.22 19.11a29.157 29.157 0 0 1-3.77-.25l-7.47 4.9-1.07-7.55c-6.56-3.38-10.92-9.38-10.92-16.21Z" fill="#fff"/>
    <path d="M103.1 92.67a7.061 7.061 0 0 1 2.121-4.992 7.053 7.053 0 0 1 5.039-2.008 7.38 7.38 0 0 1 6.94 6.84 7.044 7.044 0 0 1-2.7 5.74 4.802 4.802 0 0 0-1.79 3v.17a1.719 1.719 0 0 1-1.7 1.45h-1.68a1.718 1.718 0 0 1-1.7-1.45v-.17a4.61 4.61 0 0 0-1.74-2.94 6.994 6.994 0 0 1-2.79-5.64Z" fill="#fff"/>
    <path d="M110.56 105.79h-.81a1.87 1.87 0 0 1-1.87-1.87.588.588 0 0 1 .59-.59h3.37a.59.59 0 0 1 .59.59 1.867 1.867 0 0 1-1.87 1.87Z" fill="#407BFF"/>
    <path opacity=".2" d="M110.56 105.79h-.81a1.87 1.87 0 0 1-1.87-1.87.588.588 0 0 1 .59-.59h3.37a.59.59 0 0 1 .59.59 1.867 1.867 0 0 1-1.87 1.87Z" fill="#fff"/>
    <path d="m108.14 98.34.73-.2-.93-3.42.89.53.09-1.07 1.23.91 1.23-.91.09 1.07.89-.53-.93 3.42.73.2 1.42-5.23-1.45.87-.11-1.22-1.87 1.39-1.87-1.39-.1 1.22-1.46-.87 1.42 5.23Z" fill="#407BFF"/>
    <path d="m108.14 98.34.73-.2-.93-3.42.89.53.09-1.07 1.23.91 1.23-.91.09 1.07.89-.53-.93 3.42.73.2 1.42-5.23-1.45.87-.11-1.22-1.87 1.39-1.87-1.39-.1 1.22-1.46-.87 1.42 5.23Z" fill="#fff" opacity=".5"/>
    <path d="M110.59 78.17h-.87v5.92h.87v-5.92Zm-9.32 14.36h-5.92v.87h5.92v-.87Zm23.68 0h-5.92v.87h5.92v-.87ZM99.992 82.2l-.615.616 4.186 4.186.615-.615-4.186-4.186Zm16.744 16.74-.615.616 4.186 4.186.615-.615-4.186-4.186Zm-13.166-.015-4.186 4.186.615.615 4.186-4.186-.615-.615Zm16.74-16.735-4.186 4.187.615.615 4.186-4.186-.615-.615Z" fill="#fff"/>
    <path d="M185.75 243.71a.997.997 0 0 1-1-1 .997.997 0 0 1 1-1h27.88a.997.997 0 0 1 1 1 .997.997 0 0 1-1 1h-27.88Z" fill="#407BFF"/>
    <path opacity=".5" d="M185.75 243.71a.997.997 0 0 1-1-1 .997.997 0 0 1 1-1h27.88a.997.997 0 0 1 1 1 .997.997 0 0 1-1 1h-27.88Z" fill="#fff"/>
    <path d="m188.11 241.94-3.71-26.42a2.087 2.087 0 0 0-2-1.76h-3.55v29.93h7.76a1.48 1.48 0 0 0 1.5-1.75Z" fill="#407BFF"/>
    <path opacity=".6" d="m188.11 241.94-3.71-26.42a2.087 2.087 0 0 0-2-1.76h-3.55v29.93h7.76a1.48 1.48 0 0 0 1.5-1.75Z" fill="#fff"/>
    <path d="M185.07 243.69h-31.54a2.08 2.08 0 0 1-2-1.75l-3.71-26.42a1.507 1.507 0 0 1 .026-.658 1.495 1.495 0 0 1 1.484-1.102h31.53a2.103 2.103 0 0 1 2 1.76l3.71 26.42a1.5 1.5 0 0 1-.336 1.23 1.487 1.487 0 0 1-1.164.52Z" fill="#407BFF"/>
    <path opacity=".5" d="M185.07 243.69h-31.54a2.08 2.08 0 0 1-2-1.75l-3.71-26.42a1.507 1.507 0 0 1 .026-.658 1.495 1.495 0 0 1 1.484-1.102h31.53a2.103 2.103 0 0 1 2 1.76l3.71 26.42a1.5 1.5 0 0 1-.336 1.23 1.487 1.487 0 0 1-1.164.52Z" fill="#fff"/>
    <path opacity=".7" d="M169.82 230.09c.061.338.046.686-.044 1.018a2.32 2.32 0 0 1-1.296 1.506 2.309 2.309 0 0 1-1 .196 3.23 3.23 0 0 1-3.09-2.72 2.308 2.308 0 0 1 1.334-2.515 2.29 2.29 0 0 1 .996-.195 3.24 3.24 0 0 1 3.1 2.71Z" fill="#fff"/>
    <path d="M331.14 362.4h-2.61l-3.37-112.17h3.46l2.52 112.17Z" fill="#263238"/>
    <path opacity=".6" d="M331.14 362.4h-2.61l-3.37-112.17h3.46l2.52 112.17Z" fill="#fff"/>
    <path d="M288.99 250.23V362.4h2.77l3.25-107.05h33.39l2.44 107.05h2.74V250.23h-44.59Z" fill="#263238"/>
    <path opacity=".4" d="M288.99 250.23V362.4h2.77l3.25-107.05h33.39l2.44 107.05h2.74V250.23h-44.59Z" fill="#fff"/>
    <path d="M288.99 362.4h-2.61l-.85-112.17h3.46V362.4Z" fill="#263238"/>
    <path opacity=".6" d="M288.99 362.4h-2.61l-.85-112.17h3.46V362.4Z" fill="#fff"/>
    <path d="M189.25 362.4h-2.62l-3.36-112.17h3.45l2.53 112.17Z" fill="#263238"/>
    <path opacity=".6" d="M189.25 362.4h-2.62l-3.36-112.17h3.45l2.53 112.17Z" fill="#fff"/>
    <path d="M147.09 250.23V362.4h2.77l3.25-107.05h33.39l2.44 107.05h2.74V250.23h-44.59Z" fill="#263238"/>
    <path opacity=".4" d="M147.09 250.23V362.4h2.77l3.25-107.05h33.39l2.44 107.05h2.74V250.23h-44.59Z" fill="#fff"/>
    <path d="M147.09 362.4h-2.61l-.84-112.17h3.45V362.4Z" fill="#263238"/>
    <path opacity=".6" d="M147.09 362.4h-2.61l-.84-112.17h3.45V362.4Z" fill="#fff"/>
    <path d="M286.83 243.78H139.06v6.45h147.77v-6.45Z" fill="#263238"/>
    <path opacity=".4" d="M286.83 243.78H139.06v6.45h147.77v-6.45Z" fill="#fff"/>
    <path d="M338.15 243.78h-55.34v6.45h55.34v-6.45Z" fill="#263238"/>
    <path opacity=".3" d="M338.15 243.78h-55.34v6.45h55.34v-6.45Z" fill="#fff"/>
    <path d="M310.37 243.94h-36.65a2.075 2.075 0 0 1-2-1.75L268 215.86a1.474 1.474 0 0 1 .331-1.234 1.477 1.477 0 0 1 1.169-.516h36.66a2.08 2.08 0 0 1 2 1.75l3.7 26.33a1.488 1.488 0 0 1-1.49 1.75Z" fill="#407BFF"/>
    <path opacity=".5" d="M310.37 243.94h-36.65a2.075 2.075 0 0 1-2-1.75L268 215.86a1.474 1.474 0 0 1 .331-1.234 1.477 1.477 0 0 1 1.169-.516h36.66a2.08 2.08 0 0 1 2 1.75l3.7 26.33a1.488 1.488 0 0 1-1.49 1.75Z" fill="#fff"/>
    <path d="m308.08 240-32.57-.15a1.931 1.931 0 0 1-1.85-1.62l-2.89-19.87a1.363 1.363 0 0 1 .307-1.143 1.366 1.366 0 0 1 1.083-.477l32.57.15a1.918 1.918 0 0 1 1.84 1.62l2.89 19.87a1.377 1.377 0 0 1-.788 1.501 1.37 1.37 0 0 1-.592.119Z" fill="#263238"/>
    <path d="M333.21 243.82h-44.36a1.233 1.233 0 0 1-1.23-1.23 1.23 1.23 0 0 1 1.23-1.23h44.36a1.237 1.237 0 0 1 1.24 1.23 1.237 1.237 0 0 1-1.24 1.23Z" fill="#407BFF"/>
    <path opacity=".7" d="M333.21 243.82h-44.36a1.233 1.233 0 0 1-1.23-1.23 1.23 1.23 0 0 1 1.23-1.23h44.36a1.237 1.237 0 0 1 1.24 1.23 1.237 1.237 0 0 1-1.24 1.23Z" fill="#fff"/>
    <path d="M298.21 243.82h-23.66a1.233 1.233 0 0 1-1.23-1.23 1.23 1.23 0 0 1 1.23-1.23h23.66a1.226 1.226 0 0 1 1.145.757 1.222 1.222 0 0 1 0 .946 1.216 1.216 0 0 1-1.145.757Z" fill="#407BFF"/>
    <path opacity=".6" d="M298.21 243.82h-23.66a1.233 1.233 0 0 1-1.23-1.23 1.23 1.23 0 0 1 1.23-1.23h23.66a1.226 1.226 0 0 1 1.145.757 1.222 1.222 0 0 1 0 .946 1.216 1.216 0 0 1-1.145.757Z" fill="#fff"/>
  </g>
  <defs>
    <clipPath id="a">
      <path fill="#fff" d="M0 0h476v380H0z"/>
    </clipPath>
  </defs>
</svg>
