<svg width="304" height="192" viewBox="0 0 304 192" fill="none" xmlns="http://www.w3.org/2000/svg">
<path fill-rule="evenodd" clip-rule="evenodd" d="M109.932 190.874C109.932 190.874 108.349 185.414 113.1 179.209C117.85 173.004 124.976 150.17 117.454 142.724C109.932 135.278 100.629 140.014 98.8473 132.682C97.0658 125.35 94.6904 106.487 83.4074 111.699C72.1245 116.911 66.7799 120.386 59.8517 114.926C52.9236 109.465 46.5893 118.401 43.2242 133.789C39.8591 149.177 40.057 160.842 31.1494 163.076C22.2418 165.31 20.6582 172.011 20.6582 177.968C20.6582 183.925 13.1362 190.874 13.1362 190.874H109.932Z" fill="#D8E5E8"/>
<path fill-rule="evenodd" clip-rule="evenodd" d="M-0.000499725 190.874C-0.000499725 190.874 42.7098 80.7953 49.6189 89.5516C56.5279 98.3079 42.7098 190.874 42.7098 190.874H-0.000499725Z" fill="url(#paint0_linear)"/>
<path d="M45.666 100.792L20.0176 190.874" stroke="#EB9B9B"/>
<path fill-rule="evenodd" clip-rule="evenodd" d="M61.9316 190.874C61.9316 190.874 60.1189 139.578 53.5479 139.578C46.9768 139.578 28.7764 190.874 28.7764 190.874H61.9316Z" fill="url(#paint1_linear)"/>
<path d="M45.6662 190.874L51.9219 150.838" stroke="#D64848"/>
<path fill-rule="evenodd" clip-rule="evenodd" d="M132.329 28.3516C132.329 28.3516 133.82 23.7294 136.585 21.3631C139.35 18.9969 143.19 18.1627 148.484 17.2236C153.777 16.2845 153.07 20.5203 149.159 21.6886C145.247 22.8568 145.47 22.9622 145.47 22.9622C145.47 22.9622 149.628 24.1819 148.468 24.6483C147.309 25.1148 142.704 24.1144 142.704 24.1144C142.704 24.1144 142.616 23.9517 141.149 24.1144C139.683 24.277 136.734 31.7347 136.734 31.7347L132.329 28.3516Z" fill="#D8E5E8"/>
<path fill-rule="evenodd" clip-rule="evenodd" d="M88.5992 180.735C88.5992 180.735 87.7441 186.938 87.7441 189.153C87.7441 191.368 106.982 191.368 111.257 189.596C115.532 187.824 109.547 185.165 107.837 185.165C106.127 185.165 99.2868 183.111 99.2868 179.929C99.2868 176.747 93.7292 175.861 93.7292 175.861L88.5992 180.735Z" fill="white" stroke="#6FA0A8"/>
<path fill-rule="evenodd" clip-rule="evenodd" d="M45.9621 149.191C45.9621 149.191 39.7591 148.336 37.5438 148.336C35.3284 148.336 35.3284 167.574 37.1007 171.849C38.873 176.124 41.5314 170.139 41.5314 168.429C41.5314 166.719 43.5858 159.878 46.7678 159.878C49.9498 159.878 50.8359 154.321 50.8359 154.321L45.9621 149.191Z" fill="white"/>
<path fill-rule="evenodd" clip-rule="evenodd" d="M69.4144 100.965C66.3513 108.289 66.8477 119.394 66.8477 124.109C66.8477 128.823 64.9829 137.824 63.8209 142.967C60.7996 146.181 51.0199 148.539 46.7421 149.824C42.4643 151.11 45.2574 161.396 48.881 160.111C52.5045 158.825 74.3338 151.967 75.831 147.681C77.3283 143.396 82.0126 127.966 83.1033 124.109C84.194 120.251 85.2422 107.394 85.2422 107.394L80.1088 96.6788C80.1088 96.6788 72.4774 93.6402 69.4144 100.965Z" fill="#6FA0A8" stroke="#447F8D"/>
<path fill-rule="evenodd" clip-rule="evenodd" d="M68.0018 89.8057L62.6574 92.0908C62.6574 92.0908 54.536 101.091 50.3618 105.872C46.1877 110.653 50.9153 112.516 54.4811 109.272C58.0468 106.027 58.0178 106.317 58.0178 106.317C58.0178 106.317 56.7249 111.264 57.9039 110.375C59.0829 109.486 60.8705 104.221 60.8705 104.221C60.8705 104.221 61.5759 102.744 62.6574 100.847C63.7389 98.9491 64.1161 93.2976 64.1161 93.2976L68.0018 89.8057Z" fill="#D8E5E8"/>
<path fill-rule="evenodd" clip-rule="evenodd" d="M85.0783 44.491C81.0121 47.6189 63.6757 69.5962 63.2513 71.4824C62.827 73.3686 58.1591 94.26 57.7348 96.0046C57.3104 97.7492 64.5244 101.205 65.3731 98.6046C66.2218 96.0046 71.2994 76.5921 72.587 75.3089C73.8746 74.0257 83.6201 62.6754 85.3175 60.5367C87.0148 58.3981 88.8318 40.7376 85.0783 44.491Z" fill="#101136"/>
<path fill-rule="evenodd" clip-rule="evenodd" d="M83.5284 92.66L90.3253 93.582C90.3253 93.582 101.795 98.4607 101.795 101.565C101.795 104.67 108.167 143.767 107.742 149.022C107.318 154.277 99.671 176.913 99.671 179.599C99.671 182.286 86.9268 183.565 86.9268 179.599C86.9268 175.633 94.5733 152.126 94.9981 148.135C95.4229 144.143 83.5284 118.419 83.5284 117.088C83.5284 115.758 76.3066 113.54 74.6074 111.766" fill="#6FA0A8"/>
<path d="M83.5284 92.66L90.3253 93.582C90.3253 93.582 101.795 98.4607 101.795 101.565C101.795 104.67 108.167 143.767 107.742 149.022C107.318 154.277 99.671 176.913 99.671 179.599C99.671 182.286 86.9268 183.565 86.9268 179.599C86.9268 175.633 94.5733 152.126 94.9981 148.135C95.4229 144.143 83.5284 118.419 83.5284 117.088C83.5284 115.758 76.3066 113.54 74.6074 111.766" stroke="#447F8D"/>
<path fill-rule="evenodd" clip-rule="evenodd" d="M95.0645 35.476C94.7636 38.1978 92.003 42.6009 89.6469 43.3445C87.2909 44.0882 92.9925 50.791 96.5896 52.5334C100.187 54.2758 105.046 50.9037 105.046 50.9037C105.046 50.9037 103.199 44.1686 104.916 38.9175C106.634 33.6664 107.327 36.9515 109.435 35.3843C111.544 33.8171 112.479 21.1982 111.413 17.4936C110.347 13.7889 105.518 19.7605 105.518 19.7605L101.373 29.833C101.373 29.833 95.3654 32.7542 95.0645 35.476Z" fill="#D8E5E8"/>
<path fill-rule="evenodd" clip-rule="evenodd" d="M110.427 14.5986C111.275 17.1509 109.774 27.2117 109.115 26.3495C108.456 25.4873 107.138 23.7628 106.856 26.2809C106.575 28.7989 106.18 29.6291 105.192 31.7046C104.205 33.7801 96.9577 39.5322 90.913 37.1661C84.6036 34.6964 84.788 21.1758 87.0474 16.8359C89.3067 12.4959 95.7467 7.41491 102.757 8.89121C109.767 10.3675 109.579 12.0462 110.427 14.5986Z" fill="#A34040"/>
<path fill-rule="evenodd" clip-rule="evenodd" d="M106.26 49.4632C110.251 50.525 111.235 65.5471 109.692 70.5963C108.148 75.6455 104.075 84.1379 102.749 88.9134C101.424 93.689 104.128 103.563 99.2474 106.072C94.3666 108.581 85.0176 102.544 79.2605 99.1234C73.5034 95.7029 69.1613 99.9321 73.8033 92.9978C78.4454 86.0634 80.5239 70.1382 80.5697 65.0776C80.6155 60.0169 81.0761 56.7337 82.7301 51.4485C84.3841 46.1634 87.3593 42.444 91.1236 42.2121C93.9735 44.7465 102.555 48.4154 106.26 49.4632Z" fill="#191A49"/>
<path fill-rule="evenodd" clip-rule="evenodd" d="M94.7331 63.2823C93.7804 68.9757 99.2775 73.2457 105.213 68.5012C106.834 67.2054 109.156 72.9844 110.922 69.7874C115.091 62.238 125.899 53.8453 127.976 50.9139C130.835 46.8812 138.675 30.8231 140.104 27.1334C141.533 23.4437 134.34 28.4435 133.795 26.0713C133.25 23.699 122.362 41.4579 121.409 42.8812C120.457 44.3045 95.6858 57.589 94.7331 63.2823Z" fill="#191A49"/>
<path fill-rule="evenodd" clip-rule="evenodd" d="M77.1445 186.211C77.1445 186.211 85.3049 172.107 87.9582 172.107C90.6115 172.107 87.9582 188.855 87.9582 188.855L77.1445 186.211Z" fill="#972C2C"/>
<path d="M86.873 176.347L81.5664 185.991" stroke="#D47575"/>
<path fill-rule="evenodd" clip-rule="evenodd" d="M73.5341 191.5C73.5341 191.5 70.1431 174.752 71.8386 174.752C73.5341 174.752 85.9894 191.5 85.9894 191.5H73.5341Z" fill="#A34040"/>
<path fill-rule="evenodd" clip-rule="evenodd" d="M79.7988 191.5C79.7988 191.5 91.7994 174.752 94.8341 176.515C97.8688 178.278 93.7394 191.5 93.7394 191.5H79.7988Z" fill="#A34040"/>
<path d="M93.7382 180.481L86.873 191.5" stroke="#D47575"/>
<path d="M73.5332 180.481L79.7976 191.5" stroke="#D47575"/>
<path fill-rule="evenodd" clip-rule="evenodd" d="M129.229 166.42C129.229 166.42 133.209 159.596 134.503 159.596C135.798 159.596 134.503 167.7 134.503 167.7L129.229 166.42Z" fill="#972C2C"/>
<path d="M133.975 161.648L131.387 166.314" stroke="#D47575"/>
<path fill-rule="evenodd" clip-rule="evenodd" d="M127.468 168.446C127.468 168.446 125.814 160.876 126.641 160.876C127.468 160.876 133.544 168.98 133.544 168.98L127.468 168.446Z" fill="#A34040"/>
<path fill-rule="evenodd" clip-rule="evenodd" d="M130.523 168.98C130.523 168.98 136.377 160.876 137.858 161.729C139.338 162.582 137 168.98 137 168.98H130.523Z" fill="#A34040"/>
<path d="M137.323 163.648L133.975 168.98" stroke="#D47575"/>
<path d="M127.469 163.648L130.525 168.98" stroke="#D47575"/>
<path d="M125.74 168.979C125.74 168.979 126.606 167.934 128.996 168.559C131.387 169.185 135.063 169.605 137.626 168.354C140.189 167.103 142.005 168.354 142.005 168.354" stroke="#D47575"/>
<path fill-rule="evenodd" clip-rule="evenodd" d="M242.036 184.278C246.756 185.188 249.898 168.979 243.908 168.979C237.919 168.979 232.452 176.433 229.332 173.385C226.212 170.338 218.95 168.12 218.95 172.239C218.95 176.357 222.07 184.278 222.07 184.278C222.07 184.278 237.317 183.367 242.036 184.278Z" fill="#E19090"/>
<path fill-rule="evenodd" clip-rule="evenodd" d="M237.316 180.239C237.316 180.239 231.544 170.23 229.668 170.23C227.791 170.23 229.668 182.116 229.668 182.116L237.316 180.239Z" fill="#972C2C"/>
<path d="M230.436 173.239L234.189 180.083" stroke="#D47575"/>
<path fill-rule="evenodd" clip-rule="evenodd" d="M239.872 183.993C239.872 183.993 242.27 172.107 241.071 172.107C239.872 172.107 231.462 183.367 231.462 183.367L239.872 183.993Z" fill="#A34040"/>
<path fill-rule="evenodd" clip-rule="evenodd" d="M235.441 183.367C235.441 183.367 226.953 172.107 224.807 173.358C222.66 174.609 225.581 183.367 225.581 183.367H235.441Z" fill="#A34040"/>
<path d="M225.581 176.173L230.211 183.289" stroke="#D47575"/>
<path d="M239.871 176.173L235.84 183.367" stroke="#D47575"/>
<path d="M222.078 184.071C222.078 184.071 228.334 183.133 233.964 183.446C239.594 183.758 245.224 185.322 248.352 184.071" stroke="#E19090" stroke-linecap="round"/>
<path d="M251.471 32.1012L303.399 17.2308L256.9 11.3298L251.471 32.1012Z" fill="#AAAEE1"/>
<path d="M251 0L303.164 17.2308L257.137 11.3298L251 0Z" fill="#AAAEE1"/>
<path d="M263.981 34.6977L262.57 28.8861L302.928 17.2309L263.981 34.6977Z" fill="#AAAEE1" stroke="#8A92D9"/>
<path d="M257.037 11.3298L302.356 17.2308" stroke="#8A92D9" stroke-linecap="round"/>
<path d="M156 25.4538C180.722 48.085 200.5 40.3427 209.939 30.8138C219.379 21.2849 172.182 18.9026 187.914 42.725C203.646 66.5474 232.864 55.8273 245 44.5117" stroke="#8A92D9" stroke-linecap="round" stroke-linejoin="round" stroke-dasharray="4 4"/>
<defs>
<linearGradient id="paint0_linear" x1="25.9607" y1="88.9064" x2="25.9607" y2="190.874" gradientUnits="userSpaceOnUse">
<stop stop-color="#B84949"/>
<stop offset="1" stop-color="#9771A4"/>
</linearGradient>
<linearGradient id="paint1_linear" x1="58.1782" y1="190.874" x2="45.6668" y2="149.274" gradientUnits="userSpaceOnUse">
<stop stop-color="#B84949"/>
<stop offset="1" stop-color="#9771A4"/>
</linearGradient>
</defs>
</svg>
