<svg width="88" height="71" viewBox="0 0 88 71" fill="none" xmlns="http://www.w3.org/2000/svg">
  <path d="m3.958 68.214.046-.144c-.617-.116-.695-.116-.45-.789l.251-.69h.682c.306 0 .31.124.264.458h.177l.408-1.118H5.16c-.153.265-.274.46-.608.46h-.673l.357-.98c.112-.31.177-.375.594-.375h.297c.432 0 .483.116.483.552h.171l.144-.76h-2.56l-.047.143c.496.102.543.148.31.789l-.556 1.521c-.232.636-.33.687-.9.79l-.042.143h1.828Zm3.554-1.865c.088-.302.041-.566-.19-.566-.274 0-.344.209-.622.807v-.343c0-.246-.08-.464-.302-.464-.26 0-.496.403-.677.802h.12c.126-.18.242-.287.335-.287.11 0 .171.171 0 .552l-.501 1.113c-.093.21.004.344.208.344.126 0 .181-.033.232-.167l.492-1.304c.14-.172.264-.32.422-.487h.483Zm2.254-.673-.195-.014-.218.214h-.046c-1.058 0-1.972 1.187-1.972 2.05 0 .241.149.38.38.38.274 0 .544-.39.845-.807l-.014.149c-.037.427.093.659.316.659.26 0 .496-.404.677-.803h-.12c-.126.181-.242.288-.335.288-.097 0-.167-.177 0-.552l.682-1.564Zm-1.953 1.907c0-.57.636-1.345.993-1.345.079 0 .153.009.218.027l-.371.989c-.214.26-.543.575-.696.575-.088 0-.144-.074-.144-.246Zm2.343-1.443h.427l-.678 1.851c-.06.158.024.316.186.316.385 0 1.007-.38 1.225-.9h-.12c-.173.18-.502.422-.785.473l.622-1.74h.635l.08-.264h-.618l.237-.668h-.246l-.44.668-.525.074v.19Zm3.03 1.271h-.158c-.2.237-.413.422-.627.422-.218 0-.33-.13-.33-.422 0-.12.015-.241.038-.352l1.285-.422c.25-.594-.05-.854-.404-.854-.607 0-1.299 1.016-1.299 1.907 0 .399.19.617.488.617.348 0 .71-.339 1.006-.896Zm-.441-1.285c.171 0 .32.13.24.46l-.797.185c.14-.371.371-.645.557-.645Zm2.848.223c.088-.302.042-.566-.19-.566-.274 0-.344.209-.622.807v-.343c0-.246-.079-.464-.301-.464-.26 0-.497.403-.678.802h.121c.125-.18.241-.287.334-.287.111 0 .172.171 0 .552l-.501 1.113c-.093.21.005.344.209.344.125 0 .18-.033.232-.167l.491-1.304c.14-.172.265-.32.423-.487h.482Zm.01 1.614c-.093.21.004.344.208.344.125 0 .181-.033.232-.167l.492-1.304c.227-.278.696-.575.881-.575.135 0 .116.111.028.278l-.756 1.452a.213.213 0 0 0 .186.316c.37 0 .811-.334.988-.803h-.121c-.12.172-.325.362-.515.394l.65-1.313c.083-.167.125-.324.125-.45 0-.213-.12-.352-.344-.352-.32 0-.644.362-1.03.807v-.343c0-.246-.078-.464-.3-.464-.14 0-.275.12-.4.292v.046c.241-.013.348.349.176.729l-.5 1.113Zm4.086-2.839a.306.306 0 1 0-.306-.306c0 .172.135.306.306.306Zm-.13.928c.051-.172-.064-.27-.153-.27-.37 0-.811.335-.988.803h.12c.122-.171.326-.361.516-.394l-.71 1.846c-.065.172.065.27.153.27.353 0 .766-.339.942-.803h-.12c-.121.172-.325.362-.516.394l.756-1.846Zm.576.088h.426l-.677 1.851c-.06.158.023.316.186.316.385 0 1.006-.38 1.225-.9h-.121c-.172.18-.501.422-.784.473l.622-1.74h.635l.079-.264h-.617l.237-.668H21.1l-.441.668-.524.074v.19Zm2.774-.594.905-.844v-.097h-.488l-.556.941h.139Zm.255 1.865h-.158c-.2.237-.413.422-.626.422-.218 0-.33-.13-.33-.422 0-.12.014-.241.038-.352l1.285-.422c.25-.594-.051-.854-.404-.854-.608 0-1.299 1.016-1.299 1.907 0 .399.19.617.487.617.348 0 .71-.339 1.007-.896Zm-.44-1.285c.171 0 .32.13.24.46l-.797.185c.139-.371.37-.645.556-.645ZM4.877 58.8l.904-.621v-.098h-.547l-.501.72h.144Zm-.372 1.945c.307 0 .311.125.265.459h.176l.408-1.118h-.176c-.153.264-.274.46-.608.46h-.672l.338-.933c.112-.311.177-.371.594-.371h.297c.432 0 .483.115.483.547h.171l.144-.76h-2.56l-.047.143c.496.102.543.148.31.789l-.556 1.521c-.232.636-.33.687-.9.789l-.042.144h2.85l.51-.808h-.195c-.325.307-.733.599-1.303.599-.757 0-.687-.033-.437-.724l.27-.737h.681Zm3.243 1.985c0-.297-.264-.403-.696-.533-.37-.112-.538-.144-.538-.265 0-.097.08-.213.237-.297.608-.032 1.002-.58 1.002-1.039a.626.626 0 0 0-.051-.255h.515l.079-.265h-.817a.63.63 0 0 0-.33-.092c-.644 0-1.061.566-1.061 1.025 0 .348.222.566.491.617-.301.135-.468.292-.468.478 0 .107.037.18.125.25-.696.205-.97.436-.97.766 0 .32.422.455.923.455.85 0 1.56-.46 1.56-.845Zm-1.006-1.27c-.154 0-.214-.13-.214-.278 0-.413.223-1.021.57-1.021.154 0 .214.13.214.278 0 .413-.222 1.021-.57 1.021Zm-.96 1.498c0-.245.236-.398.575-.533.11.056.278.116.5.19.353.116.488.163.488.27 0 .227-.385.398-.91.398-.44 0-.654-.093-.654-.325Zm4.722-3.08-.195-.014-.218.213h-.046c-1.058 0-1.972 1.188-1.972 2.051 0 .241.149.38.38.38.274 0 .543-.39.845-.807l-.014.149c-.037.427.093.658.315.658.26 0 .497-.403.678-.802h-.121c-.125.18-.241.287-.334.287-.097 0-.167-.176 0-.552l.682-1.563ZM8.55 61.784c0-.57.635-1.346.993-1.346.079 0 .153.01.218.028l-.371.988c-.214.26-.543.576-.696.576-.089 0-.144-.075-.144-.246Zm2.459.315 1.294-3.391-.042-.051-.812.093v.097l.158.12c.144.112.098.219-.033.562l-1.01 2.663a.213.213 0 0 0 .185.315c.371 0 .765-.334.941-.802h-.12c-.12.172-.371.362-.561.394Zm2.468-2.774a.306.306 0 1 0-.306-.306c0 .171.134.306.306.306Zm-.13.928c.05-.172-.065-.27-.153-.27-.372 0-.812.335-.989.803h.121c.12-.171.325-.361.515-.394l-.71 1.846c-.065.172.065.27.153.27.353 0 .766-.34.942-.803h-.12c-.121.172-.325.362-.515.394l.756-1.846Zm.575.088h.427l-.678 1.851c-.06.158.024.315.186.315.385 0 1.007-.38 1.225-.9h-.12c-.172.181-.502.423-.785.474l.622-1.74h.635l.08-.265h-.618l.237-.668h-.246l-.44.668-.525.075v.19Zm2.774-.594.905-.844v-.098h-.487l-.557.942h.14Zm.255 1.865h-.157c-.2.237-.413.422-.627.422-.218 0-.329-.13-.329-.422 0-.12.014-.241.037-.352l1.285-.423c.25-.594-.051-.853-.403-.853-.608 0-1.3 1.016-1.3 1.907 0 .398.19.616.488.616.348 0 .71-.338 1.006-.895Zm-.44-1.285c.171 0 .32.13.24.46l-.797.185c.14-.371.371-.645.557-.645ZM5.044 53.23h-1.69l-.046.143c.497.102.543.148.311.788l-.547 1.522c-.232.636-.33.687-.9.789l-.042.144H4.7l.557-.993h-.195c-.315.348-.686.784-1.257.784-.431 0-.482-.074-.25-.724l.547-1.522c.227-.635.33-.686.9-.788l.042-.144Zm1.87.296a.306.306 0 1 0-.307-.306c0 .172.135.306.306.306Zm-.13.928c.05-.172-.066-.27-.154-.27-.37 0-.812.335-.988.803h.12c.121-.171.325-.361.516-.394l-.71 1.846c-.065.172.065.27.153.27.352 0 .765-.34.942-.803h-.121c-.12.172-.325.362-.515.394l.756-1.846Zm2.523.246c0-.376-.14-.515-.399-.515-.325 0-.631.343-.937.76l.775-2.036-.042-.051-.812.093v.097l.158.12c.144.112.097.228-.033.562l-.835 2.153c-.06.157-.134.343-.134.394 0 .223.301.431.575.431.63 0 1.684-1.136 1.684-2.008Zm-1.461 1.633c-.126 0-.307-.116-.307-.218 0-.033.056-.177.126-.358l.208-.552c.223-.264.562-.547.752-.547.116 0 .204.074.204.246 0 .505-.473 1.429-.983 1.429Zm3.15-.52h-.158c-.2.237-.413.422-.626.422-.219 0-.33-.13-.33-.422 0-.12.014-.241.037-.352l1.285-.423c.25-.593-.05-.853-.403-.853-.608 0-1.3 1.016-1.3 1.907 0 .398.191.617.488.617.348 0 .71-.34 1.007-.896Zm-.441-1.285c.172 0 .32.13.241.46l-.798.185c.14-.371.371-.645.557-.645Zm2.848.223c.088-.302.042-.566-.19-.566-.274 0-.343.209-.621.807v-.343c0-.246-.08-.464-.302-.464-.26 0-.496.403-.677.802h.12c.125-.18.242-.287.334-.287.112 0 .172.171 0 .552l-.5 1.113c-.094.209.004.343.208.343.125 0 .18-.032.232-.166l.492-1.304c.139-.172.264-.32.422-.487h.482Zm.334-.21h.339l-.677 1.852c-.06.158.023.316.185.316.385 0 1.007-.381 1.225-.9h-.12c-.172.18-.502.422-.785.473l.622-1.74h.636l.079-.264h-.618l.237-.669h-.246l-.44.669-.437.074v.19Zm2.658-.593.905-.844v-.098h-.487l-.557.942h.14Zm.256 1.865h-.158c-.2.237-.413.422-.626.422-.218 0-.33-.13-.33-.422 0-.12.014-.241.037-.352l1.285-.423c.251-.593-.05-.853-.403-.853-.608 0-1.3 1.016-1.3 1.907 0 .398.191.617.488.617.348 0 .71-.34 1.007-.896Zm-.441-1.285c.172 0 .32.13.241.46l-.798.185c.14-.371.371-.645.557-.645ZM3.468 21.074h-1.28v-6.311h1.596l1.541 2.65 1.542-2.65h1.596v6.311h-1.28v-4.526L5.776 18.91h-.901l-1.407-2.362v4.526Zm8.042-6.311h-1.28v6.311h1.28v-6.311Zm3.057 6.311h-1.28v-6.311h1.64l2.823 4.562v-4.562h1.28v6.311h-1.64l-2.823-4.562v4.562Zm7.52-6.311h-1.28v6.311h1.28v-6.311Zm3.543 6.491c-.492 0-.93-.085-1.312-.257a2.852 2.852 0 0 1-1.023-.798l.929-.856c.192.246.41.437.654.572.243.136.491.203.743.203.253 0 .451-.064.596-.194a.672.672 0 0 0 .216-.527.654.654 0 0 0-.203-.47c-.135-.137-.437-.308-.906-.513a7.018 7.018 0 0 1-.794-.388 2.534 2.534 0 0 1-.433-.324 1.614 1.614 0 0 1-.4-.573 1.878 1.878 0 0 1-.131-.717c0-.517.193-.95.581-1.303.388-.351.873-.527 1.456-.527.433 0 .834.089 1.204.266.37.177.705.443 1.005.798l-.937.847a2.488 2.488 0 0 0-.622-.595 1.192 1.192 0 0 0-.64-.198.772.772 0 0 0-.542.19.62.62 0 0 0-.207.477c0 .175.068.328.203.46s.434.3.897.505c.36.156.627.286.798.388.171.102.317.21.437.324.18.175.314.37.402.586.087.217.13.457.13.722-.006.57-.204 1.03-.595 1.38-.39.348-.892.522-1.505.522Zm4.707-.18v-5.148H28.39v-1.163h5.175v1.163h-1.947v5.148h-1.28Zm6.808-6.852h-1.172l-1.164-1.218h1.317l1.019 1.218ZM34.7 21.074v-6.312h3.679v1.064H35.98v1.497h2.038v1.064H35.98v1.623h2.399v1.064H34.7Zm8.035-4.444c0-.247-.077-.443-.23-.587-.154-.144-.362-.216-.627-.216h-.721v1.632h.721c.27 0 .481-.074.631-.221.15-.147.226-.35.226-.609Zm-1.578 4.444h-1.28v-6.311h1.929c.697 0 1.246.168 1.646.505.4.336.6.796.6 1.38 0 .384-.09.716-.267.995-.177.28-.428.495-.753.645l1.975 2.786H43.5l-1.686-2.551h-.658v2.551Zm4.67 0v-6.311h3.68v1.064h-2.4v1.496h2.038v1.064h-2.037v1.623h2.398v1.064h-3.679ZM4.685 25.143H3.468v3.985h1.217c.577 0 1.058-.19 1.443-.573.385-.381.577-.855.577-1.42 0-.57-.19-1.046-.572-1.424-.382-.379-.865-.568-1.448-.568Zm3.336 1.992c0 .89-.318 1.638-.955 2.245-.638.608-1.437.911-2.399.911h-2.48V23.98h2.48c.962 0 1.761.303 2.399.91.637.607.955 1.356.955 2.245Zm3.697 2.137c.397 0 .708-.118.933-.356.226-.237.338-.566.338-.987v-3.95h1.28v3.842c0 .823-.226 1.47-.68 1.943-.454.472-1.08.707-1.88.707-.793 0-1.417-.235-1.871-.707-.454-.472-.68-1.12-.68-1.943V23.98h1.28v3.949c0 .42.112.75.338.987.225.238.54.356.942.356Zm7.799 1.019v-5.148H17.57V23.98h5.175v1.163h-1.948v5.148h-1.28Zm7.223-4.445c0-.246-.077-.442-.23-.586-.154-.144-.363-.216-.627-.216h-.721v1.631h.72c.271 0 .482-.073.632-.22.15-.148.225-.35.225-.61Zm-1.578 4.445h-1.28V23.98h1.929c.697 0 1.245.168 1.645.504.4.337.6.797.6 1.38 0 .385-.089.717-.266.996-.177.28-.428.495-.753.645l1.975 2.786h-1.506L25.82 27.74h-.659v2.552Zm6.509-2.731h1.732l-.866-2.372-.866 2.371Zm-1 2.731h-1.362l2.39-6.311h1.677l2.389 6.311h-1.362l-.604-1.64h-2.524l-.604 1.64Zm7.114 0-2.39-6.311h1.362l1.866 4.932 1.867-4.932h1.361l-2.39 6.311h-1.676Zm6.059-2.731h1.73l-.865-2.372-.865 2.371Zm-1.001 2.731H41.48l2.39-6.311h1.677l2.389 6.311h-1.361l-.605-1.64h-2.524l-.604 1.64ZM50.2 23.98h-1.28v6.311h1.28V23.98Zm5.455 5.148v1.163h-3.679V23.98h1.28v5.148h2.399Zm2.958-.09-1.046 2.696h-1.064l.82-2.696h1.29ZM4.685 34.36H3.468v3.985h1.217c.577 0 1.058-.191 1.443-.573.385-.381.577-.855.577-1.42 0-.57-.19-1.046-.572-1.424-.382-.38-.865-.569-1.448-.569Zm3.336 1.992c0 .89-.318 1.638-.955 2.245-.638.607-1.437.91-2.399.91h-2.48v-6.31h2.48c.962 0 1.761.303 2.399.91.637.607.955 1.356.955 2.245Zm3.697 2.137c.397 0 .708-.119.933-.356.226-.238.338-.567.338-.987v-3.95h1.28v3.841c0 .824-.226 1.472-.68 1.943-.454.472-1.08.708-1.88.708-.793 0-1.417-.236-1.871-.708-.454-.471-.68-1.119-.68-1.943v-3.84h1.28v3.949c0 .42.112.75.338.987.225.237.54.356.942.356Zm9.503-3.426c0-.247-.078-.442-.234-.586-.156-.145-.367-.217-.631-.217h-.857v1.632h.857c.27 0 .482-.073.635-.22.154-.148.23-.35.23-.61ZM19.5 39.508h-1.28v-6.312h2.083c.697 0 1.244.169 1.64.505.397.337.596.797.596 1.38 0 .583-.2 1.041-.6 1.375-.4.333-.945.5-1.636.5H19.5v2.552Zm7.78-1.163v1.163h-3.678v-6.312h1.28v5.149h2.398Zm1.136 1.163v-6.312h3.68v1.064h-2.4v1.497h2.039v1.064h-2.038v1.623h2.398v1.064h-3.678Zm6.456-6.312h-1.28v6.312h1.28v-6.312Zm3.057 6.312h-1.28v-6.312h1.64l2.823 4.563v-4.563h1.28v6.312h-1.641l-2.822-4.562v4.562Zm8.592 0v-6.312H50.2v1.064h-2.398v1.497h2.038v1.064h-2.038v1.623H50.2v1.064h-3.679Zm6.456 0h-1.28v-6.312h1.596l1.541 2.651 1.542-2.65h1.596v6.31h-1.28v-4.525l-1.407 2.362h-.901l-1.407-2.362v4.526Zm9.765-4.445c0-.247-.078-.442-.234-.586-.157-.145-.367-.217-.632-.217h-.856v1.632h.856c.27 0 .483-.073.636-.22.153-.148.23-.35.23-.61Zm-1.722 4.445h-1.28v-6.312h2.082c.698 0 1.245.169 1.641.505.397.337.595.797.595 1.38 0 .583-.2 1.041-.6 1.375-.399.333-.944.5-1.636.5h-.802v2.552Zm7.781-1.163v1.163h-3.679v-6.312h1.28v5.149h2.399Zm1.686-1.993c0 .613.193 1.123.577 1.529.385.405.872.608 1.461.608.583 0 1.067-.203 1.452-.608.384-.406.577-.916.577-1.529 0-.613-.193-1.122-.577-1.528-.385-.406-.87-.609-1.452-.609-.59 0-1.076.203-1.46.609-.385.406-.578.915-.578 1.528Zm-1.316 0c0-.938.318-1.728.956-2.371.637-.643 1.436-.965 2.398-.965.956 0 1.752.322 2.39.965.636.643.955 1.433.955 2.371s-.319 1.728-.956 2.372c-.637.643-1.433.964-2.389.964-.962 0-1.761-.321-2.398-.965-.638-.643-.956-1.433-.956-2.37Zm9.215-3.156h-1.28v6.312h1.28v-6.312ZM2.188 48.725v-6.311h3.679v1.064H3.468v1.496h2.038v1.064H3.468v1.623h2.399v1.064h-3.68Zm6.609 0v-5.148H6.849v-1.163h5.176v1.163h-1.948v5.148h-1.28Zm9.214-5.148h-1.217v3.985h1.217c.578 0 1.058-.19 1.443-.572.385-.382.577-.856.577-1.42 0-.572-.19-1.047-.572-1.425-.382-.379-.864-.568-1.448-.568Zm3.337 1.992c0 .89-.32 1.639-.956 2.245-.637.608-1.437.911-2.398.911h-2.48v-6.311h2.48c.961 0 1.76.303 2.398.91.637.608.956 1.356.956 2.245Zm1.244 3.156v-6.311h3.679v1.064h-2.399v1.496h2.038v1.064h-2.038v1.623h2.399v1.064h-3.68ZM33.8 47.562v1.163h-3.68v-6.311h1.28v5.148h2.4Zm1.505-5.148-.135 2.596h-1.001l-.144-2.596h1.28Zm2.705 0h-1.28v6.311h1.28v-6.311Zm3.056 6.311h-1.28v-6.311h1.641l2.822 4.562v-4.562h1.28v6.311h-1.64l-2.823-4.562v4.562Zm8.007.181a3.18 3.18 0 0 1-1.312-.257 2.85 2.85 0 0 1-1.023-.798l.928-.857c.193.247.41.438.654.573.244.135.492.203.744.203s.45-.065.595-.194a.672.672 0 0 0 .217-.528.654.654 0 0 0-.203-.469c-.136-.138-.438-.31-.907-.514a7.023 7.023 0 0 1-.793-.387 2.54 2.54 0 0 1-.433-.325 1.61 1.61 0 0 1-.401-.572 1.878 1.878 0 0 1-.13-.717c0-.517.193-.952.58-1.303.389-.352.874-.528 1.457-.528.433 0 .834.09 1.204.266.37.178.704.444 1.005.798l-.938.848a2.487 2.487 0 0 0-.622-.595 1.192 1.192 0 0 0-.64-.199.77.77 0 0 0-.54.19.619.619 0 0 0-.208.478c0 .174.067.327.203.46.135.132.434.3.897.504.36.157.626.286.798.388.171.102.317.21.437.325.18.174.314.37.401.586.087.216.131.457.131.721-.006.571-.205 1.031-.595 1.38-.391.348-.893.523-1.506.523Zm3.454-.181v-6.311h3.678v1.064h-2.398v1.496h2.038v1.064h-2.038v1.623h2.398v1.064h-3.678Zm8.033-4.445c0-.246-.076-.442-.23-.586-.153-.144-.362-.216-.626-.216h-.722v1.631h.722c.27 0 .48-.073.63-.22.15-.148.226-.35.226-.609Zm-1.578 4.445h-1.28v-6.311h1.93c.697 0 1.245.168 1.645.505.4.336.6.796.6 1.379 0 .385-.09.717-.266.996-.178.28-.429.495-.753.645l1.974 2.786h-1.505l-1.686-2.552h-.659v2.552Zm5.69 0v-5.148h-1.948v-1.163H67.9v1.163h-1.948v5.148h-1.28Zm5.644-6.311h-1.28v6.311h1.28v-6.311Zm2.552 3.156c0 .613.192 1.122.577 1.528.385.406.871.608 1.46.608.583 0 1.067-.203 1.452-.608.385-.406.577-.915.577-1.529 0-.613-.192-1.122-.577-1.528-.385-.406-.869-.608-1.451-.608-.59 0-1.077.202-1.461.608-.385.406-.577.915-.577 1.528Zm-1.317 0c0-.938.319-1.728.956-2.372.637-.643 1.437-.965 2.398-.965.956 0 1.753.322 2.39.965.637.644.956 1.434.956 2.371 0 .938-.319 1.729-.956 2.372-.637.643-1.434.965-2.39.965-.961 0-1.76-.322-2.398-.965-.637-.643-.956-1.434-.956-2.372Zm9.215 3.155h-1.28v-6.311h1.64l2.823 4.562v-4.562h1.28v6.311h-1.64l-2.823-4.562v4.562Z" fill="#000"/>
  <path d="M8.777 8.02c-.016-.016.048 0 .063-.032h-.127c-.015 0-.015-.016-.015-.032-.08.016-.175.048-.254.064-.112.031-.207.11-.334.143-.174.063-.317.206-.508.27-.016 0-.016-.016-.016-.032.016-.048.08-.064.111-.112 0-.015 0-.031-.016-.031.128-.175.302-.27.46-.413v-.048c.048-.063.128-.095.16-.174.016-.048.079-.111.158-.143-.015-.016-.047-.016-.047-.048-.064 0-.127.032-.19-.016a.225.225 0 0 1 .099-.056.058.058 0 0 1-.036-.023c-.016-.032.03-.067.08-.08.063-.015.142-.015.19-.063-.111-.016-.238.032-.35-.032.08-.206.207-.38.397-.476.016 0 .048 0 .048.016 0 .08-.048.143-.127.159.127.031.254.031.381.095-.016.032-.048.016-.064.016.08.047.175.016.254.08-.047.047-.095 0-.142 0 .492.142 1.016.253 1.428.57-.349.175-.714.255-1.095.334-.048 0-.08 0-.127-.016 0 .016 0 .048-.016.048-.063 0-.111 0-.159.032-.063.031-.158.047-.206 0Zm-.325 1.104-.004.003c-.06.042-.119.084-.181.12-.068.04-.14.07-.21.104a.02.02 0 0 0-.029-.01.751.751 0 0 0-.182.142v.002h-.002l-.023.023-.002.003-.001.001a.588.588 0 0 0-.035.037c-.008.01-.01.016-.021.023-.01.006-.037.006-.035-.012v-.003a.674.674 0 0 1-.028.014l-.024.014a.027.027 0 0 0-.011-.002.02.02 0 0 0-.012.004 1.064 1.064 0 0 0-.15.146v.002l-.004.004-.005.006-.005.007-.001.002-.011.016a.024.024 0 0 1-.014.007l-.006-.01-.004-.007a.362.362 0 0 1-.018-.035 1.228 1.228 0 0 0 .07-.081l.026-.034.01-.013a1.995 1.995 0 0 0 .05-.068l.007-.01a.647.647 0 0 0 .04-.066V9.45l.002-.004.003-.006a.414.414 0 0 0 .016-.04l.004-.011a.426.426 0 0 0 .005-.018v-.004a.086.086 0 0 0 .006-.023.012.012 0 0 0-.002-.01.512.512 0 0 1 .063-.086l-.007.004c-.023.014-.038.035-.059.05-.017.014-.049-.008-.028-.023.014-.01.024-.022.036-.033l.001-.002c.027-.026.052-.06.081-.08l.05-.038.006-.006a.371.371 0 0 1 .036-.04l.001-.002c.152-.147.408-.14.608-.234.08-.032.175.016.254 0 .048 0 .096 0 .143.032-.142.078-.274.165-.404.247Zm.284.131a.139.139 0 0 1-.039.047c.02.004.034.012.021.024-.037.034-.072.068-.12.084a.13.13 0 0 1-.025.003.78.78 0 0 1-.059.056c-.019.017-.106.005-.08-.02.041-.035.078-.074.118-.11a.655.655 0 0 0 .066-.063c.011-.013.02-.025.034-.035.013-.01.097-.017.084.014ZM8 6.876c-.016.032-.033.036-.048.064a.124.124 0 0 1-.063.064c-.016 0-.032 0-.032-.016.016-.064.064-.127.127-.143.016 0 .016.016.016.031ZM6.681 7.924s-.016-.016-.016-.031c.207-.27.366-.524.508-.81a2.17 2.17 0 0 0 .54-.445c.27-.285.556-.54.89-.698a.616.616 0 0 1 .412.016c-.047.063-.127.047-.19.095-.016 0-.032 0-.048-.016.016-.016.016-.032.016-.048-.159.175-.381.254-.508.46-.096.16-.159.366-.365.414-.064.015.016-.048-.016-.032-.492.302-.842.667-1.223 1.095Zm2.43.35c-.032 0-.096.015-.08-.016.016-.08.127-.08.19-.111.032-.016.08-.048.112-.032.031.048.079.032.11.063-.094.096-.222.048-.333.096Zm2.441 1.137c.09-.09.181-.187.272-.284h-.002c.169-.191.334-.373.53-.54.059-.054.117-.1.172-.139.016-.016.016-.047.032-.063-.08.032-.127.095-.207.127-.016 0-.031-.016-.016-.032l.17-.127h-.01c-.017 0-.017-.016-.017-.032-.206-.032-.365.111-.508.238-.031.016-.063-.015-.08-.015-.237.079-.412.285-.65.38v-.031c-.095.032-.188.09-.286.111-.143.032-.27.016-.397.016-.192.02-.385.062-.577.103l-.017.004a1.34 1.34 0 0 0-.306.125.557.557 0 0 1-.023.028c-.035.037-.064.072-.11.095-.097.05-.176.136-.263.206a.045.045 0 0 1-.025.008c-.085.082-.17.165-.256.245-.006.006-.03.009-.048.006l.001-.002.01-.015a4.965 4.965 0 0 1 .087-.14c.022-.033.044-.066.068-.097a.016.016 0 0 0 0-.021.03.03 0 0 0-.023-.008c.08-.077.173-.143.267-.2v-.002c-.011.004-.026-.005-.018-.016.01-.014.018-.029.027-.043l.005-.014-.012-.013c-.026.017-.053.033-.075.052-.038.034-.067.104-.125.104-.004 0-.015 0-.024-.004a.046.046 0 0 1-.017-.005l.002-.004.003-.004.002-.004.008-.014.007-.014.006-.01.011-.021.009-.014.02-.035.01-.017.017-.029c.008-.013 0-.024-.012-.028a.363.363 0 0 1 .109-.095h-.005c.06-.03.122-.068.182-.102l.027-.023a1.07 1.07 0 0 0-.253.125s-.02.008-.027.014c0 0-.018.007-.04-.014a.018.018 0 0 1-.003-.012c.016-.032.063-.047.095-.08.016 0 .032 0 .032.017.508-.397 1.207-.302 1.794-.508l.143-.096c.08-.031.143-.11.238-.159a.694.694 0 0 0 .27-.365c0-.016-.016-.031-.016-.031a2.446 2.446 0 0 1-.699.524c-.333.174-.698.142-1.047.19.016-.032.047-.032.079-.032 0-.047.032-.063.063-.095h.048c.016 0 .016-.032.032-.032.032 0 .08-.016.063-.016-.047-.063-.143.048-.222 0 .032-.031.016-.079.048-.095h.063c0-.032.032-.063.032-.063.238-.143.46-.254.683-.381-.048 0-.08.047-.127.015.031 0 0-.047.031-.047.175-.048.318-.143.493-.206-.064 0-.111.047-.175 0 .032-.016.048-.048.095-.048v-.048c0-.016.016-.016.032-.016-.016 0-.032-.016-.032-.016.016-.031.064-.015.096-.047-.016 0-.048 0-.048-.016.048-.064.127-.08.206-.095-.016-.032-.063 0-.063-.032 0-.016.016-.016.031-.016h-.031c-.032-.016-.016-.048-.016-.063.095-.112.095-.254.143-.382-.016 0-.032 0-.032-.015-.159.174-.413.238-.651.301h-.08a.323.323 0 0 1-.27-.016c-.063-.031-.095-.079-.158-.127a1.832 1.832 0 0 0-.397-.19 3.565 3.565 0 0 0-1.222-.175c.174-.095.367-.103.555-.159.27-.079.524-.174.81-.158-.048-.016-.111 0-.159 0-.222-.016-.444.047-.683.095-.158.032-.301.095-.46.127-.095.032-.143.127-.254.111v-.048c.159-.19.35-.38.603-.397.286-.047.556 0 .842.032.206.016.397.064.603.111.08 0 .095.127.159.143.095.032.19 0 .286.064 0-.032-.016-.064 0-.095.063-.064.143.015.206-.016.127-.08-.111-.223-.175-.334 0-.016.016-.031.016-.031.127.11.223.238.381.317.08.032.27.08.238-.016-.079-.175-.238-.317-.365-.476V5.86c-.031 0-.031-.016-.047-.031v-.064c-.064-.032-.048-.095-.08-.143-.047-.08-.015-.19-.047-.286a1.638 1.638 0 0 1-.064-.27c-.047-.27-.11-.507-.143-.762-.031-.301.175-.54.318-.81.111-.19.238-.38.444-.507.048-.19.175-.35.302-.508.127-.155.338-.25.49-.318.222-.099.422-.16.422-.161H2v8.402h7.716c.303-.218.605-.321 1.027-.529.199-.098.655-.308.809-.462Z" fill="#243B7D"/>
  <path d="M25.105 2h-9.038s.017.003.086.04c.073.04.168.09.228.121.116.061.23.137.302.254.032.048.08.143.048.207-.032.079-.048.206-.127.238a.588.588 0 0 1-.333.031.777.777 0 0 1-.19-.031c.237.095.46.206.619.428.015.032.079.048.142.048.016 0 .016.032.016.048-.032.031-.063.047-.047.095h.047c.08-.032.064-.19.175-.143a.18.18 0 0 1 .063.238c-.063.064-.127.111-.19.159a.135.135 0 0 0 0 .111.488.488 0 0 1 .08.19c.047.112.063.239.11.35.064.238.127.476.111.714 0 .127-.063.238-.015.365.031.128.11.223.174.334.064.095.127.159.175.254.095.159.27.317.19.508-.047.111-.222.095-.333.159-.095.08-.016.206.032.286.08.142-.096.238-.207.285.032.048.096.032.111.064.016.08.096.127.048.206-.063.096-.254.143-.159.286.064.111.023.235-.015.35-.048.142-.175.206-.286.237a.647.647 0 0 1-.302.016.221.221 0 0 0-.095-.031c-.27-.032-.54-.112-.81-.112a.905.905 0 0 0-.222.064 1.401 1.401 0 0 0-.229.21l-.02.025-.014.016c-.046.058-.088.12-.125.183l-.007.012-.012.022a1.531 1.531 0 0 0-.12.292c-.108.363-.061.675.015.751.02.021.524.176.874.332.164.073.28.13.375.19h8.875V2Z" fill="#ED1C24"/>
  <path d="M16.605 5.065c.063.016.158.016.158.048-.031.127-.222.159-.317.286h-.048c-.047.031-.032.11-.08.11-.047-.015-.095 0-.142.017.063.063.143.11.238.095.016 0 .048.032.048.063 0 0 .015 0 .031-.016.016 0 .032 0 .032.016v.064c-.047.063-.127.032-.19.048a.711.711 0 0 0 .365 0c.095-.032 0-.191.063-.27-.031 0 0-.048-.031-.048.031-.032.063-.08.095-.095.032 0 .08-.016.095-.048 0-.032-.063-.048-.047-.08.095-.063.174-.158.142-.253-.016-.048-.142-.048-.222-.08-.08-.031-.175 0-.27.016-.08 0-.159.048-.238.064a1.097 1.097 0 0 0-.302.158c.111-.047.223-.063.35-.095.095 0 .176-.023.27 0Z" fill="#939598"/>
</svg>
