<svg id="my-svg" width="100%" xmlns="http://www.w3.org/2000/svg" xmlns:xlink="http://www.w3.org/1999/xlink" class="flowchart" style="max-width: 2122.11px; background-color: white;" viewBox="0 0 2122.11328125 1921" role="graphics-document document" aria-roledescription="flowchart-v2"><style>#my-svg{font-family:"trebuchet ms",verdana,arial,sans-serif;font-size:16px;fill:#333;}@keyframes edge-animation-frame{from{stroke-dashoffset:0;}}@keyframes dash{to{stroke-dashoffset:0;}}#my-svg .edge-animation-slow{stroke-dasharray:9,5!important;stroke-dashoffset:900;animation:dash 50s linear infinite;stroke-linecap:round;}#my-svg .edge-animation-fast{stroke-dasharray:9,5!important;stroke-dashoffset:900;animation:dash 20s linear infinite;stroke-linecap:round;}#my-svg .error-icon{fill:#552222;}#my-svg .error-text{fill:#552222;stroke:#552222;}#my-svg .edge-thickness-normal{stroke-width:1px;}#my-svg .edge-thickness-thick{stroke-width:3.5px;}#my-svg .edge-pattern-solid{stroke-dasharray:0;}#my-svg .edge-thickness-invisible{stroke-width:0;fill:none;}#my-svg .edge-pattern-dashed{stroke-dasharray:3;}#my-svg .edge-pattern-dotted{stroke-dasharray:2;}#my-svg .marker{fill:#333333;stroke:#333333;}#my-svg .marker.cross{stroke:#333333;}#my-svg svg{font-family:"trebuchet ms",verdana,arial,sans-serif;font-size:16px;}#my-svg p{margin:0;}#my-svg .label{font-family:"trebuchet ms",verdana,arial,sans-serif;color:#333;}#my-svg .cluster-label text{fill:#333;}#my-svg .cluster-label span{color:#333;}#my-svg .cluster-label span p{background-color:transparent;}#my-svg .label text,#my-svg span{fill:#333;color:#333;}#my-svg .node rect,#my-svg .node circle,#my-svg .node ellipse,#my-svg .node polygon,#my-svg .node path{fill:#ECECFF;stroke:#9370DB;stroke-width:1px;}#my-svg .rough-node .label text,#my-svg .node .label text,#my-svg .image-shape .label,#my-svg .icon-shape .label{text-anchor:middle;}#my-svg .node .katex path{fill:#000;stroke:#000;stroke-width:1px;}#my-svg .rough-node .label,#my-svg .node .label,#my-svg .image-shape .label,#my-svg .icon-shape .label{text-align:center;}#my-svg .node.clickable{cursor:pointer;}#my-svg .root .anchor path{fill:#333333!important;stroke-width:0;stroke:#333333;}#my-svg .arrowheadPath{fill:#333333;}#my-svg .edgePath .path{stroke:#333333;stroke-width:1px;}#my-svg .flowchart-link{stroke:#333333;fill:none;}#my-svg .edgeLabel{background-color:rgba(232,232,232, 0.8);text-align:center;}#my-svg .edgeLabel p{background-color:rgba(232,232,232, 0.8);}#my-svg .edgeLabel rect{opacity:0.5;background-color:rgba(232,232,232, 0.8);fill:rgba(232,232,232, 0.8);}#my-svg .labelBkg{background-color:rgba(232, 232, 232, 0.5);}#my-svg .cluster rect{fill:#ffffde;stroke:#aaaa33;stroke-width:1px;}#my-svg .cluster text{fill:#333;}#my-svg .cluster span{color:#333;}#my-svg div.mermaidTooltip{position:absolute;text-align:center;max-width:200px;padding:2px;font-family:"trebuchet ms",verdana,arial,sans-serif;font-size:12px;background:hsl(80, 100%, 96.2745098039%);border:1px solid #aaaa33;border-radius:2px;pointer-events:none;z-index:100;}#my-svg .flowchartTitleText{text-anchor:middle;font-size:18px;fill:#333;}#my-svg rect.text{fill:none;stroke-width:0;}#my-svg .icon-shape,#my-svg .image-shape{background-color:rgba(232,232,232, 0.8);text-align:center;}#my-svg .icon-shape p,#my-svg .image-shape p{background-color:rgba(232,232,232, 0.8);padding:2px;}#my-svg .icon-shape .label rect,#my-svg .image-shape .label rect{opacity:0.5;background-color:rgba(232,232,232, 0.8);fill:rgba(232,232,232, 0.8);}#my-svg .label-icon{display:inline-block;height:1em;overflow:visible;vertical-align:-0.125em;}#my-svg .node .label-icon path{fill:currentColor;stroke:revert;stroke-width:revert;}#my-svg .node .neo-node{stroke:#9370DB;}#my-svg [data-look="neo"].node rect,#my-svg [data-look="neo"].cluster rect,#my-svg [data-look="neo"].node polygon{stroke:#9370DB;filter:drop-shadow(1px 2px 2px rgba(185, 185, 185, 1));}#my-svg [data-look="neo"].node path{stroke:#9370DB;stroke-width:1px;}#my-svg [data-look="neo"].node .outer-path{filter:drop-shadow(1px 2px 2px rgba(185, 185, 185, 1));}#my-svg [data-look="neo"].node .neo-line path{stroke:#9370DB;filter:none;}#my-svg [data-look="neo"].node circle{stroke:#9370DB;filter:drop-shadow(1px 2px 2px rgba(185, 185, 185, 1));}#my-svg [data-look="neo"].node circle .state-start{fill:#000000;}#my-svg [data-look="neo"].icon-shape .icon{fill:#9370DB;filter:drop-shadow(1px 2px 2px rgba(185, 185, 185, 1));}#my-svg [data-look="neo"].icon-shape .icon-neo path{stroke:#9370DB;filter:drop-shadow(1px 2px 2px rgba(185, 185, 185, 1));}#my-svg :root{--mermaid-font-family:"trebuchet ms",verdana,arial,sans-serif;}#my-svg .initial&gt;*{fill:#fff2a8!important;stroke:#b59e00!important;color:#000!important;font-weight:bold!important;}#my-svg .initial span{fill:#fff2a8!important;stroke:#b59e00!important;color:#000!important;font-weight:bold!important;}#my-svg .initial tspan{fill:#000!important;}#my-svg .neutral&gt;*{fill:#cfe3ff!important;stroke:#2d5fa8!important;color:#000!important;}#my-svg .neutral span{fill:#cfe3ff!important;stroke:#2d5fa8!important;color:#000!important;}#my-svg .neutral tspan{fill:#000!important;}#my-svg .chosen&gt;*{fill:#fff6c9!important;stroke:#a88a2d!important;color:#000!important;}#my-svg .chosen span{fill:#fff6c9!important;stroke:#a88a2d!important;color:#000!important;}#my-svg .chosen tspan{fill:#000!important;}#my-svg .submitted&gt;*{fill:#c5e8e0!important;stroke:#0a7a6a!important;color:#000!important;font-weight:bold!important;}#my-svg .submitted span{fill:#c5e8e0!important;stroke:#0a7a6a!important;color:#000!important;font-weight:bold!important;}#my-svg .submitted tspan{fill:#000!important;}#my-svg .final&gt;*{fill:#c9f0a1!important;stroke:#3b7a1d!important;color:#000!important;font-weight:bold!important;}#my-svg .final span{fill:#c9f0a1!important;stroke:#3b7a1d!important;color:#000!important;font-weight:bold!important;}#my-svg .final tspan{fill:#000!important;}#my-svg .legendBox&gt;*{fill:#f5f5f5!important;stroke:#666!important;color:#000!important;text-align:left!important;}#my-svg .legendBox span{fill:#f5f5f5!important;stroke:#666!important;color:#000!important;text-align:left!important;}#my-svg .legendBox tspan{fill:#000!important;}</style><g><marker id="my-svg_flowchart-v2-pointEnd" class="marker flowchart-v2" viewBox="0 0 10 10" refX="5" refY="5" markerUnits="userSpaceOnUse" markerWidth="8" markerHeight="8" orient="auto"><path d="M 0 0 L 10 5 L 0 10 z" class="arrowMarkerPath" style="stroke-width: 1; stroke-dasharray: 1, 0;"/></marker><marker id="my-svg_flowchart-v2-pointStart" class="marker flowchart-v2" viewBox="0 0 10 10" refX="4.5" refY="5" markerUnits="userSpaceOnUse" markerWidth="8" markerHeight="8" orient="auto"><path d="M 0 5 L 10 10 L 10 0 z" class="arrowMarkerPath" style="stroke-width: 1; stroke-dasharray: 1, 0;"/></marker><marker id="my-svg_flowchart-v2-pointEnd-margin" class="marker flowchart-v2" viewBox="0 0 11.5 14" refX="11.5" refY="7" markerUnits="userSpaceOnUse" markerWidth="10.5" markerHeight="14" orient="auto"><path d="M 0 0 L 11.5 7 L 0 14 z" class="arrowMarkerPath" style="stroke-width: 0; stroke-dasharray: 1, 0;"/></marker><marker id="my-svg_flowchart-v2-pointStart-margin" class="marker flowchart-v2" viewBox="0 0 11.5 14" refX="1" refY="7" markerUnits="userSpaceOnUse" markerWidth="11.5" markerHeight="14" orient="auto"><polygon points="0,7 11.5,14 11.5,0" class="arrowMarkerPath" style="stroke-width: 0; stroke-dasharray: 1, 0;"/></marker><marker id="my-svg_flowchart-v2-circleEnd" class="marker flowchart-v2" viewBox="0 0 10 10" refX="11" refY="5" markerUnits="userSpaceOnUse" markerWidth="11" markerHeight="11" orient="auto"><circle cx="5" cy="5" r="5" class="arrowMarkerPath" style="stroke-width: 1; stroke-dasharray: 1, 0;"/></marker><marker id="my-svg_flowchart-v2-circleStart" class="marker flowchart-v2" viewBox="0 0 10 10" refX="-1" refY="5" markerUnits="userSpaceOnUse" markerWidth="11" markerHeight="11" orient="auto"><circle cx="5" cy="5" r="5" class="arrowMarkerPath" style="stroke-width: 1; stroke-dasharray: 1, 0;"/></marker><marker id="my-svg_flowchart-v2-circleEnd-margin" class="marker flowchart-v2" viewBox="0 0 10 10" refY="5" refX="12.25" markerUnits="userSpaceOnUse" markerWidth="14" markerHeight="14" orient="auto"><circle cx="5" cy="5" r="5" class="arrowMarkerPath" style="stroke-width: 0; stroke-dasharray: 1, 0;"/></marker><marker id="my-svg_flowchart-v2-circleStart-margin" class="marker flowchart-v2" viewBox="0 0 10 10" refX="-2" refY="5" markerUnits="userSpaceOnUse" markerWidth="14" markerHeight="14" orient="auto"><circle cx="5" cy="5" r="5" class="arrowMarkerPath" style="stroke-width: 0; stroke-dasharray: 1, 0;"/></marker><marker id="my-svg_flowchart-v2-crossEnd" class="marker cross flowchart-v2" viewBox="0 0 11 11" refX="12" refY="5.2" markerUnits="userSpaceOnUse" markerWidth="11" markerHeight="11" orient="auto"><path d="M 1,1 l 9,9 M 10,1 l -9,9" class="arrowMarkerPath" style="stroke-width: 2; stroke-dasharray: 1, 0;"/></marker><marker id="my-svg_flowchart-v2-crossStart" class="marker cross flowchart-v2" viewBox="0 0 11 11" refX="-1" refY="5.2" markerUnits="userSpaceOnUse" markerWidth="11" markerHeight="11" orient="auto"><path d="M 1,1 l 9,9 M 10,1 l -9,9" class="arrowMarkerPath" style="stroke-width: 2; stroke-dasharray: 1, 0;"/></marker><marker id="my-svg_flowchart-v2-crossEnd-margin" class="marker cross flowchart-v2" viewBox="0 0 15 15" refX="17.7" refY="7.5" markerUnits="userSpaceOnUse" markerWidth="12" markerHeight="12" orient="auto"><path d="M 1,1 L 14,14 M 1,14 L 14,1" class="arrowMarkerPath" style="stroke-width: 2.5;"/></marker><marker id="my-svg_flowchart-v2-crossStart-margin" class="marker cross flowchart-v2" viewBox="0 0 15 15" refX="-3.5" refY="7.5" markerUnits="userSpaceOnUse" markerWidth="12" markerHeight="12" orient="auto"><path d="M 1,1 L 14,14 M 1,14 L 14,1" class="arrowMarkerPath" style="stroke-width: 2.5; stroke-dasharray: 1, 0;"/></marker><g class="root"><g class="clusters"><g class="cluster" id="my-svg-stage_7" data-look="classic"><rect style="" x="8" y="1809" width="2026.11328125" height="104"/><g class="cluster-label" transform="translate(780.244140625, 1809)"><foreignObject width="481.625" height="24"><div xmlns="http://www.w3.org/1999/xhtml" style="display: table-cell; white-space: nowrap; line-height: 1.5;"><span class="nodeLabel"><p>Stage 7 — Finalisation - Démarche des indicateurs de rémunération</p></span></div></foreignObject></g></g><g class="cluster" id="my-svg-stage_6" data-look="classic"><rect style="" x="258.7578125" y="1631" width="994.015625" height="104"/><g class="cluster-label" transform="translate(626.171875, 1631)"><foreignObject width="259.1875" height="24"><div xmlns="http://www.w3.org/1999/xhtml" style="display: table-cell; white-space: nowrap; line-height: 1.5;"><span class="nodeLabel"><p>Stage 6 — Déposer le ou les avis CSE</p></span></div></foreignObject></g></g><g class="cluster" id="my-svg-stage_4" data-look="classic"><rect style="" x="409.65234375" y="1119" width="568.6434278488159" height="122"/><g class="cluster-label" transform="translate(449.75530767440796, 1119)"><foreignObject width="488.4375" height="24"><div xmlns="http://www.w3.org/1999/xhtml" style="display: table-cell; white-space: nowrap; line-height: 1.5;"><span class="nodeLabel"><p>Stage 4 — (2e déclaration) Choix du parcours de mise en conformité</p></span></div></foreignObject></g></g><g class="cluster" id="my-svg-stage_5" data-look="classic"><rect style="" x="715.71484375" y="1363" width="703.3671875" height="146"/><g class="cluster-label" transform="translate(887.8203125, 1363)"><foreignObject width="359.15625" height="24"><div xmlns="http://www.w3.org/1999/xhtml" style="display: table-cell; white-space: nowrap; line-height: 1.5;"><span class="nodeLabel"><p>Stage 5 — Évaluation conjointe des rémunérations</p></span></div></foreignObject></g></g><g class="cluster" id="my-svg-stage_3" data-look="classic"><rect style="" x="592.0145215988159" y="893" width="845.11328125" height="104"/><g class="cluster-label" transform="translate(825.3055372238159, 893)"><foreignObject width="378.53125" height="24"><div xmlns="http://www.w3.org/1999/xhtml" style="display: table-cell; white-space: nowrap; line-height: 1.5;"><span class="nodeLabel"><p>Stage 3 — Actions correctives et seconde déclaration</p></span></div></foreignObject></g></g><g class="cluster" id="my-svg-stage_2" data-look="classic"><rect style="" x="156.00670909881592" y="691" width="1534.9140625" height="104"/><g class="cluster-label" transform="translate(671.7684278488159, 691)"><foreignObject width="503.390625" height="24"><div xmlns="http://www.w3.org/1999/xhtml" style="display: table-cell; white-space: nowrap; line-height: 1.5;"><span class="nodeLabel"><p>Stage 2 — (1ère déclaration) Choix du parcours de mise en conformité</p></span></div></foreignObject></g></g></g><g class="edgePaths"><path d="M1577.543,309.379L1387.453,364.816C1197.363,420.253,817.183,531.126,627.093,594.73C437.003,658.333,437.003,674.667,437.003,686.333C437.003,698,437.003,705,437.003,708.5L437.003,712" id="my-svg-L_draft_awaiting_compliance_path_choice_0" class="edge-thickness-normal edge-pattern-solid edge-thickness-normal edge-pattern-solid flowchart-link" style=";" data-edge="true" data-et="edge" data-id="L_draft_awaiting_compliance_path_choice_0" data-points="W3sieCI6MTU3Ny41NDM0NjY2OTY2Mzk4LCJ5IjozMDkuMzc4OTQ3MjMwMDQ5ODV9LHsieCI6NDM3LjAwMjgwMjg0ODgxNTksInkiOjY0Mn0seyJ4Ijo0MzcuMDAyODAyODQ4ODE1OSwieSI6NjkxfSx7IngiOjQzNy4wMDI4MDI4NDg4MTU5LCJ5Ijo3MTZ9XQ==" data-look="classic" marker-end="url(#my-svg_flowchart-v2-pointEnd)"/><path d="M1622.163,319.88L1667.488,373.567C1712.813,427.254,1803.463,534.627,1848.788,596.48C1894.113,658.333,1894.113,674.667,1894.113,691.5C1894.113,708.333,1894.113,725.667,1894.113,743C1894.113,760.333,1894.113,777.667,1894.113,794.5C1894.113,811.333,1894.113,827.667,1894.113,844C1894.113,860.333,1894.113,876.667,1894.113,893.5C1894.113,910.333,1894.113,927.667,1894.113,945C1894.113,962.333,1894.113,979.667,1894.113,998.5C1894.113,1017.333,1894.113,1037.667,1894.113,1058C1894.113,1078.333,1894.113,1098.667,1894.113,1119C1894.113,1139.333,1894.113,1159.667,1894.113,1180C1894.113,1200.333,1894.113,1220.667,1894.113,1241C1894.113,1261.333,1894.113,1281.667,1894.113,1302C1894.113,1322.333,1894.113,1342.667,1894.113,1365C1894.113,1387.333,1894.113,1411.667,1894.113,1436C1894.113,1460.333,1894.113,1484.667,1894.113,1507C1894.113,1529.333,1894.113,1549.667,1773.742,1570C1653.37,1590.333,1412.626,1610.667,1266.029,1625.921C1119.432,1641.175,1066.982,1651.349,1040.756,1656.437L1014.531,1661.524" id="my-svg-L_draft_awaiting_cse_opinion_0" class="edge-thickness-normal edge-pattern-solid edge-thickness-normal edge-pattern-solid flowchart-link" style=";" data-edge="true" data-et="edge" data-id="L_draft_awaiting_cse_opinion_0" data-points="W3sieCI6MTYyMi4xNjMyMDQ5MTE3Njg2LCJ5IjozMTkuODgwNDk0NDY5NzQwMn0seyJ4IjoxODk0LjExMzI4MTI1LCJ5Ijo2NDJ9LHsieCI6MTg5NC4xMTMyODEyNSwieSI6NjkxfSx7IngiOjE4OTQuMTEzMjgxMjUsInkiOjc0M30seyJ4IjoxODk0LjExMzI4MTI1LCJ5Ijo3OTV9LHsieCI6MTg5NC4xMTMyODEyNSwieSI6ODQ0fSx7IngiOjE4OTQuMTEzMjgxMjUsInkiOjg5M30seyJ4IjoxODk0LjExMzI4MTI1LCJ5Ijo5NDV9LHsieCI6MTg5NC4xMTMyODEyNSwieSI6OTk3fSx7IngiOjE4OTQuMTEzMjgxMjUsInkiOjEwNTh9LHsieCI6MTg5NC4xMTMyODEyNSwieSI6MTExOX0seyJ4IjoxODk0LjExMzI4MTI1LCJ5IjoxMTgwfSx7IngiOjE4OTQuMTEzMjgxMjUsInkiOjEyNDF9LHsieCI6MTg5NC4xMTMyODEyNSwieSI6MTMwMn0seyJ4IjoxODk0LjExMzI4MTI1LCJ5IjoxMzYzfSx7IngiOjE4OTQuMTEzMjgxMjUsInkiOjE0MzZ9LHsieCI6MTg5NC4xMTMyODEyNSwieSI6MTUwOX0seyJ4IjoxODk0LjExMzI4MTI1LCJ5IjoxNTcwfSx7IngiOjExNzEuODgyODEyNSwieSI6MTYzMX0seyJ4IjoxMDEwLjYwNDM2NTM0ODgxNTksInkiOjE2NjIuMjg1ODY0MDg1NDYwMn1d" data-look="classic" marker-end="url(#my-svg_flowchart-v2-pointEnd)"/><path d="M1626.664,318.096L1691.239,372.08C1755.814,426.064,1884.963,534.032,1949.538,596.183C2014.113,658.333,2014.113,674.667,2014.113,691.5C2014.113,708.333,2014.113,725.667,2014.113,743C2014.113,760.333,2014.113,777.667,2014.113,794.5C2014.113,811.333,2014.113,827.667,2014.113,844C2014.113,860.333,2014.113,876.667,2014.113,893.5C2014.113,910.333,2014.113,927.667,2014.113,945C2014.113,962.333,2014.113,979.667,2014.113,998.5C2014.113,1017.333,2014.113,1037.667,2014.113,1058C2014.113,1078.333,2014.113,1098.667,2014.113,1119C2014.113,1139.333,2014.113,1159.667,2014.113,1180C2014.113,1200.333,2014.113,1220.667,2014.113,1241C2014.113,1261.333,2014.113,1281.667,2014.113,1302C2014.113,1322.333,2014.113,1342.667,2014.113,1365C2014.113,1387.333,2014.113,1411.667,2014.113,1436C2014.113,1460.333,2014.113,1484.667,2014.113,1507C2014.113,1529.333,2014.113,1549.667,2014.113,1570C2014.113,1590.333,2014.113,1610.667,2014.113,1629.5C2014.113,1648.333,2014.113,1665.667,2014.113,1683C2014.113,1700.333,2014.113,1717.667,2014.113,1732.5C2014.113,1747.333,2014.113,1759.667,2014.113,1772C2014.113,1784.333,2014.113,1796.667,1931.339,1809.866C1848.566,1823.064,1683.018,1837.129,1600.244,1844.161L1517.47,1851.193" id="my-svg-L_draft_demarche_completed_0" class="edge-thickness-normal edge-pattern-solid edge-thickness-normal edge-pattern-solid flowchart-link" style=";" data-edge="true" data-et="edge" data-id="L_draft_demarche_completed_0" data-points="W3sieCI6MTYyNi42NjM3Njg5NzcxMzAzLCJ5IjozMTguMDk2MTQ5NTQ3NjQzOTZ9LHsieCI6MjAxNC4xMTMyODEyNSwieSI6NjQyfSx7IngiOjIwMTQuMTEzMjgxMjUsInkiOjY5MX0seyJ4IjoyMDE0LjExMzI4MTI1LCJ5Ijo3NDN9LHsieCI6MjAxNC4xMTMyODEyNSwieSI6Nzk1fSx7IngiOjIwMTQuMTEzMjgxMjUsInkiOjg0NH0seyJ4IjoyMDE0LjExMzI4MTI1LCJ5Ijo4OTN9LHsieCI6MjAxNC4xMTMyODEyNSwieSI6OTQ1fSx7IngiOjIwMTQuMTEzMjgxMjUsInkiOjk5N30seyJ4IjoyMDE0LjExMzI4MTI1LCJ5IjoxMDU4fSx7IngiOjIwMTQuMTEzMjgxMjUsInkiOjExMTl9LHsieCI6MjAxNC4xMTMyODEyNSwieSI6MTE4MH0seyJ4IjoyMDE0LjExMzI4MTI1LCJ5IjoxMjQxfSx7IngiOjIwMTQuMTEzMjgxMjUsInkiOjEzMDJ9LHsieCI6MjAxNC4xMTMyODEyNSwieSI6MTM2M30seyJ4IjoyMDE0LjExMzI4MTI1LCJ5IjoxNDM2fSx7IngiOjIwMTQuMTEzMjgxMjUsInkiOjE1MDl9LHsieCI6MjAxNC4xMTMyODEyNSwieSI6MTU3MH0seyJ4IjoyMDE0LjExMzI4MTI1LCJ5IjoxNjMxfSx7IngiOjIwMTQuMTEzMjgxMjUsInkiOjE2ODN9LHsieCI6MjAxNC4xMTMyODEyNSwieSI6MTczNX0seyJ4IjoyMDE0LjExMzI4MTI1LCJ5IjoxNzcyfSx7IngiOjIwMTQuMTEzMjgxMjUsInkiOjE4MDl9LHsieCI6MTUxMy40ODQzNzUsInkiOjE4NTEuNTMxOTM4NjU2MzM2M31d" data-look="classic" marker-end="url(#my-svg_flowchart-v2-pointEnd)"/><path d="M330.618,770L314.2,774.167C297.783,778.333,264.948,786.667,248.531,799C232.113,811.333,232.113,827.667,232.113,844C232.113,860.333,232.113,876.667,232.113,893.5C232.113,910.333,232.113,927.667,232.113,945C232.113,962.333,232.113,979.667,232.113,998.5C232.113,1017.333,232.113,1037.667,232.113,1058C232.113,1078.333,232.113,1098.667,232.113,1119C232.113,1139.333,232.113,1159.667,232.113,1180C232.113,1200.333,232.113,1220.667,232.113,1241C232.113,1261.333,232.113,1281.667,232.113,1302C232.113,1322.333,232.113,1342.667,232.113,1365C232.113,1387.333,232.113,1411.667,232.113,1436C232.113,1460.333,232.113,1484.667,232.113,1507C232.113,1529.333,232.113,1549.667,251.702,1570C271.292,1590.333,310.47,1610.667,403.961,1627.768C497.452,1644.869,645.256,1658.738,719.158,1665.672L793.059,1672.607" id="my-svg-L_awaiting_compliance_path_choice_awaiting_cse_opinion_0" class="edge-thickness-normal edge-pattern-solid edge-thickness-normal edge-pattern-solid flowchart-link" style=";" data-edge="true" data-et="edge" data-id="L_awaiting_compliance_path_choice_awaiting_cse_opinion_0" data-points="W3sieCI6MzMwLjYxNzg1ODk0MTczODQsInkiOjc3MH0seyJ4IjoyMzIuMTEzMjgxMjUsInkiOjc5NX0seyJ4IjoyMzIuMTEzMjgxMjUsInkiOjg0NH0seyJ4IjoyMzIuMTEzMjgxMjUsInkiOjg5M30seyJ4IjoyMzIuMTEzMjgxMjUsInkiOjk0NX0seyJ4IjoyMzIuMTEzMjgxMjUsInkiOjk5N30seyJ4IjoyMzIuMTEzMjgxMjUsInkiOjEwNTh9LHsieCI6MjMyLjExMzI4MTI1LCJ5IjoxMTE5fSx7IngiOjIzMi4xMTMyODEyNSwieSI6MTE4MH0seyJ4IjoyMzIuMTEzMjgxMjUsInkiOjEyNDF9LHsieCI6MjMyLjExMzI4MTI1LCJ5IjoxMzAyfSx7IngiOjIzMi4xMTMyODEyNSwieSI6MTM2M30seyJ4IjoyMzIuMTEzMjgxMjUsInkiOjE0MzZ9LHsieCI6MjMyLjExMzI4MTI1LCJ5IjoxNTA5fSx7IngiOjIzMi4xMTMyODEyNSwieSI6MTU3MH0seyJ4IjozNDkuNjQ4NDM3NSwieSI6MTYzMX0seyJ4Ijo3OTcuMDQxODY1MzQ4ODE1OSwieSI6MTY3Mi45ODAzNzA0MTAzNjU4fV0=" data-look="classic" marker-end="url(#my-svg_flowchart-v2-pointEnd)"/><path d="M387.737,770L380.135,774.167C372.532,778.333,357.326,786.667,349.724,799C342.121,811.333,342.121,827.667,342.121,844C342.121,860.333,342.121,876.667,342.121,893.5C342.121,910.333,342.121,927.667,342.121,945C342.121,962.333,342.121,979.667,342.121,998.5C342.121,1017.333,342.121,1037.667,342.121,1058C342.121,1078.333,342.121,1098.667,342.121,1119C342.121,1139.333,342.121,1159.667,342.121,1180C342.121,1200.333,342.121,1220.667,342.121,1241C342.121,1261.333,342.121,1281.667,342.121,1302C342.121,1322.333,342.121,1342.667,342.121,1365C342.121,1387.333,342.121,1411.667,342.121,1436C342.121,1460.333,342.121,1484.667,342.121,1507C342.121,1529.333,342.121,1549.667,301.971,1570C261.822,1590.333,181.522,1610.667,141.372,1629.5C101.223,1648.333,101.223,1665.667,101.223,1683C101.223,1700.333,101.223,1717.667,101.223,1732.5C101.223,1747.333,101.223,1759.667,101.223,1772C101.223,1784.333,101.223,1796.667,298.785,1810.731C496.347,1824.795,891.472,1840.59,1089.035,1848.488L1286.597,1856.385" id="my-svg-L_awaiting_compliance_path_choice_demarche_completed_0" class="edge-thickness-normal edge-pattern-solid edge-thickness-normal edge-pattern-solid flowchart-link" style=";" data-edge="true" data-et="edge" data-id="L_awaiting_compliance_path_choice_demarche_completed_0" data-points="W3sieCI6Mzg3LjczNzMwMDA0NzUwNzYzLCJ5Ijo3NzB9LHsieCI6MzQyLjEyMTA5Mzc1LCJ5Ijo3OTV9LHsieCI6MzQyLjEyMTA5Mzc1LCJ5Ijo4NDR9LHsieCI6MzQyLjEyMTA5Mzc1LCJ5Ijo4OTN9LHsieCI6MzQyLjEyMTA5Mzc1LCJ5Ijo5NDV9LHsieCI6MzQyLjEyMTA5Mzc1LCJ5Ijo5OTd9LHsieCI6MzQyLjEyMTA5Mzc1LCJ5IjoxMDU4fSx7IngiOjM0Mi4xMjEwOTM3NSwieSI6MTExOX0seyJ4IjozNDIuMTIxMDkzNzUsInkiOjExODB9LHsieCI6MzQyLjEyMTA5Mzc1LCJ5IjoxMjQxfSx7IngiOjM0Mi4xMjEwOTM3NSwieSI6MTMwMn0seyJ4IjozNDIuMTIxMDkzNzUsInkiOjEzNjN9LHsieCI6MzQyLjEyMTA5Mzc1LCJ5IjoxNDM2fSx7IngiOjM0Mi4xMjEwOTM3NSwieSI6MTUwOX0seyJ4IjozNDIuMTIxMDkzNzUsInkiOjE1NzB9LHsieCI6MTAxLjIyMjY1NjI1LCJ5IjoxNjMxfSx7IngiOjEwMS4yMjI2NTYyNSwieSI6MTY4M30seyJ4IjoxMDEuMjIyNjU2MjUsInkiOjE3MzV9LHsieCI6MTAxLjIyMjY1NjI1LCJ5IjoxNzcyfSx7IngiOjEwMS4yMjI2NTYyNSwieSI6MTgwOX0seyJ4IjoxMjkwLjU5Mzc1LCJ5IjoxODU2LjU0NDk4NTI3MDY2ODN9XQ==" data-look="classic" marker-end="url(#my-svg_flowchart-v2-pointEnd)"/><path d="M590.393,755.559L670.677,762.133C750.961,768.706,911.529,781.853,991.813,796.593C1072.097,811.333,1072.097,827.667,1072.097,844C1072.097,860.333,1072.097,876.667,1072.097,888.333C1072.097,900,1072.097,907,1072.097,910.5L1072.097,914" id="my-svg-L_awaiting_compliance_path_choice_corrective_actions_chosen_0" class="edge-thickness-normal edge-pattern-solid edge-thickness-normal edge-pattern-solid flowchart-link" style=";" data-edge="true" data-et="edge" data-id="L_awaiting_compliance_path_choice_corrective_actions_chosen_0" data-points="W3sieCI6NTkwLjM5MzQyNzg0ODgxNTksInkiOjc1NS41NTkyNjc4MjQ2MzIyfSx7IngiOjEwNzIuMDk2NTUyODQ4ODE2LCJ5Ijo3OTV9LHsieCI6MTA3Mi4wOTY1NTI4NDg4MTYsInkiOjg0NH0seyJ4IjoxMDcyLjA5NjU1Mjg0ODgxNiwieSI6ODkzfSx7IngiOjEwNzIuMDk2NTUyODQ4ODE2LCJ5Ijo5MTh9XQ==" data-look="classic" marker-end="url(#my-svg_flowchart-v2-pointEnd)"/><path d="M590.393,749.464L770.481,757.054C950.569,764.643,1310.745,779.821,1490.833,795.577C1670.921,811.333,1670.921,827.667,1670.921,844C1670.921,860.333,1670.921,876.667,1670.921,893.5C1670.921,910.333,1670.921,927.667,1670.921,945C1670.921,962.333,1670.921,979.667,1670.921,998.5C1670.921,1017.333,1670.921,1037.667,1670.921,1058C1670.921,1078.333,1670.921,1098.667,1670.921,1119C1670.921,1139.333,1670.921,1159.667,1670.921,1180C1670.921,1200.333,1670.921,1220.667,1670.921,1241C1670.921,1261.333,1670.921,1281.667,1603.518,1302C1536.115,1322.333,1401.31,1342.667,1333.907,1359.833C1266.504,1377,1266.504,1391,1266.504,1398L1266.504,1405" id="my-svg-L_awaiting_compliance_path_choice_joint_evaluation_chosen_0" class="edge-thickness-normal edge-pattern-solid edge-thickness-normal edge-pattern-solid flowchart-link" style=";" data-edge="true" data-et="edge" data-id="L_awaiting_compliance_path_choice_joint_evaluation_chosen_0" data-points="W3sieCI6NTkwLjM5MzQyNzg0ODgxNTksInkiOjc0OS40NjQyMTYxODEzMDc2fSx7IngiOjE2NzAuOTIwNzcxNTk4ODE2LCJ5Ijo3OTV9LHsieCI6MTY3MC45MjA3NzE1OTg4MTYsInkiOjg0NH0seyJ4IjoxNjcwLjkyMDc3MTU5ODgxNiwieSI6ODkzfSx7IngiOjE2NzAuOTIwNzcxNTk4ODE2LCJ5Ijo5NDV9LHsieCI6MTY3MC45MjA3NzE1OTg4MTYsInkiOjk5N30seyJ4IjoxNjcwLjkyMDc3MTU5ODgxNiwieSI6MTA1OH0seyJ4IjoxNjcwLjkyMDc3MTU5ODgxNiwieSI6MTExOX0seyJ4IjoxNjcwLjkyMDc3MTU5ODgxNiwieSI6MTE4MH0seyJ4IjoxNjcwLjkyMDc3MTU5ODgxNiwieSI6MTI0MX0seyJ4IjoxNjcwLjkyMDc3MTU5ODgxNiwieSI6MTMwMn0seyJ4IjoxMjY2LjUwMzkwNjI1LCJ5IjoxMzYzfSx7IngiOjEyNjYuNTAzOTA2MjUsInkiOjE0MDl9XQ==" data-look="classic" marker-end="url(#my-svg_flowchart-v2-pointEnd)"/><path d="M947.057,962.108L904.554,967.923C862.05,973.739,777.042,985.369,734.538,1001.351C692.034,1017.333,692.034,1037.667,692.034,1058C692.034,1078.333,692.034,1098.667,692.034,1113.833C692.034,1129,692.034,1139,692.034,1144L692.034,1149" id="my-svg-L_corrective_actions_chosen_awaiting_revision_choice_0" class="edge-thickness-normal edge-pattern-solid edge-thickness-normal edge-pattern-solid flowchart-link" style=";" data-edge="true" data-et="edge" data-id="L_corrective_actions_chosen_awaiting_revision_choice_0" data-points="W3sieCI6OTQ3LjA1NzQ5MDM0ODgxNTksInkiOjk2Mi4xMDc3OTQ3NzA1OTY5fSx7IngiOjY5Mi4wMzQwNTI4NDg4MTU5LCJ5Ijo5OTd9LHsieCI6NjkyLjAzNDA1Mjg0ODgxNTksInkiOjEwNTh9LHsieCI6NjkyLjAzNDA1Mjg0ODgxNTksInkiOjExMTl9LHsieCI6NjkyLjAzNDA1Mjg0ODgxNTksInkiOjExNTN9XQ==" data-look="classic" marker-end="url(#my-svg_flowchart-v2-pointEnd)"/><path d="M1103.869,972L1108.772,976.167C1113.675,980.333,1123.482,988.667,1128.385,1003C1133.288,1017.333,1133.288,1037.667,1133.288,1058C1133.288,1078.333,1133.288,1098.667,1133.288,1119C1133.288,1139.333,1133.288,1159.667,1133.288,1180C1133.288,1200.333,1133.288,1220.667,1133.288,1241C1133.288,1261.333,1133.288,1281.667,1056.431,1302C979.573,1322.333,825.859,1342.667,749.002,1365C672.145,1387.333,672.145,1411.667,672.145,1436C672.145,1460.333,672.145,1484.667,672.145,1507C672.145,1529.333,672.145,1549.667,672.145,1570C672.145,1590.333,672.145,1610.667,692.31,1625.36C712.476,1640.052,752.807,1649.105,772.973,1653.631L793.139,1658.157" id="my-svg-L_corrective_actions_chosen_awaiting_cse_opinion_0" class="edge-thickness-normal edge-pattern-solid edge-thickness-normal edge-pattern-solid flowchart-link" style=";" data-edge="true" data-et="edge" data-id="L_corrective_actions_chosen_awaiting_cse_opinion_0" data-points="W3sieCI6MTEwMy44NjkwMTM3ODYzMTYsInkiOjk3Mn0seyJ4IjoxMTMzLjI4Nzk1OTA5ODgxNiwieSI6OTk3fSx7IngiOjExMzMuMjg3OTU5MDk4ODE2LCJ5IjoxMDU4fSx7IngiOjExMzMuMjg3OTU5MDk4ODE2LCJ5IjoxMTE5fSx7IngiOjExMzMuMjg3OTU5MDk4ODE2LCJ5IjoxMTgwfSx7IngiOjExMzMuMjg3OTU5MDk4ODE2LCJ5IjoxMjQxfSx7IngiOjExMzMuMjg3OTU5MDk4ODE2LCJ5IjoxMzAyfSx7IngiOjY3Mi4xNDQ1MzEyNSwieSI6MTM2M30seyJ4Ijo2NzIuMTQ0NTMxMjUsInkiOjE0MzZ9LHsieCI6NjcyLjE0NDUzMTI1LCJ5IjoxNTA5fSx7IngiOjY3Mi4xNDQ1MzEyNSwieSI6MTU3MH0seyJ4Ijo2NzIuMTQ0NTMxMjUsInkiOjE2MzF9LHsieCI6Nzk3LjA0MTg2NTM0ODgxNTksInkiOjE2NTkuMDMzMDY3NDQyOTg5NX1d" data-look="classic" marker-end="url(#my-svg_flowchart-v2-pointEnd)"/><path d="M1197.136,965.973L1227.965,971.144C1258.794,976.315,1320.453,986.658,1351.283,1001.996C1382.112,1017.333,1382.112,1037.667,1382.112,1058C1382.112,1078.333,1382.112,1098.667,1382.112,1119C1382.112,1139.333,1382.112,1159.667,1382.112,1180C1382.112,1200.333,1382.112,1220.667,1382.112,1241C1382.112,1261.333,1382.112,1281.667,1408.274,1302C1434.435,1322.333,1486.759,1342.667,1512.92,1365C1539.082,1387.333,1539.082,1411.667,1539.082,1436C1539.082,1460.333,1539.082,1484.667,1539.082,1507C1539.082,1529.333,1539.082,1549.667,1569.382,1570C1599.682,1590.333,1660.283,1610.667,1690.583,1629.5C1720.883,1648.333,1720.883,1665.667,1720.883,1683C1720.883,1700.333,1720.883,1717.667,1720.883,1732.5C1720.883,1747.333,1720.883,1759.667,1720.883,1772C1720.883,1784.333,1720.883,1796.667,1686.974,1808.363C1653.066,1820.06,1585.249,1831.12,1551.341,1836.651L1517.432,1842.181" id="my-svg-L_corrective_actions_chosen_demarche_completed_0" class="edge-thickness-normal edge-pattern-solid edge-thickness-normal edge-pattern-solid flowchart-link" style=";" data-edge="true" data-et="edge" data-id="L_corrective_actions_chosen_demarche_completed_0" data-points="W3sieCI6MTE5Ny4xMzU2MTUzNDg4MTYsInkiOjk2NS45NzMyMzcyMzYwMjY0fSx7IngiOjEzODIuMTEyMTc3ODQ4ODE2LCJ5Ijo5OTd9LHsieCI6MTM4Mi4xMTIxNzc4NDg4MTYsInkiOjEwNTh9LHsieCI6MTM4Mi4xMTIxNzc4NDg4MTYsInkiOjExMTl9LHsieCI6MTM4Mi4xMTIxNzc4NDg4MTYsInkiOjExODB9LHsieCI6MTM4Mi4xMTIxNzc4NDg4MTYsInkiOjEyNDF9LHsieCI6MTM4Mi4xMTIxNzc4NDg4MTYsInkiOjEzMDJ9LHsieCI6MTUzOS4wODIwMzEyNSwieSI6MTM2M30seyJ4IjoxNTM5LjA4MjAzMTI1LCJ5IjoxNDM2fSx7IngiOjE1MzkuMDgyMDMxMjUsInkiOjE1MDl9LHsieCI6MTUzOS4wODIwMzEyNSwieSI6MTU3MH0seyJ4IjoxNzIwLjg4MjgxMjUsInkiOjE2MzF9LHsieCI6MTcyMC44ODI4MTI1LCJ5IjoxNjgzfSx7IngiOjE3MjAuODgyODEyNSwieSI6MTczNX0seyJ4IjoxNzIwLjg4MjgxMjUsInkiOjE3NzJ9LHsieCI6MTcyMC44ODI4MTI1LCJ5IjoxODA5fSx7IngiOjE1MTMuNDg0Mzc1LCJ5IjoxODQyLjgyNDQ2MzM5MzExOTd9XQ==" data-look="classic" marker-end="url(#my-svg_flowchart-v2-pointEnd)"/><path d="M1228.05,1463L1217.131,1470.667C1206.212,1478.333,1184.373,1493.667,1173.454,1511.5C1162.535,1529.333,1162.535,1549.667,1112.383,1570C1062.232,1590.333,961.928,1610.667,914.738,1624.482C867.547,1638.298,873.47,1645.596,876.431,1649.245L879.392,1652.894" id="my-svg-L_joint_evaluation_chosen_awaiting_cse_opinion_0" class="edge-thickness-normal edge-pattern-solid edge-thickness-normal edge-pattern-solid flowchart-link" style=";" data-edge="true" data-et="edge" data-id="L_joint_evaluation_chosen_awaiting_cse_opinion_0" data-points="W3sieCI6MTIyOC4wNDk3MTEwNDQ1MjA2LCJ5IjoxNDYzfSx7IngiOjExNjIuNTM1MTU2MjUsInkiOjE1MDl9LHsieCI6MTE2Mi41MzUxNTYyNSwieSI6MTU3MH0seyJ4Ijo4NjEuNjI1LCJ5IjoxNjMxfSx7IngiOjg4MS45MTI1NTU0NTYxNjE1LCJ5IjoxNjU2fV0=" data-look="classic" marker-end="url(#my-svg_flowchart-v2-pointEnd)"/><path d="M1291.022,1463L1297.984,1470.667C1304.946,1478.333,1318.869,1493.667,1325.831,1511.5C1332.793,1529.333,1332.793,1549.667,1376.88,1570C1420.966,1590.333,1509.139,1610.667,1553.226,1629.5C1597.313,1648.333,1597.313,1665.667,1597.313,1683C1597.313,1700.333,1597.313,1717.667,1597.313,1732.5C1597.313,1747.333,1597.313,1759.667,1597.313,1772C1597.313,1784.333,1597.313,1796.667,1582.31,1806.828C1567.307,1816.99,1537.302,1824.98,1522.299,1828.976L1507.296,1832.971" id="my-svg-L_joint_evaluation_chosen_demarche_completed_0" class="edge-thickness-normal edge-pattern-solid edge-thickness-normal edge-pattern-solid flowchart-link" style=";" data-edge="true" data-et="edge" data-id="L_joint_evaluation_chosen_demarche_completed_0" data-points="W3sieCI6MTI5MS4wMjE3Nzg2ODE1MDcsInkiOjE0NjN9LHsieCI6MTMzMi43OTI5Njg3NSwieSI6MTUwOX0seyJ4IjoxMzMyLjc5Mjk2ODc1LCJ5IjoxNTcwfSx7IngiOjE1OTcuMzEyNSwieSI6MTYzMX0seyJ4IjoxNTk3LjMxMjUsInkiOjE2ODN9LHsieCI6MTU5Ny4zMTI1LCJ5IjoxNzM1fSx7IngiOjE1OTcuMzEyNSwieSI6MTc3Mn0seyJ4IjoxNTk3LjMxMjUsInkiOjE4MDl9LHsieCI6MTUwMy40MzEwMzk2NjM0NjE0LCJ5IjoxODM0fV0=" data-look="classic" marker-end="url(#my-svg_flowchart-v2-pointEnd)"/><path d="M585.847,1207L563.56,1212.667C541.274,1218.333,496.701,1229.667,474.415,1245.5C452.129,1261.333,452.129,1281.667,452.129,1302C452.129,1322.333,452.129,1342.667,452.129,1365C452.129,1387.333,452.129,1411.667,452.129,1436C452.129,1460.333,452.129,1484.667,452.129,1507C452.129,1529.333,452.129,1549.667,455.05,1570C457.971,1590.333,463.814,1610.667,520.637,1627.289C577.461,1643.912,685.266,1656.823,739.168,1663.279L793.07,1669.735" id="my-svg-L_awaiting_revision_choice_awaiting_cse_opinion_0" class="edge-thickness-normal edge-pattern-solid edge-thickness-normal edge-pattern-solid flowchart-link" style=";" data-edge="true" data-et="edge" data-id="L_awaiting_revision_choice_awaiting_cse_opinion_0" data-points="W3sieCI6NTg1Ljg0NjUyODk0NDQyMiwieSI6MTIwN30seyJ4Ijo0NTIuMTI4OTA2MjUsInkiOjEyNDF9LHsieCI6NDUyLjEyODkwNjI1LCJ5IjoxMzAyfSx7IngiOjQ1Mi4xMjg5MDYyNSwieSI6MTM2M30seyJ4Ijo0NTIuMTI4OTA2MjUsInkiOjE0MzZ9LHsieCI6NDUyLjEyODkwNjI1LCJ5IjoxNTA5fSx7IngiOjQ1Mi4xMjg5MDYyNSwieSI6MTU3MH0seyJ4Ijo0NjkuNjU2MjUsInkiOjE2MzF9LHsieCI6Nzk3LjA0MTg2NTM0ODgxNTksInkiOjE2NzAuMjEwODUwMzgyMjg1OH1d" data-look="classic" marker-end="url(#my-svg_flowchart-v2-pointEnd)"/><path d="M634.539,1207L622.472,1212.667C610.405,1218.333,586.271,1229.667,574.204,1245.5C562.137,1261.333,562.137,1281.667,562.137,1302C562.137,1322.333,562.137,1342.667,562.137,1365C562.137,1387.333,562.137,1411.667,562.137,1436C562.137,1460.333,562.137,1484.667,562.137,1507C562.137,1529.333,562.137,1549.667,489.906,1570C417.674,1590.333,273.212,1610.667,200.981,1629.5C128.75,1648.333,128.75,1665.667,128.75,1683C128.75,1700.333,128.75,1717.667,128.75,1732.5C128.75,1747.333,128.75,1759.667,128.75,1772C128.75,1784.333,128.75,1796.667,321.725,1810.714C514.699,1824.762,900.648,1840.524,1093.623,1848.405L1286.597,1856.285" id="my-svg-L_awaiting_revision_choice_demarche_completed_0" class="edge-thickness-normal edge-pattern-solid edge-thickness-normal edge-pattern-solid flowchart-link" style=";" data-edge="true" data-et="edge" data-id="L_awaiting_revision_choice_demarche_completed_0" data-points="W3sieCI6NjM0LjUzODUxMTUyNjM4OTIsInkiOjEyMDd9LHsieCI6NTYyLjEzNjcxODc1LCJ5IjoxMjQxfSx7IngiOjU2Mi4xMzY3MTg3NSwieSI6MTMwMn0seyJ4Ijo1NjIuMTM2NzE4NzUsInkiOjEzNjN9LHsieCI6NTYyLjEzNjcxODc1LCJ5IjoxNDM2fSx7IngiOjU2Mi4xMzY3MTg3NSwieSI6MTUwOX0seyJ4Ijo1NjIuMTM2NzE4NzUsInkiOjE1NzB9LHsieCI6MTI4Ljc1LCJ5IjoxNjMxfSx7IngiOjEyOC43NSwieSI6MTY4M30seyJ4IjoxMjguNzUsInkiOjE3MzV9LHsieCI6MTI4Ljc1LCJ5IjoxNzcyfSx7IngiOjEyOC43NSwieSI6MTgwOX0seyJ4IjoxMjkwLjU5Mzc1LCJ5IjoxODU2LjQ0ODY3MTkzMTA4NH1d" data-look="classic" marker-end="url(#my-svg_flowchart-v2-pointEnd)"/><path d="M794.389,1207L815.871,1212.667C837.353,1218.333,880.316,1229.667,901.798,1245.5C923.28,1261.333,923.28,1281.667,927.971,1302C932.662,1322.333,942.044,1342.667,946.735,1359.833C951.426,1377,951.426,1391,951.426,1398L951.426,1405" id="my-svg-L_awaiting_revision_choice_revised_joint_evaluation_chosen_0" class="edge-thickness-normal edge-pattern-solid edge-thickness-normal edge-pattern-solid flowchart-link" style=";" data-edge="true" data-et="edge" data-id="L_awaiting_revision_choice_revised_joint_evaluation_chosen_0" data-points="W3sieCI6Nzk0LjM4ODg4MTIyOTk2MzQsInkiOjEyMDd9LHsieCI6OTIzLjI4MDE0NjU5ODgxNTksInkiOjEyNDF9LHsieCI6OTIzLjI4MDE0NjU5ODgxNTksInkiOjEzMDJ9LHsieCI6OTUxLjQyNTc4MTI1LCJ5IjoxMzYzfSx7IngiOjk1MS40MjU3ODEyNSwieSI6MTQwOX1d" data-look="classic" marker-end="url(#my-svg_flowchart-v2-pointEnd)"/><path d="M905.392,1463L892.321,1470.667C879.25,1478.333,853.107,1493.667,840.036,1511.5C826.965,1529.333,826.965,1549.667,826.965,1570C826.965,1590.333,826.965,1610.667,832.571,1624.626C838.178,1638.586,849.39,1646.172,854.997,1649.965L860.603,1653.759" id="my-svg-L_revised_joint_evaluation_chosen_awaiting_cse_opinion_0" class="edge-thickness-normal edge-pattern-solid edge-thickness-normal edge-pattern-solid flowchart-link" style=";" data-edge="true" data-et="edge" data-id="L_revised_joint_evaluation_chosen_awaiting_cse_opinion_0" data-points="W3sieCI6OTA1LjM5MjI4MzgxODQ5MzIsInkiOjE0NjN9LHsieCI6ODI2Ljk2NDg0Mzc1LCJ5IjoxNTA5fSx7IngiOjgyNi45NjQ4NDM3NSwieSI6MTU3MH0seyJ4Ijo4MjYuOTY0ODQzNzUsInkiOjE2MzF9LHsieCI6ODYzLjkxNTkzNTg2NDgxNTMsInkiOjE2NTZ9XQ==" data-look="classic" marker-end="url(#my-svg_flowchart-v2-pointEnd)"/><path d="M989.88,1463L1000.799,1470.667C1011.718,1478.333,1033.556,1493.667,1044.475,1511.5C1055.395,1529.333,1055.395,1549.667,1109.548,1570C1163.701,1590.333,1272.007,1610.667,1326.16,1629.5C1380.313,1648.333,1380.313,1665.667,1380.313,1683C1380.313,1700.333,1380.313,1717.667,1380.313,1732.5C1380.313,1747.333,1380.313,1759.667,1380.313,1772C1380.313,1784.333,1380.313,1796.667,1381.796,1806.385C1383.28,1816.103,1386.248,1823.206,1387.732,1826.758L1389.216,1830.309" id="my-svg-L_revised_joint_evaluation_chosen_demarche_completed_0" class="edge-thickness-normal edge-pattern-solid edge-thickness-normal edge-pattern-solid flowchart-link" style=";" data-edge="true" data-et="edge" data-id="L_revised_joint_evaluation_chosen_demarche_completed_0" data-points="W3sieCI6OTg5Ljg3OTk3NjQ1NTQ3OTQsInkiOjE0NjN9LHsieCI6MTA1NS4zOTQ1MzEyNSwieSI6MTUwOX0seyJ4IjoxMDU1LjM5NDUzMTI1LCJ5IjoxNTcwfSx7IngiOjEzODAuMzEyNSwieSI6MTYzMX0seyJ4IjoxMzgwLjMxMjUsInkiOjE2ODN9LHsieCI6MTM4MC4zMTI1LCJ5IjoxNzM1fSx7IngiOjEzODAuMzEyNSwieSI6MTc3Mn0seyJ4IjoxMzgwLjMxMjUsInkiOjE4MDl9LHsieCI6MTM5MC43NTc5NjI3NDAzODQ1LCJ5IjoxODM0fV0=" data-look="classic" marker-end="url(#my-svg_flowchart-v2-pointEnd)"/><path d="M903.823,1710L903.823,1714.167C903.823,1718.333,903.823,1726.667,903.823,1737C903.823,1747.333,903.823,1759.667,903.823,1772C903.823,1784.333,903.823,1796.667,967.622,1809.492C1031.421,1822.318,1159.018,1835.635,1222.817,1842.294L1286.615,1848.953" id="my-svg-L_awaiting_cse_opinion_demarche_completed_0" class="edge-thickness-normal edge-pattern-solid edge-thickness-normal edge-pattern-solid flowchart-link" style=";" data-edge="true" data-et="edge" data-id="L_awaiting_cse_opinion_demarche_completed_0" data-points="W3sieCI6OTAzLjgyMzExNTM0ODgxNTksInkiOjE3MTB9LHsieCI6OTAzLjgyMzExNTM0ODgxNTksInkiOjE3MzV9LHsieCI6OTAzLjgyMzExNTM0ODgxNTksInkiOjE3NzJ9LHsieCI6OTAzLjgyMzExNTM0ODgxNTksInkiOjE4MDl9LHsieCI6MTI5MC41OTM3NSwieSI6MTg0OS4zNjgxODM5NTA4ODEzfV0=" data-look="classic" marker-end="url(#my-svg_flowchart-v2-pointEnd)"/></g><g class="edgeLabels"><g class="edgeLabel" transform="translate(437.0028028488159, 642)"><g class="label" data-id="L_draft_awaiting_compliance_path_choice_0" transform="translate(-63.7890625, -24)"><foreignObject width="127.578125" height="48"><div xmlns="http://www.w3.org/1999/xhtml" class="labelBkg" style="display: table-cell; white-space: nowrap; line-height: 1.5; max-width: 200px; text-align: center;"><span class="edgeLabel"><p>submit<br />⚙ phase2Required</p></span></div></foreignObject></g></g><g class="edgeLabel" transform="translate(1894.11328125, 1058)"><g class="label" data-id="L_draft_awaiting_cse_opinion_0" transform="translate(-100, -36)"><foreignObject width="200" height="72"><div xmlns="http://www.w3.org/1999/xhtml" class="labelBkg" style="display: table; white-space: break-spaces; line-height: 1.5; max-width: 200px; text-align: center; width: 200px;"><span class="edgeLabel"><p>submit<br />⚙ ¬phase2Required ∧ cseRequired</p></span></div></foreignObject></g></g><g class="edgeLabel" transform="translate(2014.11328125, 1180)"><g class="label" data-id="L_draft_demarche_completed_0" transform="translate(-100, -36)"><foreignObject width="200" height="72"><div xmlns="http://www.w3.org/1999/xhtml" class="labelBkg" style="display: table; white-space: break-spaces; line-height: 1.5; max-width: 200px; text-align: center; width: 200px;"><span class="edgeLabel"><p>submit<br />⚙ ¬phase2Required ∧ ¬cseRequired</p></span></div></foreignObject></g></g><g class="edgeLabel" transform="translate(232.11328125, 1180)"><g class="label" data-id="L_awaiting_compliance_path_choice_awaiting_cse_opinion_0" transform="translate(-90.0078125, -36)"><foreignObject width="180.015625" height="72"><div xmlns="http://www.w3.org/1999/xhtml" class="labelBkg" style="display: table-cell; white-space: nowrap; line-height: 1.5; max-width: 200px; text-align: center;"><span class="edgeLabel"><p>choose_compliance_path<br />{path=justify}<br />⚙ cseRequired == true</p></span></div></foreignObject></g></g><g class="edgeLabel" transform="translate(342.12109375, 1302)"><g class="label" data-id="L_awaiting_compliance_path_choice_demarche_completed_0" transform="translate(-90.0078125, -36)"><foreignObject width="180.015625" height="72"><div xmlns="http://www.w3.org/1999/xhtml" class="labelBkg" style="display: table-cell; white-space: nowrap; line-height: 1.5; max-width: 200px; text-align: center;"><span class="edgeLabel"><p>choose_compliance_path<br />{path=justify}<br />⚙ cseRequired == false</p></span></div></foreignObject></g></g><g class="edgeLabel" transform="translate(1072.096552848816, 844)"><g class="label" data-id="L_awaiting_compliance_path_choice_corrective_actions_chosen_0" transform="translate(-90.0078125, -24)"><foreignObject width="180.015625" height="48"><div xmlns="http://www.w3.org/1999/xhtml" class="labelBkg" style="display: table-cell; white-space: nowrap; line-height: 1.5; max-width: 200px; text-align: center;"><span class="edgeLabel"><p>choose_compliance_path<br />{path=corrective_action}</p></span></div></foreignObject></g></g><g class="edgeLabel" transform="translate(1670.920771598816, 1058)"><g class="label" data-id="L_awaiting_compliance_path_choice_joint_evaluation_chosen_0" transform="translate(-90.0078125, -24)"><foreignObject width="180.015625" height="48"><div xmlns="http://www.w3.org/1999/xhtml" class="labelBkg" style="display: table-cell; white-space: nowrap; line-height: 1.5; max-width: 200px; text-align: center;"><span class="edgeLabel"><p>choose_compliance_path<br />{path=joint_evaluation}</p></span></div></foreignObject></g></g><g class="edgeLabel" transform="translate(692.0340528488159, 1058)"><g class="label" data-id="L_corrective_actions_chosen_awaiting_revision_choice_0" transform="translate(-100, -36)"><foreignObject width="200" height="72"><div xmlns="http://www.w3.org/1999/xhtml" class="labelBkg" style="display: table; white-space: break-spaces; line-height: 1.5; max-width: 200px; text-align: center; width: 200px;"><span class="edgeLabel"><p>submit_second_declaration<br />⚙ action.stillHasGap == true</p></span></div></foreignObject></g></g><g class="edgeLabel" transform="translate(1133.287959098816, 1302)"><g class="label" data-id="L_corrective_actions_chosen_awaiting_cse_opinion_0" transform="translate(-100, -36)"><foreignObject width="200" height="72"><div xmlns="http://www.w3.org/1999/xhtml" class="labelBkg" style="display: table; white-space: break-spaces; line-height: 1.5; max-width: 200px; text-align: center; width: 200px;"><span class="edgeLabel"><p>submit_second_declaration<br />⚙ action.stillHasGap == false ∧ cseRequired == true</p></span></div></foreignObject></g></g><g class="edgeLabel" transform="translate(1539.08203125, 1436)"><g class="label" data-id="L_corrective_actions_chosen_demarche_completed_0" transform="translate(-100, -48)"><foreignObject width="200" height="96"><div xmlns="http://www.w3.org/1999/xhtml" class="labelBkg" style="display: table; white-space: break-spaces; line-height: 1.5; max-width: 200px; text-align: center; width: 200px;"><span class="edgeLabel"><p>submit_second_declaration<br />⚙ action.stillHasGap == false ∧ cseRequired == false</p></span></div></foreignObject></g></g><g class="edgeLabel" transform="translate(1162.53515625, 1570)"><g class="label" data-id="L_joint_evaluation_chosen_awaiting_cse_opinion_0" transform="translate(-87.140625, -24)"><foreignObject width="174.28125" height="48"><div xmlns="http://www.w3.org/1999/xhtml" class="labelBkg" style="display: table-cell; white-space: nowrap; line-height: 1.5; max-width: 200px; text-align: center;"><span class="edgeLabel"><p>submit_joint_evaluation<br />⚙ cseRequired == true</p></span></div></foreignObject></g></g><g class="edgeLabel" transform="translate(1597.3125, 1683)"><g class="label" data-id="L_joint_evaluation_chosen_demarche_completed_0" transform="translate(-87.140625, -24)"><foreignObject width="174.28125" height="48"><div xmlns="http://www.w3.org/1999/xhtml" class="labelBkg" style="display: table-cell; white-space: nowrap; line-height: 1.5; max-width: 200px; text-align: center;"><span class="edgeLabel"><p>submit_joint_evaluation<br />⚙ cseRequired == false</p></span></div></foreignObject></g></g><g class="edgeLabel" transform="translate(452.12890625, 1436)"><g class="label" data-id="L_awaiting_revision_choice_awaiting_cse_opinion_0" transform="translate(-90.0078125, -36)"><foreignObject width="180.015625" height="72"><div xmlns="http://www.w3.org/1999/xhtml" class="labelBkg" style="display: table-cell; white-space: nowrap; line-height: 1.5; max-width: 200px; text-align: center;"><span class="edgeLabel"><p>choose_compliance_path<br />{path=justify}<br />⚙ cseRequired == true</p></span></div></foreignObject></g></g><g class="edgeLabel" transform="translate(562.13671875, 1570)"><g class="label" data-id="L_awaiting_revision_choice_demarche_completed_0" transform="translate(-90.0078125, -36)"><foreignObject width="180.015625" height="72"><div xmlns="http://www.w3.org/1999/xhtml" class="labelBkg" style="display: table-cell; white-space: nowrap; line-height: 1.5; max-width: 200px; text-align: center;"><span class="edgeLabel"><p>choose_compliance_path<br />{path=justify}<br />⚙ cseRequired == false</p></span></div></foreignObject></g></g><g class="edgeLabel" transform="translate(923.2801465988159, 1302)"><g class="label" data-id="L_awaiting_revision_choice_revised_joint_evaluation_chosen_0" transform="translate(-90.0078125, -24)"><foreignObject width="180.015625" height="48"><div xmlns="http://www.w3.org/1999/xhtml" class="labelBkg" style="display: table-cell; white-space: nowrap; line-height: 1.5; max-width: 200px; text-align: center;"><span class="edgeLabel"><p>choose_compliance_path<br />{path=joint_evaluation}</p></span></div></foreignObject></g></g><g class="edgeLabel" transform="translate(826.96484375, 1570)"><g class="label" data-id="L_revised_joint_evaluation_chosen_awaiting_cse_opinion_0" transform="translate(-87.140625, -24)"><foreignObject width="174.28125" height="48"><div xmlns="http://www.w3.org/1999/xhtml" class="labelBkg" style="display: table-cell; white-space: nowrap; line-height: 1.5; max-width: 200px; text-align: center;"><span class="edgeLabel"><p>submit_joint_evaluation<br />⚙ cseRequired == true</p></span></div></foreignObject></g></g><g class="edgeLabel" transform="translate(1380.3125, 1683)"><g class="label" data-id="L_revised_joint_evaluation_chosen_demarche_completed_0" transform="translate(-87.140625, -24)"><foreignObject width="174.28125" height="48"><div xmlns="http://www.w3.org/1999/xhtml" class="labelBkg" style="display: table-cell; white-space: nowrap; line-height: 1.5; max-width: 200px; text-align: center;"><span class="edgeLabel"><p>submit_joint_evaluation<br />⚙ cseRequired == false</p></span></div></foreignObject></g></g><g class="edgeLabel" transform="translate(903.8231153488159, 1772)"><g class="label" data-id="L_awaiting_cse_opinion_demarche_completed_0" transform="translate(-70.4609375, -12)"><foreignObject width="140.921875" height="24"><div xmlns="http://www.w3.org/1999/xhtml" class="labelBkg" style="display: table-cell; white-space: nowrap; line-height: 1.5; max-width: 200px; text-align: center;"><span class="edgeLabel"><p>submit_cse_opinion</p></span></div></foreignObject></g></g></g><g class="nodes"><g class="root" transform="translate(869.4787693023682, 0)"><g class="clusters"><g class="cluster" id="my-svg-legend" data-look="classic"><rect style="" x="8" y="8" width="647.671875" height="585"/><g class="cluster-label" transform="translate(289.4375, 8)"><foreignObject width="84.796875" height="24"><div xmlns="http://www.w3.org/1999/xhtml" style="display: table-cell; white-space: nowrap; line-height: 1.5;"><span class="nodeLabel"><p>📖 Légende</p></span></div></foreignObject></g></g></g><g class="edgePaths"/><g class="edgeLabels"/><g class="nodes"><g class="node default legendBox" id="my-svg-flowchart-thresholds_def-44" data-look="classic" transform="translate(173, 300.5)"><rect class="basic label-container" style="fill:#f5f5f5 !important;stroke:#666 !important" x="-130" y="-123" width="260" height="246"/><g class="label" style="color:#000 !important;text-align:left !important" transform="translate(-100, -108)"><rect/><foreignObject width="200" height="216"><div style="color: rgb(0, 0, 0) !important; text-align: center; display: table; white-space: break-spaces; line-height: 1.5; max-width: 200px; width: 200px;" xmlns="http://www.w3.org/1999/xhtml"><span style="color:#000 !important;text-align:left !important" class="nodeLabel"><p><b>Thresholds</b><br />gapAlertPercent = 5<br />phase2SizeMin = 100<br />indicatorGAnnualSizeMin = 250<br />indicatorGTriennialSizeMin = 150<br />voluntarySizeMax = 50<br />mandatorySizeMin = 50</p></span></div></foreignObject></g></g><g class="node default legendBox" id="my-svg-flowchart-computations_def-45" data-look="classic" transform="translate(486.8359375, 300.5)"><rect class="basic label-container" style="fill:#f5f5f5 !important;stroke:#666 !important" x="-133.8359375" y="-255" width="267.671875" height="510"/><g class="label" style="color:#000 !important;text-align:left !important" transform="translate(-103.8359375, -240)"><rect/><foreignObject width="207.671875" height="480"><div style="color: rgb(0, 0, 0) !important; text-align: center; display: table; white-space: break-spaces; line-height: 1.5; max-width: 200px; width: 200px;" xmlns="http://www.w3.org/1999/xhtml"><span style="color:#000 !important;text-align:left !important" class="nodeLabel"><p><b>Computations</b><br /><b>phase2Required</b> = workforce &gt;= @phase2SizeMin ∧ indicatorGCalculated == true ∧ gap &gt;= @gapAlertPercent<br /><br /><b>cseRequired</b> = workforce &gt;= @phase2SizeMin ∧ hasCse == true<br /><br /><b>indicatorGRequired</b> = (workforce &gt;= @indicatorGAnnualSizeMin ∨ workforce &gt;= @indicatorGTriennialSizeMin ∧ workforce &lt; @indicatorGAnnualSizeMin ∧ isTriennialYear == true)</p></span></div></foreignObject></g></g></g></g><g class="node default initial" id="my-svg-flowchart-draft-0" data-look="classic" transform="translate(1605.71875, 300.5)"><g class="basic label-container outer-path"><path d="M-11.078125 -19.5 C-2.833848062054928 -19.5, 5.410428875890144 -19.5, 11.078125 -19.5 C11.078125 -19.5, 11.078124999999998 -19.5, 11.078124999999998 -19.5 C11.425147058014483 -19.488871678036936, 11.77216911602897 -19.47774335607387, 12.3274942896239 -19.45993515863156 C12.769517275998908 -19.41729373274638, 13.211540262373918 -19.3746523068612, 13.571729652847864 -19.3399052695533 C13.902653422735817 -19.28640408078998, 14.233577192623772 -19.232902892026658, 14.805718259676757 -19.140403561325776 C15.229486397109932 -19.043681249302185, 15.653254534543107 -18.946958937278595, 16.02438938623539 -18.862249829261074 C16.43525033608122 -18.740308455999966, 16.84611128592705 -18.61836708273886, 17.222735251460602 -18.50658706670804 C17.647419306843148 -18.35029940859089, 18.072103362225693 -18.194011750473738, 18.395831595147794 -18.074876768247425 C18.647264061777765 -17.963575073749457, 18.898696528407736 -17.852273379251493, 19.53885791279238 -17.568892924097174 C19.915304844966037 -17.372500800707947, 20.291751777139698 -17.176108677318716, 20.647117264076783 -16.990714730406097 C21.0385021766712 -16.753454896358313, 21.429887089265616 -16.51619506231053, 21.716055573605697 -16.342718045390892 C21.952602557800674 -16.177713109170384, 22.18914954199565 -16.012708172949875, 22.741280344578712 -15.627565626425154 C23.099076699142927 -15.34223255502106, 23.45687305370714 -15.056899483616965, 23.71857870850187 -14.848196188198123 C24.05315237379563 -14.544345237712422, 24.387726039089387 -14.240494287226722, 24.643934736767985 -14.007812326905688 C24.92228043395277 -13.720397541955654, 25.20062613113756 -13.432982757005622, 25.513545942968648 -13.10986736009568 C25.83588469551989 -12.73122991975438, 26.15822344807113 -12.35259247941308, 26.323838908126582 -12.158051136245305 C26.614359419364657 -11.768780118149333, 26.904879930602732 -11.379509100053363, 27.071483964640635 -11.156274872382312 C27.239820911092416 -10.897664117832985, 27.4081578575442 -10.639053363283656, 27.753408878604247 -10.108655082055241 C27.895276393560373 -9.856754943606992, 28.0371439085165 -9.604854805158743, 28.3668114742735 -9.019496659696287 C28.523832274055533 -8.693439609241993, 28.680853073837568 -8.3673825587877, 28.90917114880834 -7.893275190886684 C29.05493935718931 -7.533224897949104, 29.20070756557028 -7.173174605011525, 29.378259229970325 -6.734618561215508 C29.50620017800866 -6.349280810345833, 29.63414112604699 -5.963943059476159, 29.77214813421488 -5.548287939305138 C29.83755210200299 -5.298874263870125, 29.902956069791102 -5.049460588435113, 30.08921928754556 -4.339158212148133 C30.15490902738719 -4.001855281592792, 30.22059876722882 -3.6645523510374503, 30.328169776581777 -3.1121979531509023 C30.373103506060694 -2.763700820480945, 30.418037235539607 -2.4152036878109877, 30.488017702509367 -1.872449005199798 C30.51176208482659 -1.5026110844886242, 30.53550646714381 -1.1327731637774505, 30.568106215913414 -0.6250057626472757 C30.568106215913414 -0.2594563468493678, 30.568106215913414 0.10609306894854009, 30.568106215913414 0.625005762647271 C30.551457579613505 0.8843217115556734, 30.5348089433136 1.1436376604640757, 30.488017702509367 1.8724490051997846 C30.453096766913564 2.1432888857621135, 30.41817583131776 2.414128766324442, 30.328169776581777 3.1121979531508885 C30.24301672969924 3.5494408517898988, 30.1578636828167 3.9866837504289085, 30.08921928754556 4.339158212148129 C30.00435065657519 4.662799084335487, 29.919482025604818 4.986439956522846, 29.772148134214884 5.548287939305125 C29.633376320302048 5.966246532524674, 29.494604506389212 6.384205125744223, 29.37825922997033 6.734618561215495 C29.218542142726108 7.129122854628534, 29.058825055481886 7.523627148041573, 28.909171148808344 7.893275190886679 C28.795981320954976 8.128316290298535, 28.68279149310161 8.36335738971039, 28.366811474273504 9.019496659696284 C28.239799625906425 9.245019057816315, 28.11278777753935 9.470541455936344, 27.75340887860425 10.108655082055236 C27.603889319835083 10.338357275947962, 27.45436976106592 10.568059469840687, 27.07148396464064 11.156274872382301 C26.845383638805043 11.459228710838579, 26.619283312969444 11.762182549294854, 26.323838908126582 12.158051136245302 C26.127339061963472 12.388871036706487, 25.93083921580036 12.619690937167674, 25.51354594296866 13.10986736009567 C25.220561969066768 13.41239736758098, 24.92757799516488 13.714927375066289, 24.64393473676799 14.007812326905684 C24.455197557510417 14.179218439395294, 24.266460378252848 14.350624551884904, 23.718578708501887 14.848196188198111 C23.444082315882078 15.067099756656626, 23.169585923262265 15.286003325115143, 22.741280344578715 15.627565626425152 C22.362425648725903 15.891838261896618, 21.98357095287309 16.156110897368084, 21.716055573605708 16.34271804539089 C21.29546580309879 16.597682035932024, 20.874876032591875 16.852646026473156, 20.647117264076787 16.990714730406093 C20.217462399830055 17.214865397876537, 19.787807535583326 17.439016065346983, 19.538857912792388 17.56889292409717 C19.213818771432532 17.71277811003363, 18.888779630072676 17.856663295970087, 18.395831595147804 18.07487676824742 C17.935215624260373 18.244387703421356, 17.47459965337294 18.41389863859529, 17.222735251460616 18.506587066708033 C16.82562137354198 18.624448381181004, 16.428507495623347 18.742309695653972, 16.024389386235413 18.86224982926107 C15.720117828995724 18.931697826643557, 15.415846271756037 19.001145824026047, 14.805718259676766 19.140403561325773 C14.518194596975071 19.186888157332078, 14.230670934273377 19.23337275333838, 13.571729652847878 19.3399052695533 C13.285873200003618 19.3674814977665, 13.000016747159357 19.395057725979704, 12.3274942896239 19.45993515863156 C11.856068630397882 19.47505286194856, 11.384642971171864 19.490170565265554, 11.078125000000004 19.5 C11.078125000000002 19.5, 11.078125 19.5, 11.078125 19.5 C5.412514849257385 19.5, -0.25309530148522974 19.5, -11.078124999999996 19.5 C-11.378788457687577 19.490358308117877, -11.679451915375155 19.480716616235757, -12.327494289623893 19.45993515863156 C-12.739861252418901 19.420154613674555, -13.152228215213912 19.380374068717554, -13.571729652847871 19.3399052695533 C-14.029953157333656 19.265823246924388, -14.48817666181944 19.191741224295473, -14.805718259676759 19.140403561325773 C-15.175260912065982 19.056057862409105, -15.544803564455204 18.971712163492437, -16.024389386235388 18.862249829261074 C-16.2642700873224 18.791054496337946, -16.50415078840941 18.719859163414814, -17.22273525146059 18.506587066708043 C-17.465086835932812 18.417399443348778, -17.707438420405037 18.32821181998951, -18.395831595147797 18.074876768247425 C-18.77160011193856 17.908535192641157, -19.147368628729325 17.742193617034893, -19.53885791279238 17.568892924097174 C-19.82391474901948 17.420178955225115, -20.108971585246575 17.271464986353056, -20.64711726407678 16.990714730406097 C-21.02478053524792 16.76177303602642, -21.40244380641906 16.532831341646745, -21.716055573605686 16.3427180453909 C-22.013859095082417 16.134983200515403, -22.311662616559143 15.927248355639904, -22.741280344578712 15.627565626425156 C-23.069959127835673 15.36545304328748, -23.39863791109264 15.103340460149804, -23.71857870850187 14.848196188198125 C-24.084475703114506 14.515898218794895, -24.450372697727147 14.183600249391667, -24.643934736767974 14.007812326905697 C-24.979048808358844 13.661779534611167, -25.314162879949716 13.31574674231664, -25.513545942968655 13.109867360095677 C-25.82990783390835 12.738250681496357, -26.146269724848043 12.366634002897035, -26.32383890812658 12.158051136245307 C-26.605994332517874 11.779988572448934, -26.88814975690917 11.401926008652561, -27.071483964640635 11.156274872382316 C-27.21062675025261 10.942514188612776, -27.349769535864592 10.728753504843239, -27.753408878604244 10.108655082055249 C-27.932149693841083 9.791282665132057, -28.110890509077922 9.473910248208867, -28.3668114742735 9.019496659696289 C-28.480358658714568 8.783713501683868, -28.593905843155635 8.547930343671448, -28.90917114880834 7.893275190886686 C-29.09573106359444 7.432468594474451, -29.282290978380534 6.971661998062216, -29.378259229970325 6.73461856121551 C-29.49198261024731 6.392101859181221, -29.605705990524292 6.049585157146932, -29.77214813421488 5.5482879393051325 C-29.88901675368197 5.102617242097039, -30.00588537314906 4.656946544888944, -30.089219287545557 4.339158212148136 C-30.181601854373756 3.864793256547747, -30.27398442120196 3.390428300947359, -30.328169776581777 3.112197953150904 C-30.389354875295734 2.6376584098898013, -30.45053997400969 2.163118866628699, -30.488017702509364 1.872449005199809 C-30.510965121132823 1.5150244373164763, -30.533912539756287 1.1575998694331433, -30.568106215913414 0.6250057626472781 C-30.568106215913414 0.15466126023700416, -30.568106215913414 -0.3156832421732698, -30.568106215913414 -0.6250057626472687 C-30.545980603385857 -0.9696300372369483, -30.5238549908583 -1.3142543118266279, -30.488017702509367 -1.8724490051997822 C-30.43735446044588 -2.2653831060554257, -30.3866912183824 -2.6583172069110694, -30.328169776581777 -3.112197953150895 C-30.24053018587707 -3.5622087287855164, -30.152890595172362 -4.012219504420138, -30.08921928754556 -4.339158212148126 C-29.964060988213784 -4.816441051450255, -29.838902688882005 -5.293723890752383, -29.772148134214884 -5.548287939305123 C-29.673150671777464 -5.8464525230630295, -29.57415320934004 -6.144617106820937, -29.378259229970332 -6.734618561215485 C-29.191794774105826 -7.195189372245824, -29.005330318241317 -7.655760183276164, -28.909171148808344 -7.893275190886676 C-28.721532516481055 -8.282910825737861, -28.533893884153766 -8.672546460589048, -28.366811474273504 -9.019496659696282 C-28.173105817428265 -9.36344066824972, -27.979400160583026 -9.707384676803157, -27.753408878604247 -10.108655082055243 C-27.59187580422332 -10.35681326200827, -27.430342729842394 -10.604971441961297, -27.07148396464064 -11.156274872382308 C-26.851030450744496 -11.451662497274867, -26.63057693684835 -11.747050122167426, -26.323838908126586 -12.158051136245302 C-26.01245840572399 -12.52381639241991, -25.70107790332139 -12.889581648594516, -25.513545942968662 -13.10986736009567 C-25.263015985075942 -13.368560110511975, -25.012486027183222 -13.62725286092828, -24.643934736767996 -14.007812326905677 C-24.445306979166666 -14.188200800956727, -24.246679221565337 -14.368589275007775, -23.718578708501887 -14.848196188198107 C-23.379408664547718 -15.118675272557635, -23.04023862059355 -15.38915435691716, -22.74128034457872 -15.627565626425149 C-22.43691425763849 -15.839878232879105, -22.132548170698264 -16.05219083933306, -21.71605557360571 -16.342718045390885 C-21.37417032993266 -16.54997088924619, -21.032285086259613 -16.757223733101497, -20.64711726407679 -16.99071473040609 C-20.328301933315416 -17.157040484253333, -20.00948660255404 -17.323366238100576, -19.538857912792388 -17.56889292409717 C-19.30871827582986 -17.670768914530708, -19.07857863886733 -17.77264490496425, -18.395831595147804 -18.07487676824742 C-18.08923571919585 -18.187706884738947, -17.7826398432439 -18.300537001230477, -17.22273525146062 -18.506587066708033 C-16.968543368317224 -18.58202988334457, -16.71435148517383 -18.657472699981106, -16.024389386235413 -18.862249829261067 C-15.547879562967783 -18.97101008690471, -15.07136973970015 -19.07977034454835, -14.805718259676768 -19.140403561325773 C-14.55422450928392 -19.181063120526126, -14.302730758891071 -19.22172267972648, -13.57172965284788 -19.3399052695533 C-13.321229137230317 -19.364070753023977, -13.070728621612753 -19.388236236494656, -12.327494289623903 -19.45993515863156 C-11.97854162575886 -19.471125391366556, -11.629588961893816 -19.482315624101552, -11.078125000000005 -19.5 C-11.078125000000004 -19.5, -11.078125000000002 -19.5, -11.078125 -19.5" stroke="none" stroke-width="0" fill="#fff2a8" style="fill:#fff2a8 !important;stroke:#b59e00 !important"/><path d="M-11.078125 -19.5 C-5.338015960677399 -19.5, 0.4020930786452013 -19.5, 11.078125 -19.5 M-11.078125 -19.5 C-2.4332638279917145 -19.5, 6.211597344016571 -19.5, 11.078125 -19.5 M11.078125 -19.5 C11.078125 -19.5, 11.078125 -19.5, 11.078124999999998 -19.5 M11.078125 -19.5 C11.078125 -19.5, 11.078124999999998 -19.5, 11.078124999999998 -19.5 M11.078124999999998 -19.5 C11.396684531276174 -19.489784415870485, 11.71524406255235 -19.47956883174097, 12.3274942896239 -19.45993515863156 M11.078124999999998 -19.5 C11.531906378139038 -19.485448114434952, 11.985687756278079 -19.470896228869904, 12.3274942896239 -19.45993515863156 M12.3274942896239 -19.45993515863156 C12.688107949922186 -19.425147192523962, 13.048721610220472 -19.390359226416365, 13.571729652847864 -19.3399052695533 M12.3274942896239 -19.45993515863156 C12.615265394772992 -19.432174226213217, 12.903036499922084 -19.40441329379487, 13.571729652847864 -19.3399052695533 M13.571729652847864 -19.3399052695533 C14.011959904191823 -19.268732256552596, 14.452190155535783 -19.197559243551893, 14.805718259676757 -19.140403561325776 M13.571729652847864 -19.3399052695533 C13.855729937146384 -19.293990306043014, 14.139730221444905 -19.248075342532726, 14.805718259676757 -19.140403561325776 M14.805718259676757 -19.140403561325776 C15.049526685728713 -19.084755879078084, 15.293335111780669 -19.02910819683039, 16.02438938623539 -18.862249829261074 M14.805718259676757 -19.140403561325776 C15.101230297309737 -19.072954867132314, 15.396742334942715 -19.005506172938848, 16.02438938623539 -18.862249829261074 M16.02438938623539 -18.862249829261074 C16.392600793270724 -18.752966616434104, 16.760812200306056 -18.643683403607135, 17.222735251460602 -18.50658706670804 M16.02438938623539 -18.862249829261074 C16.40756729665316 -18.748524636790975, 16.79074520707093 -18.63479944432088, 17.222735251460602 -18.50658706670804 M17.222735251460602 -18.50658706670804 C17.547489736074493 -18.38707441437258, 17.87224422068838 -18.267561762037122, 18.395831595147794 -18.074876768247425 M17.222735251460602 -18.50658706670804 C17.611387291568175 -18.363559523288377, 18.00003933167575 -18.220531979868714, 18.395831595147794 -18.074876768247425 M18.395831595147794 -18.074876768247425 C18.75750083355512 -17.914776524941274, 19.119170071962447 -17.75467628163512, 19.53885791279238 -17.568892924097174 M18.395831595147794 -18.074876768247425 C18.759056353462874 -17.91408794242097, 19.12228111177796 -17.753299116594512, 19.53885791279238 -17.568892924097174 M19.53885791279238 -17.568892924097174 C19.93065309141647 -17.36449363036578, 20.322448270040557 -17.16009433663438, 20.647117264076783 -16.990714730406097 M19.53885791279238 -17.568892924097174 C19.845880584900055 -17.40871939271601, 20.15290325700773 -17.248545861334843, 20.647117264076783 -16.990714730406097 M20.647117264076783 -16.990714730406097 C20.97083245023214 -16.794476682197125, 21.2945476363875 -16.598238633988153, 21.716055573605697 -16.342718045390892 M20.647117264076783 -16.990714730406097 C21.028873600646474 -16.7592917957283, 21.410629937216164 -16.527868861050496, 21.716055573605697 -16.342718045390892 M21.716055573605697 -16.342718045390892 C21.9764667799188 -16.161066460886307, 22.2368779862319 -15.979414876381718, 22.741280344578712 -15.627565626425154 M21.716055573605697 -16.342718045390892 C22.01198104492075 -16.136293247008698, 22.307906516235803 -15.929868448626504, 22.741280344578712 -15.627565626425154 M22.741280344578712 -15.627565626425154 C22.991295529176394 -15.428185169891982, 23.241310713774073 -15.228804713358809, 23.71857870850187 -14.848196188198123 M22.741280344578712 -15.627565626425154 C23.07527555870202 -15.361213331147734, 23.40927077282533 -15.094861035870316, 23.71857870850187 -14.848196188198123 M23.71857870850187 -14.848196188198123 C24.035534900968706 -14.560344960401045, 24.352491093435546 -14.272493732603966, 24.643934736767985 -14.007812326905688 M23.71857870850187 -14.848196188198123 C24.000011355295555 -14.592606504679889, 24.281444002089238 -14.337016821161654, 24.643934736767985 -14.007812326905688 M24.643934736767985 -14.007812326905688 C24.89547954341307 -13.748071661831933, 25.147024350058153 -13.488330996758178, 25.513545942968648 -13.10986736009568 M24.643934736767985 -14.007812326905688 C24.834764775711403 -13.810764644259038, 25.02559481465482 -13.613716961612388, 25.513545942968648 -13.10986736009568 M25.513545942968648 -13.10986736009568 C25.772059267941845 -12.806202898757263, 26.030572592915043 -12.502538437418847, 26.323838908126582 -12.158051136245305 M25.513545942968648 -13.10986736009568 C25.730502531741724 -12.8550178057432, 25.947459120514804 -12.60016825139072, 26.323838908126582 -12.158051136245305 M26.323838908126582 -12.158051136245305 C26.50302779234606 -11.91795435583438, 26.682216676565538 -11.677857575423456, 27.071483964640635 -11.156274872382312 M26.323838908126582 -12.158051136245305 C26.491125320475984 -11.933902583802789, 26.658411732825385 -11.709754031360273, 27.071483964640635 -11.156274872382312 M27.071483964640635 -11.156274872382312 C27.309473866376088 -10.790658474079907, 27.547463768111538 -10.4250420757775, 27.753408878604247 -10.108655082055241 M27.071483964640635 -11.156274872382312 C27.315716437018125 -10.781068209208806, 27.55994890939561 -10.4058615460353, 27.753408878604247 -10.108655082055241 M27.753408878604247 -10.108655082055241 C27.879783166062918 -9.884264737888135, 28.006157453521585 -9.659874393721028, 28.3668114742735 -9.019496659696287 M27.753408878604247 -10.108655082055241 C27.981494709347846 -9.703665593375158, 28.20958054009144 -9.298676104695073, 28.3668114742735 -9.019496659696287 M28.3668114742735 -9.019496659696287 C28.538195998866232 -8.6636130273381, 28.709580523458968 -8.307729394979914, 28.90917114880834 -7.893275190886684 M28.3668114742735 -9.019496659696287 C28.574684184353217 -8.587844529452282, 28.78255689443293 -8.156192399208276, 28.90917114880834 -7.893275190886684 M28.90917114880834 -7.893275190886684 C29.022986410105258 -7.612149295014922, 29.13680167140217 -7.331023399143161, 29.378259229970325 -6.734618561215508 M28.90917114880834 -7.893275190886684 C29.088082346274785 -7.451361074131882, 29.266993543741226 -7.0094469573770795, 29.378259229970325 -6.734618561215508 M29.378259229970325 -6.734618561215508 C29.53140882636264 -6.27335637795631, 29.684558422754954 -5.812094194697113, 29.77214813421488 -5.548287939305138 M29.378259229970325 -6.734618561215508 C29.521493672626303 -6.303219241244944, 29.66472811528228 -5.871819921274382, 29.77214813421488 -5.548287939305138 M29.77214813421488 -5.548287939305138 C29.84463262312898 -5.271873168099455, 29.917117112043083 -4.995458396893772, 30.08921928754556 -4.339158212148133 M29.77214813421488 -5.548287939305138 C29.870885887678686 -5.171758092134597, 29.969623641142494 -4.795228244964057, 30.08921928754556 -4.339158212148133 M30.08921928754556 -4.339158212148133 C30.139155733958997 -4.0827451138868245, 30.189092180372434 -3.8263320156255167, 30.328169776581777 -3.1121979531509023 M30.08921928754556 -4.339158212148133 C30.157859379244 -3.9867058483651503, 30.226499470942446 -3.6342534845821675, 30.328169776581777 -3.1121979531509023 M30.328169776581777 -3.1121979531509023 C30.38237325587869 -2.6918064714117116, 30.436576735175603 -2.271414989672521, 30.488017702509367 -1.872449005199798 M30.328169776581777 -3.1121979531509023 C30.37993480614306 -2.710718606034896, 30.43169983570434 -2.30923925891889, 30.488017702509367 -1.872449005199798 M30.488017702509367 -1.872449005199798 C30.5136208449529 -1.473659395157172, 30.53922398739643 -1.074869785114546, 30.568106215913414 -0.6250057626472757 M30.488017702509367 -1.872449005199798 C30.509495710604813 -1.5379116923771374, 30.530973718700256 -1.203374379554477, 30.568106215913414 -0.6250057626472757 M30.568106215913414 -0.6250057626472757 C30.568106215913414 -0.25365664563164714, 30.568106215913414 0.11769247138398142, 30.568106215913414 0.625005762647271 M30.568106215913414 -0.6250057626472757 C30.568106215913414 -0.30184246279331745, 30.568106215913414 0.021320837060640807, 30.568106215913414 0.625005762647271 M30.568106215913414 0.625005762647271 C30.547066080473567 0.9527228554145424, 30.52602594503372 1.2804399481818136, 30.488017702509367 1.8724490051997846 M30.568106215913414 0.625005762647271 C30.54505342392416 0.9840716057586654, 30.522000631934908 1.3431374488700598, 30.488017702509367 1.8724490051997846 M30.488017702509367 1.8724490051997846 C30.43669898104179 2.270466874874537, 30.38538025957421 2.6684847445492896, 30.328169776581777 3.1121979531508885 M30.488017702509367 1.8724490051997846 C30.432866077163908 2.3001941204588827, 30.377714451818452 2.727939235717981, 30.328169776581777 3.1121979531508885 M30.328169776581777 3.1121979531508885 C30.23862981240089 3.571966744941616, 30.149089848220004 4.031735536732344, 30.08921928754556 4.339158212148129 M30.328169776581777 3.1121979531508885 C30.238290477881055 3.5737091559825926, 30.148411179180332 4.035220358814296, 30.08921928754556 4.339158212148129 M30.08921928754556 4.339158212148129 C29.988672205155254 4.722587814683539, 29.888125122764944 5.106017417218949, 29.772148134214884 5.548287939305125 M30.08921928754556 4.339158212148129 C29.977815432157925 4.7639893954775285, 29.86641157677029 5.188820578806929, 29.772148134214884 5.548287939305125 M29.772148134214884 5.548287939305125 C29.617862741940556 6.01297095879645, 29.463577349666227 6.4776539782877744, 29.37825922997033 6.734618561215495 M29.772148134214884 5.548287939305125 C29.615475896462442 6.020159757084344, 29.45880365871 6.492031574863563, 29.37825922997033 6.734618561215495 M29.37825922997033 6.734618561215495 C29.26171580883462 7.022483064634458, 29.145172387698913 7.310347568053421, 28.909171148808344 7.893275190886679 M29.37825922997033 6.734618561215495 C29.225455321077202 7.11204717044412, 29.072651412184076 7.489475779672745, 28.909171148808344 7.893275190886679 M28.909171148808344 7.893275190886679 C28.698480411801317 8.330779014341363, 28.487789674794293 8.768282837796047, 28.366811474273504 9.019496659696284 M28.909171148808344 7.893275190886679 C28.71465325145651 8.297195766754024, 28.520135354104674 8.70111634262137, 28.366811474273504 9.019496659696284 M28.366811474273504 9.019496659696284 C28.163223918852854 9.380986979821099, 27.959636363432203 9.742477299945914, 27.75340887860425 10.108655082055236 M28.366811474273504 9.019496659696284 C28.234311539890957 9.254763710265749, 28.10181160550841 9.490030760835214, 27.75340887860425 10.108655082055236 M27.75340887860425 10.108655082055236 C27.565336456562427 10.397584826828094, 27.377264034520604 10.68651457160095, 27.07148396464064 11.156274872382301 M27.75340887860425 10.108655082055236 C27.49513330260995 10.50543572348549, 27.236857726615646 10.902216364915747, 27.07148396464064 11.156274872382301 M27.07148396464064 11.156274872382301 C26.844453161519816 11.460475465632557, 26.61742235839899 11.764676058882813, 26.323838908126582 12.158051136245302 M27.07148396464064 11.156274872382301 C26.777316252939475 11.550432806832019, 26.483148541238307 11.944590741281736, 26.323838908126582 12.158051136245302 M26.323838908126582 12.158051136245302 C26.13112712945428 12.384421357084635, 25.93841535078198 12.610791577923969, 25.51354594296866 13.10986736009567 M26.323838908126582 12.158051136245302 C26.126045743306385 12.390390242393016, 25.928252578486187 12.622729348540732, 25.51354594296866 13.10986736009567 M25.51354594296866 13.10986736009567 C25.333831814811976 13.295436952221767, 25.154117686655297 13.481006544347865, 24.64393473676799 14.007812326905684 M25.51354594296866 13.10986736009567 C25.323916136483174 13.305675704188587, 25.134286329997693 13.501484048281503, 24.64393473676799 14.007812326905684 M24.64393473676799 14.007812326905684 C24.439806240847464 14.193196425956666, 24.23567774492694 14.378580525007647, 23.718578708501887 14.848196188198111 M24.64393473676799 14.007812326905684 C24.414319268758177 14.216343019659826, 24.18470380074837 14.42487371241397, 23.718578708501887 14.848196188198111 M23.718578708501887 14.848196188198111 C23.469972195473755 15.046453266640894, 23.22136568244562 15.244710345083679, 22.741280344578715 15.627565626425152 M23.718578708501887 14.848196188198111 C23.463977161476656 15.051234146719027, 23.20937561445142 15.254272105239941, 22.741280344578715 15.627565626425152 M22.741280344578715 15.627565626425152 C22.524011704453965 15.779122824368336, 22.30674306432921 15.93068002231152, 21.716055573605708 16.34271804539089 M22.741280344578715 15.627565626425152 C22.364258100574133 15.890560022812855, 21.987235856569555 16.153554419200557, 21.716055573605708 16.34271804539089 M21.716055573605708 16.34271804539089 C21.309531639586925 16.589155243192884, 20.903007705568143 16.83559244099488, 20.647117264076787 16.990714730406093 M21.716055573605708 16.34271804539089 C21.475482161877956 16.488555061346545, 21.234908750150204 16.634392077302202, 20.647117264076787 16.990714730406093 M20.647117264076787 16.990714730406093 C20.294753080383128 17.174542899339045, 19.942388896689465 17.358371068271996, 19.538857912792388 17.56889292409717 M20.647117264076787 16.990714730406093 C20.351225485040704 17.145081282001488, 20.055333706004625 17.29944783359688, 19.538857912792388 17.56889292409717 M19.538857912792388 17.56889292409717 C19.283145232119704 17.682089342383808, 19.027432551447017 17.795285760670446, 18.395831595147804 18.07487676824742 M19.538857912792388 17.56889292409717 C19.28535402108105 17.681111577032013, 19.031850129369715 17.79333022996686, 18.395831595147804 18.07487676824742 M18.395831595147804 18.07487676824742 C17.96694711857733 18.232710220189997, 17.538062642006857 18.39054367213257, 17.222735251460616 18.506587066708033 M18.395831595147804 18.07487676824742 C18.15550672351987 18.163318542545262, 17.915181851891933 18.2517603168431, 17.222735251460616 18.506587066708033 M17.222735251460616 18.506587066708033 C16.790362033534706 18.63491316821511, 16.3579888156088 18.763239269722188, 16.024389386235413 18.86224982926107 M17.222735251460616 18.506587066708033 C16.869519122833292 18.61141975961533, 16.516302994205965 18.716252452522628, 16.024389386235413 18.86224982926107 M16.024389386235413 18.86224982926107 C15.693956214042625 18.93766904453611, 15.363523041849838 19.013088259811152, 14.805718259676766 19.140403561325773 M16.024389386235413 18.86224982926107 C15.610647936813171 18.95668361517642, 15.196906487390931 19.051117401091766, 14.805718259676766 19.140403561325773 M14.805718259676766 19.140403561325773 C14.470090459442554 19.194665261235176, 14.134462659208342 19.24892696114458, 13.571729652847878 19.3399052695533 M14.805718259676766 19.140403561325773 C14.393323818332355 19.20707629643568, 13.980929376987946 19.273749031545588, 13.571729652847878 19.3399052695533 M13.571729652847878 19.3399052695533 C13.133021850807863 19.38222688359277, 12.694314048767845 19.424548497632248, 12.3274942896239 19.45993515863156 M13.571729652847878 19.3399052695533 C13.112795022113788 19.38417814143057, 12.653860391379698 19.428451013307843, 12.3274942896239 19.45993515863156 M12.3274942896239 19.45993515863156 C11.904010332788252 19.473515464865763, 11.480526375952604 19.487095771099963, 11.078125000000004 19.5 M12.3274942896239 19.45993515863156 C11.94819718337596 19.4720984785719, 11.56890007712802 19.484261798512243, 11.078125000000004 19.5 M11.078125000000004 19.5 C11.078125000000002 19.5, 11.078125000000002 19.5, 11.078125 19.5 M11.078125000000004 19.5 C11.078125000000002 19.5, 11.078125000000002 19.5, 11.078125 19.5 M11.078125 19.5 C2.5614823695831372 19.5, -5.9551602608337255 19.5, -11.078124999999996 19.5 M11.078125 19.5 C4.572388938567927 19.5, -1.9333471228641468 19.5, -11.078124999999996 19.5 M-11.078124999999996 19.5 C-11.544376886902072 19.485048209491293, -12.010628773804147 19.47009641898259, -12.327494289623893 19.45993515863156 M-11.078124999999996 19.5 C-11.457344080844976 19.487839182182466, -11.836563161689956 19.475678364364928, -12.327494289623893 19.45993515863156 M-12.327494289623893 19.45993515863156 C-12.784025364543515 19.41589415489301, -13.240556439463138 19.37185315115446, -13.571729652847871 19.3399052695533 M-12.327494289623893 19.45993515863156 C-12.76165646858284 19.418052055383804, -13.19581864754179 19.376168952136048, -13.571729652847871 19.3399052695533 M-13.571729652847871 19.3399052695533 C-13.966777461120238 19.27603700355333, -14.361825269392602 19.212168737553363, -14.805718259676759 19.140403561325773 M-13.571729652847871 19.3399052695533 C-13.890457610890895 19.288375805069133, -14.209185568933917 19.236846340584968, -14.805718259676759 19.140403561325773 M-14.805718259676759 19.140403561325773 C-15.092906817812054 19.074854647011875, -15.380095375947347 19.009305732697978, -16.024389386235388 18.862249829261074 M-14.805718259676759 19.140403561325773 C-15.288904895602858 19.030119364763113, -15.77209153152896 18.91983516820045, -16.024389386235388 18.862249829261074 M-16.024389386235388 18.862249829261074 C-16.288865562352456 18.783754688453307, -16.553341738469523 18.70525954764554, -17.22273525146059 18.506587066708043 M-16.024389386235388 18.862249829261074 C-16.369582082284126 18.759798449027247, -16.71477477833286 18.65734706879342, -17.22273525146059 18.506587066708043 M-17.22273525146059 18.506587066708043 C-17.572035905419245 18.378041197151408, -17.921336559377902 18.249495327594776, -18.395831595147797 18.074876768247425 M-17.22273525146059 18.506587066708043 C-17.650263487998718 18.34925272363432, -18.077791724536844 18.19191838056059, -18.395831595147797 18.074876768247425 M-18.395831595147797 18.074876768247425 C-18.675139567691954 17.95123541417875, -18.95444754023611 17.82759406011008, -19.53885791279238 17.568892924097174 M-18.395831595147797 18.074876768247425 C-18.7476063214922 17.919156531921256, -19.0993810478366 17.76343629559509, -19.53885791279238 17.568892924097174 M-19.53885791279238 17.568892924097174 C-19.920872642318425 17.36959608439555, -20.302887371844466 17.170299244693926, -20.64711726407678 16.990714730406097 M-19.53885791279238 17.568892924097174 C-19.965081139969183 17.34653253948804, -20.391304367145985 17.124172154878913, -20.64711726407678 16.990714730406097 M-20.64711726407678 16.990714730406097 C-20.93114085158494 16.81853796255078, -21.215164439093098 16.64636119469547, -21.716055573605686 16.3427180453909 M-20.64711726407678 16.990714730406097 C-20.97638072574903 16.7911132849735, -21.305644187421287 16.5915118395409, -21.716055573605686 16.3427180453909 M-21.716055573605686 16.3427180453909 C-22.027563233507166 16.125423786792886, -22.339070893408643 15.908129528194875, -22.741280344578712 15.627565626425156 M-21.716055573605686 16.3427180453909 C-22.032014380242902 16.122318859517073, -22.34797318688012 15.901919673643246, -22.741280344578712 15.627565626425156 M-22.741280344578712 15.627565626425156 C-22.941832692799697 15.467630465641044, -23.14238504102068 15.30769530485693, -23.71857870850187 14.848196188198125 M-22.741280344578712 15.627565626425156 C-23.0156692946057 15.408747740575247, -23.29005824463269 15.18992985472534, -23.71857870850187 14.848196188198125 M-23.71857870850187 14.848196188198125 C-23.945414602924625 14.64218983063226, -24.172250497347378 14.436183473066395, -24.643934736767974 14.007812326905697 M-23.71857870850187 14.848196188198125 C-23.99629752708813 14.59597930519536, -24.274016345674397 14.343762422192595, -24.643934736767974 14.007812326905697 M-24.643934736767974 14.007812326905697 C-24.881305020959193 13.762708020015495, -25.118675305150415 13.517603713125293, -25.513545942968655 13.109867360095677 M-24.643934736767974 14.007812326905697 C-24.84514024180629 13.800051123674455, -25.046345746844604 13.592289920443216, -25.513545942968655 13.109867360095677 M-25.513545942968655 13.109867360095677 C-25.79977616070183 12.773645059385512, -26.086006378435005 12.437422758675345, -26.32383890812658 12.158051136245307 M-25.513545942968655 13.109867360095677 C-25.74975410331601 12.832403814326591, -25.985962263663367 12.554940268557505, -26.32383890812658 12.158051136245307 M-26.32383890812658 12.158051136245307 C-26.530941114731057 11.88055304679447, -26.73804332133553 11.60305495734363, -27.071483964640635 11.156274872382316 M-26.32383890812658 12.158051136245307 C-26.51910527962648 11.896411987567838, -26.714371651126385 11.63477283889037, -27.071483964640635 11.156274872382316 M-27.071483964640635 11.156274872382316 C-27.342939644576955 10.739246051943656, -27.614395324513275 10.322217231504995, -27.753408878604244 10.108655082055249 M-27.071483964640635 11.156274872382316 C-27.343315614465975 10.738668461232068, -27.615147264291316 10.32106205008182, -27.753408878604244 10.108655082055249 M-27.753408878604244 10.108655082055249 C-27.95058821110618 9.758543210625543, -28.14776754360812 9.40843133919584, -28.3668114742735 9.019496659696289 M-27.753408878604244 10.108655082055249 C-27.89984183108748 9.848648546976941, -28.046274783570713 9.588642011898635, -28.3668114742735 9.019496659696289 M-28.3668114742735 9.019496659696289 C-28.575977181478518 8.585159593255886, -28.785142888683534 8.150822526815483, -28.90917114880834 7.893275190886686 M-28.3668114742735 9.019496659696289 C-28.531214588876743 8.67811007455952, -28.69561770347999 8.33672348942275, -28.90917114880834 7.893275190886686 M-28.90917114880834 7.893275190886686 C-29.05381718013062 7.535996696979888, -29.1984632114529 7.17871820307309, -29.378259229970325 6.73461856121551 M-28.90917114880834 7.893275190886686 C-29.09439605947378 7.435766080463025, -29.279620970139216 6.978256970039364, -29.378259229970325 6.73461856121551 M-29.378259229970325 6.73461856121551 C-29.527369698304568 6.285521588119565, -29.676480166638807 5.83642461502362, -29.77214813421488 5.5482879393051325 M-29.378259229970325 6.73461856121551 C-29.51206367954741 6.331620877933215, -29.645868129124494 5.92862319465092, -29.77214813421488 5.5482879393051325 M-29.77214813421488 5.5482879393051325 C-29.863322148543833 5.200601907601069, -29.954496162872783 4.852915875897006, -30.089219287545557 4.339158212148136 M-29.77214813421488 5.5482879393051325 C-29.874619230227566 5.157521238954822, -29.97709032624025 4.766754538604511, -30.089219287545557 4.339158212148136 M-30.089219287545557 4.339158212148136 C-30.161803070862803 3.966455825402122, -30.23438685418005 3.5937534386561083, -30.328169776581777 3.112197953150904 M-30.089219287545557 4.339158212148136 C-30.145752458926257 4.0488723253982535, -30.202285630306957 3.7585864386483703, -30.328169776581777 3.112197953150904 M-30.328169776581777 3.112197953150904 C-30.385562880347145 2.667068373896947, -30.442955984112515 2.2219387946429903, -30.488017702509364 1.872449005199809 M-30.328169776581777 3.112197953150904 C-30.362135674846183 2.8487651535374323, -30.396101573110588 2.5853323539239605, -30.488017702509364 1.872449005199809 M-30.488017702509364 1.872449005199809 C-30.507287246866866 1.5723102977354497, -30.52655679122437 1.2721715902710904, -30.568106215913414 0.6250057626472781 M-30.488017702509364 1.872449005199809 C-30.512220069674115 1.4954776008096458, -30.53642243683887 1.1185061964194825, -30.568106215913414 0.6250057626472781 M-30.568106215913414 0.6250057626472781 C-30.568106215913414 0.2776662042188171, -30.568106215913414 -0.06967335420964393, -30.568106215913414 -0.6250057626472687 M-30.568106215913414 0.6250057626472781 C-30.568106215913414 0.21664632665922567, -30.568106215913414 -0.1917131093288268, -30.568106215913414 -0.6250057626472687 M-30.568106215913414 -0.6250057626472687 C-30.54951467294705 -0.9145840511717629, -30.530923129980685 -1.204162339696257, -30.488017702509367 -1.8724490051997822 M-30.568106215913414 -0.6250057626472687 C-30.547675043577353 -0.9432377635268856, -30.527243871241293 -1.2614697644065025, -30.488017702509367 -1.8724490051997822 M-30.488017702509367 -1.8724490051997822 C-30.45356784248843 -2.1396353166278583, -30.41911798246749 -2.4068216280559342, -30.328169776581777 -3.112197953150895 M-30.488017702509367 -1.8724490051997822 C-30.43560045153289 -2.2789868528163733, -30.38318320055641 -2.685524700432964, -30.328169776581777 -3.112197953150895 M-30.328169776581777 -3.112197953150895 C-30.268483112924272 -3.4186763562513542, -30.208796449266767 -3.7251547593518133, -30.08921928754556 -4.339158212148126 M-30.328169776581777 -3.112197953150895 C-30.2493913233622 -3.516708660601438, -30.170612870142623 -3.9212193680519802, -30.08921928754556 -4.339158212148126 M-30.08921928754556 -4.339158212148126 C-30.015397938313722 -4.620671011144268, -29.941576589081883 -4.902183810140411, -29.772148134214884 -5.548287939305123 M-30.08921928754556 -4.339158212148126 C-29.968569480389817 -4.799248216790168, -29.847919673234074 -5.259338221432211, -29.772148134214884 -5.548287939305123 M-29.772148134214884 -5.548287939305123 C-29.639214712302483 -5.948662226040801, -29.506281290390085 -6.34903651277648, -29.378259229970332 -6.734618561215485 M-29.772148134214884 -5.548287939305123 C-29.637875503828493 -5.952695708590565, -29.503602873442105 -6.357103477876008, -29.378259229970332 -6.734618561215485 M-29.378259229970332 -6.734618561215485 C-29.261739074816017 -7.022425597210594, -29.145218919661698 -7.310232633205703, -28.909171148808344 -7.893275190886676 M-29.378259229970332 -6.734618561215485 C-29.21373623104882 -7.140993549387419, -29.049213232127304 -7.547368537559352, -28.909171148808344 -7.893275190886676 M-28.909171148808344 -7.893275190886676 C-28.7380229632032 -8.24866806028029, -28.56687477759806 -8.604060929673903, -28.366811474273504 -9.019496659696282 M-28.909171148808344 -7.893275190886676 C-28.747241935181037 -8.229524667713914, -28.585312721553727 -8.565774144541152, -28.366811474273504 -9.019496659696282 M-28.366811474273504 -9.019496659696282 C-28.18976977370295 -9.333852126475467, -28.012728073132394 -9.648207593254654, -27.753408878604247 -10.108655082055243 M-28.366811474273504 -9.019496659696282 C-28.143940987495633 -9.415225777054381, -27.921070500717757 -9.810954894412479, -27.753408878604247 -10.108655082055243 M-27.753408878604247 -10.108655082055243 C-27.487975940237444 -10.516431354110567, -27.22254300187064 -10.924207626165892, -27.07148396464064 -11.156274872382308 M-27.753408878604247 -10.108655082055243 C-27.59471202534147 -10.352456064738783, -27.436015172078694 -10.596257047422323, -27.07148396464064 -11.156274872382308 M-27.07148396464064 -11.156274872382308 C-26.879308531393974 -11.41377244539071, -26.687133098147306 -11.671270018399111, -26.323838908126586 -12.158051136245302 M-27.07148396464064 -11.156274872382308 C-26.79419650294682 -11.527814809644594, -26.516909041252998 -11.899354746906878, -26.323838908126586 -12.158051136245302 M-26.323838908126586 -12.158051136245302 C-26.13389384229888 -12.381171418746954, -25.94394877647117 -12.604291701248606, -25.513545942968662 -13.10986736009567 M-26.323838908126586 -12.158051136245302 C-26.073498427817878 -12.452115309192777, -25.823157947509166 -12.746179482140253, -25.513545942968662 -13.10986736009567 M-25.513545942968662 -13.10986736009567 C-25.3031064359124 -13.327163428536103, -25.092666928856143 -13.544459496976536, -24.643934736767996 -14.007812326905677 M-25.513545942968662 -13.10986736009567 C-25.213410210662808 -13.419782145303358, -24.913274478356954 -13.729696930511045, -24.643934736767996 -14.007812326905677 M-24.643934736767996 -14.007812326905677 C-24.443309875402775 -14.190014517754621, -24.24268501403756 -14.372216708603563, -23.718578708501887 -14.848196188198107 M-24.643934736767996 -14.007812326905677 C-24.440348865933576 -14.19270362821053, -24.23676299509916 -14.377594929515382, -23.718578708501887 -14.848196188198107 M-23.718578708501887 -14.848196188198107 C-23.32978743412137 -15.158246883346248, -22.940996159740855 -15.468297578494388, -22.74128034457872 -15.627565626425149 M-23.718578708501887 -14.848196188198107 C-23.456737640870845 -15.057007471750424, -23.1948965732398 -15.265818755302739, -22.74128034457872 -15.627565626425149 M-22.74128034457872 -15.627565626425149 C-22.389596184539354 -15.872885272306693, -22.037912024499988 -16.118204918188237, -21.71605557360571 -16.342718045390885 M-22.74128034457872 -15.627565626425149 C-22.45178309215699 -15.829506377580472, -22.16228583973526 -16.031447128735795, -21.71605557360571 -16.342718045390885 M-21.71605557360571 -16.342718045390885 C-21.37768581320478 -16.54783978262736, -21.03931605280385 -16.75296151986383, -20.64711726407679 -16.99071473040609 M-21.71605557360571 -16.342718045390885 C-21.45973717134211 -16.49809976713721, -21.203418769078503 -16.653481488883532, -20.64711726407679 -16.99071473040609 M-20.64711726407679 -16.99071473040609 C-20.364386088368985 -17.13821540367489, -20.08165491266118 -17.285716076943693, -19.538857912792388 -17.56889292409717 M-20.64711726407679 -16.99071473040609 C-20.310426413308477 -17.166366131591136, -19.973735562540163 -17.342017532776183, -19.538857912792388 -17.56889292409717 M-19.538857912792388 -17.56889292409717 C-19.212515292149643 -17.713355121645826, -18.8861726715069 -17.857817319194478, -18.395831595147804 -18.07487676824742 M-19.538857912792388 -17.56889292409717 C-19.15599771217202 -17.738373777767475, -18.773137511551656 -17.90785463143778, -18.395831595147804 -18.07487676824742 M-18.395831595147804 -18.07487676824742 C-18.048785364884797 -18.202592989044394, -17.70173913462179 -18.330309209841364, -17.22273525146062 -18.506587066708033 M-18.395831595147804 -18.07487676824742 C-17.93293059713472 -18.245228614526155, -17.470029599121634 -18.41558046080489, -17.22273525146062 -18.506587066708033 M-17.22273525146062 -18.506587066708033 C-16.831162159670765 -18.62280390494216, -16.43958906788091 -18.739020743176287, -16.024389386235413 -18.862249829261067 M-17.22273525146062 -18.506587066708033 C-16.87216511161231 -18.610634444034794, -16.521594971764006 -18.71468182136156, -16.024389386235413 -18.862249829261067 M-16.024389386235413 -18.862249829261067 C-15.751189398693688 -18.924605943620936, -15.477989411151963 -18.986962057980808, -14.805718259676768 -19.140403561325773 M-16.024389386235413 -18.862249829261067 C-15.709367771897265 -18.9341514570256, -15.394346157559118 -19.006053084790132, -14.805718259676768 -19.140403561325773 M-14.805718259676768 -19.140403561325773 C-14.369226811520706 -19.21097211362191, -13.932735363364644 -19.281540665918044, -13.57172965284788 -19.3399052695533 M-14.805718259676768 -19.140403561325773 C-14.357692449321252 -19.212836899852, -13.909666638965739 -19.28527023837823, -13.57172965284788 -19.3399052695533 M-13.57172965284788 -19.3399052695533 C-13.270114152294457 -19.369001754145977, -12.968498651741033 -19.398098238738655, -12.327494289623903 -19.45993515863156 M-13.57172965284788 -19.3399052695533 C-13.180606853833188 -19.37763641558026, -12.789484054818496 -19.41536756160722, -12.327494289623903 -19.45993515863156 M-12.327494289623903 -19.45993515863156 C-12.056727101320705 -19.468618135344084, -11.785959913017507 -19.477301112056605, -11.078125000000005 -19.5 M-12.327494289623903 -19.45993515863156 C-11.951387552646986 -19.471996169639056, -11.575280815670068 -19.484057180646552, -11.078125000000005 -19.5 M-11.078125000000005 -19.5 C-11.078125000000004 -19.5, -11.078125000000002 -19.5, -11.078125 -19.5 M-11.078125000000005 -19.5 C-11.078125000000004 -19.5, -11.078125000000004 -19.5, -11.078125 -19.5" stroke="#b59e00" stroke-width="1.3" fill="none" stroke-dasharray="0 0" style="fill:#fff2a8 !important;stroke:#b59e00 !important"/></g><g class="label" style="color:#000 !important;font-weight:bold !important" transform="translate(-18.203125, -12)"><rect/><foreignObject width="36.40625" height="24"><div style="color: rgb(0, 0, 0) !important; font-weight: bold !important; display: table-cell; white-space: nowrap; line-height: 1.5; max-width: 200px; text-align: center;" xmlns="http://www.w3.org/1999/xhtml"><span style="color:#000 !important;font-weight:bold !important" class="nodeLabel"><p>draft</p></span></div></foreignObject></g></g><g class="node default neutral" id="my-svg-flowchart-awaiting_compliance_path_choice-1" data-look="classic" transform="translate(437.0028028488159, 743)"><rect class="basic label-container" style="fill:#cfe3ff !important;stroke:#2d5fa8 !important" x="-153.390625" y="-27" width="306.78125" height="54"/><g class="label" style="color:#000 !important" transform="translate(-123.390625, -12)"><rect/><foreignObject width="246.78125" height="24"><div style="color: rgb(0, 0, 0) !important; display: table; white-space: break-spaces; line-height: 1.5; max-width: 200px; text-align: center; width: 200px;" xmlns="http://www.w3.org/1999/xhtml"><span style="color:#000 !important" class="nodeLabel"><p>awaiting_compliance_path_choice</p></span></div></foreignObject></g></g><g class="node default chosen" id="my-svg-flowchart-corrective_actions_chosen-2" data-look="classic" transform="translate(1072.096552848816, 945)"><rect class="basic label-container" style="fill:#fff6c9 !important;stroke:#a88a2d !important" x="-125.0390625" y="-27" width="250.078125" height="54"/><g class="label" style="color:#000 !important" transform="translate(-95.0390625, -12)"><rect/><foreignObject width="190.078125" height="24"><div style="color: rgb(0, 0, 0) !important; display: table-cell; white-space: nowrap; line-height: 1.5; max-width: 200px; text-align: center;" xmlns="http://www.w3.org/1999/xhtml"><span style="color:#000 !important" class="nodeLabel"><p>corrective_actions_chosen</p></span></div></foreignObject></g></g><g class="node default chosen" id="my-svg-flowchart-joint_evaluation_chosen-3" data-look="classic" transform="translate(1266.50390625, 1436)"><rect class="basic label-container" style="fill:#fff6c9 !important;stroke:#a88a2d !important" x="-117.578125" y="-27" width="235.15625" height="54"/><g class="label" style="color:#000 !important" transform="translate(-87.578125, -12)"><rect/><foreignObject width="175.15625" height="24"><div style="color: rgb(0, 0, 0) !important; display: table-cell; white-space: nowrap; line-height: 1.5; max-width: 200px; text-align: center;" xmlns="http://www.w3.org/1999/xhtml"><span style="color:#000 !important" class="nodeLabel"><p>joint_evaluation_chosen</p></span></div></foreignObject></g></g><g class="node default chosen" id="my-svg-flowchart-revised_joint_evaluation_chosen-4" data-look="classic" transform="translate(951.42578125, 1436)"><rect class="basic label-container" style="fill:#fff6c9 !important;stroke:#a88a2d !important" x="-147.5" y="-27" width="295" height="54"/><g class="label" style="color:#000 !important" transform="translate(-117.5, -12)"><rect/><foreignObject width="235" height="24"><div style="color: rgb(0, 0, 0) !important; display: table; white-space: break-spaces; line-height: 1.5; max-width: 200px; text-align: center; width: 200px;" xmlns="http://www.w3.org/1999/xhtml"><span style="color:#000 !important" class="nodeLabel"><p>revised_joint_evaluation_chosen</p></span></div></foreignObject></g></g><g class="node default neutral" id="my-svg-flowchart-awaiting_revision_choice-5" data-look="classic" transform="translate(692.0340528488159, 1180)"><rect class="basic label-container" style="fill:#cfe3ff !important;stroke:#2d5fa8 !important" x="-119.9609375" y="-27" width="239.921875" height="54"/><g class="label" style="color:#000 !important" transform="translate(-89.9609375, -12)"><rect/><foreignObject width="179.921875" height="24"><div style="color: rgb(0, 0, 0) !important; display: table-cell; white-space: nowrap; line-height: 1.5; max-width: 200px; text-align: center;" xmlns="http://www.w3.org/1999/xhtml"><span style="color:#000 !important" class="nodeLabel"><p>awaiting_revision_choice</p></span></div></foreignObject></g></g><g class="node default neutral" id="my-svg-flowchart-awaiting_cse_opinion-6" data-look="classic" transform="translate(903.8231153488159, 1683)"><rect class="basic label-container" style="fill:#cfe3ff !important;stroke:#2d5fa8 !important" x="-106.78125" y="-27" width="213.5625" height="54"/><g class="label" style="color:#000 !important" transform="translate(-76.78125, -12)"><rect/><foreignObject width="153.5625" height="24"><div style="color: rgb(0, 0, 0) !important; display: table-cell; white-space: nowrap; line-height: 1.5; max-width: 200px; text-align: center;" xmlns="http://www.w3.org/1999/xhtml"><span style="color:#000 !important" class="nodeLabel"><p>awaiting_cse_opinion</p></span></div></foreignObject></g></g><g class="node default final" id="my-svg-flowchart-demarche_completed-7" data-look="classic" transform="translate(1402.0390625, 1861)"><rect class="basic label-container" style="fill:#c9f0a1 !important;stroke:#3b7a1d !important" x="-111.4453125" y="-27" width="222.890625" height="54"/><g class="label" style="color:#000 !important;font-weight:bold !important" transform="translate(-81.4453125, -12)"><rect/><foreignObject width="162.890625" height="24"><div style="color: rgb(0, 0, 0) !important; font-weight: bold !important; display: table-cell; white-space: nowrap; line-height: 1.5; max-width: 200px; text-align: center;" xmlns="http://www.w3.org/1999/xhtml"><span style="color:#000 !important;font-weight:bold !important" class="nodeLabel"><p>demarche_completed</p></span></div></foreignObject></g></g></g></g></g><defs><filter id="my-svg-drop-shadow" height="130%" width="130%"><feDropShadow dx="4" dy="4" stdDeviation="0" flood-opacity="0.06" flood-color="#000000"/></filter></defs><defs><filter id="my-svg-drop-shadow-small" height="150%" width="150%"><feDropShadow dx="2" dy="2" stdDeviation="0" flood-opacity="0.06" flood-color="#000000"/></filter></defs></svg>