<?xml version="1.0" encoding="utf-8"?>
<svg version="1.1" id="Calque_1" xmlns="http://www.w3.org/2000/svg" xmlns:xlink="http://www.w3.org/1999/xlink" x="0px" y="0px"
	 viewBox="255 0 48 48" style="enable-background:new 0 0 310 48;" xml:space="preserve">
<style type="text/css">
	.st0{fill:#E0E0E0;}
	.st1{fill:#91B052;stroke:#91B052;stroke-width:2;stroke-miterlimit:10;}
	.st2{fill:none;stroke:#797979;stroke-width:4;stroke-miterlimit:10;}
</style>
<g>
	<g>
		<path class="st1" d="M277.92,8.76c0.96,0.22,1.95,0.36,2.88,0.68c4.74,1.62,7.95,6.08,7.95,11.08c0,2.62-0.78,5.01-2.38,7.12
			c-0.19,0.25-0.38,0.49-0.61,0.78c2.96,2.96,5.91,5.91,8.93,8.93c-0.65,0.65-1.26,1.27-1.88,1.89c-0.05,0-0.09,0-0.14,0
			c-2.98-2.99-5.96-5.98-8.83-8.86c-1.4,0.56-2.65,1.22-3.97,1.57c-7.94,2.1-15.53-4.43-14.7-12.59c0.56-5.46,4.86-9.84,10.32-10.49
			c0.13-0.02,0.25-0.07,0.38-0.11C276.57,8.76,277.24,8.76,277.92,8.76z M266.53,20.53c-0.02,5.71,4.59,10.43,10.22,10.45
			c5.91,0.02,10.62-4.59,10.62-10.41c0.01-5.69-4.67-10.4-10.35-10.43C271.24,10.1,266.55,14.75,266.53,20.53z"/>
	</g>
</g>
</svg>
