<svg width="210" height="147" viewBox="0 0 210 147" fill="none" xmlns="http://www.w3.org/2000/svg">
<path d="M107.251 146.688C113.567 146.688 118.688 141.603 118.688 135.329C118.688 129.055 113.567 123.969 107.251 123.969C100.935 123.969 95.8149 129.055 95.8149 135.329C95.8149 141.603 100.935 146.688 107.251 146.688Z" fill="#6A6AF4"/>
<path d="M106.026 16.7935C88.1527 16.9189 73.5181 31.3462 73.2642 49.0986C73.2618 49.2625 73.2607 50.415 73.2609 51.9223C73.261 54.1323 74.1449 56.2519 75.7181 57.8147C77.2914 59.3775 79.4252 60.2556 81.6501 60.2559C82.7531 60.2556 83.8452 60.0395 84.8641 59.6199C85.8829 59.2002 86.8085 58.5853 87.588 57.8102C88.3675 57.0351 88.9856 56.115 89.4069 55.1025C89.8283 54.0901 90.0447 53.0051 90.0437 51.9095C90.0429 50.8841 90.0424 50.1745 90.0424 50.1309C90.0418 47.3873 90.7602 44.6908 92.1271 42.3066C93.4939 39.9225 95.462 37.9328 97.8378 36.5334C100.214 35.1339 102.915 34.3729 105.677 34.3251C108.439 34.2773 111.165 34.9445 113.589 36.2609C116.012 37.5773 118.049 39.4977 119.498 41.8331C120.948 44.1686 121.76 46.8386 121.856 49.5806C121.951 52.3225 121.327 55.042 120.043 57.4714C118.76 59.9009 116.862 61.9566 114.536 63.4364L114.539 63.4399C114.539 63.4399 102.598 71.0755 98.958 81.5501L98.9611 81.5509C98.321 83.6967 97.9966 85.9232 97.9981 88.1612C97.9981 89.0812 98.0526 97.1308 98.1579 103.664C98.1947 105.918 99.1222 108.068 100.74 109.649C102.358 111.23 104.537 112.116 106.807 112.115C107.948 112.115 109.077 111.891 110.13 111.456C111.183 111.021 112.139 110.383 112.943 109.58C113.747 108.776 114.383 107.823 114.814 106.774C115.246 105.725 115.465 104.602 115.458 103.47C115.421 97.4861 115.401 90.519 115.401 90.0134C115.401 83.5816 121.648 77.1732 126.779 72.9942C132.687 68.1819 136.939 61.6239 138.647 54.2262C139.025 52.7031 139.233 51.1435 139.268 49.5753C139.268 45.2502 138.407 40.968 136.733 36.9752C135.06 32.9824 132.607 29.358 129.517 26.3108C126.427 23.2637 122.761 20.8539 118.729 19.2205C114.697 17.5871 110.38 16.7622 106.026 16.7935Z" fill="#6A6AF4"/>
<path d="M156.243 67.4164C160.362 67.4164 163.701 64.0995 163.701 60.0079C163.701 55.9163 160.362 52.5994 156.243 52.5994C152.123 52.5994 148.784 55.9163 148.784 60.0079C148.784 64.0995 152.123 67.4164 156.243 67.4164Z" fill="#343434"/>
<path d="M142.46 143.757H139.412L137.962 132.079H142.461L142.46 143.757Z" fill="#AB7B6B"/>
<path d="M137.235 142.892H143.113V146.568H133.534C133.534 146.085 133.63 145.607 133.816 145.161C134.002 144.715 134.274 144.31 134.618 143.969C134.962 143.627 135.37 143.356 135.819 143.172C136.268 142.987 136.749 142.892 137.235 142.892Z" fill="#343434"/>
<path d="M166.079 143.757H163.031L161.581 132.079H166.079L166.079 143.757Z" fill="#AB7B6B"/>
<path d="M160.854 142.892H166.732V146.568H157.152C157.152 146.085 157.248 145.607 157.434 145.161C157.62 144.715 157.893 144.31 158.236 143.969C158.58 143.627 158.988 143.356 159.437 143.172C159.886 142.987 160.368 142.892 160.854 142.892Z" fill="#343434"/>
<path d="M155.109 67.4597C158.481 67.4597 161.215 64.7441 161.215 61.3943C161.215 58.0445 158.481 55.329 155.109 55.329C151.737 55.329 149.003 58.0445 149.003 61.3943C149.003 64.7441 151.737 67.4597 155.109 67.4597Z" fill="#AB7B6B"/>
<path d="M158.749 87.0267L161.481 80.7912C162.145 79.3284 162.335 77.6971 162.025 76.1224C161.716 74.5477 160.922 73.1073 159.753 71.9998C159.513 71.7641 159.258 71.5438 158.99 71.3404C157.642 70.2928 155.98 69.7219 154.269 69.718C153.118 69.7224 151.981 69.9734 150.937 70.4539C150.848 70.4934 150.761 70.5354 150.671 70.5773C150.5 70.6588 150.331 70.7477 150.166 70.8391C149.096 71.4495 148.185 72.3013 147.507 73.3256C146.829 74.35 146.403 75.5183 146.263 76.7363L145.057 86.7723C144.754 87.5601 133.934 116.009 137.718 137.728C137.759 137.96 137.872 138.173 138.043 138.336C138.214 138.499 138.433 138.604 138.668 138.634L142.504 139.153C142.784 139.191 143.068 139.122 143.3 138.961C143.531 138.799 143.691 138.556 143.75 138.281L150.186 107.805C150.226 107.616 150.329 107.445 150.478 107.321C150.628 107.196 150.815 107.125 151.009 107.119C151.204 107.112 151.395 107.171 151.552 107.285C151.71 107.399 151.824 107.562 151.877 107.748L160.971 139.798C161.036 140.03 161.176 140.236 161.37 140.382C161.563 140.528 161.8 140.608 162.043 140.608C162.115 140.607 162.188 140.6 162.259 140.588L166.945 139.691C167.218 139.641 167.462 139.491 167.629 139.271C167.795 139.051 167.874 138.778 167.848 138.503C167.159 130.875 163.5 92.6646 158.749 87.0267Z" fill="#272747"/>
<path d="M131.379 66.4419C131.336 66.8025 131.374 67.168 131.489 67.5125C131.604 67.857 131.794 68.1723 132.045 68.4361C132.296 68.6999 132.603 68.9057 132.943 69.0392C133.283 69.1727 133.648 69.2305 134.013 69.2086L137.426 77.3561L140.008 73.5545L136.371 66.4003C136.293 65.794 135.994 65.237 135.531 64.8349C135.067 64.4328 134.471 64.2136 133.856 64.2187C133.241 64.2238 132.649 64.453 132.192 64.8627C131.735 65.2725 131.446 65.8344 131.379 66.4419Z" fill="#AB7B6B"/>
<path d="M154.771 95.2305C155.133 95.1875 155.482 95.0659 155.793 94.8743C156.103 94.6828 156.368 94.4259 156.568 94.1219C156.767 93.8179 156.897 93.474 156.949 93.1146C157 92.7552 156.972 92.3889 156.866 92.0416L164.047 86.8462L159.723 85.238L153.567 90.4182C152.991 90.6345 152.515 91.053 152.23 91.5943C151.944 92.1357 151.868 92.7624 152.017 93.3555C152.165 93.9487 152.527 94.4672 153.035 94.8128C153.543 95.1584 154.16 95.307 154.771 95.2305Z" fill="#AB7B6B"/>
<path d="M143.064 82.7879C142.788 82.7876 142.514 82.7607 142.244 82.7076C141.59 82.5841 140.978 82.3029 140.46 81.8887C139.942 81.4746 139.534 80.9403 139.273 80.3328L134.491 74.5411C134.39 74.4186 134.317 74.2761 134.275 74.1231C134.234 73.9701 134.227 73.8102 134.253 73.654C134.279 73.4977 134.338 73.3489 134.427 73.2174C134.516 73.0858 134.632 72.9747 134.768 72.8913L138.17 70.7994C138.295 70.7222 138.435 70.6704 138.581 70.6471C138.727 70.6238 138.876 70.6294 139.019 70.6636C139.163 70.6978 139.299 70.76 139.418 70.8465C139.537 70.9329 139.638 71.042 139.715 71.1675L143.085 76.6828L149.54 71.9447C150.054 71.6771 150.647 71.602 151.212 71.7333C151.777 71.8645 152.276 72.1933 152.617 72.6595C152.958 73.1257 153.119 73.6983 153.07 74.2727C153.022 74.847 152.766 75.3847 152.351 75.7876L145.909 81.6247C145.152 82.3701 144.13 82.7882 143.064 82.7879Z" fill="#272747"/>
<path d="M160.504 91.4984C160.495 91.4984 160.487 91.4984 160.478 91.4982C160.321 91.4944 160.167 91.4579 160.025 91.3911C159.883 91.3243 159.757 91.2287 159.655 91.1104L156.63 87.6053C156.527 87.486 156.451 87.3462 156.406 87.1954C156.361 87.0445 156.349 86.886 156.371 86.7302C156.393 86.5745 156.447 86.4251 156.531 86.2919C156.616 86.1586 156.727 86.0447 156.859 85.9575L162.523 82.2069L157.392 76.0794C157.093 75.5852 156.984 75.0007 157.083 74.4329C157.183 73.8651 157.484 73.3518 157.934 72.9867C158.383 72.6217 158.949 72.4294 159.529 72.4448C160.109 72.4603 160.664 72.6825 161.093 73.071L167.329 79.1244C167.82 79.5697 168.194 80.1267 168.421 80.7476C168.647 81.3685 168.719 82.0346 168.629 82.6889C168.539 83.3431 168.29 83.966 167.905 84.5039C167.519 85.0418 167.008 85.4788 166.415 85.7773L161.318 91.1494C161.214 91.2596 161.087 91.3473 160.947 91.4073C160.807 91.4673 160.657 91.4983 160.504 91.4984Z" fill="#272747"/>
<path d="M153.556 78.5831C153.508 78.5831 153.459 78.58 153.411 78.5739C153.201 78.5485 153.002 78.4636 152.838 78.3293C152.675 78.1949 152.553 78.0168 152.489 77.8161L150.216 70.8942C150.159 70.7192 150.168 70.5297 150.241 70.3606C150.313 70.1915 150.445 70.0543 150.612 69.9745L150.686 69.9398C150.753 69.9083 150.819 69.877 150.887 69.8471C151.947 69.3589 153.1 69.1042 154.269 69.1006C155.785 69.1034 157.268 69.546 158.535 70.374C158.705 70.4863 158.824 70.6604 158.866 70.8588C158.908 71.0571 158.869 71.2639 158.759 71.4346L154.495 78.0696C154.395 78.2271 154.257 78.3568 154.093 78.4467C153.928 78.5365 153.744 78.5834 153.556 78.5831Z" fill="#CFCFCF"/>
<path d="M162.123 56.7005C163.471 56.7005 164.564 55.6151 164.564 54.2763C164.564 52.9374 163.471 51.8521 162.123 51.8521C160.775 51.8521 159.682 52.9374 159.682 54.2763C159.682 55.6151 160.775 56.7005 162.123 56.7005Z" fill="#272747"/>
<path d="M153.756 51.6116C152.042 51.6116 150.398 52.2881 149.186 53.4922C147.973 54.6963 147.292 56.3295 147.292 58.0323V60.7488H150.656L152.265 58.0323L152.747 60.7488H162.955L160.22 58.0323C160.22 56.3295 159.539 54.6963 158.327 53.4922C157.115 52.2881 155.471 51.6116 153.756 51.6116Z" fill="#343434"/>
<path d="M163.377 52.6157C163.647 51.7775 164.206 51.0605 164.955 50.591C165.705 50.1215 166.597 49.9294 167.475 50.0485C169.03 50.3068 170.26 51.5487 170.992 52.9357C171.725 54.3227 172.064 55.875 172.556 57.363C173.049 58.8509 173.747 60.347 174.991 61.3102C176.234 62.2734 178.143 62.5347 179.364 61.5438C179.224 62.5765 178.762 63.5394 178.041 64.2965C177.32 65.0535 176.378 65.5663 175.348 65.7624C174.318 65.9585 173.252 65.8279 172.3 65.3891C171.349 64.9503 170.56 64.2255 170.047 63.3173C169.402 62.1784 169.236 60.8436 169.045 59.551C168.854 58.2584 168.605 56.9211 167.836 55.8615C167.066 54.8019 165.626 54.1099 164.404 54.5925L163.377 52.6157Z" fill="#343434"/>
<path d="M84.0189 56.3141C81.794 56.3139 79.6602 55.4358 78.0869 53.873C76.5136 52.3101 75.6297 50.1906 75.6296 47.9805C75.6295 46.4732 75.6306 45.3207 75.6329 45.1568C75.7036 39.994 77.0126 34.9222 79.4514 30.3624C75.4445 35.8108 73.2414 42.3614 73.1467 49.108C73.1444 49.2719 73.1433 50.4244 73.1434 51.9317C73.1436 54.1418 74.0275 56.2613 75.6007 57.8242C77.174 59.387 79.3078 60.2651 81.5328 60.2653C83.3611 60.2646 85.1393 59.6712 86.5971 58.5751C88.0549 57.4791 89.1127 55.9403 89.6098 54.1927C88.0736 55.561 86.0823 56.3166 84.0189 56.3141Z" fill="#4A4A7D"/>
<path d="M106.595 34.353C109.167 34.4751 111.671 35.2154 113.892 36.5104C116.113 37.8054 117.984 39.6164 119.345 41.788C120.706 43.9595 121.516 46.4267 121.705 48.9776C121.895 51.5286 121.458 54.0872 120.433 56.4336C121.916 54.7036 123.006 52.6764 123.628 50.49C124.251 48.3037 124.392 46.0097 124.041 43.7644C123.69 41.5191 122.856 39.3754 121.596 37.4793C120.335 35.5832 118.678 33.9794 116.737 32.7772C114.796 31.575 112.617 30.8026 110.348 30.5128C108.079 30.2229 105.774 30.4224 103.59 31.0977C101.406 31.7729 99.3941 32.908 97.6916 34.4256C95.9892 35.9432 94.6362 37.8075 93.7249 39.8916C95.2999 38.0512 97.2795 36.5946 99.5109 35.6344C101.742 34.6741 104.166 34.2357 106.595 34.353Z" fill="#4A4A7D"/>
<path d="M109.176 108.174C106.906 108.174 104.727 107.288 103.109 105.707C101.491 104.126 100.563 101.977 100.527 99.7225C100.421 93.1891 100.367 85.1395 100.367 84.2195C100.365 81.9815 100.69 79.755 101.33 77.6092L101.327 77.6084C101.705 76.5313 102.161 75.4831 102.693 74.4719C101.061 76.6313 99.7632 79.0201 98.8407 81.5596L98.8438 81.5604C98.2036 83.7062 97.8793 85.9327 97.8807 88.1707C97.8807 89.0907 97.9352 97.1403 98.0405 103.674C98.0773 105.928 99.0049 108.077 100.623 109.659C102.241 111.24 104.42 112.125 106.69 112.125C108.561 112.125 110.382 111.522 111.879 110.406C113.377 109.291 114.47 107.724 114.994 105.939C113.404 107.38 111.328 108.177 109.176 108.174Z" fill="#4A4A7D"/>
<path d="M31.4601 143.87L34.5079 143.869L35.9581 132.192L31.4594 132.192L31.4601 143.87Z" fill="#FCBFB7"/>
<path d="M40.3864 146.68L30.807 146.681L30.8068 143.005L36.6851 143.004C37.6667 143.004 38.6081 143.392 39.3022 144.081C39.9963 144.77 40.3863 145.705 40.3864 146.68Z" fill="#343434"/>
<path d="M20.521 143.87L23.5688 143.869L25.019 132.192L20.5203 132.192L20.521 143.87Z" fill="#FCBFB7"/>
<path d="M29.4473 146.68L19.8679 146.681L19.8677 143.005L25.746 143.004C26.7276 143.004 27.669 143.392 28.3631 144.081C29.0572 144.77 29.4472 145.705 29.4473 146.68Z" fill="#343434"/>
<path d="M23.1845 140.278L20.2074 140.122C20.0538 140.114 19.9034 140.076 19.7649 140.01C19.6264 139.944 19.5024 139.851 19.4002 139.737C19.2981 139.623 19.2197 139.49 19.1697 139.345C19.1196 139.201 19.099 139.048 19.1088 138.896L22.6672 99.7626L39.0537 104.155L40.6325 103.727L35.6954 138.37C35.6534 138.631 35.5231 138.87 35.3261 139.047C35.1291 139.224 34.8772 139.329 34.6119 139.344L31.4025 139.493C31.2421 139.502 31.0815 139.478 30.931 139.422C30.7804 139.366 30.6432 139.279 30.528 139.168C30.4128 139.057 30.322 138.923 30.2615 138.775C30.201 138.627 30.1721 138.468 30.1765 138.309L30.758 117.516C30.7607 117.42 30.7271 117.327 30.6637 117.254C30.6004 117.181 30.5119 117.135 30.4157 117.123C30.3195 117.112 30.2226 117.137 30.1441 117.194C30.0656 117.25 30.0111 117.333 29.9915 117.427L24.3835 139.36C24.3305 139.62 24.1884 139.854 23.9812 140.022C23.7741 140.189 23.5148 140.281 23.2475 140.28C23.2266 140.28 23.2057 140.279 23.1845 140.278Z" fill="#272747"/>
<path d="M32.0074 67.7433C35.3798 67.7433 38.1137 65.0278 38.1137 61.678C38.1137 58.3282 35.3798 55.6126 32.0074 55.6126C28.635 55.6126 25.9011 58.3282 25.9011 61.678C25.9011 65.0278 28.635 67.7433 32.0074 67.7433Z" fill="#FCBFB7"/>
<path d="M21.8408 79.4977L22.5122 93.8868L22.7549 99.1218C22.7646 99.3497 22.8425 99.5695 22.9786 99.7532C23.1148 99.9369 23.303 100.076 23.5192 100.153L39.2656 105.819C39.3928 105.866 39.5276 105.889 39.6632 105.888C39.8183 105.889 39.972 105.858 40.1151 105.799C40.2581 105.739 40.3876 105.652 40.4958 105.541C40.604 105.431 40.6888 105.3 40.7449 105.157C40.8011 105.013 40.8275 104.86 40.8227 104.706L40.1772 78.8334C40.1348 76.7107 39.3481 74.6692 37.9528 73.0609C36.5575 71.4525 34.6411 70.3781 32.5338 70.0229C32.3815 69.9998 32.2265 69.9767 32.0716 69.9562C30.7649 69.7951 29.4385 69.9203 28.1858 70.3231C26.9331 70.7259 25.7844 71.3965 24.8207 72.2877C23.8227 73.1994 23.0386 74.3177 22.5237 75.5636C22.0087 76.8094 21.7756 78.1524 21.8408 79.4977Z" fill="#CFCFCF"/>
<path d="M46.7877 102.948C46.4153 102.833 46.075 102.633 45.7941 102.365C45.5131 102.096 45.2993 101.766 45.1696 101.4C45.04 101.035 44.998 100.645 45.0472 100.261C45.0964 99.8764 45.2354 99.5089 45.4529 99.1874L40.1132 92.1345L44.7211 91.8513L49.0854 98.5922C49.5526 98.9511 49.8777 99.4618 50.0037 100.035C50.1297 100.608 50.0485 101.207 49.7744 101.727C49.5003 102.246 49.0507 102.653 48.5046 102.877C47.9585 103.1 47.3506 103.125 46.7877 102.948Z" fill="#FCBFB7"/>
<path d="M43.0332 97.9111C42.8917 97.8541 42.763 97.7697 42.6546 97.663C42.5462 97.5562 42.4601 97.4292 42.4014 97.2892L34.3567 78.2507C34.1988 77.8779 34.1164 77.4779 34.1143 77.0736C34.1122 76.6692 34.1903 76.2683 34.3441 75.8939C34.498 75.5196 34.7247 75.179 35.0111 74.8916C35.2976 74.6043 35.6383 74.3758 36.0137 74.2193C36.3891 74.0628 36.7918 73.9813 37.1989 73.9795C37.6061 73.9777 38.0095 74.0556 38.3863 74.2087C38.7631 74.3619 39.1058 74.5873 39.3949 74.8721C39.6839 75.1568 39.9137 75.4954 40.0709 75.8684L48.1157 94.9071C48.2346 95.1894 48.2359 95.507 48.1194 95.7902C48.0029 96.0735 47.778 96.2992 47.4941 96.418L43.9226 97.9069C43.782 97.966 43.631 97.9968 43.4783 97.9975C43.3256 97.9983 43.1743 97.9689 43.0332 97.9111Z" fill="#CFCFCF"/>
<path d="M30.0441 97.2396L37.7709 82.5439C37.9199 82.2612 38.1757 82.0489 38.4822 81.9533C38.7886 81.8578 39.1207 81.8869 39.4056 82.0343L50.621 87.8525C50.9056 88.0005 51.1194 88.2546 51.2155 88.559C51.3117 88.8634 51.2824 89.1932 51.134 89.4762L43.4072 104.172C43.2582 104.454 43.0024 104.667 42.696 104.762C42.3895 104.858 42.0574 104.829 41.7726 104.681L30.5571 98.8633C30.2726 98.7153 30.0588 98.4612 29.9626 98.1568C29.8665 97.8524 29.8958 97.5225 30.0441 97.2396Z" fill="#4A4A7D"/>
<path d="M35.226 90.5254C35.0887 90.1629 34.8679 89.8373 34.5814 89.5746C34.2948 89.3119 33.9504 89.1193 33.5756 89.0123C33.2009 88.9053 32.8061 88.8868 32.4228 88.9583C32.0396 89.0298 31.6785 89.1892 31.3683 89.4239L23.9649 84.5457L23.9523 89.1314L30.9846 93.0609C31.3728 93.503 31.9053 93.7952 32.4887 93.8863C33.0721 93.9774 33.6692 93.8615 34.1752 93.559C34.6812 93.2565 35.0639 92.7867 35.256 92.232C35.4482 91.6773 35.4376 91.0731 35.226 90.5254Z" fill="#FCBFB7"/>
<path d="M25.8656 91.5567L19.8151 86.7961C19.1605 86.5778 18.5691 86.205 18.0915 85.7096C17.6139 85.2143 17.2645 84.6112 17.0733 83.9523C16.882 83.2933 16.8546 82.598 16.9933 81.9262C17.1321 81.2543 17.4329 80.626 17.87 80.0951L23.3637 72.9435C23.7455 72.4801 24.2824 72.1687 24.8763 72.0661C25.4702 71.9635 26.0814 72.0767 26.5983 72.3849C27.1151 72.6931 27.503 73.1758 27.691 73.7447C27.8791 74.3136 27.8547 74.9307 27.6224 75.4832L23.2757 82.546L29.6636 85.5555C29.8121 85.6255 29.9441 85.726 30.0506 85.8504C30.1572 85.9747 30.2359 86.1201 30.2817 86.277C30.3275 86.4338 30.3392 86.5985 30.3162 86.7602C30.2931 86.9219 30.2358 87.0769 30.1479 87.2149L27.5694 91.2684C27.4822 91.4052 27.3671 91.5223 27.2314 91.6121C27.0958 91.7019 26.9427 91.7624 26.7821 91.7897C26.7757 91.7908 26.7693 91.7918 26.7628 91.7928C26.605 91.8165 26.4439 91.8077 26.2896 91.7671C26.1352 91.7265 25.9909 91.6549 25.8656 91.5567Z" fill="#CFCFCF"/>
<path d="M27.3933 65.7394C27.3671 65.6633 27.3588 65.5822 27.369 65.5024C27.3792 65.4226 27.4077 65.3462 27.4523 65.279C27.4968 65.2118 27.5563 65.1556 27.626 65.1147C27.6958 65.0739 27.7741 65.0494 27.8548 65.0433C28.0202 65.0522 28.1821 65.0943 28.3306 65.1671C28.4791 65.2399 28.6113 65.3419 28.7191 65.4668C28.94 65.7199 29.1973 65.9393 29.4826 66.118C29.778 66.2659 30.1786 66.2448 30.347 65.9629C30.5051 65.6981 30.3968 65.3435 30.3011 65.036C30.0575 64.2535 29.9211 63.4419 29.8958 62.6232C29.8683 61.7095 29.998 60.7558 30.5074 60.0431C31.1647 59.1233 32.34 58.7741 33.4523 58.7994C34.5646 58.8247 35.6589 59.1658 36.7607 59.3814C37.1411 59.4558 37.5881 59.4938 37.8426 59.201C38.1131 58.8897 38.0137 58.3857 37.8987 57.9653C37.6001 56.8745 37.2833 55.7466 36.5896 54.8656C35.8396 53.9501 34.7681 53.3509 33.5911 53.1887C32.4611 53.0497 31.314 53.179 30.2441 53.5662C28.5011 54.1119 26.9673 55.1732 25.8479 56.6082C24.694 58.1343 24.1954 60.0522 24.4611 61.9424C24.7207 63.5887 25.599 65.0761 26.9189 66.1047L27.3933 65.7394Z" fill="#343434"/>
<path d="M104.732 143.918C103.107 143.215 101.669 142.147 100.531 140.797C99.3935 139.448 98.5871 137.854 98.1755 136.142C97.7639 134.43 97.7586 132.647 98.1599 130.932C98.5611 129.218 99.358 127.62 100.488 126.263C99.1779 127.213 98.0865 128.429 97.286 129.83C96.4854 131.231 95.994 132.785 95.8443 134.389C95.6945 135.993 95.89 137.61 96.4176 139.133C96.9452 140.656 97.7929 142.051 98.9045 143.223C100.016 144.396 101.366 145.321 102.865 145.936C104.364 146.551 105.977 146.842 107.598 146.791C109.219 146.739 110.81 146.345 112.266 145.636C113.722 144.927 115.01 143.918 116.043 142.677C114.431 143.847 112.539 144.578 110.554 144.795C108.569 145.013 106.562 144.71 104.732 143.918Z" fill="#4A4A7D"/>
</svg>
