<svg width="335" height="352" viewBox="0 0 335 352" fill="none" xmlns="http://www.w3.org/2000/svg">
<g clip-path="url(#clip0_5394_69078)">
<path d="M197.455 192.168L101.059 216.996C94.251 218.742 87.3148 214.645 85.5543 207.84L56.4018 94.6068C54.6567 87.7972 58.7522 80.8595 65.5564 79.0987L155.237 56L178.191 66.278L206.609 176.66C208.354 183.469 204.259 190.407 197.455 192.168Z" fill="#EDEDED"/>
<path d="M66.4706 82.649C61.6252 83.9027 58.7088 88.843 59.9515 93.6926L89.1041 206.925C90.3576 211.772 95.2968 214.689 100.145 213.446L196.541 188.618C201.386 187.364 204.303 182.424 203.06 177.574L175.082 68.9025L154.909 59.8702L66.4706 82.649Z" fill="white"/>
<path d="M177.946 66.8619L163.028 70.7043C160.76 71.2885 158.448 69.9232 157.864 67.6545L155.027 56.6336C154.99 56.492 155.076 56.3473 155.217 56.3107C155.275 56.2956 155.337 56.301 155.391 56.3249L177.988 66.3625C178.122 66.422 178.182 66.5786 178.123 66.7125C178.09 66.7866 178.025 66.8414 177.947 66.8615L177.946 66.8619Z" fill="#EDEDED"/>
<path d="M170.098 163.561L126.21 174.865C125.076 175.157 123.92 174.474 123.628 173.34C123.336 172.206 124.018 171.05 125.152 170.758L169.04 159.453C170.174 159.161 171.33 159.844 171.622 160.978C171.914 162.112 171.231 163.268 170.098 163.561Z" fill="#CECECE"/>
<path d="M180.351 168.31L127.994 181.796C126.86 182.087 125.705 181.403 125.414 180.268C125.123 179.135 125.805 177.982 126.937 177.689L179.294 164.203C180.428 163.911 181.584 164.594 181.876 165.728C182.168 166.862 181.485 168.018 180.351 168.31Z" fill="#CECECE"/>
<path d="M115.773 181.515C116.066 177.386 112.957 173.801 108.829 173.507C104.701 173.214 101.116 176.323 100.823 180.452C100.529 184.581 103.638 188.167 107.766 188.46C111.895 188.753 115.479 185.644 115.773 181.515Z" fill="#EDEDED"/>
<path d="M165.431 143.945L107.144 158.952C103.637 159.851 100.064 157.74 99.1573 154.234L86.9424 106.772C86.0438 103.264 88.1538 99.6902 91.659 98.7838L149.946 83.7766C153.453 82.8778 157.026 84.9883 157.933 88.4942L170.148 135.956C171.046 139.464 168.936 143.038 165.431 143.945Z" fill="white"/>
<path d="M165.431 143.945L107.144 158.952C103.637 159.851 100.064 157.74 99.1573 154.234L86.9424 106.772C86.0438 103.264 88.1538 99.6902 91.659 98.7838L149.946 83.7766C153.453 82.8778 157.026 84.9883 157.933 88.4942L170.148 135.956C171.046 139.464 168.936 143.038 165.431 143.945ZM91.8515 99.5312C88.7584 100.331 86.8969 103.484 87.6897 106.58L99.9046 154.042C100.704 157.136 103.857 158.998 106.952 158.205L165.239 143.198C168.332 142.398 170.194 139.244 169.401 136.149L157.186 88.6867C156.386 85.593 153.233 83.731 150.139 84.5241L91.8515 99.5312Z" fill="#EDEDED"/>
<path d="M146.989 99.735L117.572 107.309C117.039 107.458 116.481 107.168 116.296 106.646C116.127 106.111 116.424 105.541 116.958 105.372C116.976 105.367 116.993 105.362 117.011 105.357L146.955 97.6473C148.165 98.2605 147.847 99.5143 146.989 99.735Z" fill="#EDEDED"/>
<path d="M148.317 104.896L118.901 112.47C118.367 112.619 117.809 112.329 117.624 111.807C117.456 111.272 117.752 110.702 118.287 110.533C118.304 110.528 118.321 110.523 118.339 110.518L148.284 102.808C149.493 103.421 149.175 104.675 148.317 104.896H148.317Z" fill="#EDEDED"/>
<path d="M113.298 117.046L104.32 119.358C103.71 119.514 103.088 119.147 102.93 118.536L100.203 107.94C100.046 107.329 100.413 106.707 101.024 106.549L110.001 104.238C110.612 104.081 111.234 104.449 111.391 105.059L114.119 115.656C114.275 116.266 113.908 116.888 113.298 117.046Z" fill="#EDEDED"/>
<path d="M150.951 115.485L106.056 127.045C105.522 127.194 104.965 126.904 104.78 126.381C104.611 125.847 104.907 125.276 105.442 125.108C105.46 125.102 105.477 125.097 105.495 125.093L150.918 113.398C152.127 114.011 151.809 115.265 150.951 115.485Z" fill="#EDEDED"/>
<path d="M152.28 120.648L107.384 132.207C106.851 132.356 106.293 132.066 106.108 131.544C105.94 131.009 106.236 130.439 106.771 130.27C106.788 130.265 106.805 130.26 106.823 130.255L152.246 118.56C153.456 119.173 153.137 120.427 152.28 120.648Z" fill="#EDEDED"/>
<path d="M153.608 125.807L108.712 137.366C108.179 137.515 107.621 137.225 107.436 136.703C107.267 136.168 107.564 135.598 108.099 135.429C108.116 135.424 108.133 135.419 108.151 135.414L153.574 123.719C154.784 124.332 154.465 125.586 153.608 125.807Z" fill="#EDEDED"/>
<path d="M154.936 130.969L110.041 142.528C109.507 142.677 108.949 142.388 108.764 141.865C108.596 141.331 108.892 140.76 109.427 140.592C109.444 140.586 109.462 140.581 109.479 140.576L154.903 128.881C156.112 129.495 155.794 130.748 154.936 130.969Z" fill="#EDEDED"/>
<path d="M156.264 136.129L111.369 147.688C110.835 147.837 110.277 147.547 110.092 147.024C109.924 146.49 110.22 145.92 110.755 145.751C110.772 145.746 110.79 145.741 110.807 145.736L156.231 134.041C157.44 134.654 157.122 135.908 156.264 136.129Z" fill="#EDEDED"/>
<path d="M108.85 183.611C108.687 183.654 108.515 183.642 108.359 183.577L108.349 183.573L106.308 182.708C105.91 182.54 105.723 182.081 105.891 181.682C106.059 181.284 106.518 181.097 106.916 181.265C106.918 181.266 106.919 181.266 106.92 181.267L108.243 181.83L109.977 177.751C110.146 177.353 110.605 177.168 111.003 177.337L110.992 177.364L111.003 177.337C111.4 177.507 111.585 177.966 111.417 178.364L109.377 183.159C109.281 183.383 109.087 183.55 108.85 183.61V183.611Z" fill="white"/>
<path d="M234.428 235.318H134.888C127.86 235.31 122.164 229.613 122.156 222.583V105.656C122.164 98.6263 127.86 92.9297 134.888 92.9216H227.494L247.16 108.6V222.583C247.152 229.613 241.457 235.31 234.428 235.318Z" fill="#CECECE"/>
<path d="M134.888 96.5876C129.883 96.5934 125.827 100.65 125.821 105.656V222.583C125.827 227.59 129.883 231.646 134.888 231.652H234.428C239.433 231.646 243.489 227.59 243.495 222.583V110.366L226.212 96.5876H134.888Z" fill="white"/>
<path d="M215.068 130.587H169.748C168.577 130.586 167.629 129.636 167.631 128.464C167.632 127.295 168.579 126.347 169.748 126.346H215.068C216.239 126.345 217.189 127.293 217.19 128.464C217.191 129.636 216.243 130.586 215.072 130.587H215.068Z" fill="#6A6AF4"/>
<path d="M223.814 137.744H169.749C168.578 137.744 167.629 136.795 167.629 135.624C167.629 134.453 168.578 133.503 169.749 133.503H223.814C224.985 133.503 225.934 134.453 225.934 135.624C225.934 136.795 224.985 137.744 223.814 137.744Z" fill="#6A6AF4"/>
<path d="M215.068 158.42H169.75C168.579 158.418 167.629 159.366 167.628 160.537C167.626 161.709 168.574 162.659 169.745 162.661H215.068C216.239 162.659 217.187 161.709 217.186 160.537C217.184 159.369 216.237 158.421 215.068 158.42H215.068Z" fill="#CECECE"/>
<path d="M223.815 165.578H169.75C168.579 165.576 167.629 166.525 167.628 167.696C167.626 168.867 168.574 169.818 169.745 169.819H223.815C224.985 169.818 225.933 168.867 225.932 167.696C225.93 166.527 224.983 165.58 223.815 165.578Z" fill="#CECECE"/>
<path d="M215.068 194.737H169.748C168.577 194.736 167.629 193.785 167.631 192.614C167.632 191.445 168.579 190.497 169.748 190.496H215.068C216.239 190.495 217.189 191.443 217.19 192.614C217.191 193.785 216.243 194.736 215.072 194.737H215.068Z" fill="#CECECE"/>
<path d="M223.814 201.894H169.749C168.578 201.894 167.629 200.945 167.629 199.774C167.629 198.602 168.578 197.653 169.749 197.653H223.814C224.985 197.653 225.934 198.602 225.934 199.774C225.934 200.945 224.985 201.894 223.814 201.894Z" fill="#CECECE"/>
<path d="M150.877 139.54C155.015 139.54 158.37 136.185 158.37 132.045C158.37 127.906 155.015 124.55 150.877 124.55C146.738 124.55 143.383 127.906 143.383 132.045C143.383 136.185 146.738 139.54 150.877 139.54Z" fill="#6A6AF4"/>
<path d="M150.134 134.904C149.965 134.904 149.801 134.85 149.666 134.749L149.658 134.742L147.897 133.395C147.553 133.132 147.488 132.641 147.75 132.297C148.013 131.954 148.504 131.889 148.848 132.151L148.849 132.152L149.99 133.027L152.685 129.51C152.948 129.167 153.439 129.102 153.782 129.365L153.766 129.388L153.783 129.365C154.126 129.628 154.19 130.119 153.928 130.462L150.757 134.597C150.608 134.79 150.378 134.903 150.135 134.902L150.134 134.903V134.904Z" fill="white"/>
<path d="M159.14 164.119C159.142 168.259 155.788 171.616 151.65 171.617H151.648C151.583 171.619 151.519 171.616 151.455 171.61C147.318 171.504 144.05 168.063 144.156 163.925C144.262 159.787 147.702 156.518 151.839 156.624C155.902 156.729 159.141 160.054 159.14 164.119V164.119Z" fill="#CECECE"/>
<path d="M150.877 203.69C155.015 203.69 158.37 200.334 158.37 196.195C158.37 192.055 155.015 188.7 150.877 188.7C146.738 188.7 143.383 192.055 143.383 196.195C143.383 200.334 146.738 203.69 150.877 203.69Z" fill="#CECECE"/>
<path d="M246.777 109.105H231.372C229.03 109.105 227.132 107.206 227.132 104.864V93.483C227.132 93.3368 227.251 93.2179 227.397 93.2179C227.457 93.2179 227.515 93.238 227.562 93.275L246.942 108.632C247.057 108.723 247.076 108.89 246.985 109.004C246.935 109.068 246.859 109.105 246.778 109.105L246.777 109.105Z" fill="#CECECE"/>
<path d="M159.14 164.119C159.142 168.259 155.788 171.616 151.65 171.617H151.648C151.583 171.618 151.519 171.616 151.455 171.61C149.49 166.708 150.033 161.157 152.909 156.729C156.508 157.346 159.14 160.467 159.14 164.119Z" fill="#6A6AF4"/>
<path d="M167.628 160.542C167.63 159.371 168.579 158.422 169.75 158.42H181.043C181.703 159.761 182.172 161.189 182.436 162.661H169.75C168.58 162.661 167.631 161.713 167.628 160.542Z" fill="#6A6AF4"/>
<path d="M182.698 165.578C182.699 167.01 182.51 168.436 182.135 169.819H169.75C168.579 169.821 167.629 168.872 167.628 167.701C167.626 166.53 168.574 165.58 169.745 165.578H182.699H182.698Z" fill="#6A6AF4"/>
<path d="M210.64 191.733C209.974 192.825 208.549 193.17 207.458 192.504L180.449 176.026C179.357 175.36 179.013 173.935 179.678 172.844C180.344 171.752 181.768 171.407 182.86 172.073L209.869 188.551C210.96 189.217 211.305 190.641 210.64 191.733Z" fill="#4A4A7D"/>
<path d="M183.631 175.255C178.305 183.989 166.909 186.75 158.177 181.423C149.445 176.096 146.684 164.697 152.01 155.964C157.337 147.23 168.732 144.469 177.464 149.796C186.186 155.131 188.945 166.52 183.631 175.255ZM155.963 158.375C151.968 164.925 154.039 173.474 160.588 177.469C167.136 181.465 175.683 179.394 179.678 172.844C183.672 166.293 181.601 157.745 175.053 153.749C168.503 149.764 159.963 151.833 155.963 158.375Z" fill="#4A4A7D"/>
<path d="M242.966 168.58C248.199 168.58 252.442 164.336 252.442 159.102C252.442 153.867 248.199 149.623 242.966 149.623C237.732 149.623 233.49 153.867 233.49 159.102C233.49 164.336 237.732 168.58 242.966 168.58Z" fill="#AB7B6B"/>
<path d="M242.353 212.236C241.637 210.003 242.866 207.613 245.098 206.896C245.251 206.847 245.407 206.807 245.564 206.775C245.75 206.739 245.938 206.716 246.127 206.706L256.109 190.682L246.992 182.012C245.535 180.627 245.477 178.323 246.861 176.866C248.246 175.409 250.549 175.351 252.006 176.736C252.022 176.751 252.038 176.766 252.054 176.782L264.643 189.198L264.668 189.229C265.468 190.446 265.375 192.043 264.439 193.159L250.453 209.704C250.495 209.836 250.53 209.971 250.557 210.107C251.016 212.407 249.524 214.643 247.225 215.102C247.067 215.133 246.908 215.156 246.747 215.169C246.627 215.179 246.507 215.184 246.388 215.184C244.547 215.177 242.92 213.987 242.354 212.236L242.353 212.236Z" fill="#AB7B6B"/>
<path d="M227.359 291.012L222.629 291.012L220.378 272.764L227.359 272.764L227.359 291.012Z" fill="#AB7B6B"/>
<path d="M228.565 295.598H213.313V295.405C213.313 292.126 215.971 289.467 219.249 289.467H228.565V295.598Z" fill="#343434"/>
<path d="M274.373 284.471L270.308 286.891L259.041 272.364L265.039 268.792L274.373 284.471Z" fill="#AB7B6B"/>
<path d="M277.755 287.794L264.65 295.598L264.551 295.432C262.874 292.615 263.798 288.971 266.615 287.293L274.618 282.526L277.754 287.794L277.755 287.794Z" fill="#343434"/>
<path d="M219.782 282.976C216.613 245.657 214.728 210.988 226.312 196.846L226.401 196.736L245.895 204.536L245.927 204.605C245.992 204.749 252.476 219.012 250.963 228.606L255.772 250.729L271.45 276.986C271.942 277.809 271.673 278.876 270.849 279.368C270.788 279.404 270.724 279.437 270.658 279.466L263.845 282.465C263.05 282.81 262.122 282.52 261.666 281.783L244.612 253.968L234.979 232.633C234.847 232.341 234.504 232.212 234.213 232.344C234.026 232.428 233.897 232.606 233.875 232.81L228.536 283.014C228.443 283.898 227.698 284.569 226.809 284.567H221.513C220.612 284.562 219.863 283.873 219.782 282.976V282.976Z" fill="#272747"/>
<path d="M226.377 197.142L226.284 197.097L226.269 196.995C225.541 191.897 226.403 186.233 228.831 180.16C231.305 174.017 237.903 170.612 244.342 172.156C247.97 173.05 251.057 175.424 252.853 178.702C254.626 181.946 254.958 185.785 253.769 189.285C250.708 198.238 246.737 206.615 246.697 206.699L246.614 206.873L226.377 197.142Z" fill="#6A6AF4"/>
<path d="M205.109 184.444C206.949 182.991 209.618 183.305 211.071 185.145C211.17 185.272 211.263 185.403 211.347 185.54C211.446 185.701 211.534 185.87 211.609 186.043L230.111 189.783L235.037 178.205C235.824 176.355 237.961 175.494 239.81 176.282C241.66 177.069 242.52 179.207 241.733 181.056C241.725 181.076 241.716 181.096 241.707 181.116L234.488 197.258L234.468 197.293C233.609 198.469 232.08 198.94 230.708 198.455L210.316 191.145C210.206 191.231 210.093 191.31 209.975 191.384C207.981 192.619 205.365 192.004 204.13 190.011C204.046 189.874 203.969 189.733 203.9 189.587C203.848 189.478 203.801 189.368 203.759 189.256C203.122 187.529 203.666 185.588 205.109 184.444Z" fill="#AB7B6B"/>
<path d="M277.198 169.251C276.285 167.634 274.956 166.152 273.198 165.554C270.927 164.782 268.469 165.604 266.135 166.153C264.336 166.576 262.457 166.835 260.644 166.478C258.832 166.121 257.083 165.066 256.259 163.412C255.045 160.98 256.067 158.079 255.993 155.361C255.855 149.964 251.368 145.7 245.972 145.839C245.196 145.859 244.426 145.971 243.677 146.173C241.442 145.528 239.418 145.468 238.035 147.187C234.413 147.187 231.476 150.124 231.476 153.747H237.748C237.45 155.347 237.79 156.999 238.694 158.351C239.802 159.978 241.726 161.155 242.097 163.088C242.456 164.961 241.184 166.738 239.848 168.1C238.513 169.461 236.964 170.81 236.547 172.671C236.292 174.084 236.582 175.541 237.359 176.748C238.134 177.94 239.097 179 240.209 179.888C245.218 184.181 251.173 187.227 257.585 188.779C262.101 189.866 267.04 190.148 271.232 188.148C277.987 184.924 280.85 176.834 277.627 170.077C277.494 169.797 277.351 169.522 277.198 169.251Z" fill="#343434"/>
</g>
<defs>
<clipPath id="clip0_5394_69078">
<rect width="223" height="240" fill="white" transform="translate(56 56)"/>
</clipPath>
</defs>
</svg>
